G04 (created by PCBNEW (2013-may-18)-stable) date Sat Feb 17 15:10:41 2018*
%MOIN*%
G04 Gerber Fmt 3.4, Leading zero omitted, Abs format*
%FSLAX34Y34*%
G01*
G70*
G90*
G04 APERTURE LIST*
%ADD10C,0.00590551*%
%ADD11R,0.06X0.016*%
%ADD12R,0.016X0.06*%
%ADD13R,0.025X0.05*%
%ADD14R,0.06X0.08*%
%ADD15R,0.08X0.06*%
%ADD16R,0.025X0.045*%
%ADD17R,0.166929X0.05*%
%ADD18R,0.0551181X0.0748031*%
%ADD19R,0.015748X0.19685*%
%ADD20R,0.0394X0.0236*%
%ADD21R,0.00984252X0.0433071*%
%ADD22R,0.0669291X0.0590551*%
%ADD23R,0.03X0.02*%
%ADD24C,0.16*%
%ADD25R,0.216535X0.0590551*%
%ADD26C,0.055*%
%ADD27R,0.0236X0.0394*%
%ADD28R,0.05X0.025*%
%ADD29R,0.055X0.055*%
%ADD30R,0.0590551X0.0137795*%
%ADD31R,0.0393701X0.0137795*%
%ADD32C,0.0591*%
%ADD33C,0.1181*%
%ADD34R,0.01X0.0787402*%
%ADD35R,0.0787402X0.01*%
%ADD36R,0.011811X0.0433071*%
%ADD37R,0.0204724X0.0393701*%
%ADD38R,0.11811X0.0393701*%
%ADD39R,0.0393701X0.0787402*%
%ADD40C,0.035*%
%ADD41C,0.01*%
G04 APERTURE END LIST*
G54D10*
G54D11*
X72269Y-60059D03*
X72269Y-59744D03*
X72269Y-59429D03*
X72269Y-59114D03*
X72269Y-58799D03*
X72269Y-58484D03*
X72269Y-60374D03*
X72269Y-60689D03*
X72269Y-61004D03*
X72269Y-61319D03*
X72269Y-61634D03*
X67769Y-60059D03*
X67769Y-59744D03*
X67769Y-59429D03*
X67769Y-59114D03*
X67769Y-58799D03*
X67769Y-58484D03*
X67769Y-60374D03*
X67769Y-60689D03*
X67769Y-61004D03*
X67769Y-61319D03*
X67769Y-61634D03*
G54D12*
X70019Y-57809D03*
X70019Y-62309D03*
X69704Y-57809D03*
X69704Y-62309D03*
X69389Y-62309D03*
X69389Y-57809D03*
X69074Y-57809D03*
X69074Y-62309D03*
X68759Y-62309D03*
X68759Y-57809D03*
X68444Y-57809D03*
X68444Y-62309D03*
X70334Y-62309D03*
X70334Y-57809D03*
X70649Y-57809D03*
X70649Y-62309D03*
X70964Y-62309D03*
X70964Y-57809D03*
X71279Y-57809D03*
X71279Y-62309D03*
X71594Y-62309D03*
X71594Y-57809D03*
G54D13*
X87557Y-58289D03*
X87057Y-58289D03*
X86557Y-58289D03*
X86057Y-58289D03*
X85557Y-58289D03*
X85057Y-58289D03*
X84557Y-58289D03*
X84057Y-58289D03*
X84057Y-60489D03*
X84557Y-60489D03*
X85057Y-60489D03*
X85557Y-60489D03*
X86057Y-60489D03*
X86557Y-60489D03*
X87057Y-60489D03*
X87557Y-60489D03*
X78423Y-58329D03*
X77923Y-58329D03*
X77423Y-58329D03*
X76923Y-58329D03*
X76423Y-58329D03*
X75923Y-58329D03*
X75423Y-58329D03*
X74923Y-58329D03*
X74923Y-60529D03*
X75423Y-60529D03*
X75923Y-60529D03*
X76423Y-60529D03*
X76923Y-60529D03*
X77423Y-60529D03*
X77923Y-60529D03*
X78423Y-60529D03*
G54D14*
X76850Y-57381D03*
X75550Y-57381D03*
G54D15*
X54625Y-51142D03*
X54625Y-49842D03*
G54D14*
X58504Y-56397D03*
X57204Y-56397D03*
X58504Y-57539D03*
X57204Y-57539D03*
X58504Y-58681D03*
X57204Y-58681D03*
X58504Y-59822D03*
X57204Y-59822D03*
X58504Y-60964D03*
X57204Y-60964D03*
X56653Y-55059D03*
X55353Y-55059D03*
X64173Y-53287D03*
X62873Y-53287D03*
X64173Y-51830D03*
X62873Y-51830D03*
G54D15*
X55177Y-53701D03*
X55177Y-52401D03*
X56633Y-53701D03*
X56633Y-52401D03*
G54D14*
X59802Y-52145D03*
X61102Y-52145D03*
X59802Y-53681D03*
X61102Y-53681D03*
X62873Y-50413D03*
X64173Y-50413D03*
X76928Y-61909D03*
X78228Y-61909D03*
X58504Y-62106D03*
X57204Y-62106D03*
G54D15*
X67854Y-56181D03*
X67854Y-54881D03*
G54D14*
X90669Y-60885D03*
X89369Y-60885D03*
G54D15*
X60098Y-57598D03*
X60098Y-56298D03*
G54D14*
X64566Y-61318D03*
X65866Y-61318D03*
X64566Y-59744D03*
X65866Y-59744D03*
G54D15*
X90728Y-59606D03*
X90728Y-58306D03*
G54D16*
X58026Y-54114D03*
X58626Y-54114D03*
G54D17*
X65197Y-57830D03*
X62637Y-57830D03*
X65197Y-56830D03*
X62637Y-56830D03*
X65197Y-55830D03*
X62637Y-55830D03*
G54D18*
X61948Y-59625D03*
X61948Y-61358D03*
X62893Y-61358D03*
X62893Y-59625D03*
G54D19*
X89708Y-55294D03*
X89275Y-55294D03*
X88842Y-55294D03*
X88409Y-55294D03*
X87976Y-55294D03*
X87543Y-55294D03*
X87110Y-55294D03*
X86677Y-55294D03*
X86244Y-55294D03*
X85811Y-55294D03*
X85378Y-55294D03*
X84945Y-55294D03*
X84512Y-55294D03*
X84079Y-55294D03*
X83645Y-55294D03*
X83212Y-55294D03*
X82779Y-55294D03*
X82346Y-55294D03*
X81913Y-55294D03*
X81480Y-55294D03*
X81047Y-55294D03*
X80614Y-55294D03*
X80181Y-55294D03*
X79748Y-55294D03*
X79315Y-55294D03*
X78882Y-55294D03*
X78449Y-55294D03*
X78016Y-55294D03*
X77582Y-55294D03*
X77149Y-55294D03*
X76716Y-55294D03*
X76283Y-55294D03*
X75850Y-55294D03*
X74551Y-55294D03*
X74118Y-55294D03*
X73685Y-55294D03*
X73252Y-55294D03*
X71992Y-55294D03*
X71579Y-55294D03*
X71165Y-55294D03*
G54D20*
X55511Y-62362D03*
X55511Y-61850D03*
X56259Y-62106D03*
X55511Y-56653D03*
X55511Y-56141D03*
X56259Y-56397D03*
X55511Y-57795D03*
X55511Y-57283D03*
X56259Y-57539D03*
X55511Y-58937D03*
X55511Y-58425D03*
X56259Y-58681D03*
X55511Y-60078D03*
X55511Y-59566D03*
X56259Y-59822D03*
X55511Y-61220D03*
X55511Y-60708D03*
X56259Y-60964D03*
G54D21*
X55781Y-50295D03*
X55978Y-50295D03*
X56175Y-50295D03*
X56372Y-50295D03*
X56569Y-50295D03*
X56765Y-50295D03*
X56962Y-50295D03*
X57159Y-50295D03*
X57356Y-50295D03*
X57553Y-50295D03*
X57750Y-50295D03*
X57947Y-50295D03*
X58143Y-50295D03*
X58340Y-50295D03*
X58537Y-50295D03*
X58734Y-50295D03*
X58931Y-50295D03*
X59128Y-50295D03*
X59325Y-50295D03*
X59521Y-50295D03*
X59718Y-50295D03*
X59915Y-50295D03*
X60112Y-50295D03*
X60309Y-50295D03*
X60506Y-50295D03*
X60702Y-50295D03*
X60899Y-50295D03*
X61096Y-50295D03*
X61293Y-50295D03*
X61490Y-50295D03*
G54D22*
X55141Y-48755D03*
X62141Y-48755D03*
G54D23*
X57826Y-52321D03*
X57826Y-53071D03*
X58826Y-52321D03*
X57826Y-52696D03*
X58826Y-53071D03*
G54D13*
X82990Y-58329D03*
X82490Y-58329D03*
X81990Y-58329D03*
X81490Y-58329D03*
X80990Y-58329D03*
X80490Y-58329D03*
X79990Y-58329D03*
X79490Y-58329D03*
X79490Y-60529D03*
X79990Y-60529D03*
X80490Y-60529D03*
X80990Y-60529D03*
X81490Y-60529D03*
X81990Y-60529D03*
X82490Y-60529D03*
X82990Y-60529D03*
G54D14*
X67598Y-49232D03*
X68898Y-49232D03*
G54D24*
X90177Y-62460D03*
X60216Y-62421D03*
X66279Y-53090D03*
X70452Y-53090D03*
G54D25*
X90610Y-53011D03*
X93956Y-53011D03*
G54D18*
X96633Y-59625D03*
X96633Y-57893D03*
X95688Y-57893D03*
X95688Y-59625D03*
X86476Y-47736D03*
X86476Y-49468D03*
X87421Y-49468D03*
X87421Y-47736D03*
G54D26*
X106476Y-62685D03*
X106476Y-61685D03*
G54D27*
X106614Y-57244D03*
X106102Y-57244D03*
X106358Y-56496D03*
X78267Y-49074D03*
X77755Y-49074D03*
X78011Y-48326D03*
G54D20*
X93936Y-60432D03*
X93936Y-60944D03*
X93188Y-60688D03*
G54D23*
X93944Y-49292D03*
X93944Y-48542D03*
X92944Y-49292D03*
X93944Y-48917D03*
X92944Y-48542D03*
G54D28*
X105844Y-48998D03*
X105844Y-48498D03*
X105844Y-47998D03*
X105844Y-47498D03*
X103644Y-47498D03*
X103644Y-47998D03*
X103644Y-48498D03*
X103644Y-48998D03*
G54D14*
X63936Y-62736D03*
X65236Y-62736D03*
X75688Y-48523D03*
X76988Y-48523D03*
G54D15*
X105177Y-61574D03*
X105177Y-62874D03*
X105531Y-58779D03*
X105531Y-60079D03*
X102854Y-48975D03*
X102854Y-50275D03*
X94389Y-58504D03*
X94389Y-57204D03*
X106358Y-51378D03*
X106358Y-50078D03*
G54D14*
X94133Y-55019D03*
X95433Y-55019D03*
X84567Y-50531D03*
X83267Y-50531D03*
G54D15*
X87696Y-50865D03*
X87696Y-52165D03*
G54D14*
X84567Y-51948D03*
X83267Y-51948D03*
G54D15*
X88996Y-50865D03*
X88996Y-52165D03*
G54D14*
X104055Y-58917D03*
X102755Y-58917D03*
X103110Y-62696D03*
X101810Y-62696D03*
X97912Y-58169D03*
X99212Y-58169D03*
X97912Y-60098D03*
X99212Y-60098D03*
X83306Y-49153D03*
X84606Y-49153D03*
X104055Y-57657D03*
X102755Y-57657D03*
G54D15*
X95098Y-50512D03*
X95098Y-49212D03*
G54D14*
X95709Y-51633D03*
X94409Y-51633D03*
G54D29*
X108314Y-59346D03*
G54D26*
X107314Y-59346D03*
X108314Y-58346D03*
X107314Y-58346D03*
X108314Y-55346D03*
X107314Y-55346D03*
X108314Y-54346D03*
X107314Y-54346D03*
X108314Y-53346D03*
X107314Y-53346D03*
X108314Y-52346D03*
X108314Y-51346D03*
X107314Y-51346D03*
G54D30*
X105039Y-49911D03*
G54D31*
X105039Y-50167D03*
X105039Y-50423D03*
X105039Y-50679D03*
X104055Y-50679D03*
X104055Y-50423D03*
X104055Y-50167D03*
X104055Y-49911D03*
G54D29*
X91870Y-56086D03*
G54D26*
X91870Y-57086D03*
X91870Y-58086D03*
X91870Y-59086D03*
X91870Y-60086D03*
X91870Y-61086D03*
X91870Y-62086D03*
X91870Y-63086D03*
G54D29*
X72200Y-51909D03*
G54D26*
X73200Y-51909D03*
X74200Y-51909D03*
X75200Y-51909D03*
G54D32*
X94997Y-61751D03*
X95997Y-61751D03*
X96797Y-61751D03*
X97797Y-61751D03*
G54D33*
X93797Y-62801D03*
X99197Y-62801D03*
G54D34*
X99685Y-50197D03*
X99882Y-50197D03*
X100079Y-50197D03*
X99488Y-50197D03*
G54D35*
X98937Y-50748D03*
X98937Y-50945D03*
X98937Y-51142D03*
X98937Y-51339D03*
X98937Y-51535D03*
X98937Y-51732D03*
X98937Y-51929D03*
X98937Y-52125D03*
G54D34*
X100866Y-52677D03*
X99488Y-52677D03*
X99685Y-52677D03*
X99882Y-52677D03*
X100079Y-52677D03*
X100275Y-52677D03*
X100472Y-52677D03*
X100669Y-52677D03*
G54D35*
X101417Y-52125D03*
X101417Y-51929D03*
X101417Y-51732D03*
X101417Y-51535D03*
X101417Y-51339D03*
X101417Y-51142D03*
X101417Y-50945D03*
X101417Y-50748D03*
G54D34*
X100866Y-50197D03*
X100669Y-50197D03*
X100472Y-50197D03*
X100275Y-50197D03*
G54D33*
X100177Y-51437D03*
G54D36*
X64412Y-48809D03*
X64212Y-48809D03*
X64012Y-48809D03*
G54D37*
X64692Y-48309D03*
X63732Y-48309D03*
G54D36*
X67910Y-51997D03*
X68110Y-51997D03*
X68310Y-51997D03*
G54D37*
X67630Y-52497D03*
X68590Y-52497D03*
G54D38*
X54094Y-48649D03*
X54094Y-47649D03*
G54D21*
X73065Y-46614D03*
X73262Y-46614D03*
X73458Y-46614D03*
X73655Y-46614D03*
X73852Y-46614D03*
X74049Y-46614D03*
X74246Y-46614D03*
X74443Y-46614D03*
X74640Y-46614D03*
X74836Y-46614D03*
X75033Y-46614D03*
X75230Y-46614D03*
X75427Y-46614D03*
X75624Y-46614D03*
X75821Y-46614D03*
X76017Y-46614D03*
X76214Y-46614D03*
X76411Y-46614D03*
X76608Y-46614D03*
X76805Y-46614D03*
X77002Y-46614D03*
X77199Y-46614D03*
X77395Y-46614D03*
X77592Y-46614D03*
X77789Y-46614D03*
X77986Y-46614D03*
X78183Y-46614D03*
X78380Y-46614D03*
X78577Y-46614D03*
X78773Y-46614D03*
G54D22*
X72425Y-45074D03*
X83362Y-45074D03*
G54D21*
X78970Y-46614D03*
X79167Y-46614D03*
X79364Y-46614D03*
X79561Y-46614D03*
X79758Y-46614D03*
X79954Y-46614D03*
X80151Y-46614D03*
X80348Y-46614D03*
X80545Y-46614D03*
X80742Y-46614D03*
X80939Y-46614D03*
X81136Y-46614D03*
X81332Y-46614D03*
X81529Y-46614D03*
X81726Y-46614D03*
X81923Y-46614D03*
X82120Y-46614D03*
X82317Y-46614D03*
X82514Y-46614D03*
X82710Y-46614D03*
G54D15*
X92637Y-57302D03*
X92637Y-58602D03*
X76181Y-53268D03*
X76181Y-51968D03*
G54D14*
X104252Y-53759D03*
X102952Y-53759D03*
X104665Y-51771D03*
X103365Y-51771D03*
X88188Y-47992D03*
X89488Y-47992D03*
X91594Y-47992D03*
X90294Y-47992D03*
X92952Y-47618D03*
X94252Y-47618D03*
X90650Y-49980D03*
X89350Y-49980D03*
X90650Y-49035D03*
X89350Y-49035D03*
G54D15*
X93169Y-55216D03*
X93169Y-56516D03*
G54D14*
X95176Y-47893D03*
X96476Y-47893D03*
G54D15*
X97244Y-56555D03*
X97244Y-55255D03*
G54D14*
X98346Y-53248D03*
X97046Y-53248D03*
G54D39*
X74842Y-43818D03*
X75236Y-42834D03*
X75629Y-43818D03*
X76023Y-42834D03*
X76417Y-43818D03*
X76811Y-42834D03*
X77204Y-43818D03*
X77598Y-42834D03*
X77992Y-43818D03*
X78385Y-42834D03*
X78779Y-43818D03*
X79173Y-42834D03*
X79566Y-43818D03*
X79960Y-42834D03*
X80354Y-43818D03*
X80748Y-42834D03*
X81141Y-43818D03*
X81535Y-42834D03*
X81929Y-43818D03*
X82322Y-42834D03*
X82716Y-43818D03*
G54D29*
X72266Y-50769D03*
G54D26*
X73266Y-50769D03*
X74266Y-50769D03*
X75266Y-50769D03*
X76266Y-50769D03*
X77266Y-50769D03*
X78266Y-50769D03*
X79266Y-50769D03*
X80266Y-50769D03*
X79256Y-49767D03*
X79266Y-48857D03*
X79256Y-47917D03*
X72266Y-49775D03*
X73226Y-49775D03*
X74236Y-49775D03*
X75266Y-49775D03*
X76256Y-49787D03*
X77256Y-49775D03*
X78246Y-49775D03*
G54D40*
X56909Y-49311D03*
X63956Y-49389D03*
X54114Y-50452D03*
X55452Y-53051D03*
X56240Y-52972D03*
X57185Y-52972D03*
X58562Y-53484D03*
X58523Y-49744D03*
X62106Y-49783D03*
X84389Y-61122D03*
X83681Y-61791D03*
X76043Y-61909D03*
X79232Y-61988D03*
X80019Y-61082D03*
X80098Y-61948D03*
X75492Y-61948D03*
X79783Y-62303D03*
X81240Y-62303D03*
X83838Y-61122D03*
X79468Y-61161D03*
X58090Y-49704D03*
X89822Y-59940D03*
X88129Y-60452D03*
X88011Y-59271D03*
X70570Y-61633D03*
X75098Y-62263D03*
X81988Y-59114D03*
X74153Y-61751D03*
X73051Y-59074D03*
X66751Y-55649D03*
X70295Y-56515D03*
X66830Y-55137D03*
X70255Y-55925D03*
X59074Y-53405D03*
X57381Y-52303D03*
X53937Y-49153D03*
X54232Y-61870D03*
X59783Y-48444D03*
X59783Y-49744D03*
X59783Y-49114D03*
X58641Y-48444D03*
X54232Y-60728D03*
X58641Y-50807D03*
X54271Y-59625D03*
X58917Y-51122D03*
X54311Y-57460D03*
X59586Y-51200D03*
X54232Y-58444D03*
X59271Y-50846D03*
X54783Y-55688D03*
X60019Y-51161D03*
X57618Y-49665D03*
X58248Y-49074D03*
X57381Y-49291D03*
X57618Y-51850D03*
X57421Y-54074D03*
X92637Y-59212D03*
X93956Y-59291D03*
X88582Y-49940D03*
X88681Y-49468D03*
X103248Y-60137D03*
X102303Y-52303D03*
X102736Y-52263D03*
X103523Y-61476D03*
X93622Y-47559D03*
X74271Y-48011D03*
X74547Y-47598D03*
X83661Y-47598D03*
X80590Y-47795D03*
X80137Y-48090D03*
X84192Y-47303D03*
X82185Y-52814D03*
X81751Y-52755D03*
X85019Y-49862D03*
X81181Y-50334D03*
X82145Y-45905D03*
X74271Y-46003D03*
X77047Y-47736D03*
X74133Y-48425D03*
X96220Y-57204D03*
X97992Y-56614D03*
X91751Y-54940D03*
X92244Y-47637D03*
X95925Y-60728D03*
X96614Y-48976D03*
X81082Y-48326D03*
X101712Y-50295D03*
X105925Y-60846D03*
X105492Y-56791D03*
X103799Y-52775D03*
X103405Y-59429D03*
X93326Y-59704D03*
X95531Y-58799D03*
X103484Y-50807D03*
X105925Y-49507D03*
X106437Y-48366D03*
X99153Y-52775D03*
X99389Y-48759D03*
X95059Y-57185D03*
X95964Y-55019D03*
X87657Y-53287D03*
X94429Y-48681D03*
X85846Y-49271D03*
X83917Y-49114D03*
X98248Y-51318D03*
X106122Y-55728D03*
X103562Y-55688D03*
X103248Y-56948D03*
X103444Y-58326D03*
X106358Y-55255D03*
X103877Y-55255D03*
X103208Y-55452D03*
X102185Y-55452D03*
X106161Y-58248D03*
X105767Y-57578D03*
X102106Y-56948D03*
X102696Y-55492D03*
X101988Y-59822D03*
X101338Y-55098D03*
X85807Y-52066D03*
X99665Y-61397D03*
X101397Y-60216D03*
X101791Y-53366D03*
X90964Y-50688D03*
X90295Y-50688D03*
X85374Y-51555D03*
X94527Y-57913D03*
X94311Y-50374D03*
X88917Y-53287D03*
X93956Y-50649D03*
X99822Y-60059D03*
X101003Y-53641D03*
X100925Y-59822D03*
X91948Y-48976D03*
X92204Y-51377D03*
X89704Y-52303D03*
X86948Y-52539D03*
X97342Y-60807D03*
X101200Y-54665D03*
X101830Y-60216D03*
X101437Y-61476D03*
X85649Y-51240D03*
X98799Y-46850D03*
X105177Y-51003D03*
X100846Y-48405D03*
X104192Y-48208D03*
X102303Y-48366D03*
X99370Y-48090D03*
X105610Y-50688D03*
X101515Y-48444D03*
X99862Y-48759D03*
X92775Y-52381D03*
X78818Y-52460D03*
X78818Y-53405D03*
X76318Y-48858D03*
X101141Y-47618D03*
X95767Y-49074D03*
X102185Y-51555D03*
X106909Y-48326D03*
X98051Y-49586D03*
X102972Y-48248D03*
X97893Y-48877D03*
X102185Y-51122D03*
X99114Y-50413D03*
X96417Y-53444D03*
X96889Y-51633D03*
X94389Y-49881D03*
X99586Y-56594D03*
X96555Y-55334D03*
X99783Y-59389D03*
X99665Y-57303D03*
X102381Y-62381D03*
X94783Y-56633D03*
X93877Y-56614D03*
X92145Y-50098D03*
X92106Y-49389D03*
X88051Y-49035D03*
X86988Y-50846D03*
X85767Y-47578D03*
X81948Y-48326D03*
X99271Y-53405D03*
X101318Y-52500D03*
X97342Y-55925D03*
X96082Y-55964D03*
X93956Y-55846D03*
X68799Y-58641D03*
X63917Y-58169D03*
X90177Y-56082D03*
X71594Y-59940D03*
X69704Y-62893D03*
X86003Y-56712D03*
X71594Y-60413D03*
X90452Y-55610D03*
X70688Y-59744D03*
X90767Y-55255D03*
X70059Y-59822D03*
X90374Y-54822D03*
X89350Y-57657D03*
X69074Y-61003D03*
X66673Y-62736D03*
X66633Y-61515D03*
X70413Y-60452D03*
X73917Y-62145D03*
X85570Y-62500D03*
X87027Y-56712D03*
X69940Y-60846D03*
X73208Y-62342D03*
X87066Y-62106D03*
X86476Y-56712D03*
X63917Y-55610D03*
X66712Y-56358D03*
X66988Y-58169D03*
X73051Y-60767D03*
X73996Y-58051D03*
X74429Y-57696D03*
X73562Y-60531D03*
X88799Y-63208D03*
X56751Y-51830D03*
X56082Y-54389D03*
X56318Y-51830D03*
X55885Y-52696D03*
X55452Y-50295D03*
X63523Y-53720D03*
X64704Y-49507D03*
X90728Y-58996D03*
X87933Y-61633D03*
X86082Y-61830D03*
X90019Y-60688D03*
X63996Y-56948D03*
X63720Y-59783D03*
X61594Y-60334D03*
X70374Y-58562D03*
X66830Y-59389D03*
X67775Y-62421D03*
X74192Y-60885D03*
X75255Y-54625D03*
X69783Y-54665D03*
X75807Y-61122D03*
X78641Y-57539D03*
X75452Y-56633D03*
X79822Y-59114D03*
X84114Y-58956D03*
X86555Y-59783D03*
X85492Y-56712D03*
X98248Y-51751D03*
X94862Y-52322D03*
X107696Y-55885D03*
X83720Y-49862D03*
X83917Y-51358D03*
X86279Y-52854D03*
X105295Y-49547D03*
X102696Y-61555D03*
X99271Y-59271D03*
X103444Y-57775D03*
X82696Y-49468D03*
X90688Y-52381D03*
X93602Y-53818D03*
X93602Y-54370D03*
X90393Y-52066D03*
X95866Y-47657D03*
X94586Y-56003D03*
X96279Y-51574D03*
X96555Y-51889D03*
X95177Y-55885D03*
X76240Y-57421D03*
X79074Y-59586D03*
X81397Y-58917D03*
X81003Y-56751D03*
X99507Y-58799D03*
X106712Y-53877D03*
X106791Y-52893D03*
X80885Y-58996D03*
X80177Y-56909D03*
X86909Y-48366D03*
X87578Y-48720D03*
X84271Y-53326D03*
X83917Y-52066D03*
X76909Y-59822D03*
X78877Y-56988D03*
X83838Y-50492D03*
X79232Y-57657D03*
X78877Y-59074D03*
X78484Y-56673D03*
X77381Y-59901D03*
X77972Y-56909D03*
X77933Y-58956D03*
X94862Y-53956D03*
X77500Y-57027D03*
X76397Y-59783D03*
X85019Y-56673D03*
X86200Y-61043D03*
X84468Y-59744D03*
X84547Y-56633D03*
X84114Y-57263D03*
X83287Y-57224D03*
X82421Y-56870D03*
X83405Y-59074D03*
X83090Y-59862D03*
X81948Y-56751D03*
X82460Y-61161D03*
X81476Y-56673D03*
X69192Y-62933D03*
X71594Y-61673D03*
X68838Y-51633D03*
X68484Y-50728D03*
X67893Y-50649D03*
X70492Y-49547D03*
X57854Y-62106D03*
X61318Y-50767D03*
X63169Y-49153D03*
X63523Y-50728D03*
X62145Y-50610D03*
X62854Y-48444D03*
X61751Y-53681D03*
X62185Y-52500D03*
X62145Y-51633D03*
X57893Y-56397D03*
X55216Y-49350D03*
X57854Y-59822D03*
X57854Y-57539D03*
X57854Y-58681D03*
X57854Y-60964D03*
X54586Y-50492D03*
X62460Y-53917D03*
X60334Y-54665D03*
X58877Y-54704D03*
X58996Y-55334D03*
X61515Y-49783D03*
X60570Y-49783D03*
X62854Y-58641D03*
X60688Y-58641D03*
X85255Y-61318D03*
X68720Y-62854D03*
X69822Y-58917D03*
X74389Y-58799D03*
X72106Y-56830D03*
X71240Y-56594D03*
X74507Y-61279D03*
X81830Y-61122D03*
X80846Y-61161D03*
X80137Y-59744D03*
X83129Y-61161D03*
X54980Y-47637D03*
X53602Y-49724D03*
X53858Y-62874D03*
X59862Y-55688D03*
X61043Y-54744D03*
X72578Y-55688D03*
X59232Y-52736D03*
G54D41*
X71240Y-60492D02*
X71200Y-60531D01*
X56958Y-52076D02*
X56958Y-52057D01*
X56962Y-50702D02*
X56962Y-50295D01*
X57066Y-51948D02*
X57066Y-50807D01*
X57066Y-50807D02*
X56962Y-50702D01*
X56958Y-52057D02*
X57066Y-51948D01*
X56962Y-50295D02*
X56962Y-49954D01*
X56962Y-49954D02*
X56870Y-49862D01*
X56870Y-49862D02*
X56909Y-49311D01*
X64432Y-49111D02*
X64432Y-48868D01*
X64432Y-49268D02*
X64432Y-49111D01*
X64429Y-49271D02*
X64432Y-49268D01*
X64232Y-49271D02*
X64429Y-49271D01*
X64114Y-49389D02*
X64232Y-49271D01*
X63956Y-49389D02*
X64114Y-49389D01*
X56962Y-52072D02*
X56958Y-52076D01*
X56958Y-52076D02*
X56633Y-52401D01*
X55177Y-52401D02*
X56633Y-52401D01*
X57185Y-52972D02*
X56240Y-52972D01*
X54114Y-52972D02*
X54114Y-50452D01*
X54153Y-53011D02*
X54114Y-52972D01*
X55413Y-53011D02*
X54153Y-53011D01*
X55452Y-53051D02*
X55413Y-53011D01*
X57185Y-52972D02*
X57145Y-53011D01*
X58562Y-53335D02*
X58826Y-53071D01*
X58562Y-53484D02*
X58562Y-53335D01*
X62873Y-50413D02*
X62736Y-50413D01*
X62736Y-50413D02*
X62106Y-49783D01*
X58340Y-52585D02*
X58826Y-53071D01*
X58340Y-50295D02*
X58340Y-52585D01*
X58537Y-49758D02*
X58537Y-50295D01*
X58523Y-49744D02*
X58537Y-49758D01*
X58340Y-50295D02*
X58537Y-50295D01*
X75923Y-60529D02*
X75923Y-60765D01*
X75923Y-60765D02*
X76279Y-61122D01*
X76279Y-61122D02*
X78562Y-61122D01*
X79350Y-61515D02*
X79311Y-61515D01*
X78956Y-61122D02*
X79350Y-61515D01*
X78562Y-61122D02*
X78956Y-61122D01*
X72269Y-59429D02*
X73838Y-59429D01*
X75923Y-60017D02*
X75923Y-60529D01*
X75570Y-59665D02*
X75923Y-60017D01*
X74074Y-59665D02*
X75570Y-59665D01*
X73838Y-59429D02*
X74074Y-59665D01*
X80433Y-61496D02*
X84527Y-61496D01*
X85057Y-60966D02*
X85057Y-60489D01*
X84527Y-61496D02*
X85057Y-60966D01*
X80490Y-61438D02*
X80490Y-60489D01*
X80413Y-61515D02*
X80433Y-61496D01*
X80433Y-61496D02*
X80490Y-61438D01*
X79311Y-61515D02*
X80413Y-61515D01*
X84389Y-61122D02*
X84557Y-60954D01*
X84557Y-60489D02*
X84557Y-60954D01*
X83681Y-61791D02*
X83523Y-61948D01*
X83523Y-61948D02*
X83366Y-61948D01*
X80098Y-61948D02*
X79271Y-61948D01*
X75452Y-61122D02*
X75423Y-61122D01*
X75423Y-61151D02*
X75452Y-61122D01*
X75423Y-61289D02*
X75423Y-61151D01*
X76043Y-61909D02*
X75423Y-61289D01*
X79271Y-61948D02*
X79232Y-61988D01*
X75423Y-60529D02*
X75423Y-60108D01*
X73720Y-59744D02*
X72269Y-59744D01*
X73877Y-59901D02*
X73720Y-59744D01*
X75216Y-59901D02*
X73877Y-59901D01*
X75423Y-60108D02*
X75216Y-59901D01*
X80098Y-61948D02*
X83366Y-61948D01*
X83366Y-61948D02*
X83523Y-61948D01*
X75423Y-60529D02*
X75423Y-61122D01*
X75423Y-61122D02*
X75423Y-61210D01*
X79990Y-61053D02*
X79990Y-60489D01*
X80019Y-61082D02*
X79990Y-61053D01*
X71594Y-57809D02*
X71594Y-55309D01*
X71594Y-55309D02*
X71579Y-55294D01*
X75452Y-61751D02*
X75452Y-61909D01*
X74923Y-61379D02*
X75295Y-61751D01*
X74923Y-60529D02*
X74923Y-61379D01*
X75295Y-61751D02*
X75452Y-61751D01*
X75452Y-61909D02*
X75492Y-61948D01*
X79822Y-62342D02*
X81240Y-62303D01*
X79783Y-62303D02*
X79822Y-62342D01*
X84057Y-60903D02*
X84057Y-60489D01*
X83838Y-61122D02*
X84057Y-60903D01*
X72269Y-60059D02*
X73641Y-60059D01*
X74111Y-60529D02*
X74923Y-60529D01*
X73641Y-60059D02*
X74111Y-60529D01*
X79490Y-61139D02*
X79490Y-60489D01*
X79468Y-61161D02*
X79490Y-61139D01*
X58143Y-50295D02*
X58183Y-49797D01*
X58183Y-49797D02*
X58090Y-49704D01*
X89822Y-59940D02*
X90394Y-59940D01*
X90394Y-59940D02*
X90728Y-59606D01*
X88011Y-63051D02*
X88090Y-63051D01*
X88326Y-60649D02*
X88129Y-60452D01*
X88326Y-62814D02*
X88326Y-60649D01*
X88090Y-63051D02*
X88326Y-62814D01*
X86555Y-63051D02*
X88011Y-63051D01*
X70019Y-62309D02*
X70019Y-62972D01*
X70098Y-63051D02*
X70019Y-62972D01*
X82342Y-63051D02*
X70098Y-63051D01*
X82814Y-63051D02*
X82342Y-63051D01*
X86555Y-63051D02*
X82814Y-63051D01*
X86557Y-58289D02*
X86557Y-58840D01*
X86988Y-59271D02*
X88011Y-59271D01*
X86557Y-58840D02*
X86988Y-59271D01*
X70452Y-61633D02*
X70570Y-61633D01*
X70334Y-61791D02*
X70295Y-61751D01*
X70334Y-62309D02*
X70334Y-61791D01*
X70570Y-61791D02*
X70452Y-61633D01*
X70295Y-61751D02*
X70570Y-61791D01*
X70570Y-61633D02*
X70570Y-61633D01*
X76456Y-62381D02*
X76928Y-61909D01*
X75216Y-62381D02*
X76456Y-62381D01*
X75098Y-62263D02*
X75216Y-62381D01*
X81990Y-58289D02*
X81990Y-59112D01*
X81990Y-59112D02*
X81988Y-59114D01*
X74153Y-59429D02*
X73799Y-59074D01*
X73799Y-59074D02*
X73051Y-59074D01*
X76850Y-57381D02*
X77381Y-57381D01*
X77423Y-57423D02*
X77423Y-58329D01*
X77381Y-57381D02*
X77423Y-57423D01*
X70649Y-62851D02*
X70649Y-62309D01*
X70649Y-62851D02*
X70649Y-62851D01*
X71988Y-62851D02*
X70649Y-62851D01*
X72893Y-61945D02*
X71988Y-62851D01*
X74153Y-61751D02*
X72893Y-61945D01*
X74153Y-61751D02*
X74153Y-61751D01*
X77423Y-58329D02*
X77423Y-58915D01*
X76948Y-59429D02*
X74153Y-59429D01*
X77423Y-58915D02*
X76948Y-59429D01*
X64940Y-54429D02*
X60531Y-54429D01*
X65767Y-55255D02*
X64940Y-54429D01*
X60531Y-54429D02*
X60374Y-54271D01*
X60309Y-50295D02*
X60334Y-50321D01*
X60334Y-50321D02*
X60334Y-51515D01*
X60334Y-51515D02*
X60374Y-51555D01*
X60374Y-54232D02*
X60374Y-51555D01*
X60374Y-54271D02*
X60374Y-54232D01*
X60295Y-50309D02*
X60309Y-50295D01*
X66358Y-55255D02*
X65767Y-55255D01*
X66751Y-55649D02*
X66358Y-55255D01*
X70649Y-57809D02*
X70649Y-56870D01*
X70649Y-56870D02*
X70295Y-56515D01*
X60570Y-54232D02*
X65059Y-54232D01*
X65059Y-54232D02*
X65846Y-55019D01*
X60506Y-50295D02*
X60531Y-50321D01*
X60570Y-51583D02*
X60570Y-54232D01*
X60610Y-51583D02*
X60570Y-51583D01*
X60570Y-51543D02*
X60610Y-51583D01*
X60570Y-51504D02*
X60570Y-51543D01*
X60570Y-50846D02*
X60570Y-51504D01*
X60559Y-50846D02*
X60570Y-50846D01*
X60531Y-50688D02*
X60559Y-50846D01*
X60531Y-50321D02*
X60531Y-50688D01*
X70964Y-57809D02*
X70964Y-56870D01*
X70964Y-56870D02*
X70807Y-56712D01*
X66712Y-55019D02*
X65846Y-55019D01*
X66830Y-55137D02*
X66712Y-55019D01*
X70807Y-56476D02*
X70255Y-55925D01*
X70807Y-56712D02*
X70807Y-56476D01*
X57159Y-50295D02*
X57159Y-50663D01*
X57303Y-52224D02*
X57381Y-52303D01*
X57303Y-50807D02*
X57303Y-52224D01*
X57159Y-50663D02*
X57303Y-50807D01*
X57826Y-52321D02*
X57400Y-52321D01*
X59192Y-53523D02*
X59802Y-53681D01*
X59074Y-53405D02*
X59192Y-53523D01*
X57400Y-52321D02*
X57381Y-52303D01*
X55688Y-48208D02*
X53543Y-48208D01*
X53543Y-48208D02*
X53346Y-48405D01*
X53937Y-49153D02*
X53326Y-49271D01*
X53326Y-49271D02*
X53346Y-49251D01*
X53346Y-49251D02*
X53346Y-48405D01*
X54252Y-61850D02*
X55511Y-61850D01*
X54232Y-61870D02*
X54252Y-61850D01*
X56574Y-48818D02*
X56299Y-48818D01*
X56299Y-48818D02*
X55688Y-48208D01*
X59901Y-50281D02*
X59901Y-49862D01*
X59901Y-49862D02*
X59783Y-49744D01*
X59783Y-49114D02*
X59783Y-48444D01*
X59915Y-50295D02*
X59901Y-50281D01*
X56909Y-48484D02*
X56574Y-48818D01*
X56574Y-48818D02*
X56555Y-48838D01*
X58641Y-48444D02*
X56909Y-48484D01*
X54252Y-60708D02*
X55511Y-60708D01*
X54232Y-60728D02*
X54252Y-60708D01*
X58734Y-50295D02*
X58734Y-50714D01*
X58734Y-50714D02*
X58641Y-50807D01*
X54330Y-59566D02*
X55511Y-59566D01*
X54271Y-59625D02*
X54330Y-59566D01*
X58931Y-50295D02*
X58956Y-50321D01*
X58956Y-51082D02*
X58917Y-51122D01*
X58956Y-50321D02*
X58956Y-51082D01*
X54488Y-57283D02*
X55511Y-57283D01*
X54311Y-57460D02*
X54488Y-57283D01*
X59507Y-50309D02*
X59507Y-50649D01*
X59507Y-50649D02*
X59625Y-50767D01*
X59625Y-50767D02*
X59625Y-50846D01*
X59625Y-50846D02*
X59625Y-51043D01*
X59625Y-51043D02*
X59625Y-51161D01*
X59625Y-51161D02*
X59586Y-51200D01*
X59521Y-50295D02*
X59507Y-50309D01*
X54252Y-58425D02*
X55511Y-58425D01*
X54232Y-58444D02*
X54252Y-58425D01*
X59128Y-50295D02*
X59153Y-50321D01*
X59153Y-50728D02*
X59271Y-50846D01*
X59153Y-50321D02*
X59153Y-50728D01*
X55236Y-56141D02*
X55511Y-56141D01*
X54783Y-55688D02*
X55236Y-56141D01*
X59739Y-50316D02*
X59739Y-50644D01*
X59739Y-50644D02*
X59862Y-50767D01*
X59862Y-50767D02*
X59862Y-51003D01*
X59862Y-51003D02*
X60019Y-51161D01*
X59718Y-50295D02*
X59739Y-50316D01*
X57947Y-50295D02*
X57947Y-51923D01*
X57947Y-51923D02*
X58129Y-52106D01*
X58129Y-52106D02*
X58129Y-53617D01*
X58129Y-53617D02*
X58626Y-54114D01*
X57750Y-49797D02*
X57750Y-50295D01*
X57618Y-49665D02*
X57750Y-49797D01*
X57381Y-49291D02*
X57381Y-49330D01*
X57145Y-49625D02*
X57503Y-49984D01*
X57145Y-49566D02*
X57145Y-49625D01*
X57381Y-49330D02*
X57145Y-49566D01*
X64232Y-48366D02*
X64232Y-48789D01*
X63484Y-48129D02*
X63484Y-48031D01*
X63917Y-47933D02*
X64114Y-48129D01*
X63582Y-47933D02*
X63917Y-47933D01*
X63484Y-48031D02*
X63582Y-47933D01*
X64114Y-48129D02*
X64232Y-48366D01*
X59586Y-48129D02*
X63484Y-48129D01*
X64232Y-48789D02*
X64212Y-48809D01*
X58248Y-49074D02*
X58523Y-49074D01*
X58641Y-49074D02*
X59586Y-48129D01*
X58523Y-49074D02*
X58641Y-49074D01*
X59586Y-48129D02*
X59586Y-48169D01*
X59586Y-48169D02*
X59586Y-48129D01*
X57553Y-50295D02*
X57503Y-49984D01*
X57618Y-51850D02*
X57618Y-50807D01*
X57356Y-50624D02*
X57356Y-50295D01*
X57381Y-50649D02*
X57356Y-50624D01*
X57460Y-50649D02*
X57381Y-50649D01*
X57618Y-50807D02*
X57460Y-50649D01*
X57592Y-51825D02*
X57618Y-51850D01*
X57421Y-54074D02*
X56653Y-54842D01*
X56653Y-54842D02*
X56653Y-55059D01*
X92637Y-58602D02*
X92638Y-58602D01*
X95787Y-61751D02*
X95997Y-61751D01*
X92638Y-58602D02*
X95787Y-61751D01*
X92637Y-59212D02*
X92637Y-58602D01*
X93745Y-59483D02*
X93764Y-59483D01*
X93764Y-59483D02*
X93956Y-59291D01*
X93169Y-58769D02*
X93169Y-58907D01*
X95541Y-61279D02*
X95688Y-61279D01*
X93169Y-58907D02*
X93745Y-59483D01*
X93745Y-59483D02*
X95541Y-61279D01*
X93169Y-58769D02*
X93169Y-56516D01*
X96797Y-61751D02*
X96403Y-61358D01*
X96082Y-61279D02*
X96161Y-61358D01*
X95688Y-61279D02*
X96082Y-61279D01*
X96161Y-61358D02*
X96403Y-61358D01*
X89350Y-49980D02*
X89429Y-49980D01*
X90177Y-48109D02*
X90294Y-47992D01*
X90177Y-49232D02*
X90177Y-48109D01*
X89429Y-49980D02*
X90177Y-49232D01*
X88582Y-49940D02*
X89310Y-49940D01*
X89310Y-49940D02*
X89350Y-49980D01*
X88681Y-49940D02*
X88582Y-49940D01*
X89350Y-49035D02*
X89350Y-48130D01*
X89350Y-48130D02*
X89488Y-47992D01*
X89350Y-49035D02*
X89114Y-49035D01*
X89114Y-49035D02*
X88681Y-49468D01*
X102303Y-52303D02*
X102303Y-52244D01*
X102775Y-51771D02*
X103365Y-51771D01*
X102303Y-52244D02*
X102775Y-51771D01*
X102736Y-60137D02*
X103248Y-60137D01*
X101555Y-58956D02*
X102736Y-60137D01*
X101555Y-56003D02*
X101555Y-58956D01*
X101673Y-55885D02*
X101555Y-56003D01*
X101673Y-54429D02*
X101673Y-55885D01*
X102145Y-53956D02*
X101673Y-54429D01*
X102145Y-52460D02*
X102145Y-53956D01*
X102303Y-52303D02*
X102145Y-52460D01*
X102952Y-53759D02*
X102342Y-53759D01*
X102322Y-53779D02*
X102342Y-53779D01*
X102342Y-53759D02*
X102322Y-53779D01*
X102736Y-52263D02*
X102618Y-52381D01*
X102618Y-52381D02*
X102618Y-52460D01*
X102618Y-52460D02*
X102342Y-52736D01*
X102342Y-52736D02*
X102342Y-53779D01*
X102342Y-53779D02*
X102342Y-54035D01*
X102342Y-54035D02*
X101870Y-54507D01*
X101870Y-54507D02*
X101870Y-55967D01*
X101870Y-55967D02*
X101751Y-56085D01*
X101751Y-56085D02*
X101751Y-58838D01*
X101751Y-58838D02*
X102775Y-59862D01*
X102775Y-59862D02*
X103011Y-59862D01*
X103011Y-59862D02*
X103051Y-59822D01*
X103051Y-59822D02*
X103484Y-59822D01*
X103484Y-59822D02*
X103562Y-59901D01*
X103562Y-59901D02*
X103562Y-61437D01*
X103562Y-61437D02*
X103523Y-61476D01*
X93681Y-47618D02*
X93622Y-47559D01*
X94252Y-47618D02*
X93681Y-47618D01*
X74271Y-48011D02*
X74246Y-47986D01*
X74246Y-47986D02*
X74246Y-46614D01*
X74443Y-47494D02*
X74443Y-46614D01*
X74547Y-47598D02*
X74443Y-47494D01*
X81678Y-47613D02*
X81648Y-47613D01*
X83661Y-47598D02*
X81692Y-47598D01*
X81692Y-47598D02*
X81678Y-47613D01*
X80590Y-47795D02*
X81466Y-47795D01*
X81648Y-47613D02*
X81466Y-47795D01*
X80137Y-48090D02*
X80157Y-47578D01*
X80157Y-47578D02*
X80236Y-47500D01*
X81437Y-47500D02*
X81003Y-47500D01*
X80905Y-47500D02*
X81003Y-47500D01*
X80905Y-47500D02*
X80236Y-47500D01*
X81437Y-47500D02*
X81535Y-47500D01*
X81535Y-47500D02*
X81653Y-47381D01*
X81437Y-47500D02*
X81456Y-47500D01*
X84192Y-47303D02*
X83225Y-47303D01*
X83225Y-47303D02*
X83225Y-47381D01*
X83225Y-47381D02*
X81653Y-47381D01*
X72657Y-52204D02*
X73031Y-52578D01*
X73031Y-52578D02*
X73031Y-52618D01*
X72657Y-51160D02*
X72266Y-50769D01*
X72657Y-52204D02*
X72657Y-51160D01*
X73248Y-52834D02*
X73031Y-52618D01*
X76633Y-52834D02*
X73248Y-52834D01*
X76870Y-53070D02*
X76633Y-52834D01*
X82064Y-53070D02*
X76870Y-53070D01*
X82066Y-53068D02*
X82064Y-53070D01*
X82066Y-52933D02*
X82066Y-53068D01*
X82185Y-52814D02*
X82066Y-52933D01*
X73934Y-52674D02*
X73681Y-52421D01*
X76700Y-52674D02*
X73934Y-52674D01*
X76934Y-52908D02*
X76700Y-52674D01*
X81599Y-52908D02*
X76934Y-52908D01*
X81751Y-52755D02*
X81599Y-52908D01*
X73681Y-51184D02*
X73681Y-52125D01*
X73681Y-52125D02*
X73681Y-52204D01*
X73681Y-52204D02*
X73681Y-52244D01*
X73681Y-52244D02*
X73681Y-52421D01*
X73681Y-51184D02*
X73266Y-50769D01*
X82037Y-51269D02*
X81948Y-51358D01*
X77854Y-51358D02*
X77266Y-50769D01*
X81948Y-51358D02*
X77854Y-51358D01*
X85019Y-51043D02*
X83641Y-51043D01*
X83641Y-51043D02*
X83523Y-51161D01*
X82145Y-51161D02*
X83523Y-51161D01*
X82027Y-51279D02*
X82037Y-51269D01*
X82037Y-51269D02*
X82145Y-51161D01*
X85019Y-50098D02*
X85019Y-49862D01*
X85019Y-51043D02*
X85019Y-50098D01*
X79266Y-50769D02*
X79701Y-50334D01*
X80531Y-50334D02*
X81181Y-50334D01*
X79701Y-50334D02*
X80531Y-50334D01*
X92244Y-47637D02*
X91949Y-47637D01*
X91949Y-47637D02*
X91594Y-47992D01*
X104252Y-53759D02*
X103877Y-53759D01*
X103877Y-53759D02*
X103799Y-53838D01*
X82145Y-45905D02*
X82145Y-44035D01*
X82145Y-44035D02*
X81929Y-43818D01*
X82145Y-45905D02*
X81923Y-46127D01*
X74049Y-46226D02*
X74271Y-46003D01*
X74049Y-46614D02*
X74049Y-47781D01*
X76988Y-47794D02*
X76988Y-48523D01*
X77047Y-47736D02*
X76988Y-47794D01*
X73937Y-48228D02*
X74133Y-48425D01*
X73937Y-47893D02*
X73937Y-48228D01*
X74049Y-47781D02*
X73937Y-47893D01*
X74049Y-46614D02*
X74049Y-46226D01*
X81923Y-46127D02*
X81923Y-46614D01*
X87657Y-53287D02*
X87883Y-53287D01*
X89035Y-52972D02*
X89232Y-53169D01*
X88818Y-52972D02*
X89035Y-52972D01*
X88661Y-53129D02*
X88818Y-52972D01*
X88041Y-53129D02*
X88661Y-53129D01*
X87883Y-53287D02*
X88041Y-53129D01*
X89232Y-53169D02*
X89232Y-53641D01*
X96633Y-57618D02*
X96633Y-57893D01*
X96220Y-57204D02*
X96633Y-57618D01*
X97244Y-56555D02*
X97933Y-56555D01*
X97933Y-56555D02*
X97992Y-56614D01*
X92244Y-47637D02*
X92932Y-47637D01*
X92932Y-47637D02*
X92952Y-47618D01*
X99488Y-53208D02*
X100079Y-53208D01*
X96633Y-57893D02*
X96633Y-57165D01*
X96633Y-57165D02*
X97244Y-56555D01*
X103484Y-50807D02*
X103701Y-50807D01*
X103701Y-50807D02*
X104665Y-51771D01*
X102066Y-51929D02*
X102244Y-51929D01*
X102244Y-51929D02*
X102854Y-51318D01*
X91692Y-54035D02*
X91456Y-53799D01*
X91692Y-54881D02*
X91692Y-54035D01*
X91751Y-54940D02*
X91692Y-54881D01*
X88188Y-47992D02*
X88622Y-47992D01*
X92086Y-47480D02*
X92244Y-47637D01*
X89133Y-47480D02*
X92086Y-47480D01*
X88622Y-47992D02*
X89133Y-47480D01*
X87421Y-47736D02*
X87932Y-47736D01*
X87932Y-47736D02*
X88188Y-47992D01*
X94547Y-59271D02*
X94596Y-59271D01*
X95688Y-60728D02*
X94547Y-59586D01*
X94547Y-59586D02*
X94547Y-59271D01*
X95925Y-60728D02*
X95688Y-60728D01*
X94596Y-59271D02*
X95019Y-58848D01*
X95019Y-58848D02*
X95019Y-57224D01*
X95019Y-57224D02*
X95059Y-57185D01*
X95098Y-49212D02*
X95396Y-49212D01*
X96181Y-49409D02*
X96614Y-48976D01*
X95593Y-49409D02*
X96181Y-49409D01*
X95396Y-49212D02*
X95593Y-49409D01*
X78740Y-47519D02*
X78267Y-47992D01*
X79429Y-47519D02*
X78740Y-47519D01*
X79724Y-47814D02*
X79429Y-47519D01*
X79724Y-48129D02*
X79724Y-47814D01*
X80078Y-48484D02*
X79724Y-48129D01*
X80925Y-48484D02*
X80078Y-48484D01*
X81082Y-48326D02*
X80925Y-48484D01*
X76988Y-48523D02*
X77106Y-48523D01*
X78267Y-47952D02*
X78267Y-47992D01*
X78248Y-47933D02*
X78267Y-47952D01*
X77696Y-47933D02*
X78248Y-47933D01*
X77106Y-48523D02*
X77696Y-47933D01*
X78267Y-47992D02*
X78267Y-49074D01*
X101417Y-50748D02*
X101417Y-50590D01*
X101417Y-50590D02*
X101712Y-50295D01*
X105531Y-60452D02*
X105531Y-60079D01*
X105925Y-60846D02*
X105531Y-60452D01*
X83267Y-50531D02*
X83267Y-50512D01*
X84035Y-49724D02*
X84606Y-49153D01*
X84035Y-50098D02*
X84035Y-49724D01*
X83956Y-50177D02*
X84035Y-50098D01*
X83602Y-50177D02*
X83956Y-50177D01*
X83267Y-50512D02*
X83602Y-50177D01*
X85925Y-49350D02*
X86476Y-49350D01*
X106614Y-57007D02*
X106614Y-57244D01*
X106476Y-56870D02*
X106614Y-57007D01*
X105570Y-56870D02*
X106476Y-56870D01*
X105492Y-56791D02*
X105570Y-56870D01*
X105177Y-61574D02*
X106365Y-61574D01*
X106365Y-61574D02*
X106476Y-61685D01*
X105531Y-60079D02*
X105531Y-61220D01*
X105531Y-61220D02*
X105177Y-61574D01*
X107314Y-54346D02*
X103874Y-54346D01*
X103874Y-54346D02*
X103799Y-54271D01*
X103799Y-54271D02*
X103799Y-53838D01*
X103799Y-53838D02*
X103799Y-52775D01*
X102755Y-58917D02*
X102893Y-58917D01*
X102893Y-58917D02*
X103405Y-59429D01*
X102755Y-57657D02*
X102755Y-58917D01*
X95688Y-59625D02*
X95688Y-58956D01*
X93936Y-60314D02*
X93936Y-60432D01*
X93326Y-59704D02*
X93936Y-60314D01*
X95688Y-58956D02*
X95531Y-58799D01*
X103681Y-50610D02*
X103661Y-50590D01*
X103484Y-50807D02*
X103681Y-50610D01*
X105039Y-49911D02*
X104855Y-49911D01*
X104596Y-50679D02*
X104055Y-50679D01*
X104625Y-50649D02*
X104596Y-50679D01*
X104625Y-50140D02*
X104625Y-50649D01*
X104855Y-49911D02*
X104625Y-50140D01*
X105039Y-49911D02*
X105600Y-49911D01*
X105925Y-49586D02*
X105925Y-49507D01*
X105600Y-49911D02*
X105925Y-49586D01*
X103661Y-50275D02*
X103661Y-50590D01*
X103661Y-50590D02*
X103750Y-50679D01*
X103750Y-50679D02*
X104055Y-50679D01*
X102854Y-50275D02*
X103661Y-50275D01*
X103769Y-50167D02*
X104055Y-50167D01*
X103661Y-50275D02*
X103769Y-50167D01*
X105844Y-47498D02*
X106356Y-47498D01*
X106437Y-47578D02*
X106437Y-48366D01*
X106356Y-47498D02*
X106437Y-47578D01*
X102854Y-50885D02*
X102854Y-50275D01*
X98937Y-51535D02*
X98464Y-51535D01*
X98464Y-51535D02*
X98248Y-51318D01*
X98858Y-50197D02*
X98956Y-50098D01*
X98956Y-50098D02*
X99389Y-50098D01*
X99389Y-50098D02*
X99488Y-50197D01*
X101043Y-53208D02*
X100079Y-53208D01*
X102047Y-51929D02*
X101988Y-51987D01*
X101988Y-51987D02*
X101988Y-52263D01*
X101988Y-52263D02*
X101043Y-53208D01*
X101417Y-50748D02*
X101417Y-50945D01*
X99252Y-52677D02*
X99488Y-52677D01*
X99153Y-52775D02*
X99252Y-52677D01*
X99488Y-52677D02*
X99488Y-53208D01*
X100079Y-53208D02*
X100079Y-52677D01*
X99488Y-50197D02*
X99488Y-48858D01*
X99488Y-48858D02*
X99389Y-48759D01*
X94271Y-57204D02*
X95039Y-57204D01*
X95039Y-57204D02*
X95059Y-57185D01*
X93936Y-60432D02*
X94212Y-60432D01*
X94212Y-60432D02*
X94997Y-61218D01*
X94997Y-61218D02*
X94997Y-61751D01*
X95433Y-55019D02*
X95964Y-55019D01*
X95098Y-49212D02*
X94960Y-49212D01*
X94960Y-49212D02*
X94429Y-48681D01*
X89232Y-53641D02*
X89389Y-53799D01*
X89389Y-53799D02*
X91456Y-53799D01*
X94192Y-48917D02*
X93944Y-48917D01*
X94429Y-48681D02*
X94192Y-48917D01*
X87578Y-47460D02*
X87421Y-47618D01*
X87421Y-47618D02*
X87421Y-48405D01*
X87421Y-48405D02*
X86476Y-49350D01*
X85846Y-49271D02*
X85925Y-49350D01*
X84606Y-49153D02*
X83956Y-49153D01*
X83956Y-49153D02*
X83917Y-49114D01*
X102047Y-51929D02*
X102066Y-51929D01*
X102854Y-51318D02*
X102854Y-50885D01*
X98346Y-50197D02*
X98858Y-50197D01*
X98326Y-50216D02*
X98346Y-50197D01*
X98326Y-50885D02*
X98326Y-50216D01*
X98937Y-50945D02*
X98385Y-50945D01*
X101417Y-51929D02*
X102047Y-51929D01*
X98248Y-51318D02*
X98248Y-51043D01*
X98248Y-51043D02*
X98366Y-50925D01*
X98366Y-50925D02*
X98326Y-50885D01*
X98385Y-50945D02*
X98366Y-50925D01*
X106122Y-55688D02*
X106122Y-55728D01*
X106003Y-55570D02*
X106122Y-55688D01*
X103681Y-55570D02*
X106003Y-55570D01*
X103562Y-55688D02*
X103681Y-55570D01*
X108314Y-58346D02*
X108228Y-58346D01*
X104468Y-56948D02*
X103248Y-56948D01*
X104586Y-57066D02*
X104468Y-56948D01*
X104586Y-57854D02*
X104586Y-57066D01*
X104625Y-57893D02*
X104586Y-57854D01*
X107775Y-57893D02*
X104625Y-57893D01*
X108228Y-58346D02*
X107775Y-57893D01*
X104858Y-59346D02*
X107314Y-59346D01*
X104822Y-59311D02*
X104858Y-59346D01*
X104822Y-58484D02*
X104822Y-59311D01*
X104980Y-58326D02*
X104822Y-58484D01*
X103444Y-58326D02*
X104980Y-58326D01*
X103877Y-55255D02*
X106358Y-55255D01*
X108314Y-55244D02*
X108314Y-55346D01*
X108011Y-54940D02*
X108314Y-55244D01*
X107148Y-54940D02*
X108011Y-54940D01*
X103681Y-54940D02*
X107148Y-54940D01*
X103484Y-55137D02*
X103681Y-54940D01*
X103484Y-55177D02*
X103484Y-55137D01*
X103208Y-55452D02*
X103484Y-55177D01*
X102637Y-55137D02*
X102736Y-55137D01*
X103638Y-54235D02*
X103638Y-54136D01*
X102736Y-55137D02*
X103638Y-54235D01*
X103638Y-54094D02*
X103638Y-54136D01*
X103503Y-52933D02*
X103503Y-52346D01*
X103638Y-54094D02*
X103638Y-53068D01*
X103638Y-53068D02*
X103503Y-52933D01*
X102322Y-55452D02*
X102185Y-55452D01*
X102637Y-55137D02*
X102322Y-55452D01*
X103503Y-52346D02*
X103503Y-52362D01*
X103503Y-52362D02*
X103503Y-52346D01*
X103503Y-52346D02*
X108314Y-52346D01*
X106102Y-57244D02*
X106102Y-57244D01*
X106102Y-57244D02*
X105767Y-57578D01*
X106161Y-58248D02*
X105630Y-58779D01*
X104980Y-57578D02*
X105767Y-57578D01*
X104940Y-57618D02*
X104980Y-57578D01*
X104940Y-57027D02*
X104940Y-57618D01*
X104665Y-56751D02*
X104940Y-57027D01*
X103996Y-56751D02*
X104665Y-56751D01*
X103562Y-56318D02*
X103996Y-56751D01*
X102736Y-56318D02*
X103562Y-56318D01*
X102106Y-56948D02*
X102736Y-56318D01*
X105630Y-58779D02*
X105531Y-58779D01*
X108212Y-54346D02*
X108314Y-54346D01*
X107736Y-54744D02*
X108212Y-54346D01*
X103366Y-54744D02*
X107736Y-54744D01*
X102696Y-55492D02*
X103366Y-54744D01*
X101988Y-59822D02*
X101318Y-59153D01*
X101318Y-59153D02*
X101338Y-55098D01*
X81929Y-48720D02*
X81870Y-48661D01*
X80000Y-48661D02*
X79256Y-47917D01*
X81870Y-48661D02*
X80000Y-48661D01*
X85413Y-48129D02*
X85413Y-49271D01*
X85728Y-50610D02*
X85964Y-50846D01*
X85728Y-49586D02*
X85728Y-50610D01*
X85649Y-49507D02*
X85728Y-49586D01*
X85413Y-49271D02*
X85649Y-49507D01*
X85098Y-48129D02*
X85413Y-48129D01*
X82066Y-48720D02*
X82657Y-48129D01*
X82657Y-48129D02*
X85098Y-48129D01*
X81909Y-48720D02*
X81929Y-48720D01*
X81929Y-48720D02*
X82066Y-48720D01*
X86003Y-50885D02*
X85964Y-50846D01*
X86003Y-51948D02*
X86003Y-50885D01*
X85807Y-52066D02*
X86003Y-51948D01*
X94133Y-61830D02*
X94133Y-61850D01*
X97893Y-62342D02*
X98838Y-61397D01*
X98838Y-61397D02*
X99665Y-61397D01*
X93433Y-60086D02*
X91870Y-60086D01*
X93433Y-60086D02*
X93562Y-60216D01*
X93562Y-60216D02*
X93562Y-61594D01*
X93562Y-61594D02*
X93799Y-61830D01*
X93799Y-61830D02*
X93956Y-61830D01*
X93956Y-61830D02*
X94133Y-61830D01*
X94625Y-62342D02*
X97893Y-62342D01*
X94133Y-61850D02*
X94625Y-62342D01*
X101279Y-53956D02*
X101279Y-53877D01*
X101397Y-60216D02*
X101318Y-60137D01*
X101318Y-60137D02*
X101318Y-59744D01*
X101318Y-59744D02*
X100885Y-59311D01*
X100885Y-59311D02*
X100885Y-56043D01*
X100885Y-56043D02*
X100843Y-56001D01*
X100843Y-56001D02*
X100843Y-54392D01*
X100843Y-54392D02*
X101279Y-53956D01*
X101279Y-53877D02*
X101791Y-53366D01*
X79256Y-49767D02*
X79910Y-49114D01*
X81712Y-49114D02*
X81751Y-49114D01*
X82972Y-48523D02*
X85019Y-48523D01*
X82381Y-49114D02*
X82972Y-48523D01*
X81712Y-49114D02*
X82381Y-49114D01*
X85059Y-48562D02*
X85019Y-48523D01*
X85334Y-49783D02*
X85334Y-50925D01*
X85059Y-49429D02*
X85334Y-49704D01*
X85334Y-49704D02*
X85334Y-49744D01*
X85334Y-49744D02*
X85295Y-49783D01*
X85295Y-49783D02*
X85334Y-49783D01*
X85059Y-48562D02*
X85059Y-49429D01*
X79910Y-49114D02*
X81751Y-49114D01*
X90334Y-50728D02*
X90964Y-50688D01*
X90295Y-50688D02*
X90334Y-50728D01*
X85334Y-50925D02*
X85334Y-51515D01*
X85334Y-51515D02*
X85374Y-51555D01*
X85334Y-50964D02*
X85334Y-50925D01*
X85334Y-50964D02*
X85334Y-50885D01*
X78246Y-49775D02*
X78246Y-49644D01*
X78011Y-49409D02*
X78011Y-48326D01*
X78246Y-49644D02*
X78011Y-49409D01*
X97047Y-62165D02*
X94724Y-62165D01*
X97047Y-62165D02*
X97303Y-61909D01*
X96811Y-61102D02*
X95738Y-61102D01*
X94271Y-59635D02*
X94271Y-59074D01*
X95738Y-61102D02*
X94271Y-59635D01*
X94271Y-58287D02*
X94271Y-58504D01*
X94527Y-57913D02*
X94271Y-58287D01*
X93936Y-61377D02*
X93936Y-60944D01*
X94271Y-59074D02*
X94271Y-58504D01*
X97303Y-61594D02*
X96811Y-61102D01*
X97303Y-61909D02*
X97303Y-61594D01*
X94724Y-62165D02*
X93936Y-61377D01*
X93944Y-48542D02*
X93426Y-48542D01*
X94153Y-50374D02*
X94311Y-50374D01*
X93484Y-49704D02*
X94153Y-50374D01*
X93484Y-48600D02*
X93484Y-49704D01*
X93426Y-48542D02*
X93484Y-48600D01*
X87755Y-53641D02*
X87736Y-53641D01*
X76712Y-53799D02*
X76181Y-53268D01*
X87578Y-53799D02*
X76712Y-53799D01*
X87736Y-53641D02*
X87578Y-53799D01*
X88090Y-53307D02*
X87755Y-53641D01*
X88897Y-53307D02*
X88090Y-53307D01*
X88917Y-53287D02*
X88897Y-53307D01*
X76181Y-53268D02*
X76554Y-53641D01*
X93248Y-48845D02*
X92944Y-48542D01*
X93248Y-49940D02*
X93248Y-48845D01*
X93956Y-50649D02*
X93248Y-49940D01*
X101810Y-61141D02*
X101810Y-62696D01*
X101673Y-61003D02*
X101810Y-61141D01*
X100728Y-61003D02*
X101673Y-61003D01*
X100098Y-60374D02*
X100728Y-61003D01*
X100098Y-60334D02*
X100098Y-60374D01*
X99822Y-60059D02*
X100098Y-60334D01*
X100649Y-53996D02*
X101003Y-53641D01*
X100649Y-59468D02*
X100649Y-53996D01*
X100925Y-59822D02*
X100649Y-59468D01*
X91712Y-49212D02*
X91712Y-49547D01*
X91948Y-48976D02*
X91712Y-49212D01*
X91712Y-49547D02*
X91751Y-49586D01*
X91751Y-49586D02*
X91712Y-49586D01*
X91712Y-50885D02*
X91712Y-49586D01*
X91712Y-49586D02*
X91712Y-49547D01*
X92204Y-51377D02*
X91712Y-50885D01*
X89665Y-52263D02*
X89704Y-52303D01*
X89665Y-51515D02*
X89665Y-51437D01*
X89665Y-51515D02*
X89665Y-52263D01*
X87696Y-52165D02*
X87696Y-52106D01*
X88366Y-51437D02*
X89665Y-51437D01*
X87696Y-52106D02*
X88366Y-51437D01*
X89665Y-50787D02*
X89665Y-51437D01*
X87322Y-52165D02*
X87696Y-52165D01*
X86948Y-52539D02*
X87322Y-52165D01*
X101437Y-61476D02*
X100255Y-61476D01*
X99704Y-60925D02*
X99468Y-60925D01*
X100255Y-61476D02*
X99704Y-60925D01*
X97460Y-60925D02*
X97342Y-60807D01*
X99468Y-60925D02*
X97460Y-60925D01*
X101003Y-54862D02*
X101200Y-54665D01*
X101003Y-55807D02*
X101003Y-54862D01*
X101122Y-55925D02*
X101003Y-55807D01*
X101122Y-59232D02*
X101122Y-55925D01*
X101633Y-59744D02*
X101122Y-59232D01*
X101633Y-60019D02*
X101633Y-59744D01*
X101830Y-60216D02*
X101633Y-60019D01*
X81811Y-48917D02*
X81751Y-48857D01*
X81751Y-48857D02*
X79266Y-48857D01*
X85649Y-50846D02*
X85649Y-51240D01*
X85531Y-50728D02*
X85649Y-50846D01*
X85531Y-49625D02*
X85531Y-50728D01*
X85219Y-49313D02*
X85531Y-49625D01*
X85219Y-48329D02*
X85219Y-49313D01*
X85216Y-48326D02*
X85219Y-48329D01*
X85649Y-51240D02*
X85649Y-51318D01*
X85098Y-48326D02*
X85216Y-48326D01*
X82185Y-48917D02*
X82775Y-48326D01*
X85059Y-48326D02*
X85098Y-48326D01*
X82775Y-48326D02*
X85059Y-48326D01*
X81751Y-48917D02*
X81811Y-48917D01*
X81811Y-48917D02*
X82185Y-48917D01*
X82317Y-46940D02*
X82317Y-46614D01*
X82322Y-46946D02*
X82317Y-46940D01*
X83818Y-46946D02*
X82322Y-46946D01*
X83973Y-46791D02*
X83818Y-46946D01*
X98740Y-46791D02*
X83973Y-46791D01*
X98799Y-46850D02*
X98740Y-46791D01*
X105039Y-50866D02*
X105039Y-50679D01*
X105177Y-51003D02*
X105039Y-50866D01*
X100767Y-48366D02*
X100807Y-48366D01*
X100079Y-49015D02*
X100216Y-48877D01*
X100216Y-48877D02*
X100255Y-48877D01*
X100255Y-48877D02*
X100767Y-48366D01*
X100079Y-50197D02*
X100079Y-49015D01*
X100807Y-48366D02*
X100846Y-48405D01*
X103982Y-47998D02*
X103644Y-47998D01*
X104192Y-48208D02*
X103982Y-47998D01*
X82120Y-46614D02*
X82120Y-47100D01*
X98287Y-47007D02*
X99370Y-48090D01*
X84055Y-47007D02*
X98287Y-47007D01*
X83956Y-47106D02*
X84055Y-47007D01*
X82125Y-47106D02*
X83956Y-47106D01*
X82120Y-47100D02*
X82125Y-47106D01*
X105068Y-50452D02*
X105039Y-50423D01*
X105531Y-50452D02*
X105068Y-50452D01*
X105452Y-50531D02*
X105531Y-50452D01*
X105610Y-50688D02*
X105452Y-50531D01*
X103644Y-47498D02*
X102462Y-47498D01*
X102462Y-47498D02*
X101515Y-48444D01*
X99882Y-48779D02*
X99882Y-50197D01*
X99862Y-48759D02*
X99882Y-48779D01*
X76417Y-43228D02*
X76811Y-42834D01*
X76417Y-43818D02*
X76417Y-43228D01*
X76417Y-43228D02*
X76023Y-42834D01*
X75821Y-46614D02*
X75821Y-44415D01*
X75821Y-44415D02*
X76417Y-43818D01*
X75427Y-46614D02*
X75230Y-46614D01*
X75624Y-46614D02*
X75427Y-46614D01*
X75821Y-46614D02*
X75624Y-46614D01*
X76358Y-47913D02*
X76358Y-47559D01*
X75821Y-47021D02*
X75821Y-46614D01*
X76358Y-47559D02*
X75821Y-47021D01*
X87244Y-53267D02*
X87244Y-53402D01*
X92775Y-52381D02*
X91830Y-53326D01*
X91830Y-53326D02*
X91614Y-53543D01*
X91614Y-53543D02*
X89412Y-53543D01*
X89412Y-53543D02*
X89409Y-53540D01*
X89409Y-53540D02*
X89409Y-53051D01*
X89409Y-53051D02*
X89153Y-52795D01*
X89153Y-52795D02*
X88366Y-52795D01*
X88366Y-52795D02*
X88208Y-52952D01*
X88208Y-52952D02*
X87500Y-52952D01*
X87500Y-52952D02*
X87244Y-53208D01*
X87244Y-53208D02*
X87244Y-53267D01*
X78326Y-51968D02*
X76181Y-51968D01*
X78818Y-52460D02*
X78326Y-51968D01*
X79052Y-53638D02*
X78818Y-53405D01*
X87007Y-53638D02*
X79052Y-53638D01*
X87244Y-53402D02*
X87007Y-53638D01*
X97046Y-52894D02*
X97814Y-52125D01*
X97046Y-53248D02*
X97046Y-52894D01*
X76358Y-48818D02*
X76358Y-47913D01*
X76358Y-47913D02*
X76358Y-47874D01*
X76318Y-48858D02*
X76358Y-48818D01*
X101141Y-47618D02*
X101122Y-47618D01*
X96476Y-47893D02*
X96476Y-48267D01*
X96476Y-48267D02*
X96299Y-48444D01*
X97972Y-48444D02*
X96299Y-48444D01*
X96299Y-48444D02*
X96279Y-48444D01*
X96279Y-48444D02*
X95767Y-49153D01*
X95767Y-49153D02*
X95767Y-49074D01*
X74724Y-50944D02*
X75000Y-51220D01*
X75709Y-50334D02*
X74724Y-50334D01*
X74724Y-50334D02*
X74724Y-50944D01*
X74960Y-51220D02*
X75452Y-51220D01*
X75452Y-51220D02*
X75452Y-51239D01*
X75452Y-51239D02*
X76181Y-51968D01*
X76256Y-49787D02*
X75709Y-50334D01*
X75000Y-51220D02*
X74980Y-51220D01*
X74980Y-51220D02*
X74960Y-51200D01*
X74960Y-51200D02*
X74960Y-51220D01*
X102165Y-51142D02*
X101417Y-51142D01*
X101417Y-51142D02*
X101417Y-51339D01*
X101417Y-51535D02*
X102164Y-51535D01*
X102164Y-51535D02*
X102185Y-51555D01*
X106358Y-51378D02*
X106377Y-51378D01*
X106909Y-49625D02*
X106909Y-48326D01*
X107027Y-49744D02*
X106909Y-49625D01*
X107027Y-50728D02*
X107027Y-49744D01*
X106377Y-51378D02*
X107027Y-50728D01*
X104055Y-49911D02*
X104281Y-49911D01*
X104379Y-50423D02*
X104055Y-50423D01*
X104389Y-50413D02*
X104379Y-50423D01*
X104389Y-50019D02*
X104389Y-50413D01*
X104281Y-49911D02*
X104389Y-50019D01*
X104055Y-49911D02*
X103789Y-49911D01*
X103789Y-49911D02*
X102854Y-48975D01*
X102854Y-48975D02*
X103622Y-48975D01*
X103622Y-48975D02*
X103644Y-48998D01*
X97814Y-52125D02*
X97814Y-51948D01*
X97893Y-49744D02*
X98051Y-49586D01*
X97893Y-51870D02*
X97893Y-49744D01*
X97814Y-51948D02*
X97893Y-51870D01*
X97814Y-52125D02*
X98937Y-52125D01*
X102854Y-48975D02*
X102854Y-49035D01*
X102185Y-49704D02*
X102185Y-50177D01*
X102854Y-49035D02*
X102185Y-49704D01*
X102972Y-48248D02*
X102972Y-48857D01*
X102972Y-48857D02*
X102854Y-48975D01*
X100295Y-48444D02*
X97972Y-48444D01*
X101122Y-47618D02*
X100295Y-48444D01*
X97972Y-48799D02*
X97972Y-48444D01*
X97893Y-48877D02*
X97972Y-48799D01*
X102185Y-51122D02*
X102185Y-50177D01*
X102185Y-50177D02*
X102185Y-50098D01*
X98937Y-50748D02*
X98937Y-50590D01*
X102185Y-51122D02*
X102165Y-51142D01*
X98937Y-50590D02*
X99114Y-50413D01*
X101417Y-51535D02*
X101417Y-51732D01*
X101417Y-51339D02*
X101417Y-51535D01*
X95022Y-59072D02*
X95216Y-58877D01*
X95216Y-57500D02*
X95413Y-57303D01*
X95216Y-58877D02*
X95216Y-57500D01*
X96723Y-60677D02*
X96307Y-60677D01*
X94744Y-59350D02*
X95022Y-59072D01*
X94744Y-59547D02*
X94744Y-59350D01*
X95595Y-60398D02*
X94744Y-59547D01*
X96028Y-60398D02*
X95595Y-60398D01*
X96307Y-60677D02*
X96028Y-60398D01*
X95413Y-57303D02*
X95413Y-57263D01*
X96555Y-55925D02*
X96535Y-55925D01*
X96535Y-55944D02*
X96555Y-55925D01*
X95413Y-57066D02*
X96535Y-55944D01*
X95413Y-57303D02*
X95413Y-57224D01*
X95413Y-57224D02*
X95413Y-57066D01*
X96535Y-55728D02*
X96476Y-55728D01*
X96535Y-55728D02*
X96535Y-55925D01*
X97500Y-49744D02*
X97500Y-51476D01*
X97165Y-51811D02*
X97500Y-51476D01*
X95649Y-54350D02*
X95964Y-54665D01*
X95649Y-53326D02*
X95649Y-54350D01*
X97165Y-51811D02*
X95649Y-53326D01*
X97500Y-49744D02*
X97500Y-49625D01*
X96043Y-54665D02*
X96279Y-54901D01*
X95964Y-54665D02*
X96043Y-54665D01*
X96476Y-55728D02*
X96240Y-55492D01*
X96240Y-55492D02*
X96240Y-55098D01*
X96240Y-55098D02*
X96279Y-55059D01*
X96279Y-55059D02*
X96279Y-54901D01*
X97500Y-49625D02*
X97027Y-49625D01*
X96673Y-49625D02*
X97027Y-49625D01*
X94252Y-49292D02*
X93944Y-49292D01*
X94586Y-49625D02*
X96673Y-49625D01*
X94252Y-49292D02*
X94586Y-49625D01*
X97500Y-49625D02*
X97500Y-49665D01*
X97797Y-61751D02*
X96723Y-60677D01*
X74640Y-46614D02*
X74640Y-47199D01*
X74862Y-47421D02*
X74862Y-49389D01*
X74640Y-47199D02*
X74862Y-47421D01*
X96417Y-53444D02*
X96417Y-54803D01*
X73779Y-49980D02*
X73779Y-49685D01*
X73779Y-49685D02*
X74074Y-49389D01*
X77256Y-49775D02*
X77256Y-49677D01*
X77256Y-49677D02*
X76968Y-49389D01*
X76968Y-49389D02*
X74862Y-49389D01*
X74862Y-49389D02*
X74074Y-49389D01*
X96909Y-51614D02*
X96889Y-51633D01*
X96909Y-51437D02*
X96909Y-51614D01*
X95472Y-50000D02*
X96909Y-51437D01*
X94507Y-50000D02*
X95472Y-50000D01*
X94389Y-49881D02*
X94507Y-50000D01*
X99665Y-56673D02*
X99665Y-57303D01*
X99586Y-56594D02*
X99665Y-56673D01*
X96555Y-55334D02*
X96555Y-54940D01*
X96555Y-54940D02*
X96417Y-54803D01*
X71870Y-51578D02*
X72200Y-51909D01*
X71870Y-50393D02*
X71870Y-51578D01*
X72007Y-50255D02*
X71870Y-50393D01*
X73503Y-50255D02*
X72007Y-50255D01*
X73779Y-49980D02*
X73503Y-50255D01*
X99783Y-59389D02*
X99822Y-59350D01*
X99822Y-59350D02*
X99822Y-57460D01*
X99822Y-57460D02*
X99665Y-57303D01*
X103110Y-62696D02*
X102696Y-62696D01*
X102696Y-62696D02*
X102381Y-62381D01*
X94783Y-56633D02*
X93956Y-56614D01*
X93956Y-56614D02*
X93877Y-56614D01*
X92106Y-49389D02*
X92847Y-49389D01*
X92847Y-49389D02*
X92944Y-49292D01*
X92224Y-49507D02*
X92145Y-50098D01*
X92106Y-49389D02*
X92224Y-49507D01*
X87696Y-50649D02*
X87696Y-50865D01*
X88051Y-50295D02*
X87696Y-50649D01*
X88051Y-49035D02*
X88051Y-50295D01*
X87696Y-50865D02*
X87007Y-50865D01*
X87007Y-50865D02*
X86988Y-50846D01*
X81948Y-48326D02*
X82066Y-48326D01*
X84625Y-47578D02*
X85767Y-47578D01*
X84311Y-47893D02*
X84625Y-47578D01*
X82500Y-47893D02*
X84311Y-47893D01*
X82066Y-48326D02*
X82500Y-47893D01*
X97244Y-54055D02*
X97539Y-54055D01*
X97244Y-55255D02*
X97244Y-54055D01*
X97539Y-54055D02*
X98346Y-53248D01*
X98346Y-53248D02*
X98996Y-53248D01*
X101417Y-52401D02*
X101417Y-52125D01*
X101417Y-52401D02*
X101318Y-52500D01*
X98996Y-53248D02*
X99271Y-53405D01*
X98051Y-53248D02*
X98346Y-53248D01*
X97244Y-55255D02*
X97461Y-55255D01*
X97244Y-55255D02*
X97244Y-55826D01*
X97244Y-55826D02*
X97342Y-55925D01*
X96082Y-55964D02*
X95728Y-56318D01*
X95728Y-56318D02*
X94429Y-56318D01*
X94429Y-56318D02*
X93956Y-55846D01*
X68444Y-57809D02*
X65218Y-57809D01*
X65218Y-57809D02*
X65197Y-57830D01*
X62637Y-56830D02*
X63405Y-56830D01*
X68759Y-58602D02*
X68759Y-57809D01*
X68799Y-58641D02*
X68759Y-58602D01*
X63917Y-57342D02*
X63917Y-58169D01*
X63405Y-56830D02*
X63917Y-57342D01*
X70964Y-62309D02*
X70964Y-60410D01*
X71434Y-59941D02*
X71594Y-59940D01*
X70964Y-60410D02*
X71434Y-59941D01*
X89708Y-55614D02*
X89708Y-55294D01*
X90177Y-56082D02*
X89708Y-55614D01*
X69704Y-62309D02*
X69704Y-62893D01*
X69704Y-62893D02*
X69704Y-62893D01*
X85811Y-56520D02*
X86003Y-56712D01*
X85811Y-56520D02*
X85811Y-55294D01*
X71279Y-60728D02*
X71279Y-62309D01*
X71594Y-60413D02*
X71279Y-60728D01*
X89275Y-55294D02*
X89275Y-56668D01*
X90216Y-56673D02*
X89271Y-56673D01*
X89271Y-56673D02*
X89275Y-56668D01*
X90452Y-55610D02*
X90570Y-55728D01*
X90570Y-55728D02*
X90570Y-56318D01*
X90570Y-56318D02*
X90216Y-56673D01*
X70649Y-59350D02*
X70649Y-59704D01*
X70649Y-59704D02*
X70688Y-59744D01*
X70649Y-59350D02*
X68484Y-59350D01*
X68326Y-60374D02*
X68326Y-60374D01*
X68326Y-59507D02*
X68326Y-60374D01*
X68484Y-59350D02*
X68326Y-59507D01*
X68326Y-60374D02*
X67769Y-60374D01*
X88842Y-56795D02*
X88842Y-55294D01*
X88996Y-56948D02*
X88842Y-56795D01*
X90334Y-56948D02*
X88996Y-56948D01*
X90846Y-56437D02*
X90334Y-56948D01*
X90846Y-55334D02*
X90846Y-56437D01*
X90767Y-55255D02*
X90846Y-55334D01*
X88409Y-55294D02*
X88409Y-56913D01*
X69114Y-60689D02*
X67769Y-60689D01*
X69665Y-60137D02*
X69114Y-60689D01*
X69744Y-60137D02*
X69665Y-60137D01*
X70059Y-59822D02*
X69744Y-60137D01*
X91082Y-54822D02*
X90374Y-54822D01*
X91082Y-56594D02*
X91082Y-54822D01*
X90413Y-57263D02*
X91082Y-56594D01*
X88759Y-57263D02*
X90413Y-57263D01*
X88409Y-56913D02*
X88759Y-57263D01*
X67769Y-61004D02*
X69074Y-61004D01*
X87976Y-56795D02*
X87976Y-55294D01*
X88720Y-57539D02*
X87976Y-56795D01*
X89232Y-57539D02*
X88720Y-57539D01*
X89350Y-57657D02*
X89232Y-57539D01*
X69074Y-61004D02*
X69074Y-61003D01*
X67769Y-61319D02*
X66830Y-61319D01*
X67342Y-63405D02*
X69311Y-63405D01*
X66673Y-62736D02*
X67342Y-63405D01*
X66830Y-61319D02*
X66633Y-61515D01*
X87696Y-56555D02*
X87696Y-56948D01*
X87543Y-56401D02*
X87696Y-56555D01*
X87543Y-56401D02*
X87543Y-55294D01*
X88720Y-57972D02*
X88444Y-57696D01*
X87696Y-56948D02*
X88444Y-57696D01*
X88129Y-63405D02*
X88720Y-62814D01*
X88720Y-62814D02*
X88720Y-57972D01*
X69311Y-63405D02*
X88129Y-63405D01*
X69074Y-62309D02*
X69074Y-61634D01*
X69074Y-61594D02*
X69074Y-61634D01*
X69074Y-61633D02*
X69074Y-61594D01*
X69074Y-61634D02*
X69074Y-61633D01*
X69074Y-61634D02*
X69113Y-61634D01*
X69113Y-61634D02*
X69625Y-61122D01*
X69625Y-61122D02*
X69625Y-60492D01*
X69625Y-60492D02*
X70334Y-60492D01*
X70334Y-60492D02*
X70374Y-60452D01*
X70374Y-60452D02*
X70413Y-60452D01*
X74389Y-62145D02*
X73917Y-62145D01*
X74895Y-62651D02*
X74389Y-62145D01*
X85419Y-62651D02*
X74895Y-62651D01*
X85570Y-62500D02*
X85419Y-62651D01*
X86677Y-55294D02*
X86677Y-56362D01*
X86677Y-56362D02*
X87027Y-56712D01*
X69389Y-62309D02*
X69389Y-61791D01*
X69940Y-61240D02*
X69940Y-60846D01*
X69389Y-61791D02*
X69940Y-61240D01*
X74740Y-62851D02*
X86243Y-62851D01*
X73208Y-62342D02*
X74740Y-62851D01*
X86200Y-62851D02*
X87148Y-62106D01*
X87148Y-62106D02*
X87066Y-62106D01*
X86243Y-62851D02*
X86200Y-62851D01*
X86244Y-55294D02*
X86244Y-56362D01*
X86476Y-56594D02*
X86476Y-56712D01*
X86244Y-56362D02*
X86476Y-56594D01*
X60098Y-56298D02*
X60394Y-56298D01*
X61515Y-55177D02*
X61437Y-55177D01*
X60394Y-56298D02*
X61515Y-55177D01*
X64137Y-55830D02*
X65197Y-55830D01*
X63917Y-55610D02*
X64137Y-55830D01*
X64885Y-55830D02*
X65197Y-55830D01*
X64232Y-55177D02*
X64885Y-55830D01*
X61437Y-55177D02*
X64232Y-55177D01*
X67769Y-58799D02*
X67184Y-58799D01*
X66185Y-55830D02*
X65197Y-55830D01*
X66712Y-56358D02*
X66185Y-55830D01*
X66988Y-58602D02*
X66988Y-58169D01*
X67184Y-58799D02*
X66988Y-58602D01*
X65197Y-56830D02*
X68444Y-56830D01*
X69074Y-57460D02*
X69074Y-57809D01*
X68444Y-56830D02*
X69074Y-57460D01*
X73685Y-55294D02*
X74118Y-57928D01*
X72972Y-60689D02*
X72269Y-60689D01*
X73051Y-60767D02*
X72972Y-60689D01*
X74118Y-57928D02*
X73996Y-58051D01*
X72269Y-60374D02*
X73405Y-60374D01*
X74512Y-57613D02*
X74118Y-55294D01*
X74429Y-57696D02*
X74512Y-57613D01*
X73405Y-60374D02*
X73562Y-60531D01*
X88799Y-63208D02*
X88799Y-63011D01*
X88956Y-61101D02*
X89369Y-60688D01*
X88956Y-62854D02*
X88956Y-61101D01*
X88799Y-63011D02*
X88956Y-62854D01*
X88799Y-63208D02*
X88799Y-63090D01*
X56751Y-50309D02*
X56765Y-50295D01*
X56751Y-51476D02*
X56751Y-50309D01*
X56594Y-51476D02*
X56751Y-51476D01*
X56594Y-51515D02*
X56594Y-51476D01*
X56751Y-51830D02*
X56594Y-51515D01*
X89290Y-60767D02*
X89369Y-60688D01*
X54074Y-48720D02*
X54074Y-48779D01*
X54134Y-53701D02*
X55177Y-53701D01*
X53818Y-53385D02*
X54134Y-53701D01*
X53818Y-50334D02*
X53818Y-53385D01*
X53937Y-50216D02*
X53818Y-50334D01*
X53937Y-49625D02*
X53937Y-50216D01*
X54330Y-49232D02*
X53937Y-49625D01*
X54330Y-49035D02*
X54330Y-49232D01*
X54074Y-48779D02*
X54330Y-49035D01*
X57913Y-49173D02*
X57913Y-48740D01*
X57027Y-48720D02*
X56594Y-49153D01*
X57893Y-48720D02*
X57027Y-48720D01*
X57913Y-48740D02*
X57893Y-48720D01*
X64012Y-48809D02*
X64012Y-48848D01*
X63582Y-49278D02*
X63582Y-49318D01*
X64012Y-48848D02*
X63582Y-49278D01*
X63838Y-61948D02*
X63838Y-62638D01*
X63838Y-62638D02*
X63936Y-62736D01*
X67775Y-62421D02*
X67775Y-62381D01*
X67342Y-61948D02*
X63838Y-61948D01*
X63838Y-61948D02*
X61948Y-61948D01*
X67775Y-62381D02*
X67342Y-61948D01*
X55511Y-60078D02*
X55885Y-60078D01*
X55846Y-60059D02*
X55885Y-60059D01*
X55866Y-60059D02*
X55846Y-60059D01*
X55885Y-60078D02*
X55866Y-60059D01*
X55511Y-58937D02*
X55885Y-58937D01*
X55846Y-58956D02*
X55885Y-58956D01*
X55866Y-58956D02*
X55846Y-58956D01*
X55885Y-58937D02*
X55866Y-58956D01*
X55511Y-57795D02*
X55885Y-57795D01*
X55846Y-57775D02*
X55885Y-57775D01*
X55866Y-57775D02*
X55846Y-57775D01*
X55885Y-57795D02*
X55866Y-57775D01*
X55511Y-56653D02*
X55885Y-56653D01*
X55885Y-56653D02*
X55885Y-56673D01*
X55885Y-61358D02*
X55885Y-60059D01*
X55885Y-60059D02*
X55885Y-58956D01*
X55885Y-58956D02*
X55885Y-57775D01*
X55885Y-57775D02*
X55885Y-56673D01*
X55885Y-56673D02*
X55885Y-55688D01*
X55885Y-55688D02*
X55885Y-55728D01*
X55885Y-55728D02*
X55885Y-55688D01*
X55511Y-62362D02*
X55905Y-62362D01*
X55866Y-61220D02*
X55511Y-61220D01*
X55885Y-61240D02*
X55866Y-61220D01*
X55885Y-62342D02*
X55885Y-61358D01*
X55885Y-61358D02*
X55885Y-61240D01*
X55905Y-62362D02*
X55885Y-62342D01*
X56043Y-54429D02*
X55177Y-54429D01*
X56082Y-54389D02*
X56043Y-54429D01*
X56358Y-51791D02*
X56358Y-50688D01*
X56318Y-51830D02*
X56358Y-51791D01*
X55177Y-53701D02*
X55314Y-53701D01*
X55885Y-53129D02*
X55885Y-52696D01*
X55314Y-53701D02*
X55885Y-53129D01*
X55177Y-53701D02*
X55177Y-53484D01*
X57086Y-53267D02*
X56141Y-53267D01*
X55945Y-53701D02*
X55177Y-53701D01*
X56082Y-53838D02*
X55945Y-53701D01*
X56082Y-53326D02*
X56082Y-53838D01*
X56141Y-53267D02*
X56082Y-53326D01*
X57066Y-53267D02*
X57086Y-53267D01*
X57539Y-53484D02*
X57539Y-53169D01*
X57578Y-53523D02*
X57539Y-53484D01*
X57162Y-53523D02*
X57578Y-53523D01*
X57145Y-53540D02*
X57162Y-53523D01*
X57145Y-53326D02*
X57145Y-53540D01*
X57086Y-53267D02*
X57145Y-53326D01*
X55452Y-50295D02*
X55492Y-50334D01*
X55492Y-50334D02*
X55452Y-50531D01*
X55452Y-50531D02*
X55610Y-50688D01*
X55610Y-50688D02*
X55807Y-50688D01*
X55807Y-50688D02*
X56358Y-50688D01*
X56358Y-50688D02*
X56569Y-50688D01*
X56569Y-50688D02*
X56569Y-50295D01*
X57539Y-53169D02*
X57539Y-52696D01*
X57539Y-52696D02*
X57826Y-52696D01*
X55177Y-53701D02*
X55177Y-54429D01*
X55177Y-54429D02*
X55177Y-54882D01*
X55177Y-54882D02*
X55353Y-55059D01*
X59389Y-55039D02*
X58740Y-55039D01*
X57185Y-55688D02*
X55885Y-55688D01*
X57185Y-55216D02*
X57185Y-55688D01*
X57303Y-55098D02*
X57185Y-55216D01*
X58681Y-55098D02*
X57303Y-55098D01*
X58740Y-55039D02*
X58681Y-55098D01*
X55885Y-55688D02*
X55413Y-55688D01*
X55353Y-55629D02*
X55353Y-55059D01*
X55413Y-55688D02*
X55353Y-55629D01*
X58169Y-49429D02*
X57913Y-49173D01*
X56569Y-49178D02*
X56569Y-49443D01*
X56569Y-50295D02*
X56569Y-49443D01*
X56594Y-49153D02*
X56569Y-49178D01*
X64173Y-50413D02*
X64173Y-51830D01*
X64173Y-51830D02*
X64173Y-53287D01*
X63956Y-53287D02*
X64173Y-53287D01*
X63523Y-53720D02*
X63956Y-53287D01*
X55177Y-53701D02*
X55512Y-53701D01*
X59547Y-56988D02*
X61240Y-56988D01*
X59389Y-56830D02*
X59547Y-56988D01*
X59389Y-55059D02*
X59389Y-55039D01*
X59389Y-55039D02*
X59389Y-56830D01*
X59429Y-55019D02*
X59389Y-55059D01*
X64704Y-49507D02*
X64704Y-49882D01*
X64704Y-49882D02*
X64173Y-50413D01*
X64704Y-49507D02*
X64639Y-49442D01*
X60112Y-50295D02*
X60112Y-49429D01*
X60112Y-49429D02*
X60098Y-49429D01*
X60899Y-50295D02*
X60899Y-51942D01*
X60899Y-49468D02*
X60899Y-50295D01*
X59325Y-50295D02*
X59325Y-49429D01*
X59311Y-49468D02*
X59311Y-49429D01*
X59311Y-49443D02*
X59311Y-49468D01*
X59325Y-49429D02*
X59311Y-49443D01*
X58169Y-49429D02*
X59311Y-49429D01*
X59311Y-49429D02*
X60098Y-49429D01*
X55177Y-53701D02*
X55353Y-53701D01*
X60899Y-51942D02*
X61102Y-52145D01*
X61102Y-53681D02*
X61102Y-52145D01*
X63432Y-49468D02*
X63432Y-49672D01*
X63432Y-49672D02*
X64173Y-50413D01*
X90728Y-58996D02*
X90728Y-58306D01*
X87854Y-61712D02*
X87933Y-61633D01*
X86200Y-61712D02*
X87854Y-61712D01*
X86082Y-61830D02*
X86200Y-61712D01*
X90019Y-60688D02*
X90669Y-60688D01*
X63547Y-55830D02*
X62637Y-55830D01*
X63838Y-56122D02*
X63547Y-55830D01*
X63838Y-56791D02*
X63838Y-56122D01*
X63996Y-56948D02*
X63838Y-56791D01*
X60899Y-49468D02*
X63432Y-49468D01*
X63432Y-49468D02*
X63582Y-49318D01*
X63582Y-49318D02*
X63576Y-49324D01*
X60899Y-49443D02*
X60899Y-49468D01*
X60885Y-49429D02*
X60899Y-49443D01*
X60098Y-49429D02*
X60885Y-49429D01*
X67854Y-54881D02*
X69567Y-54881D01*
X69567Y-54881D02*
X69783Y-54665D01*
X62637Y-55830D02*
X61255Y-55830D01*
X61255Y-55830D02*
X61240Y-55846D01*
X61240Y-55846D02*
X61240Y-56988D01*
X61988Y-58720D02*
X62893Y-59625D01*
X61240Y-56988D02*
X61240Y-58366D01*
X61240Y-58366D02*
X61594Y-58720D01*
X61594Y-58720D02*
X61988Y-58720D01*
X61948Y-61358D02*
X61948Y-61948D01*
X61948Y-61358D02*
X61948Y-61043D01*
X63562Y-59625D02*
X62893Y-59625D01*
X63720Y-59783D02*
X63562Y-59625D01*
X61948Y-61043D02*
X61594Y-60334D01*
X70334Y-58523D02*
X70334Y-57809D01*
X70374Y-58562D02*
X70334Y-58523D01*
X68444Y-62309D02*
X67887Y-62309D01*
X67887Y-62309D02*
X67775Y-62421D01*
X66870Y-59429D02*
X67769Y-59429D01*
X66830Y-59389D02*
X66870Y-59429D01*
X72269Y-61319D02*
X73759Y-61319D01*
X73759Y-61319D02*
X74192Y-60885D01*
X72269Y-58799D02*
X72775Y-58799D01*
X74923Y-59053D02*
X74923Y-58329D01*
X74822Y-59153D02*
X74923Y-59053D01*
X74192Y-59153D02*
X74822Y-59153D01*
X73759Y-58720D02*
X74192Y-59153D01*
X72854Y-58720D02*
X73759Y-58720D01*
X72775Y-58799D02*
X72854Y-58720D01*
X70334Y-57809D02*
X70334Y-57106D01*
X70334Y-57106D02*
X69783Y-56555D01*
X69783Y-56555D02*
X69783Y-54665D01*
X71165Y-55294D02*
X70412Y-55294D01*
X74587Y-55294D02*
X74551Y-55294D01*
X75255Y-54625D02*
X74587Y-55294D01*
X70412Y-55294D02*
X69783Y-54665D01*
X78228Y-61909D02*
X78228Y-61342D01*
X76043Y-61358D02*
X75807Y-61122D01*
X78212Y-61358D02*
X76043Y-61358D01*
X78228Y-61342D02*
X78212Y-61358D01*
X77923Y-58329D02*
X77923Y-57706D01*
X78090Y-57539D02*
X78641Y-57539D01*
X77923Y-57706D02*
X78090Y-57539D01*
X75550Y-57381D02*
X75550Y-56731D01*
X75550Y-56731D02*
X75452Y-56633D01*
X74551Y-55294D02*
X74551Y-56382D01*
X74551Y-56382D02*
X75550Y-57381D01*
X75423Y-58329D02*
X75423Y-57509D01*
X75423Y-57509D02*
X75550Y-57381D01*
X76423Y-58329D02*
X76923Y-58329D01*
X75923Y-58329D02*
X76423Y-58329D01*
X75423Y-58329D02*
X75923Y-58329D01*
X74923Y-58329D02*
X75423Y-58329D01*
X79490Y-58329D02*
X79490Y-58781D01*
X79490Y-58781D02*
X79822Y-59114D01*
X79990Y-58329D02*
X80490Y-58329D01*
X79490Y-58329D02*
X79990Y-58329D01*
X84557Y-58289D02*
X85057Y-58289D01*
X84057Y-58289D02*
X84557Y-58289D01*
X84057Y-58289D02*
X84057Y-58899D01*
X84057Y-58899D02*
X84114Y-58956D01*
X87110Y-56279D02*
X87110Y-56283D01*
X86057Y-59454D02*
X86161Y-59350D01*
X86161Y-59350D02*
X86712Y-59350D01*
X86712Y-59350D02*
X87381Y-60019D01*
X87381Y-60019D02*
X88444Y-60019D01*
X88444Y-60019D02*
X88444Y-58523D01*
X88444Y-58523D02*
X88011Y-58090D01*
X86057Y-59454D02*
X86057Y-60489D01*
X88011Y-57736D02*
X88011Y-58090D01*
X87405Y-57129D02*
X88011Y-57736D01*
X87405Y-56578D02*
X87405Y-57129D01*
X87110Y-56283D02*
X87405Y-56578D01*
X87110Y-56323D02*
X87110Y-56279D01*
X87110Y-56279D02*
X87110Y-55294D01*
X85378Y-55294D02*
X85378Y-56598D01*
X86557Y-59785D02*
X86557Y-60489D01*
X86555Y-59783D02*
X86557Y-59785D01*
X85378Y-56598D02*
X85492Y-56712D01*
X98248Y-51751D02*
X98917Y-51751D01*
X98917Y-51751D02*
X98937Y-51732D01*
X95709Y-51633D02*
X95551Y-51633D01*
X95492Y-51633D02*
X95709Y-51633D01*
X95551Y-51633D02*
X94862Y-52322D01*
X93188Y-60688D02*
X93188Y-61767D01*
X93188Y-61767D02*
X91870Y-63086D01*
X106358Y-56496D02*
X107086Y-56496D01*
X107086Y-56496D02*
X107696Y-55885D01*
X75688Y-48523D02*
X75688Y-49209D01*
X77618Y-49212D02*
X77755Y-49074D01*
X75691Y-49212D02*
X77618Y-49212D01*
X75688Y-49209D02*
X75691Y-49212D01*
X77755Y-49074D02*
X77755Y-50019D01*
X77755Y-50019D02*
X77913Y-50177D01*
X77913Y-50177D02*
X79606Y-50177D01*
X79606Y-50177D02*
X80354Y-49429D01*
X80354Y-49429D02*
X82027Y-49429D01*
X85492Y-52303D02*
X85492Y-51830D01*
X85452Y-51870D02*
X85255Y-51870D01*
X85492Y-51830D02*
X85452Y-51870D01*
X85059Y-51712D02*
X85098Y-51712D01*
X82027Y-49429D02*
X82460Y-49862D01*
X82460Y-49862D02*
X83720Y-49862D01*
X83917Y-51358D02*
X83996Y-51279D01*
X83996Y-51279D02*
X84940Y-51279D01*
X84940Y-51279D02*
X85059Y-51397D01*
X85059Y-51397D02*
X85059Y-51712D01*
X85098Y-51712D02*
X85255Y-51870D01*
X85531Y-52342D02*
X85531Y-52381D01*
X85492Y-52303D02*
X85531Y-52342D01*
X86003Y-52854D02*
X86279Y-52854D01*
X85531Y-52381D02*
X86003Y-52854D01*
X105039Y-50167D02*
X106269Y-50167D01*
X106269Y-50167D02*
X106358Y-50078D01*
X65866Y-59744D02*
X67769Y-59744D01*
X67769Y-59744D02*
X67769Y-59744D01*
X105844Y-48998D02*
X105844Y-48998D01*
X105295Y-49547D02*
X105844Y-48998D01*
X104055Y-58917D02*
X104055Y-59961D01*
X102933Y-61791D02*
X102696Y-61555D01*
X104035Y-61791D02*
X102933Y-61791D01*
X104901Y-60925D02*
X104035Y-61791D01*
X104901Y-60807D02*
X104901Y-60925D01*
X104055Y-59961D02*
X104901Y-60807D01*
X95688Y-57893D02*
X95688Y-58326D01*
X97598Y-58484D02*
X97912Y-58169D01*
X95846Y-58484D02*
X97598Y-58484D01*
X95688Y-58326D02*
X95846Y-58484D01*
X96633Y-59625D02*
X97440Y-59625D01*
X97440Y-59625D02*
X97912Y-60098D01*
X99212Y-60098D02*
X99212Y-59448D01*
X99212Y-59448D02*
X99271Y-59389D01*
X99271Y-59389D02*
X99271Y-59271D01*
X91830Y-51791D02*
X91299Y-51791D01*
X91830Y-51791D02*
X94251Y-51791D01*
X94409Y-51633D02*
X94251Y-51791D01*
X91043Y-52578D02*
X90610Y-53011D01*
X91043Y-52047D02*
X91043Y-52578D01*
X91299Y-51791D02*
X91043Y-52047D01*
X94409Y-51633D02*
X94409Y-51201D01*
X94409Y-51201D02*
X95098Y-50512D01*
X62893Y-61358D02*
X64290Y-61358D01*
X64290Y-61358D02*
X64566Y-61082D01*
X61948Y-60137D02*
X64153Y-60137D01*
X64192Y-60098D02*
X64192Y-60117D01*
X64153Y-60137D02*
X64192Y-60098D01*
X61948Y-59625D02*
X61948Y-60137D01*
X64192Y-60117D02*
X64566Y-59744D01*
X103562Y-57657D02*
X104055Y-57657D01*
X103444Y-57775D02*
X103562Y-57657D01*
X83011Y-49153D02*
X83306Y-49153D01*
X82696Y-49468D02*
X83011Y-49153D01*
X90688Y-51673D02*
X90688Y-52381D01*
X91476Y-50885D02*
X90688Y-51673D01*
X90650Y-49035D02*
X90708Y-49035D01*
X90708Y-49035D02*
X91476Y-49803D01*
X91476Y-49803D02*
X91476Y-50885D01*
X93307Y-54094D02*
X93307Y-54488D01*
X93523Y-53897D02*
X93602Y-53818D01*
X93307Y-54094D02*
X93110Y-53897D01*
X93110Y-53897D02*
X93523Y-53897D01*
X92637Y-54803D02*
X92637Y-57302D01*
X92736Y-54704D02*
X92637Y-54803D01*
X93090Y-54704D02*
X92736Y-54704D01*
X93307Y-54488D02*
X93090Y-54704D01*
X93169Y-55216D02*
X93169Y-54881D01*
X93602Y-54448D02*
X93602Y-54370D01*
X93169Y-54881D02*
X93602Y-54448D01*
X91279Y-50340D02*
X91279Y-50807D01*
X91279Y-50807D02*
X90374Y-51712D01*
X90919Y-49980D02*
X91279Y-50340D01*
X90919Y-49980D02*
X90650Y-49980D01*
X90374Y-52047D02*
X90374Y-51712D01*
X90393Y-52066D02*
X90374Y-52047D01*
X95629Y-47893D02*
X95176Y-47893D01*
X95866Y-47657D02*
X95629Y-47893D01*
X96240Y-51633D02*
X96240Y-51614D01*
X94586Y-54311D02*
X94586Y-56003D01*
X94625Y-54271D02*
X94586Y-54311D01*
X94980Y-54271D02*
X94625Y-54271D01*
X95177Y-54074D02*
X94980Y-54271D01*
X95177Y-53051D02*
X95177Y-54074D01*
X96240Y-51988D02*
X95177Y-53051D01*
X96240Y-51633D02*
X96240Y-51988D01*
X96240Y-51614D02*
X96279Y-51574D01*
X96476Y-51968D02*
X96555Y-51889D01*
X94901Y-55610D02*
X95177Y-55885D01*
X94901Y-54625D02*
X94901Y-55610D01*
X95374Y-54153D02*
X94901Y-54625D01*
X95374Y-53132D02*
X95374Y-54153D01*
X96476Y-51990D02*
X95374Y-53132D01*
X96476Y-51990D02*
X96476Y-51968D01*
X78385Y-44448D02*
X78385Y-42834D01*
X78777Y-44840D02*
X78385Y-44448D01*
X78777Y-44842D02*
X78777Y-44840D01*
X80151Y-46216D02*
X78777Y-44842D01*
X80151Y-46614D02*
X80151Y-46216D01*
X77204Y-44370D02*
X77204Y-43818D01*
X77362Y-44527D02*
X77204Y-44370D01*
X77775Y-44527D02*
X77362Y-44527D01*
X79561Y-46313D02*
X77775Y-44527D01*
X79561Y-46614D02*
X79561Y-46313D01*
X77677Y-42913D02*
X77598Y-42834D01*
X77677Y-44251D02*
X77677Y-42913D01*
X77775Y-44350D02*
X77677Y-44251D01*
X77832Y-44350D02*
X77775Y-44350D01*
X79758Y-46276D02*
X77832Y-44350D01*
X79758Y-46614D02*
X79758Y-46276D01*
X77992Y-44283D02*
X77992Y-43818D01*
X79954Y-46246D02*
X77992Y-44283D01*
X79954Y-46614D02*
X79954Y-46246D01*
X78934Y-43973D02*
X78779Y-43818D01*
X78934Y-44772D02*
X78934Y-43973D01*
X80348Y-46186D02*
X78934Y-44772D01*
X80348Y-46614D02*
X80348Y-46186D01*
X79094Y-44695D02*
X79094Y-44685D01*
X80545Y-46146D02*
X79094Y-44695D01*
X79094Y-42913D02*
X79173Y-42834D01*
X79094Y-44685D02*
X79094Y-42913D01*
X80545Y-46397D02*
X80545Y-46146D01*
X80545Y-46614D02*
X80545Y-46397D01*
X79566Y-44921D02*
X79566Y-44940D01*
X79566Y-44940D02*
X80742Y-46116D01*
X79566Y-44921D02*
X79566Y-43818D01*
X80742Y-46116D02*
X80742Y-46323D01*
X80742Y-46614D02*
X80742Y-46323D01*
X80939Y-46283D02*
X80939Y-46077D01*
X80196Y-45334D02*
X80194Y-45334D01*
X80194Y-45332D02*
X80196Y-45334D01*
X80194Y-45332D02*
X80194Y-45332D01*
X80939Y-46077D02*
X80194Y-45332D01*
X80194Y-44406D02*
X80039Y-44251D01*
X80039Y-44251D02*
X80039Y-42913D01*
X79960Y-42834D02*
X80039Y-42913D01*
X80194Y-45334D02*
X80194Y-44406D01*
X80000Y-42874D02*
X79960Y-42834D01*
X80939Y-46283D02*
X80939Y-46614D01*
X80354Y-45118D02*
X80354Y-45265D01*
X81136Y-46047D02*
X81136Y-46254D01*
X80354Y-45265D02*
X81136Y-46047D01*
X80354Y-45118D02*
X80354Y-43818D01*
X81136Y-46614D02*
X81136Y-46254D01*
X81332Y-46614D02*
X81332Y-46017D01*
X80728Y-42854D02*
X80748Y-42834D01*
X80728Y-45413D02*
X80728Y-42854D01*
X81332Y-46017D02*
X80728Y-45413D01*
X82514Y-46614D02*
X82514Y-44699D01*
X82322Y-44507D02*
X82322Y-42834D01*
X82514Y-44699D02*
X82322Y-44507D01*
X75033Y-46614D02*
X75033Y-44415D01*
X75033Y-44415D02*
X75629Y-43818D01*
X74836Y-46614D02*
X75033Y-46614D01*
X76283Y-55294D02*
X76283Y-57377D01*
X76283Y-57377D02*
X76240Y-57421D01*
X78423Y-59368D02*
X78423Y-58329D01*
X79074Y-59586D02*
X78423Y-59368D01*
X81047Y-55294D02*
X81047Y-56708D01*
X80990Y-59561D02*
X80990Y-60489D01*
X81240Y-59311D02*
X80990Y-59561D01*
X81240Y-59074D02*
X81240Y-59311D01*
X81397Y-58917D02*
X81240Y-59074D01*
X81047Y-56708D02*
X81003Y-56751D01*
X82716Y-43818D02*
X82716Y-46609D01*
X82716Y-46609D02*
X82710Y-46614D01*
X81529Y-46614D02*
X81529Y-44699D01*
X81141Y-44311D02*
X81141Y-43818D01*
X81529Y-44699D02*
X81141Y-44311D01*
X81545Y-44438D02*
X81525Y-44438D01*
X81456Y-42913D02*
X81535Y-42834D01*
X81456Y-44370D02*
X81456Y-42913D01*
X81525Y-44438D02*
X81456Y-44370D01*
X81726Y-44620D02*
X81545Y-44438D01*
X81545Y-44438D02*
X81535Y-44429D01*
X81726Y-46614D02*
X81726Y-44620D01*
X99212Y-58169D02*
X99212Y-58583D01*
X99212Y-58583D02*
X99507Y-58799D01*
X80614Y-55294D02*
X80614Y-56913D01*
X82990Y-57990D02*
X82990Y-58289D01*
X82106Y-57106D02*
X82990Y-57990D01*
X80807Y-57106D02*
X82106Y-57106D01*
X80614Y-56913D02*
X80807Y-57106D01*
X106712Y-52972D02*
X106712Y-53877D01*
X106791Y-52893D02*
X106712Y-52972D01*
X105177Y-62874D02*
X106287Y-62874D01*
X106287Y-62874D02*
X106476Y-62685D01*
X80181Y-55294D02*
X80181Y-56953D01*
X80990Y-58891D02*
X80990Y-58289D01*
X80885Y-58996D02*
X80990Y-58891D01*
X80177Y-56948D02*
X80177Y-56909D01*
X80181Y-56953D02*
X80177Y-56948D01*
X87421Y-49468D02*
X87421Y-49625D01*
X86830Y-50216D02*
X86633Y-50216D01*
X87421Y-49625D02*
X86830Y-50216D01*
X84567Y-51948D02*
X84940Y-51948D01*
X86633Y-53051D02*
X86633Y-50216D01*
X86515Y-53169D02*
X86633Y-53051D01*
X85846Y-53169D02*
X86515Y-53169D01*
X85295Y-52618D02*
X85846Y-53169D01*
X85295Y-52303D02*
X85295Y-52618D01*
X84940Y-51948D02*
X85295Y-52303D01*
X88996Y-50865D02*
X88936Y-50865D01*
X88366Y-49192D02*
X88366Y-48681D01*
X88267Y-49291D02*
X88366Y-49192D01*
X88267Y-50196D02*
X88267Y-49291D01*
X88936Y-50865D02*
X88267Y-50196D01*
X87578Y-48720D02*
X88011Y-48720D01*
X86909Y-48366D02*
X86476Y-47933D01*
X86476Y-47618D02*
X86476Y-47933D01*
X88051Y-48681D02*
X88366Y-48681D01*
X88011Y-48720D02*
X88051Y-48681D01*
X82490Y-58289D02*
X82490Y-58041D01*
X79748Y-57189D02*
X79748Y-55294D01*
X79940Y-57381D02*
X79748Y-57189D01*
X81830Y-57381D02*
X79940Y-57381D01*
X82490Y-58041D02*
X81830Y-57381D01*
X88996Y-52165D02*
X88661Y-52165D01*
X87224Y-52775D02*
X86636Y-53363D01*
X88051Y-52775D02*
X87224Y-52775D01*
X88661Y-52165D02*
X88051Y-52775D01*
X84311Y-53287D02*
X86636Y-53363D01*
X84271Y-53326D02*
X84311Y-53287D01*
X81490Y-58289D02*
X81490Y-57828D01*
X79315Y-57189D02*
X79315Y-55294D01*
X79783Y-57657D02*
X79315Y-57189D01*
X81318Y-57657D02*
X79783Y-57657D01*
X81490Y-57828D02*
X81318Y-57657D01*
X83799Y-51948D02*
X83267Y-51948D01*
X83917Y-52066D02*
X83799Y-51948D01*
X78882Y-55294D02*
X78882Y-56983D01*
X76923Y-59836D02*
X76923Y-60529D01*
X76909Y-59822D02*
X76923Y-59836D01*
X78882Y-56983D02*
X78877Y-56988D01*
X84567Y-50531D02*
X83917Y-50570D01*
X83917Y-50570D02*
X83838Y-50492D01*
X79232Y-57657D02*
X78877Y-58011D01*
X78877Y-58011D02*
X78877Y-59074D01*
X78449Y-55294D02*
X78449Y-56638D01*
X78449Y-56638D02*
X78484Y-56673D01*
X77423Y-59942D02*
X77423Y-60529D01*
X77381Y-59901D02*
X77423Y-59942D01*
X74842Y-43818D02*
X74842Y-43228D01*
X74842Y-43228D02*
X75236Y-42834D01*
X75236Y-42834D02*
X74763Y-42834D01*
X73149Y-44448D02*
X73149Y-46530D01*
X74763Y-42834D02*
X73149Y-44448D01*
X73262Y-46614D02*
X73262Y-43824D01*
X75039Y-42637D02*
X75236Y-42834D01*
X73262Y-43824D02*
X74448Y-42637D01*
X73458Y-46614D02*
X73458Y-43824D01*
X73458Y-43824D02*
X74566Y-42716D01*
X75118Y-42716D02*
X75236Y-42834D01*
X73655Y-46614D02*
X73655Y-43903D01*
X74724Y-42834D02*
X75236Y-42834D01*
X73655Y-43903D02*
X74724Y-42834D01*
X75236Y-42834D02*
X75000Y-42834D01*
X75000Y-42834D02*
X73852Y-43982D01*
X73852Y-43982D02*
X73852Y-46614D01*
X73149Y-46530D02*
X73065Y-46614D01*
X74448Y-42637D02*
X75039Y-42637D01*
X74566Y-42716D02*
X75118Y-42716D01*
X73262Y-46614D02*
X73065Y-46614D01*
X73458Y-46614D02*
X73262Y-46614D01*
X73655Y-46614D02*
X73458Y-46614D01*
X73852Y-46614D02*
X73655Y-46614D01*
X77923Y-60529D02*
X77923Y-58966D01*
X78055Y-56826D02*
X78016Y-55294D01*
X77972Y-56909D02*
X78055Y-56826D01*
X77923Y-58966D02*
X77933Y-58956D01*
X94862Y-53956D02*
X94232Y-53956D01*
X94232Y-53956D02*
X94133Y-54055D01*
X94133Y-55019D02*
X94133Y-54055D01*
X94133Y-54055D02*
X94133Y-53188D01*
X94133Y-53188D02*
X93956Y-53011D01*
X76423Y-60529D02*
X76423Y-59809D01*
X77578Y-56633D02*
X77582Y-55294D01*
X77500Y-57027D02*
X77578Y-56633D01*
X76423Y-59809D02*
X76397Y-59783D01*
X87057Y-60489D02*
X87057Y-60856D01*
X84945Y-56598D02*
X84945Y-55294D01*
X85019Y-56673D02*
X84945Y-56598D01*
X86791Y-61042D02*
X86200Y-61043D01*
X87057Y-60856D02*
X86791Y-61042D01*
X84512Y-55294D02*
X84512Y-56598D01*
X85557Y-60242D02*
X85557Y-60489D01*
X85177Y-59862D02*
X85557Y-60242D01*
X84507Y-59862D02*
X85177Y-59862D01*
X84468Y-59822D02*
X84507Y-59862D01*
X84468Y-59744D02*
X84468Y-59822D01*
X84512Y-56598D02*
X84547Y-56633D01*
X84079Y-56712D02*
X84114Y-56712D01*
X84468Y-57066D02*
X84547Y-57066D01*
X84114Y-56712D02*
X84468Y-57066D01*
X84079Y-55294D02*
X84079Y-56712D01*
X87557Y-57596D02*
X87557Y-58289D01*
X87027Y-57066D02*
X87557Y-57596D01*
X84547Y-57066D02*
X87027Y-57066D01*
X83681Y-57657D02*
X83681Y-55329D01*
X85557Y-57879D02*
X85334Y-57657D01*
X85334Y-57657D02*
X83681Y-57657D01*
X85557Y-58289D02*
X85557Y-57879D01*
X83681Y-55329D02*
X83645Y-55294D01*
X86555Y-57342D02*
X86870Y-57342D01*
X87066Y-57933D02*
X87057Y-57933D01*
X87066Y-57539D02*
X87066Y-57933D01*
X86870Y-57342D02*
X87066Y-57539D01*
X83212Y-55294D02*
X83212Y-57149D01*
X87057Y-57933D02*
X87057Y-58289D01*
X84192Y-57342D02*
X86555Y-57342D01*
X84114Y-57263D02*
X84192Y-57342D01*
X83212Y-57149D02*
X83287Y-57224D01*
X84114Y-59311D02*
X83877Y-59311D01*
X83759Y-58956D02*
X83720Y-58917D01*
X83759Y-59192D02*
X83759Y-58956D01*
X83877Y-59311D02*
X83759Y-59192D01*
X86057Y-58641D02*
X86057Y-59139D01*
X84114Y-59311D02*
X84114Y-59311D01*
X83720Y-58917D02*
X83562Y-58759D01*
X84114Y-59429D02*
X84114Y-59311D01*
X84311Y-59232D02*
X84114Y-59429D01*
X85964Y-59232D02*
X84311Y-59232D01*
X86057Y-59139D02*
X85964Y-59232D01*
X82834Y-57362D02*
X82874Y-57362D01*
X83090Y-57578D02*
X83169Y-57578D01*
X82874Y-57362D02*
X83090Y-57578D01*
X82779Y-57224D02*
X82779Y-57307D01*
X82779Y-57224D02*
X82779Y-55294D01*
X86057Y-58289D02*
X86057Y-58641D01*
X83405Y-57578D02*
X83169Y-57578D01*
X83444Y-57618D02*
X83405Y-57578D01*
X83444Y-58641D02*
X83444Y-57618D01*
X83562Y-58759D02*
X83444Y-58641D01*
X82779Y-57307D02*
X82834Y-57362D01*
X82386Y-56834D02*
X82421Y-56870D01*
X82346Y-55294D02*
X82386Y-56834D01*
X81490Y-60005D02*
X81490Y-60489D01*
X81909Y-59586D02*
X81490Y-60005D01*
X82893Y-59586D02*
X81909Y-59586D01*
X83405Y-59074D02*
X82893Y-59586D01*
X81990Y-60489D02*
X82224Y-59862D01*
X82224Y-59862D02*
X83090Y-59862D01*
X81913Y-56441D02*
X81913Y-55294D01*
X81948Y-56751D02*
X81913Y-56441D01*
X81480Y-55294D02*
X81520Y-56629D01*
X82490Y-61131D02*
X82490Y-60489D01*
X82460Y-61161D02*
X82490Y-61131D01*
X81520Y-56629D02*
X81476Y-56673D01*
X70019Y-57809D02*
X70019Y-57185D01*
X69016Y-56181D02*
X67854Y-56181D01*
X70019Y-57185D02*
X69016Y-56181D01*
X57613Y-53681D02*
X57696Y-53681D01*
X57826Y-53551D02*
X57826Y-53071D01*
X57696Y-53681D02*
X57826Y-53551D01*
X57613Y-53681D02*
X57613Y-53701D01*
X56633Y-53701D02*
X57613Y-53701D01*
X57613Y-53701D02*
X58026Y-54114D01*
X71594Y-62309D02*
X71594Y-61673D01*
X65551Y-62421D02*
X65236Y-62736D01*
X67145Y-62421D02*
X65551Y-62421D01*
X67933Y-63208D02*
X67145Y-62421D01*
X68917Y-63208D02*
X67933Y-63208D01*
X69192Y-62933D02*
X68917Y-63208D01*
X71594Y-61673D02*
X71594Y-61673D01*
X67598Y-49232D02*
X67598Y-49842D01*
X68514Y-51958D02*
X68290Y-51958D01*
X68838Y-51633D02*
X68514Y-51958D01*
X67598Y-49842D02*
X68484Y-50728D01*
X67890Y-51958D02*
X67890Y-50652D01*
X67890Y-50652D02*
X67893Y-50649D01*
X68090Y-51958D02*
X68090Y-51240D01*
X68898Y-51142D02*
X68898Y-49232D01*
X68956Y-51200D02*
X68898Y-51142D01*
X68129Y-51200D02*
X68956Y-51200D01*
X68090Y-51240D02*
X68129Y-51200D01*
X70177Y-49232D02*
X68898Y-49232D01*
X70492Y-49547D02*
X70177Y-49232D01*
X57854Y-62106D02*
X58504Y-62106D01*
X56259Y-62106D02*
X57204Y-62106D01*
X63523Y-50728D02*
X63090Y-51161D01*
X63090Y-51161D02*
X62696Y-51161D01*
X62696Y-51161D02*
X62145Y-50610D01*
X63169Y-48759D02*
X63169Y-49074D01*
X62854Y-48444D02*
X63169Y-48759D01*
X63169Y-49074D02*
X63169Y-49153D01*
X61751Y-51200D02*
X61751Y-53681D01*
X61318Y-50767D02*
X61751Y-51200D01*
X62145Y-51791D02*
X62145Y-51633D01*
X62185Y-52500D02*
X62145Y-52460D01*
X62145Y-52460D02*
X62145Y-51791D01*
X57893Y-56397D02*
X58504Y-56397D01*
X56259Y-56397D02*
X57204Y-56397D01*
X67769Y-60059D02*
X67066Y-60059D01*
X66043Y-61082D02*
X65866Y-61082D01*
X67066Y-60059D02*
X66043Y-61082D01*
X54625Y-49842D02*
X54724Y-49842D01*
X54724Y-49842D02*
X55216Y-49350D01*
X57854Y-59822D02*
X58504Y-59822D01*
X58504Y-57539D02*
X57854Y-57539D01*
X56259Y-57539D02*
X57204Y-57539D01*
X57854Y-58681D02*
X58504Y-58681D01*
X56259Y-58681D02*
X57204Y-58681D01*
X56259Y-59822D02*
X57204Y-59822D01*
X58504Y-60964D02*
X57854Y-60964D01*
X56259Y-60964D02*
X57204Y-60964D01*
X54625Y-51142D02*
X54625Y-50531D01*
X54625Y-50531D02*
X54586Y-50492D01*
X60098Y-57598D02*
X59842Y-57598D01*
X62854Y-53287D02*
X62873Y-53287D01*
X62460Y-53917D02*
X62854Y-53287D01*
X58917Y-54665D02*
X60334Y-54665D01*
X58877Y-54704D02*
X58917Y-54665D01*
X59035Y-55374D02*
X58996Y-55334D01*
X59035Y-56791D02*
X59035Y-55374D01*
X59842Y-57598D02*
X59035Y-56791D01*
X60702Y-50295D02*
X60702Y-49915D01*
X60702Y-49915D02*
X60570Y-49783D01*
X61490Y-50295D02*
X61490Y-50447D01*
X61490Y-49808D02*
X61490Y-50295D01*
X61515Y-49783D02*
X61490Y-49808D01*
X61490Y-50447D02*
X62873Y-51830D01*
X62873Y-53287D02*
X62873Y-51830D01*
X60098Y-57598D02*
X60098Y-58051D01*
X62637Y-58424D02*
X62637Y-57830D01*
X62854Y-58641D02*
X62637Y-58424D01*
X60098Y-58051D02*
X60688Y-58641D01*
X62637Y-57830D02*
X62988Y-57830D01*
X67027Y-59114D02*
X67769Y-59114D01*
X66673Y-58759D02*
X67027Y-59114D01*
X63917Y-58759D02*
X66673Y-58759D01*
X62988Y-57830D02*
X63917Y-58759D01*
X87557Y-60964D02*
X87460Y-60964D01*
X86988Y-61437D02*
X86870Y-61437D01*
X87460Y-60964D02*
X86988Y-61437D01*
X85255Y-61318D02*
X85374Y-61437D01*
X85374Y-61437D02*
X86870Y-61437D01*
X87557Y-60964D02*
X87557Y-60489D01*
X72269Y-58484D02*
X71279Y-58484D01*
X69704Y-57809D02*
X69704Y-58799D01*
X69704Y-58799D02*
X69822Y-58917D01*
X67769Y-59114D02*
X69626Y-59114D01*
X69626Y-59114D02*
X69822Y-58917D01*
X71279Y-57809D02*
X71279Y-58484D01*
X71279Y-58484D02*
X71279Y-58720D01*
X68759Y-62815D02*
X68759Y-62309D01*
X68720Y-62854D02*
X68759Y-62815D01*
X71082Y-58917D02*
X69822Y-58917D01*
X71279Y-58720D02*
X71082Y-58917D01*
X71279Y-56634D02*
X71279Y-57809D01*
X74389Y-58799D02*
X74035Y-58444D01*
X74035Y-58444D02*
X73720Y-58444D01*
X73720Y-58444D02*
X72106Y-56830D01*
X71240Y-56594D02*
X71279Y-56634D01*
X72269Y-61634D02*
X72854Y-61634D01*
X73602Y-61594D02*
X74507Y-61279D01*
X72854Y-61634D02*
X73602Y-61594D01*
X78423Y-60529D02*
X78722Y-60529D01*
X80885Y-61122D02*
X81830Y-61122D01*
X80846Y-61161D02*
X80885Y-61122D01*
X79507Y-59744D02*
X80137Y-59744D01*
X78722Y-60529D02*
X79507Y-59744D01*
X82990Y-61021D02*
X82990Y-60489D01*
X83129Y-61161D02*
X82990Y-61021D01*
X54881Y-47539D02*
X54074Y-47539D01*
X54980Y-47637D02*
X54881Y-47539D01*
X53602Y-62618D02*
X53602Y-49724D01*
X53858Y-62874D02*
X53602Y-62618D01*
X60098Y-55688D02*
X59862Y-55688D01*
X61043Y-54744D02*
X60098Y-55688D01*
X72578Y-55294D02*
X72578Y-55688D01*
X58826Y-52330D02*
X58826Y-52321D01*
X59232Y-52736D02*
X58826Y-52330D01*
X58826Y-52321D02*
X59626Y-52321D01*
X59626Y-52321D02*
X59802Y-52145D01*
X71992Y-55294D02*
X72578Y-55294D01*
X72578Y-55294D02*
X73252Y-55294D01*
M02*
