G04 (created by PCBNEW (2013-may-18)-stable) date Sat Feb 17 15:49:28 2018*
%MOIN*%
G04 Gerber Fmt 3.4, Leading zero omitted, Abs format*
%FSLAX34Y34*%
G01*
G70*
G90*
G04 APERTURE LIST*
%ADD10C,0.00590551*%
%ADD11R,0.06X0.08*%
%ADD12R,0.08X0.06*%
%ADD13R,0.0629X0.0709*%
%ADD14R,0.0709X0.0629*%
%ADD15R,0.0708661X0.0433071*%
%ADD16R,0.0433071X0.0708661*%
%ADD17R,0.0394X0.0236*%
%ADD18R,0.0984252X0.0472441*%
%ADD19R,0.06X0.016*%
%ADD20R,0.016X0.06*%
%ADD21R,0.0177X0.0787*%
%ADD22R,0.0787X0.0177*%
%ADD23R,0.166929X0.05*%
%ADD24R,0.0708661X0.188976*%
G04 APERTURE END LIST*
G54D10*
G54D11*
X56377Y-48562D03*
X57677Y-48562D03*
X54881Y-62106D03*
X56181Y-62106D03*
X54881Y-60964D03*
X56181Y-60964D03*
X54881Y-56397D03*
X56181Y-56397D03*
X54881Y-57539D03*
X56181Y-57539D03*
X54881Y-58681D03*
X56181Y-58681D03*
X54881Y-59822D03*
X56181Y-59822D03*
G54D12*
X60098Y-53819D03*
X60098Y-52519D03*
G54D13*
X58452Y-56397D03*
X57334Y-56397D03*
X58413Y-60964D03*
X57295Y-60964D03*
X58413Y-59822D03*
X57295Y-59822D03*
X58413Y-58681D03*
X57295Y-58681D03*
X58413Y-57539D03*
X57295Y-57539D03*
X58413Y-62106D03*
X57295Y-62106D03*
G54D14*
X54625Y-49933D03*
X54625Y-51051D03*
X61200Y-48728D03*
X61200Y-47610D03*
G54D15*
X63484Y-56448D03*
X65924Y-56448D03*
X63484Y-55008D03*
X65924Y-55008D03*
G54D16*
X64007Y-50058D03*
X64007Y-47618D03*
X62567Y-50058D03*
X62567Y-47618D03*
G54D17*
X56377Y-49960D03*
X56377Y-49448D03*
X55629Y-49704D03*
G54D11*
X84055Y-62696D03*
X82755Y-62696D03*
G54D15*
X61476Y-53101D03*
X63916Y-53101D03*
X61476Y-51661D03*
X63916Y-51661D03*
G54D18*
X65905Y-50732D03*
X70826Y-50732D03*
X65905Y-47732D03*
X70826Y-47732D03*
G54D19*
X104868Y-58562D03*
X104868Y-58877D03*
X104868Y-59192D03*
X104868Y-59507D03*
X104868Y-59822D03*
X104868Y-60137D03*
X104868Y-58247D03*
X104868Y-57932D03*
X104868Y-57617D03*
X104868Y-57302D03*
X104868Y-56987D03*
X100368Y-58562D03*
X100368Y-58877D03*
X100368Y-59192D03*
X100368Y-59507D03*
X100368Y-59822D03*
X100368Y-60137D03*
X100368Y-58247D03*
X100368Y-57932D03*
X100368Y-57617D03*
X100368Y-57302D03*
X100368Y-56987D03*
G54D20*
X102618Y-60812D03*
X102618Y-56312D03*
X102303Y-60812D03*
X102303Y-56312D03*
X101988Y-56312D03*
X101988Y-60812D03*
X101673Y-60812D03*
X101673Y-56312D03*
X101358Y-56312D03*
X101358Y-60812D03*
X101043Y-60812D03*
X101043Y-56312D03*
X102933Y-56312D03*
X102933Y-60812D03*
X103248Y-60812D03*
X103248Y-56312D03*
X103563Y-56312D03*
X103563Y-60812D03*
X103878Y-60812D03*
X103878Y-56312D03*
X104193Y-56312D03*
X104193Y-60812D03*
X84192Y-48281D03*
X84507Y-48281D03*
X84822Y-48281D03*
X85137Y-48281D03*
X85452Y-48281D03*
X85767Y-48281D03*
X83877Y-48281D03*
X83562Y-48281D03*
X83247Y-48281D03*
X82932Y-48281D03*
X82617Y-48281D03*
X84192Y-52781D03*
X84507Y-52781D03*
X84822Y-52781D03*
X85137Y-52781D03*
X85452Y-52781D03*
X85767Y-52781D03*
X83877Y-52781D03*
X83562Y-52781D03*
X83247Y-52781D03*
X82932Y-52781D03*
X82617Y-52781D03*
G54D19*
X86442Y-50531D03*
X81942Y-50531D03*
X86442Y-50846D03*
X81942Y-50846D03*
X81942Y-51161D03*
X86442Y-51161D03*
X86442Y-51476D03*
X81942Y-51476D03*
X81942Y-51791D03*
X86442Y-51791D03*
X86442Y-52106D03*
X81942Y-52106D03*
X81942Y-50216D03*
X86442Y-50216D03*
X86442Y-49901D03*
X81942Y-49901D03*
X81942Y-49586D03*
X86442Y-49586D03*
X86442Y-49271D03*
X81942Y-49271D03*
X81942Y-48956D03*
X86442Y-48956D03*
G54D21*
X92706Y-55065D03*
X93021Y-55065D03*
X93336Y-55065D03*
X93651Y-55065D03*
X93966Y-55065D03*
X94281Y-55065D03*
X94596Y-55065D03*
X94911Y-55065D03*
X94909Y-51299D03*
X92699Y-51299D03*
X93019Y-51299D03*
X93339Y-51299D03*
X93649Y-51299D03*
X93969Y-51299D03*
X94279Y-51299D03*
X94599Y-51299D03*
G54D22*
X95699Y-54281D03*
X95699Y-53967D03*
X95699Y-53651D03*
X95699Y-53337D03*
X95699Y-53021D03*
X95699Y-52707D03*
X95699Y-52391D03*
X95699Y-52077D03*
X91919Y-54279D03*
X91919Y-53969D03*
X91919Y-53649D03*
X91919Y-53339D03*
X91919Y-53029D03*
X91919Y-52709D03*
X91919Y-52389D03*
X91919Y-52069D03*
G54D15*
X96201Y-60031D03*
X98641Y-60031D03*
X96201Y-58591D03*
X98641Y-58591D03*
G54D16*
X87606Y-50177D03*
X87606Y-52617D03*
X89046Y-50177D03*
X89046Y-52617D03*
G54D11*
X98543Y-48877D03*
X97243Y-48877D03*
X99724Y-49940D03*
X101024Y-49940D03*
X104055Y-51318D03*
X102755Y-51318D03*
G54D12*
X107972Y-47637D03*
X107972Y-48937D03*
X102263Y-47637D03*
X102263Y-48937D03*
X103641Y-47637D03*
X103641Y-48937D03*
X106476Y-47637D03*
X106476Y-48937D03*
X105019Y-48937D03*
X105019Y-47637D03*
G54D23*
X90668Y-50114D03*
X93228Y-50114D03*
X90668Y-49114D03*
X93228Y-49114D03*
X90668Y-48114D03*
X93228Y-48114D03*
X102519Y-54877D03*
X105079Y-54877D03*
X102519Y-53877D03*
X105079Y-53877D03*
X102519Y-52877D03*
X105079Y-52877D03*
G54D24*
X97598Y-54668D03*
X97598Y-51748D03*
G54D11*
X74882Y-52913D03*
X73582Y-52913D03*
G54D12*
X76181Y-51968D03*
X76181Y-53268D03*
X93720Y-57322D03*
X93720Y-58622D03*
X92637Y-57302D03*
X92637Y-58602D03*
G54D11*
X98543Y-47716D03*
X97243Y-47716D03*
X78188Y-53464D03*
X79488Y-53464D03*
X78188Y-52440D03*
X79488Y-52440D03*
X96831Y-49822D03*
X95531Y-49822D03*
X96850Y-50846D03*
X95550Y-50846D03*
G54D12*
X96377Y-48248D03*
X96377Y-46948D03*
X95275Y-48464D03*
X95275Y-47164D03*
M02*
