G04 (created by PCBNEW (2013-may-18)-stable) date Wed Mar  9 13:55:34 2016*
%MOIN*%
G04 Gerber Fmt 3.4, Leading zero omitted, Abs format*
%FSLAX34Y34*%
G01*
G70*
G90*
G04 APERTURE LIST*
%ADD10C,0.00590551*%
%ADD11C,0.00393701*%
G04 APERTURE END LIST*
G54D10*
G54D11*
X53208Y-63602D02*
X53169Y-63602D01*
X53169Y-47027D02*
X53208Y-47027D01*
X53169Y-63602D02*
X53169Y-47027D01*
X53208Y-63602D02*
X68169Y-63602D01*
X53208Y-47027D02*
X56791Y-47027D01*
X108799Y-63602D02*
X108799Y-62775D01*
X107933Y-63602D02*
X108799Y-63602D01*
X108799Y-47027D02*
X108799Y-47775D01*
X107972Y-47027D02*
X108799Y-47027D01*
X91397Y-47027D02*
X107972Y-47027D01*
X107893Y-63602D02*
X91397Y-63602D01*
X108799Y-47775D02*
X108799Y-62854D01*
X107894Y-63602D02*
G75*
G03X108799Y-62853I78J826D01*
G74*
G01*
X108799Y-47775D02*
G75*
G03X107971Y-47027I-787J-39D01*
G74*
G01*
X91397Y-47027D02*
X90964Y-47027D01*
X72421Y-47027D02*
X90964Y-47027D01*
X65255Y-47027D02*
X72421Y-47027D01*
X91397Y-63602D02*
X91043Y-63602D01*
X68169Y-63602D02*
X91043Y-63602D01*
X56791Y-47814D02*
X56791Y-47027D01*
X60531Y-47814D02*
X56791Y-47814D01*
X60531Y-47027D02*
X60531Y-47814D01*
X65255Y-47027D02*
X60531Y-47027D01*
M02*
