M48
;DRILL file {Pcbnew (2013-may-18)-stable} date Fri Mar 18 09:49:37 2016
;FORMAT={-:-/ absolute / inch / decimal}
FMAT,2
INCH,TZ
T1C0.025
T2C0.032
T3C0.039
T4C0.079
T5C0.091
T6C0.120
%
G90
G05
M72
T1
X5.4075Y-4.9272
X5.4114Y-5.0453
X5.4232Y-5.8445
X5.4232Y-6.0728
X5.4232Y-6.187
X5.4272Y-5.9626
X5.4311Y-5.7461
X5.4587Y-5.0492
X5.4783Y-5.5689
X5.5217Y-4.935
X5.5453Y-5.0295
X5.5453Y-5.3051
X5.5886Y-5.2697
X5.6083Y-5.439
X5.624Y-5.2972
X5.6319Y-5.1831
X5.6752Y-5.1831
X5.687Y-4.9469
X5.7185Y-5.2972
X5.7303Y-4.9469
X5.7382Y-5.187
X5.7382Y-5.2303
X5.7421Y-5.4075
X5.7618Y-4.9744
X5.7854Y-5.7539
X5.7854Y-5.8681
X5.7854Y-5.9823
X5.7854Y-6.0965
X5.7854Y-6.2106
X5.7894Y-5.6398
X5.8051Y-4.9744
X5.8248Y-4.9075
X5.8524Y-4.9744
X5.8563Y-5.3484
X5.8642Y-4.8445
X5.8642Y-5.0807
X5.8878Y-5.4705
X5.8917Y-5.1122
X5.8996Y-5.5335
X5.9075Y-5.3406
X5.9232Y-5.2736
X5.9272Y-5.0846
X5.9587Y-5.1201
X5.9783Y-4.8445
X5.9783Y-4.9114
X5.9783Y-4.9744
X5.9862Y-5.5689
X6.002Y-5.1161
X6.0335Y-5.4665
X6.0571Y-4.9783
X6.0689Y-5.8642
X6.1043Y-5.4744
X6.1319Y-5.0768
X6.1516Y-4.9783
X6.1594Y-6.0335
X6.1752Y-5.3681
X6.2106Y-4.9783
X6.2146Y-5.061
X6.2146Y-5.1634
X6.2185Y-5.25
X6.2461Y-5.3917
X6.2854Y-4.8445
X6.2854Y-5.8642
X6.3169Y-4.9154
X6.3524Y-5.0728
X6.3524Y-5.372
X6.372Y-5.9783
X6.3917Y-5.561
X6.3917Y-5.8169
X6.3957Y-4.939
X6.3996Y-5.6949
X6.4705Y-4.9508
X6.6634Y-6.1516
X6.6673Y-6.2736
X6.6713Y-5.6358
X6.6752Y-5.565
X6.6831Y-5.5138
X6.6831Y-5.939
X6.6988Y-5.8169
X6.7776Y-6.2421
X6.7894Y-5.065
X6.8484Y-5.0728
X6.872Y-6.2854
X6.8799Y-5.8642
X6.8839Y-5.1634
X6.9075Y-6.1004
X6.9193Y-6.2933
X6.9705Y-6.2894
X6.9783Y-5.4665
X6.9823Y-5.8917
X6.9941Y-6.0846
X7.0059Y-5.9823
X7.0256Y-5.5925
X7.0295Y-5.6516
X7.0374Y-5.8563
X7.0413Y-6.0453
X7.0492Y-4.9547
X7.0571Y-6.1634
X7.0689Y-5.9744
X7.124Y-5.6594
X7.1594Y-5.9941
X7.1594Y-6.0413
X7.1594Y-6.1673
X7.2106Y-5.6831
X7.2579Y-5.5689
X7.3012Y-5.2224
X7.3051Y-5.9075
X7.3051Y-6.0768
X7.3209Y-6.2343
X7.3563Y-6.0531
X7.3917Y-5.3327
X7.3917Y-6.2146
X7.3996Y-5.8051
X7.4075Y-5.2224
X7.4154Y-6.1752
X7.4193Y-6.0886
X7.439Y-5.8799
X7.4429Y-5.7697
X7.4508Y-6.128
X7.5098Y-6.2264
X7.5256Y-5.4626
X7.5453Y-5.6634
X7.5492Y-6.1949
X7.561Y-5.187
X7.5807Y-6.1122
X7.6004Y-5.3091
X7.6043Y-6.1909
X7.624Y-5.7421
X7.6398Y-5.9783
X7.6673Y-5.0886
X7.6909Y-5.1909
X7.6909Y-5.9823
X7.7382Y-5.9902
X7.75Y-5.7028
X7.7736Y-4.9705
X7.7933Y-5.8957
X7.7972Y-5.6909
X7.8484Y-5.1398
X7.8484Y-5.6673
X7.8642Y-5.7539
X7.8839Y-5.1791
X7.8878Y-5.6988
X7.8878Y-5.9075
X7.9075Y-5.9587
X7.9154Y-4.9705
X7.9193Y-5.2421
X7.9232Y-5.7657
X7.9232Y-6.1988
X7.9469Y-6.1161
X7.9783Y-6.2303
X7.9823Y-5.9114
X7.998Y-5.1161
X8.002Y-6.1083
X8.0098Y-6.1949
X8.0138Y-5.9744
X8.0177Y-5.6909
X8.0335Y-5.0728
X8.0807Y-5.061
X8.0846Y-6.1161
X8.0886Y-5.8996
X8.1004Y-5.0217
X8.1004Y-5.6752
X8.124Y-6.2303
X8.128Y-4.9902
X8.1398Y-5.8917
X8.1476Y-5.6673
X8.1831Y-6.1122
X8.1949Y-4.8327
X8.1949Y-5.6752
X8.1988Y-5.9114
X8.2421Y-5.687
X8.2461Y-6.1161
X8.2697Y-4.9469
X8.3091Y-5.9862
X8.313Y-6.1161
X8.3287Y-5.7224
X8.3406Y-5.9075
X8.3681Y-4.7382
X8.3681Y-6.1791
X8.372Y-4.9862
X8.3839Y-5.0492
X8.3839Y-6.1122
X8.3917Y-4.9114
X8.3917Y-5.1358
X8.3917Y-5.2067
X8.4114Y-5.7264
X8.4114Y-5.8957
X8.4232Y-4.7461
X8.4272Y-5.3327
X8.439Y-6.1122
X8.4469Y-5.9744
X8.4547Y-5.6634
X8.502Y-4.9862
X8.502Y-5.6673
X8.5256Y-6.1319
X8.5374Y-5.1555
X8.5492Y-5.6713
X8.5571Y-6.25
X8.565Y-5.124
X8.5768Y-4.7579
X8.5807Y-5.2067
X8.5846Y-4.9272
X8.6004Y-5.6713
X8.6083Y-6.1831
X8.6201Y-6.1043
X8.628Y-5.2854
X8.6476Y-5.6713
X8.6555Y-5.9783
X8.6909Y-4.8366
X8.6949Y-5.2539
X8.6988Y-5.0846
X8.7028Y-5.6713
X8.7067Y-6.2106
X8.7579Y-4.872
X8.7657Y-5.3287
X8.7933Y-6.1634
X8.8012Y-5.9272
X8.8051Y-4.9035
X8.813Y-6.0453
X8.8406Y-4.9941
X8.8642Y-4.8957
X8.8681Y-4.9469
X8.8799Y-6.3209
X8.8917Y-5.376
X8.935Y-4.9469
X8.935Y-5.7657
X8.9705Y-5.2303
X8.9823Y-5.9941
X9.002Y-6.0689
X9.0177Y-5.6083
X9.0295Y-5.0689
X9.0374Y-5.1949
X9.0374Y-5.4823
X9.0453Y-5.561
X9.0689Y-5.2382
X9.0728Y-5.8996
X9.0768Y-5.5256
X9.0965Y-5.0689
X9.1555Y-5.1319
X9.187Y-4.8484
X9.2106Y-4.939
X9.2146Y-5.0098
X9.2185Y-5.1437
X9.2972Y-5.439
X9.3209Y-4.7461
X9.3287Y-5.4075
X9.3327Y-5.9705
X9.3642Y-5.3839
X9.3799Y-5.6555
X9.3878Y-5.7894
X9.3957Y-5.065
X9.3957Y-5.5846
X9.4311Y-5.0374
X9.4429Y-4.8681
X9.4508Y-5.2618
X9.4508Y-5.6634
X9.4587Y-5.6004
X9.4862Y-5.3957
X9.5059Y-5.7185
X9.5177Y-5.5886
X9.5531Y-5.8799
X9.5768Y-4.8878
X9.5925Y-6.0728
X9.5965Y-5.502
X9.6004Y-5.0335
X9.6004Y-5.0768
X9.6083Y-5.5965
X9.6201Y-4.9154
X9.6358Y-5.1516
X9.6555Y-5.5335
X9.6634Y-5.3602
X9.6791Y-5.1516
X9.7106Y-4.998
X9.7185Y-5.0413
X9.7343Y-5.5925
X9.7343Y-6.0807
X9.7894Y-4.8878
X9.7972Y-5.3484
X9.8051Y-4.9587
X9.8248Y-5.1319
X9.8248Y-5.1752
X9.8327Y-5.435
X9.8524Y-5.6319
X9.9114Y-5.0413
X9.9154Y-5.2776
X9.9232Y-5.3484
X9.9272Y-5.9272
X9.939Y-4.876
X9.9508Y-5.8799
X9.9665Y-5.7303
X9.9665Y-6.1398
X9.9783Y-5.939
X9.9823Y-6.0059
X9.9862Y-4.876
X10.0846Y-4.8406
X10.0925Y-5.9823
X10.1004Y-5.3642
X10.1201Y-5.4665
X10.1319Y-5.25
X10.1319Y-5.565
X10.1398Y-6.0217
X10.1437Y-6.1476
X10.1516Y-4.8445
X10.1713Y-5.0295
X10.1791Y-5.3366
X10.1831Y-6.0217
X10.1988Y-5.9823
X10.2106Y-5.6949
X10.2185Y-5.1122
X10.2185Y-5.1555
X10.2185Y-5.5453
X10.2303Y-4.8366
X10.2303Y-5.2303
X10.2382Y-6.2382
X10.2697Y-5.5492
X10.2697Y-6.1555
X10.2736Y-5.2264
X10.2972Y-4.8248
X10.3209Y-5.5453
X10.3248Y-5.6949
X10.3248Y-6.0138
X10.3406Y-5.9429
X10.3445Y-5.7776
X10.3445Y-5.8327
X10.3484Y-5.0807
X10.3524Y-6.1476
X10.3563Y-5.5689
X10.3799Y-5.2776
X10.3878Y-5.5256
X10.4193Y-4.8209
X10.5177Y-5.1004
X10.5295Y-4.9547
X10.5492Y-5.6791
X10.561Y-5.0689
X10.5768Y-5.7579
X10.5925Y-4.9508
X10.5925Y-6.0846
X10.6122Y-5.5728
X10.6161Y-5.8248
X10.6358Y-5.5256
X10.6437Y-4.8366
X10.6713Y-5.3878
X10.6791Y-5.2894
X10.6909Y-4.8327
X10.7697Y-5.5886
T2
X7.1988Y-4.9071
X7.1988Y-5.0071
X7.1988Y-5.1071
X7.1988Y-5.2071
X7.3508Y-4.8249
X7.3528Y-5.2834
X7.4028Y-5.0531
X7.4508Y-4.8249
X7.4528Y-5.2834
X7.5028Y-5.0531
X7.5508Y-4.8249
X7.5528Y-5.2834
X7.6028Y-5.0531
X7.6508Y-4.8249
X7.6528Y-5.2834
X7.7528Y-5.2834
X7.8508Y-4.8249
X7.8528Y-5.2834
X7.9508Y-4.8249
X7.9528Y-5.2834
X8.0508Y-4.8249
X8.0528Y-5.2834
X8.1528Y-5.2834
X9.187Y-5.6087
X9.187Y-5.7087
X9.187Y-5.8087
X9.187Y-5.9087
X9.187Y-6.0087
X9.187Y-6.1087
X9.187Y-6.2087
X9.187Y-6.3087
X9.5142Y-4.7618
X9.6142Y-4.7618
X9.7142Y-4.7618
X9.8142Y-4.7618
X9.9142Y-4.7618
X10.0142Y-4.7618
X10.1142Y-4.7618
X10.6476Y-6.1685
X10.6476Y-6.2685
X10.7315Y-5.1346
X10.7315Y-5.3346
X10.7315Y-5.4346
X10.7315Y-5.5346
X10.7315Y-5.8346
X10.7315Y-5.9346
X10.8315Y-5.1346
X10.8315Y-5.2346
X10.8315Y-5.3346
X10.8315Y-5.4346
X10.8315Y-5.5346
X10.8315Y-5.8346
X10.8315Y-5.9346
T3
X9.4998Y-6.1752
X9.5998Y-6.1752
X9.6798Y-6.1752
X9.7798Y-6.1752
T4
X10.0177Y-5.1437
T5
X9.3798Y-6.2802
X9.9198Y-6.2802
T6
X6.0217Y-6.2421
X6.628Y-5.3091
X7.0453Y-5.3091
X9.0177Y-6.2461
T0
M30
