G04 (created by PCBNEW (2013-may-18)-stable) date Mon Aug 15 13:51:28 2016*
%MOIN*%
G04 Gerber Fmt 3.4, Leading zero omitted, Abs format*
%FSLAX34Y34*%
G01*
G70*
G90*
G04 APERTURE LIST*
%ADD10C,0.00590551*%
%ADD11C,0.00787402*%
%ADD12C,0.012*%
%ADD13C,0.008*%
%ADD14C,0.005*%
%ADD15C,0.015*%
%ADD16C,0.006*%
%ADD17C,0.0059*%
%ADD18C,0.0045*%
%ADD19C,0.0039*%
%ADD20C,0.01*%
G04 APERTURE END LIST*
G54D10*
G54D11*
X91437Y-54035D02*
X91437Y-63582D01*
X71555Y-54035D02*
X91437Y-54035D01*
X71555Y-54133D02*
X71555Y-47047D01*
X65157Y-54035D02*
X71555Y-54035D01*
X65157Y-54133D02*
X65255Y-54133D01*
X65157Y-47047D02*
X65157Y-54133D01*
X91338Y-54133D02*
X91338Y-63582D01*
X71456Y-54133D02*
X91338Y-54133D01*
X71456Y-54133D02*
X71456Y-47047D01*
X65255Y-54133D02*
X71456Y-54133D01*
X65255Y-47047D02*
X65255Y-54133D01*
G54D12*
X71989Y-62029D02*
X68049Y-62029D01*
X68049Y-62029D02*
X68049Y-58089D01*
X71799Y-58089D02*
X68049Y-58089D01*
X71989Y-58279D02*
X71989Y-62029D01*
X71799Y-58089D02*
X71989Y-58279D01*
G54D13*
X71769Y-58559D02*
G75*
G03X71769Y-58559I-250J0D01*
G74*
G01*
G54D14*
X86557Y-60169D02*
X86557Y-60599D01*
X86057Y-60169D02*
X86057Y-60599D01*
X85557Y-60169D02*
X85557Y-60599D01*
X87057Y-60169D02*
X87057Y-60599D01*
X87557Y-60599D02*
X87557Y-60169D01*
X85057Y-60599D02*
X85057Y-60169D01*
X84557Y-60599D02*
X84557Y-60169D01*
X84057Y-60599D02*
X84057Y-60169D01*
X84057Y-58609D02*
X84057Y-58179D01*
X84557Y-58609D02*
X84557Y-58179D01*
X85057Y-58609D02*
X85057Y-58179D01*
X87557Y-58609D02*
X87557Y-58179D01*
X87057Y-58179D02*
X87057Y-58609D01*
X85557Y-58179D02*
X85557Y-58609D01*
X86057Y-58179D02*
X86057Y-58609D01*
X86557Y-58179D02*
X86557Y-58609D01*
X87593Y-58899D02*
G75*
G03X87593Y-58899I-186J0D01*
G74*
G01*
X87707Y-60169D02*
X87707Y-58609D01*
X87707Y-58609D02*
X83907Y-58609D01*
X83907Y-58609D02*
X83907Y-60169D01*
X83907Y-60169D02*
X87707Y-60169D01*
X77423Y-60209D02*
X77423Y-60639D01*
X76923Y-60209D02*
X76923Y-60639D01*
X76423Y-60209D02*
X76423Y-60639D01*
X77923Y-60209D02*
X77923Y-60639D01*
X78423Y-60639D02*
X78423Y-60209D01*
X75923Y-60639D02*
X75923Y-60209D01*
X75423Y-60639D02*
X75423Y-60209D01*
X74923Y-60639D02*
X74923Y-60209D01*
X74923Y-58649D02*
X74923Y-58219D01*
X75423Y-58649D02*
X75423Y-58219D01*
X75923Y-58649D02*
X75923Y-58219D01*
X78423Y-58649D02*
X78423Y-58219D01*
X77923Y-58219D02*
X77923Y-58649D01*
X76423Y-58219D02*
X76423Y-58649D01*
X76923Y-58219D02*
X76923Y-58649D01*
X77423Y-58219D02*
X77423Y-58649D01*
X78459Y-58939D02*
G75*
G03X78459Y-58939I-186J0D01*
G74*
G01*
X78573Y-60209D02*
X78573Y-58649D01*
X78573Y-58649D02*
X74773Y-58649D01*
X74773Y-58649D02*
X74773Y-60209D01*
X74773Y-60209D02*
X78573Y-60209D01*
X77200Y-57831D02*
X77200Y-56931D01*
X77200Y-56931D02*
X76550Y-56931D01*
X75850Y-57831D02*
X75200Y-57831D01*
X75200Y-57831D02*
X75200Y-56931D01*
X75200Y-56931D02*
X75850Y-56931D01*
X76550Y-57831D02*
X77200Y-57831D01*
X54175Y-51492D02*
X55075Y-51492D01*
X55075Y-51492D02*
X55075Y-50842D01*
X54175Y-50142D02*
X54175Y-49492D01*
X54175Y-49492D02*
X55075Y-49492D01*
X55075Y-49492D02*
X55075Y-50142D01*
X54175Y-50842D02*
X54175Y-51492D01*
X58854Y-56847D02*
X58854Y-55947D01*
X58854Y-55947D02*
X58204Y-55947D01*
X57504Y-56847D02*
X56854Y-56847D01*
X56854Y-56847D02*
X56854Y-55947D01*
X56854Y-55947D02*
X57504Y-55947D01*
X58204Y-56847D02*
X58854Y-56847D01*
X58854Y-57989D02*
X58854Y-57089D01*
X58854Y-57089D02*
X58204Y-57089D01*
X57504Y-57989D02*
X56854Y-57989D01*
X56854Y-57989D02*
X56854Y-57089D01*
X56854Y-57089D02*
X57504Y-57089D01*
X58204Y-57989D02*
X58854Y-57989D01*
X58854Y-59131D02*
X58854Y-58231D01*
X58854Y-58231D02*
X58204Y-58231D01*
X57504Y-59131D02*
X56854Y-59131D01*
X56854Y-59131D02*
X56854Y-58231D01*
X56854Y-58231D02*
X57504Y-58231D01*
X58204Y-59131D02*
X58854Y-59131D01*
X58854Y-60272D02*
X58854Y-59372D01*
X58854Y-59372D02*
X58204Y-59372D01*
X57504Y-60272D02*
X56854Y-60272D01*
X56854Y-60272D02*
X56854Y-59372D01*
X56854Y-59372D02*
X57504Y-59372D01*
X58204Y-60272D02*
X58854Y-60272D01*
X58854Y-61414D02*
X58854Y-60514D01*
X58854Y-60514D02*
X58204Y-60514D01*
X57504Y-61414D02*
X56854Y-61414D01*
X56854Y-61414D02*
X56854Y-60514D01*
X56854Y-60514D02*
X57504Y-60514D01*
X58204Y-61414D02*
X58854Y-61414D01*
X57003Y-55509D02*
X57003Y-54609D01*
X57003Y-54609D02*
X56353Y-54609D01*
X55653Y-55509D02*
X55003Y-55509D01*
X55003Y-55509D02*
X55003Y-54609D01*
X55003Y-54609D02*
X55653Y-54609D01*
X56353Y-55509D02*
X57003Y-55509D01*
X64523Y-53737D02*
X64523Y-52837D01*
X64523Y-52837D02*
X63873Y-52837D01*
X63173Y-53737D02*
X62523Y-53737D01*
X62523Y-53737D02*
X62523Y-52837D01*
X62523Y-52837D02*
X63173Y-52837D01*
X63873Y-53737D02*
X64523Y-53737D01*
X64523Y-52280D02*
X64523Y-51380D01*
X64523Y-51380D02*
X63873Y-51380D01*
X63173Y-52280D02*
X62523Y-52280D01*
X62523Y-52280D02*
X62523Y-51380D01*
X62523Y-51380D02*
X63173Y-51380D01*
X63873Y-52280D02*
X64523Y-52280D01*
X54727Y-54051D02*
X55627Y-54051D01*
X55627Y-54051D02*
X55627Y-53401D01*
X54727Y-52701D02*
X54727Y-52051D01*
X54727Y-52051D02*
X55627Y-52051D01*
X55627Y-52051D02*
X55627Y-52701D01*
X54727Y-53401D02*
X54727Y-54051D01*
X56183Y-54051D02*
X57083Y-54051D01*
X57083Y-54051D02*
X57083Y-53401D01*
X56183Y-52701D02*
X56183Y-52051D01*
X56183Y-52051D02*
X57083Y-52051D01*
X57083Y-52051D02*
X57083Y-52701D01*
X56183Y-53401D02*
X56183Y-54051D01*
X59452Y-51695D02*
X59452Y-52595D01*
X59452Y-52595D02*
X60102Y-52595D01*
X60802Y-51695D02*
X61452Y-51695D01*
X61452Y-51695D02*
X61452Y-52595D01*
X61452Y-52595D02*
X60802Y-52595D01*
X60102Y-51695D02*
X59452Y-51695D01*
X59452Y-53231D02*
X59452Y-54131D01*
X59452Y-54131D02*
X60102Y-54131D01*
X60802Y-53231D02*
X61452Y-53231D01*
X61452Y-53231D02*
X61452Y-54131D01*
X61452Y-54131D02*
X60802Y-54131D01*
X60102Y-53231D02*
X59452Y-53231D01*
X62523Y-49963D02*
X62523Y-50863D01*
X62523Y-50863D02*
X63173Y-50863D01*
X63873Y-49963D02*
X64523Y-49963D01*
X64523Y-49963D02*
X64523Y-50863D01*
X64523Y-50863D02*
X63873Y-50863D01*
X63173Y-49963D02*
X62523Y-49963D01*
X76578Y-61459D02*
X76578Y-62359D01*
X76578Y-62359D02*
X77228Y-62359D01*
X77928Y-61459D02*
X78578Y-61459D01*
X78578Y-61459D02*
X78578Y-62359D01*
X78578Y-62359D02*
X77928Y-62359D01*
X77228Y-61459D02*
X76578Y-61459D01*
X58854Y-62556D02*
X58854Y-61656D01*
X58854Y-61656D02*
X58204Y-61656D01*
X57504Y-62556D02*
X56854Y-62556D01*
X56854Y-62556D02*
X56854Y-61656D01*
X56854Y-61656D02*
X57504Y-61656D01*
X58204Y-62556D02*
X58854Y-62556D01*
X67404Y-56531D02*
X68304Y-56531D01*
X68304Y-56531D02*
X68304Y-55881D01*
X67404Y-55181D02*
X67404Y-54531D01*
X67404Y-54531D02*
X68304Y-54531D01*
X68304Y-54531D02*
X68304Y-55181D01*
X67404Y-55881D02*
X67404Y-56531D01*
X91019Y-61335D02*
X91019Y-60435D01*
X91019Y-60435D02*
X90369Y-60435D01*
X89669Y-61335D02*
X89019Y-61335D01*
X89019Y-61335D02*
X89019Y-60435D01*
X89019Y-60435D02*
X89669Y-60435D01*
X90369Y-61335D02*
X91019Y-61335D01*
X59648Y-57948D02*
X60548Y-57948D01*
X60548Y-57948D02*
X60548Y-57298D01*
X59648Y-56598D02*
X59648Y-55948D01*
X59648Y-55948D02*
X60548Y-55948D01*
X60548Y-55948D02*
X60548Y-56598D01*
X59648Y-57298D02*
X59648Y-57948D01*
X64216Y-60868D02*
X64216Y-61768D01*
X64216Y-61768D02*
X64866Y-61768D01*
X65566Y-60868D02*
X66216Y-60868D01*
X66216Y-60868D02*
X66216Y-61768D01*
X66216Y-61768D02*
X65566Y-61768D01*
X64866Y-60868D02*
X64216Y-60868D01*
X64216Y-59294D02*
X64216Y-60194D01*
X64216Y-60194D02*
X64866Y-60194D01*
X65566Y-59294D02*
X66216Y-59294D01*
X66216Y-59294D02*
X66216Y-60194D01*
X66216Y-60194D02*
X65566Y-60194D01*
X64866Y-59294D02*
X64216Y-59294D01*
X90278Y-59956D02*
X91178Y-59956D01*
X91178Y-59956D02*
X91178Y-59306D01*
X90278Y-58606D02*
X90278Y-57956D01*
X90278Y-57956D02*
X91178Y-57956D01*
X91178Y-57956D02*
X91178Y-58606D01*
X90278Y-59306D02*
X90278Y-59956D01*
X57876Y-53864D02*
X58776Y-53864D01*
X58776Y-53864D02*
X58776Y-54364D01*
X58776Y-54364D02*
X57876Y-54364D01*
X57876Y-54364D02*
X57876Y-53864D01*
G54D10*
X66337Y-56170D02*
X66337Y-54850D01*
X66337Y-54850D02*
X61377Y-54850D01*
X61377Y-54850D02*
X61377Y-58810D01*
X61377Y-58810D02*
X66337Y-58810D01*
X66337Y-58810D02*
X66337Y-57490D01*
G54D14*
X56085Y-62006D02*
X56085Y-61756D01*
X56085Y-61756D02*
X55685Y-61756D01*
X55685Y-62456D02*
X56085Y-62456D01*
X56085Y-62456D02*
X56085Y-62206D01*
X56135Y-62006D02*
X56085Y-62006D01*
X56085Y-62206D02*
X56135Y-62206D01*
X55685Y-61756D02*
X55685Y-62456D01*
X56135Y-62206D02*
X56135Y-62006D01*
X56085Y-56297D02*
X56085Y-56047D01*
X56085Y-56047D02*
X55685Y-56047D01*
X55685Y-56747D02*
X56085Y-56747D01*
X56085Y-56747D02*
X56085Y-56497D01*
X56135Y-56297D02*
X56085Y-56297D01*
X56085Y-56497D02*
X56135Y-56497D01*
X55685Y-56047D02*
X55685Y-56747D01*
X56135Y-56497D02*
X56135Y-56297D01*
X56085Y-57439D02*
X56085Y-57189D01*
X56085Y-57189D02*
X55685Y-57189D01*
X55685Y-57889D02*
X56085Y-57889D01*
X56085Y-57889D02*
X56085Y-57639D01*
X56135Y-57439D02*
X56085Y-57439D01*
X56085Y-57639D02*
X56135Y-57639D01*
X55685Y-57189D02*
X55685Y-57889D01*
X56135Y-57639D02*
X56135Y-57439D01*
X56085Y-58581D02*
X56085Y-58331D01*
X56085Y-58331D02*
X55685Y-58331D01*
X55685Y-59031D02*
X56085Y-59031D01*
X56085Y-59031D02*
X56085Y-58781D01*
X56135Y-58581D02*
X56085Y-58581D01*
X56085Y-58781D02*
X56135Y-58781D01*
X55685Y-58331D02*
X55685Y-59031D01*
X56135Y-58781D02*
X56135Y-58581D01*
X56085Y-59722D02*
X56085Y-59472D01*
X56085Y-59472D02*
X55685Y-59472D01*
X55685Y-60172D02*
X56085Y-60172D01*
X56085Y-60172D02*
X56085Y-59922D01*
X56135Y-59722D02*
X56085Y-59722D01*
X56085Y-59922D02*
X56135Y-59922D01*
X55685Y-59472D02*
X55685Y-60172D01*
X56135Y-59922D02*
X56135Y-59722D01*
X56085Y-60864D02*
X56085Y-60614D01*
X56085Y-60614D02*
X55685Y-60614D01*
X55685Y-61314D02*
X56085Y-61314D01*
X56085Y-61314D02*
X56085Y-61064D01*
X56135Y-60864D02*
X56085Y-60864D01*
X56085Y-61064D02*
X56135Y-61064D01*
X55685Y-60614D02*
X55685Y-61314D01*
X56135Y-61064D02*
X56135Y-60864D01*
G54D10*
X61661Y-49935D02*
X55621Y-49935D01*
X55621Y-49935D02*
X55621Y-48375D01*
X61661Y-48375D02*
X61661Y-49895D01*
G54D14*
X58676Y-53296D02*
X57976Y-53296D01*
X57976Y-53296D02*
X57976Y-52096D01*
X57976Y-52096D02*
X58676Y-52096D01*
X58676Y-52096D02*
X58676Y-53296D01*
X81990Y-60209D02*
X81990Y-60639D01*
X81490Y-60209D02*
X81490Y-60639D01*
X80990Y-60209D02*
X80990Y-60639D01*
X82490Y-60209D02*
X82490Y-60639D01*
X82990Y-60639D02*
X82990Y-60209D01*
X80490Y-60639D02*
X80490Y-60209D01*
X79990Y-60639D02*
X79990Y-60209D01*
X79490Y-60639D02*
X79490Y-60209D01*
X79490Y-58649D02*
X79490Y-58219D01*
X79990Y-58649D02*
X79990Y-58219D01*
X80490Y-58649D02*
X80490Y-58219D01*
X82990Y-58649D02*
X82990Y-58219D01*
X82490Y-58219D02*
X82490Y-58649D01*
X80990Y-58219D02*
X80990Y-58649D01*
X81490Y-58219D02*
X81490Y-58649D01*
X81990Y-58219D02*
X81990Y-58649D01*
X83026Y-58939D02*
G75*
G03X83026Y-58939I-186J0D01*
G74*
G01*
X83140Y-60209D02*
X83140Y-58649D01*
X83140Y-58649D02*
X79340Y-58649D01*
X79340Y-58649D02*
X79340Y-60209D01*
X79340Y-60209D02*
X83140Y-60209D01*
X67248Y-48782D02*
X67248Y-49682D01*
X67248Y-49682D02*
X67898Y-49682D01*
X68598Y-48782D02*
X69248Y-48782D01*
X69248Y-48782D02*
X69248Y-49682D01*
X69248Y-49682D02*
X68598Y-49682D01*
X67898Y-48782D02*
X67248Y-48782D01*
G54D15*
X91077Y-62460D02*
G75*
G03X91077Y-62460I-900J0D01*
G74*
G01*
X61116Y-62421D02*
G75*
G03X61116Y-62421I-900J0D01*
G74*
G01*
X67179Y-53090D02*
G75*
G03X67179Y-53090I-900J0D01*
G74*
G01*
X71352Y-53090D02*
G75*
G03X71352Y-53090I-900J0D01*
G74*
G01*
G54D14*
X106876Y-61685D02*
X106876Y-62685D01*
X106076Y-61685D02*
X106076Y-62685D01*
X106876Y-61685D02*
G75*
G03X106476Y-61285I-400J0D01*
G74*
G01*
X106476Y-61285D02*
G75*
G03X106076Y-61685I0J-400D01*
G74*
G01*
X106476Y-63085D02*
G75*
G03X106876Y-62685I0J400D01*
G74*
G01*
X106076Y-62685D02*
G75*
G03X106476Y-63085I400J0D01*
G74*
G01*
X106258Y-56670D02*
X106008Y-56670D01*
X106008Y-56670D02*
X106008Y-57070D01*
X106708Y-57070D02*
X106708Y-56670D01*
X106708Y-56670D02*
X106458Y-56670D01*
X106258Y-56620D02*
X106258Y-56670D01*
X106458Y-56670D02*
X106458Y-56620D01*
X106008Y-57070D02*
X106708Y-57070D01*
X106458Y-56620D02*
X106258Y-56620D01*
X93362Y-60788D02*
X93362Y-61038D01*
X93362Y-61038D02*
X93762Y-61038D01*
X93762Y-60338D02*
X93362Y-60338D01*
X93362Y-60338D02*
X93362Y-60588D01*
X93312Y-60788D02*
X93362Y-60788D01*
X93362Y-60588D02*
X93312Y-60588D01*
X93762Y-61038D02*
X93762Y-60338D01*
X93312Y-60588D02*
X93312Y-60788D01*
X93094Y-48317D02*
X93794Y-48317D01*
X93794Y-48317D02*
X93794Y-49517D01*
X93794Y-49517D02*
X93094Y-49517D01*
X93094Y-49517D02*
X93094Y-48317D01*
X103964Y-49198D02*
X105524Y-49198D01*
X105524Y-49198D02*
X105524Y-47298D01*
X105524Y-47298D02*
X103964Y-47298D01*
X103964Y-47298D02*
X103964Y-49198D01*
X103964Y-48998D02*
X103534Y-48998D01*
X103964Y-48498D02*
X103534Y-48498D01*
X103964Y-47998D02*
X103534Y-47998D01*
X103534Y-47498D02*
X103964Y-47498D01*
X105524Y-47498D02*
X105954Y-47498D01*
X105954Y-47998D02*
X105524Y-47998D01*
X105954Y-48498D02*
X105524Y-48498D01*
X105954Y-48998D02*
X105524Y-48998D01*
X105420Y-48908D02*
G75*
G03X105420Y-48908I-186J0D01*
G74*
G01*
X63586Y-62286D02*
X63586Y-63186D01*
X63586Y-63186D02*
X64236Y-63186D01*
X64936Y-62286D02*
X65586Y-62286D01*
X65586Y-62286D02*
X65586Y-63186D01*
X65586Y-63186D02*
X64936Y-63186D01*
X64236Y-62286D02*
X63586Y-62286D01*
X79405Y-50863D02*
X79405Y-49963D01*
X79405Y-49963D02*
X78755Y-49963D01*
X78055Y-50863D02*
X77405Y-50863D01*
X77405Y-50863D02*
X77405Y-49963D01*
X77405Y-49963D02*
X78055Y-49963D01*
X78755Y-50863D02*
X79405Y-50863D01*
X98821Y-56964D02*
X99721Y-56964D01*
X99721Y-56964D02*
X99721Y-56314D01*
X98821Y-55614D02*
X98821Y-54964D01*
X98821Y-54964D02*
X99721Y-54964D01*
X99721Y-54964D02*
X99721Y-55614D01*
X98821Y-56314D02*
X98821Y-56964D01*
X97246Y-56964D02*
X98146Y-56964D01*
X98146Y-56964D02*
X98146Y-56314D01*
X97246Y-55614D02*
X97246Y-54964D01*
X97246Y-54964D02*
X98146Y-54964D01*
X98146Y-54964D02*
X98146Y-55614D01*
X97246Y-56314D02*
X97246Y-56964D01*
X105627Y-61224D02*
X104727Y-61224D01*
X104727Y-61224D02*
X104727Y-61874D01*
X105627Y-62574D02*
X105627Y-63224D01*
X105627Y-63224D02*
X104727Y-63224D01*
X104727Y-63224D02*
X104727Y-62574D01*
X105627Y-61874D02*
X105627Y-61224D01*
X105981Y-58429D02*
X105081Y-58429D01*
X105081Y-58429D02*
X105081Y-59079D01*
X105981Y-59779D02*
X105981Y-60429D01*
X105981Y-60429D02*
X105081Y-60429D01*
X105081Y-60429D02*
X105081Y-59779D01*
X105981Y-59079D02*
X105981Y-58429D01*
X103304Y-48625D02*
X102404Y-48625D01*
X102404Y-48625D02*
X102404Y-49275D01*
X103304Y-49975D02*
X103304Y-50625D01*
X103304Y-50625D02*
X102404Y-50625D01*
X102404Y-50625D02*
X102404Y-49975D01*
X103304Y-49275D02*
X103304Y-48625D01*
X93821Y-58854D02*
X94721Y-58854D01*
X94721Y-58854D02*
X94721Y-58204D01*
X93821Y-57504D02*
X93821Y-56854D01*
X93821Y-56854D02*
X94721Y-56854D01*
X94721Y-56854D02*
X94721Y-57504D01*
X93821Y-58204D02*
X93821Y-58854D01*
X105908Y-51728D02*
X106808Y-51728D01*
X106808Y-51728D02*
X106808Y-51078D01*
X105908Y-50378D02*
X105908Y-49728D01*
X105908Y-49728D02*
X106808Y-49728D01*
X106808Y-49728D02*
X106808Y-50378D01*
X105908Y-51078D02*
X105908Y-51728D01*
X93783Y-54569D02*
X93783Y-55469D01*
X93783Y-55469D02*
X94433Y-55469D01*
X95133Y-54569D02*
X95783Y-54569D01*
X95783Y-54569D02*
X95783Y-55469D01*
X95783Y-55469D02*
X95133Y-55469D01*
X94433Y-54569D02*
X93783Y-54569D01*
X84917Y-50981D02*
X84917Y-50081D01*
X84917Y-50081D02*
X84267Y-50081D01*
X83567Y-50981D02*
X82917Y-50981D01*
X82917Y-50981D02*
X82917Y-50081D01*
X82917Y-50081D02*
X83567Y-50081D01*
X84267Y-50981D02*
X84917Y-50981D01*
X88146Y-50515D02*
X87246Y-50515D01*
X87246Y-50515D02*
X87246Y-51165D01*
X88146Y-51865D02*
X88146Y-52515D01*
X88146Y-52515D02*
X87246Y-52515D01*
X87246Y-52515D02*
X87246Y-51865D01*
X88146Y-51165D02*
X88146Y-50515D01*
X84917Y-52398D02*
X84917Y-51498D01*
X84917Y-51498D02*
X84267Y-51498D01*
X83567Y-52398D02*
X82917Y-52398D01*
X82917Y-52398D02*
X82917Y-51498D01*
X82917Y-51498D02*
X83567Y-51498D01*
X84267Y-52398D02*
X84917Y-52398D01*
X89446Y-50515D02*
X88546Y-50515D01*
X88546Y-50515D02*
X88546Y-51165D01*
X89446Y-51865D02*
X89446Y-52515D01*
X89446Y-52515D02*
X88546Y-52515D01*
X88546Y-52515D02*
X88546Y-51865D01*
X89446Y-51165D02*
X89446Y-50515D01*
X104405Y-59367D02*
X104405Y-58467D01*
X104405Y-58467D02*
X103755Y-58467D01*
X103055Y-59367D02*
X102405Y-59367D01*
X102405Y-59367D02*
X102405Y-58467D01*
X102405Y-58467D02*
X103055Y-58467D01*
X103755Y-59367D02*
X104405Y-59367D01*
X103460Y-63146D02*
X103460Y-62246D01*
X103460Y-62246D02*
X102810Y-62246D01*
X102110Y-63146D02*
X101460Y-63146D01*
X101460Y-63146D02*
X101460Y-62246D01*
X101460Y-62246D02*
X102110Y-62246D01*
X102810Y-63146D02*
X103460Y-63146D01*
X97562Y-57719D02*
X97562Y-58619D01*
X97562Y-58619D02*
X98212Y-58619D01*
X98912Y-57719D02*
X99562Y-57719D01*
X99562Y-57719D02*
X99562Y-58619D01*
X99562Y-58619D02*
X98912Y-58619D01*
X98212Y-57719D02*
X97562Y-57719D01*
X97562Y-59648D02*
X97562Y-60548D01*
X97562Y-60548D02*
X98212Y-60548D01*
X98912Y-59648D02*
X99562Y-59648D01*
X99562Y-59648D02*
X99562Y-60548D01*
X99562Y-60548D02*
X98912Y-60548D01*
X98212Y-59648D02*
X97562Y-59648D01*
X82956Y-48703D02*
X82956Y-49603D01*
X82956Y-49603D02*
X83606Y-49603D01*
X84306Y-48703D02*
X84956Y-48703D01*
X84956Y-48703D02*
X84956Y-49603D01*
X84956Y-49603D02*
X84306Y-49603D01*
X83606Y-48703D02*
X82956Y-48703D01*
X104405Y-58107D02*
X104405Y-57207D01*
X104405Y-57207D02*
X103755Y-57207D01*
X103055Y-58107D02*
X102405Y-58107D01*
X102405Y-58107D02*
X102405Y-57207D01*
X102405Y-57207D02*
X103055Y-57207D01*
X103755Y-58107D02*
X104405Y-58107D01*
X94648Y-50862D02*
X95548Y-50862D01*
X95548Y-50862D02*
X95548Y-50212D01*
X94648Y-49512D02*
X94648Y-48862D01*
X94648Y-48862D02*
X95548Y-48862D01*
X95548Y-48862D02*
X95548Y-49512D01*
X94648Y-50212D02*
X94648Y-50862D01*
X96059Y-52083D02*
X96059Y-51183D01*
X96059Y-51183D02*
X95409Y-51183D01*
X94709Y-52083D02*
X94059Y-52083D01*
X94059Y-52083D02*
X94059Y-51183D01*
X94059Y-51183D02*
X94709Y-51183D01*
X95409Y-52083D02*
X96059Y-52083D01*
G54D16*
X99352Y-50237D02*
X101002Y-50237D01*
X101002Y-50237D02*
X101377Y-50237D01*
X101377Y-50237D02*
X101377Y-52637D01*
X101377Y-52637D02*
X98977Y-52637D01*
X98977Y-52637D02*
X98977Y-50612D01*
X98977Y-50612D02*
X99352Y-50237D01*
G54D10*
X64452Y-48469D02*
X64452Y-48029D01*
X64452Y-48029D02*
X63972Y-48029D01*
X63972Y-48029D02*
X63972Y-48469D01*
X63972Y-48469D02*
X64452Y-48469D01*
X67870Y-52337D02*
X67870Y-52777D01*
X67870Y-52777D02*
X68350Y-52777D01*
X68350Y-52777D02*
X68350Y-52337D01*
X68350Y-52337D02*
X67870Y-52337D01*
X60987Y-62421D02*
G75*
G03X60987Y-62421I-770J0D01*
G74*
G01*
X67050Y-53090D02*
G75*
G03X67050Y-53090I-770J0D01*
G74*
G01*
X71223Y-53090D02*
G75*
G03X71223Y-53090I-770J0D01*
G74*
G01*
X106721Y-62685D02*
G75*
G03X106721Y-62685I-245J0D01*
G74*
G01*
X106721Y-61685D02*
G75*
G03X106721Y-61685I-245J0D01*
G74*
G01*
X108069Y-59100D02*
X108069Y-59591D01*
X108560Y-59591D01*
X108560Y-59100D01*
X108069Y-59100D01*
X107560Y-59346D02*
G75*
G03X107560Y-59346I-245J0D01*
G74*
G01*
X108560Y-58346D02*
G75*
G03X108560Y-58346I-245J0D01*
G74*
G01*
X107560Y-58346D02*
G75*
G03X107560Y-58346I-245J0D01*
G74*
G01*
X108560Y-55346D02*
G75*
G03X108560Y-55346I-245J0D01*
G74*
G01*
X107560Y-55346D02*
G75*
G03X107560Y-55346I-245J0D01*
G74*
G01*
X108560Y-54346D02*
G75*
G03X108560Y-54346I-245J0D01*
G74*
G01*
X107560Y-54346D02*
G75*
G03X107560Y-54346I-245J0D01*
G74*
G01*
X108560Y-53346D02*
G75*
G03X108560Y-53346I-245J0D01*
G74*
G01*
X107560Y-53346D02*
G75*
G03X107560Y-53346I-245J0D01*
G74*
G01*
X108560Y-52346D02*
G75*
G03X108560Y-52346I-245J0D01*
G74*
G01*
X108560Y-51346D02*
G75*
G03X108560Y-51346I-245J0D01*
G74*
G01*
X107560Y-51346D02*
G75*
G03X107560Y-51346I-245J0D01*
G74*
G01*
X91624Y-55841D02*
X91624Y-56332D01*
X92115Y-56332D01*
X92115Y-55841D01*
X91624Y-55841D01*
X92115Y-57086D02*
G75*
G03X92115Y-57086I-245J0D01*
G74*
G01*
X92115Y-58086D02*
G75*
G03X92115Y-58086I-245J0D01*
G74*
G01*
X92115Y-59086D02*
G75*
G03X92115Y-59086I-245J0D01*
G74*
G01*
X92115Y-60086D02*
G75*
G03X92115Y-60086I-245J0D01*
G74*
G01*
X92115Y-61086D02*
G75*
G03X92115Y-61086I-245J0D01*
G74*
G01*
X92115Y-62086D02*
G75*
G03X92115Y-62086I-245J0D01*
G74*
G01*
X92115Y-63086D02*
G75*
G03X92115Y-63086I-245J0D01*
G74*
G01*
X94896Y-47372D02*
X94896Y-47863D01*
X95387Y-47863D01*
X95387Y-47372D01*
X94896Y-47372D01*
X96387Y-47618D02*
G75*
G03X96387Y-47618I-245J0D01*
G74*
G01*
X97387Y-47618D02*
G75*
G03X97387Y-47618I-245J0D01*
G74*
G01*
X98387Y-47618D02*
G75*
G03X98387Y-47618I-245J0D01*
G74*
G01*
X99387Y-47618D02*
G75*
G03X99387Y-47618I-245J0D01*
G74*
G01*
X100387Y-47618D02*
G75*
G03X100387Y-47618I-245J0D01*
G74*
G01*
X101387Y-47618D02*
G75*
G03X101387Y-47618I-245J0D01*
G74*
G01*
X71742Y-51825D02*
X71742Y-52316D01*
X72233Y-52316D01*
X72233Y-51825D01*
X71742Y-51825D01*
X72233Y-51070D02*
G75*
G03X72233Y-51070I-245J0D01*
G74*
G01*
X72233Y-50070D02*
G75*
G03X72233Y-50070I-245J0D01*
G74*
G01*
X72233Y-49070D02*
G75*
G03X72233Y-49070I-245J0D01*
G74*
G01*
X73282Y-52588D02*
X73282Y-53079D01*
X73773Y-53079D01*
X73773Y-52588D01*
X73282Y-52588D01*
X74773Y-52833D02*
G75*
G03X74773Y-52833I-245J0D01*
G74*
G01*
X75773Y-52833D02*
G75*
G03X75773Y-52833I-245J0D01*
G74*
G01*
X76773Y-52833D02*
G75*
G03X76773Y-52833I-245J0D01*
G74*
G01*
X77773Y-52833D02*
G75*
G03X77773Y-52833I-245J0D01*
G74*
G01*
X78773Y-52833D02*
G75*
G03X78773Y-52833I-245J0D01*
G74*
G01*
X79773Y-52833D02*
G75*
G03X79773Y-52833I-245J0D01*
G74*
G01*
X80773Y-52833D02*
G75*
G03X80773Y-52833I-245J0D01*
G74*
G01*
X81773Y-52833D02*
G75*
G03X81773Y-52833I-245J0D01*
G74*
G01*
X76273Y-50531D02*
G75*
G03X76273Y-50531I-245J0D01*
G74*
G01*
X75273Y-50531D02*
G75*
G03X75273Y-50531I-245J0D01*
G74*
G01*
X74273Y-50531D02*
G75*
G03X74273Y-50531I-245J0D01*
G74*
G01*
X73753Y-48249D02*
G75*
G03X73753Y-48249I-245J0D01*
G74*
G01*
X74753Y-48249D02*
G75*
G03X74753Y-48249I-245J0D01*
G74*
G01*
X75753Y-48249D02*
G75*
G03X75753Y-48249I-245J0D01*
G74*
G01*
X76753Y-48249D02*
G75*
G03X76753Y-48249I-245J0D01*
G74*
G01*
X78753Y-48249D02*
G75*
G03X78753Y-48249I-245J0D01*
G74*
G01*
X79753Y-48249D02*
G75*
G03X79753Y-48249I-245J0D01*
G74*
G01*
X80753Y-48249D02*
G75*
G03X80753Y-48249I-245J0D01*
G74*
G01*
X100738Y-51437D02*
G75*
G03X100738Y-51437I-560J0D01*
G74*
G01*
G54D13*
X70412Y-60363D02*
X70898Y-60363D01*
X70955Y-60344D01*
X70983Y-60325D01*
X71012Y-60287D01*
X71012Y-60211D01*
X70983Y-60173D01*
X70955Y-60154D01*
X70898Y-60135D01*
X70412Y-60135D01*
X71012Y-59735D02*
X71012Y-59963D01*
X71012Y-59849D02*
X70412Y-59849D01*
X70498Y-59887D01*
X70555Y-59925D01*
X70583Y-59963D01*
X69341Y-62497D02*
X69341Y-62306D01*
X69512Y-62535D02*
X68912Y-62401D01*
X69512Y-62268D01*
X68912Y-62192D02*
X68912Y-61963D01*
X69512Y-62078D02*
X68912Y-62078D01*
X69512Y-61830D02*
X68912Y-61830D01*
X69341Y-61697D01*
X68912Y-61563D01*
X69512Y-61563D01*
X69198Y-61373D02*
X69198Y-61240D01*
X69512Y-61182D02*
X69512Y-61373D01*
X68912Y-61373D01*
X68912Y-61182D01*
X68941Y-60801D02*
X68912Y-60840D01*
X68912Y-60897D01*
X68941Y-60954D01*
X68998Y-60992D01*
X69055Y-61011D01*
X69169Y-61030D01*
X69255Y-61030D01*
X69369Y-61011D01*
X69426Y-60992D01*
X69483Y-60954D01*
X69512Y-60897D01*
X69512Y-60859D01*
X69483Y-60801D01*
X69455Y-60782D01*
X69255Y-60782D01*
X69255Y-60859D01*
X69341Y-60630D02*
X69341Y-60440D01*
X69512Y-60668D02*
X68912Y-60535D01*
X69512Y-60401D01*
X68912Y-60306D02*
X68912Y-60059D01*
X69141Y-60192D01*
X69141Y-60135D01*
X69169Y-60097D01*
X69198Y-60078D01*
X69255Y-60059D01*
X69398Y-60059D01*
X69455Y-60078D01*
X69483Y-60097D01*
X69512Y-60135D01*
X69512Y-60249D01*
X69483Y-60287D01*
X69455Y-60306D01*
X68969Y-59906D02*
X68941Y-59887D01*
X68912Y-59849D01*
X68912Y-59754D01*
X68941Y-59716D01*
X68969Y-59697D01*
X69026Y-59678D01*
X69083Y-59678D01*
X69169Y-59697D01*
X69512Y-59925D01*
X69512Y-59678D01*
X68912Y-59506D02*
X69398Y-59506D01*
X69455Y-59487D01*
X69483Y-59468D01*
X69512Y-59430D01*
X69512Y-59354D01*
X69483Y-59316D01*
X69455Y-59297D01*
X69398Y-59278D01*
X68912Y-59278D01*
X69112Y-58916D02*
X69512Y-58916D01*
X68883Y-59011D02*
X69312Y-59106D01*
X69312Y-58859D01*
X69283Y-58706D02*
X69283Y-58401D01*
X69341Y-58230D02*
X69341Y-58040D01*
X69512Y-58268D02*
X68912Y-58135D01*
X69512Y-58001D01*
X68912Y-57868D02*
X69398Y-57868D01*
X69455Y-57849D01*
X69483Y-57830D01*
X69512Y-57792D01*
X69512Y-57716D01*
X69483Y-57678D01*
X69455Y-57659D01*
X69398Y-57640D01*
X68912Y-57640D01*
G54D17*
X85273Y-59909D02*
X85273Y-59614D01*
X85371Y-59824D01*
X85469Y-59614D01*
X85469Y-59909D01*
X85610Y-59614D02*
X85610Y-59852D01*
X85624Y-59881D01*
X85638Y-59895D01*
X85666Y-59909D01*
X85722Y-59909D01*
X85750Y-59895D01*
X85764Y-59881D01*
X85778Y-59852D01*
X85778Y-59614D01*
X85891Y-59614D02*
X86088Y-59909D01*
X86088Y-59614D02*
X85891Y-59909D01*
X86354Y-59909D02*
X86186Y-59909D01*
X86270Y-59909D02*
X86270Y-59614D01*
X86242Y-59656D01*
X86214Y-59684D01*
X86186Y-59698D01*
X85188Y-59081D02*
X85174Y-59095D01*
X85132Y-59109D01*
X85104Y-59109D01*
X85062Y-59095D01*
X85034Y-59067D01*
X85020Y-59038D01*
X85006Y-58982D01*
X85006Y-58940D01*
X85020Y-58884D01*
X85034Y-58856D01*
X85062Y-58828D01*
X85104Y-58814D01*
X85132Y-58814D01*
X85174Y-58828D01*
X85188Y-58842D01*
X85315Y-59109D02*
X85315Y-58814D01*
X85385Y-58814D01*
X85427Y-58828D01*
X85455Y-58856D01*
X85469Y-58884D01*
X85483Y-58940D01*
X85483Y-58982D01*
X85469Y-59038D01*
X85455Y-59067D01*
X85427Y-59095D01*
X85385Y-59109D01*
X85315Y-59109D01*
X85736Y-58912D02*
X85736Y-59109D01*
X85666Y-58800D02*
X85596Y-59010D01*
X85778Y-59010D01*
X85947Y-58814D02*
X85975Y-58814D01*
X86003Y-58828D01*
X86017Y-58842D01*
X86031Y-58870D01*
X86045Y-58926D01*
X86045Y-58996D01*
X86031Y-59052D01*
X86017Y-59081D01*
X86003Y-59095D01*
X85975Y-59109D01*
X85947Y-59109D01*
X85919Y-59095D01*
X85905Y-59081D01*
X85891Y-59052D01*
X85877Y-58996D01*
X85877Y-58926D01*
X85891Y-58870D01*
X85905Y-58842D01*
X85919Y-58828D01*
X85947Y-58814D01*
X86312Y-58814D02*
X86172Y-58814D01*
X86158Y-58954D01*
X86172Y-58940D01*
X86200Y-58926D01*
X86270Y-58926D01*
X86298Y-58940D01*
X86312Y-58954D01*
X86326Y-58982D01*
X86326Y-59052D01*
X86312Y-59081D01*
X86298Y-59095D01*
X86270Y-59109D01*
X86200Y-59109D01*
X86172Y-59095D01*
X86158Y-59081D01*
X86607Y-59109D02*
X86439Y-59109D01*
X86523Y-59109D02*
X86523Y-58814D01*
X86495Y-58856D01*
X86467Y-58884D01*
X86439Y-58898D01*
X76139Y-59948D02*
X76139Y-59653D01*
X76237Y-59864D01*
X76336Y-59653D01*
X76336Y-59948D01*
X76476Y-59653D02*
X76476Y-59892D01*
X76490Y-59920D01*
X76504Y-59934D01*
X76532Y-59948D01*
X76588Y-59948D01*
X76617Y-59934D01*
X76631Y-59920D01*
X76645Y-59892D01*
X76645Y-59653D01*
X76757Y-59653D02*
X76954Y-59948D01*
X76954Y-59653D02*
X76757Y-59948D01*
X77038Y-59653D02*
X77221Y-59653D01*
X77122Y-59765D01*
X77164Y-59765D01*
X77192Y-59779D01*
X77207Y-59794D01*
X77221Y-59822D01*
X77221Y-59892D01*
X77207Y-59920D01*
X77192Y-59934D01*
X77164Y-59948D01*
X77080Y-59948D01*
X77052Y-59934D01*
X77038Y-59920D01*
X76055Y-59120D02*
X76041Y-59134D01*
X75998Y-59148D01*
X75970Y-59148D01*
X75928Y-59134D01*
X75900Y-59106D01*
X75886Y-59078D01*
X75872Y-59022D01*
X75872Y-58979D01*
X75886Y-58923D01*
X75900Y-58895D01*
X75928Y-58867D01*
X75970Y-58853D01*
X75998Y-58853D01*
X76041Y-58867D01*
X76055Y-58881D01*
X76181Y-59148D02*
X76181Y-58853D01*
X76251Y-58853D01*
X76293Y-58867D01*
X76322Y-58895D01*
X76336Y-58923D01*
X76350Y-58979D01*
X76350Y-59022D01*
X76336Y-59078D01*
X76322Y-59106D01*
X76293Y-59134D01*
X76251Y-59148D01*
X76181Y-59148D01*
X76602Y-58951D02*
X76602Y-59148D01*
X76532Y-58839D02*
X76462Y-59050D01*
X76645Y-59050D01*
X76813Y-58853D02*
X76841Y-58853D01*
X76869Y-58867D01*
X76883Y-58881D01*
X76897Y-58909D01*
X76912Y-58965D01*
X76912Y-59036D01*
X76897Y-59092D01*
X76883Y-59120D01*
X76869Y-59134D01*
X76841Y-59148D01*
X76813Y-59148D01*
X76785Y-59134D01*
X76771Y-59120D01*
X76757Y-59092D01*
X76743Y-59036D01*
X76743Y-58965D01*
X76757Y-58909D01*
X76771Y-58881D01*
X76785Y-58867D01*
X76813Y-58853D01*
X77178Y-58853D02*
X77038Y-58853D01*
X77024Y-58994D01*
X77038Y-58979D01*
X77066Y-58965D01*
X77136Y-58965D01*
X77164Y-58979D01*
X77178Y-58994D01*
X77192Y-59022D01*
X77192Y-59092D01*
X77178Y-59120D01*
X77164Y-59134D01*
X77136Y-59148D01*
X77066Y-59148D01*
X77038Y-59134D01*
X77024Y-59120D01*
X77473Y-59148D02*
X77305Y-59148D01*
X77389Y-59148D02*
X77389Y-58853D01*
X77361Y-58895D01*
X77333Y-58923D01*
X77305Y-58937D01*
G54D14*
X76007Y-57503D02*
X75907Y-57360D01*
X75836Y-57503D02*
X75836Y-57203D01*
X75950Y-57203D01*
X75979Y-57217D01*
X75993Y-57231D01*
X76007Y-57260D01*
X76007Y-57303D01*
X75993Y-57331D01*
X75979Y-57346D01*
X75950Y-57360D01*
X75836Y-57360D01*
X76293Y-57503D02*
X76122Y-57503D01*
X76207Y-57503D02*
X76207Y-57203D01*
X76179Y-57246D01*
X76150Y-57274D01*
X76122Y-57289D01*
X76565Y-57203D02*
X76422Y-57203D01*
X76407Y-57346D01*
X76422Y-57331D01*
X76450Y-57317D01*
X76522Y-57317D01*
X76550Y-57331D01*
X76565Y-57346D01*
X76579Y-57374D01*
X76579Y-57446D01*
X76565Y-57474D01*
X76550Y-57489D01*
X76522Y-57503D01*
X76450Y-57503D01*
X76422Y-57489D01*
X76407Y-57474D01*
X54747Y-50684D02*
X54604Y-50784D01*
X54747Y-50856D02*
X54447Y-50856D01*
X54447Y-50742D01*
X54461Y-50713D01*
X54475Y-50699D01*
X54504Y-50684D01*
X54547Y-50684D01*
X54575Y-50699D01*
X54590Y-50713D01*
X54604Y-50742D01*
X54604Y-50856D01*
X54747Y-50399D02*
X54747Y-50570D01*
X54747Y-50484D02*
X54447Y-50484D01*
X54490Y-50513D01*
X54518Y-50542D01*
X54533Y-50570D01*
X54575Y-50227D02*
X54561Y-50256D01*
X54547Y-50270D01*
X54518Y-50284D01*
X54504Y-50284D01*
X54475Y-50270D01*
X54461Y-50256D01*
X54447Y-50227D01*
X54447Y-50170D01*
X54461Y-50142D01*
X54475Y-50127D01*
X54504Y-50113D01*
X54518Y-50113D01*
X54547Y-50127D01*
X54561Y-50142D01*
X54575Y-50170D01*
X54575Y-50227D01*
X54590Y-50256D01*
X54604Y-50270D01*
X54633Y-50284D01*
X54690Y-50284D01*
X54718Y-50270D01*
X54733Y-50256D01*
X54747Y-50227D01*
X54747Y-50170D01*
X54733Y-50142D01*
X54718Y-50127D01*
X54690Y-50113D01*
X54633Y-50113D01*
X54604Y-50127D01*
X54590Y-50142D01*
X54575Y-50170D01*
X57804Y-56519D02*
X57704Y-56376D01*
X57632Y-56519D02*
X57632Y-56219D01*
X57747Y-56219D01*
X57775Y-56233D01*
X57790Y-56247D01*
X57804Y-56276D01*
X57804Y-56319D01*
X57790Y-56347D01*
X57775Y-56361D01*
X57747Y-56376D01*
X57632Y-56376D01*
X58075Y-56219D02*
X57932Y-56219D01*
X57918Y-56361D01*
X57932Y-56347D01*
X57961Y-56333D01*
X58032Y-56333D01*
X58061Y-56347D01*
X58075Y-56361D01*
X58090Y-56390D01*
X58090Y-56461D01*
X58075Y-56490D01*
X58061Y-56504D01*
X58032Y-56519D01*
X57961Y-56519D01*
X57932Y-56504D01*
X57918Y-56490D01*
X57804Y-57660D02*
X57704Y-57517D01*
X57632Y-57660D02*
X57632Y-57360D01*
X57747Y-57360D01*
X57775Y-57375D01*
X57790Y-57389D01*
X57804Y-57417D01*
X57804Y-57460D01*
X57790Y-57489D01*
X57775Y-57503D01*
X57747Y-57517D01*
X57632Y-57517D01*
X57904Y-57360D02*
X58104Y-57360D01*
X57975Y-57660D01*
X57661Y-58802D02*
X57561Y-58659D01*
X57490Y-58802D02*
X57490Y-58502D01*
X57604Y-58502D01*
X57632Y-58516D01*
X57647Y-58531D01*
X57661Y-58559D01*
X57661Y-58602D01*
X57647Y-58631D01*
X57632Y-58645D01*
X57604Y-58659D01*
X57490Y-58659D01*
X57947Y-58802D02*
X57775Y-58802D01*
X57861Y-58802D02*
X57861Y-58502D01*
X57832Y-58545D01*
X57804Y-58573D01*
X57775Y-58588D01*
X58132Y-58502D02*
X58161Y-58502D01*
X58190Y-58516D01*
X58204Y-58531D01*
X58218Y-58559D01*
X58232Y-58616D01*
X58232Y-58688D01*
X58218Y-58745D01*
X58204Y-58773D01*
X58190Y-58788D01*
X58161Y-58802D01*
X58132Y-58802D01*
X58104Y-58788D01*
X58090Y-58773D01*
X58075Y-58745D01*
X58061Y-58688D01*
X58061Y-58616D01*
X58075Y-58559D01*
X58090Y-58531D01*
X58104Y-58516D01*
X58132Y-58502D01*
X57661Y-59944D02*
X57561Y-59801D01*
X57490Y-59944D02*
X57490Y-59644D01*
X57604Y-59644D01*
X57632Y-59658D01*
X57647Y-59672D01*
X57661Y-59701D01*
X57661Y-59744D01*
X57647Y-59772D01*
X57632Y-59787D01*
X57604Y-59801D01*
X57490Y-59801D01*
X57947Y-59944D02*
X57775Y-59944D01*
X57861Y-59944D02*
X57861Y-59644D01*
X57832Y-59687D01*
X57804Y-59715D01*
X57775Y-59729D01*
X58061Y-59672D02*
X58075Y-59658D01*
X58104Y-59644D01*
X58175Y-59644D01*
X58204Y-59658D01*
X58218Y-59672D01*
X58232Y-59701D01*
X58232Y-59729D01*
X58218Y-59772D01*
X58047Y-59944D01*
X58232Y-59944D01*
X57661Y-61085D02*
X57561Y-60943D01*
X57490Y-61085D02*
X57490Y-60785D01*
X57604Y-60785D01*
X57632Y-60800D01*
X57647Y-60814D01*
X57661Y-60843D01*
X57661Y-60885D01*
X57647Y-60914D01*
X57632Y-60928D01*
X57604Y-60943D01*
X57490Y-60943D01*
X57947Y-61085D02*
X57775Y-61085D01*
X57861Y-61085D02*
X57861Y-60785D01*
X57832Y-60828D01*
X57804Y-60857D01*
X57775Y-60871D01*
X58047Y-60785D02*
X58247Y-60785D01*
X58118Y-61085D01*
X55953Y-55151D02*
X55939Y-55166D01*
X55896Y-55180D01*
X55868Y-55180D01*
X55825Y-55166D01*
X55796Y-55137D01*
X55782Y-55109D01*
X55768Y-55051D01*
X55768Y-55009D01*
X55782Y-54951D01*
X55796Y-54923D01*
X55825Y-54894D01*
X55868Y-54880D01*
X55896Y-54880D01*
X55939Y-54894D01*
X55953Y-54909D01*
X56125Y-55009D02*
X56096Y-54994D01*
X56082Y-54980D01*
X56068Y-54951D01*
X56068Y-54937D01*
X56082Y-54909D01*
X56096Y-54894D01*
X56125Y-54880D01*
X56182Y-54880D01*
X56211Y-54894D01*
X56225Y-54909D01*
X56239Y-54937D01*
X56239Y-54951D01*
X56225Y-54980D01*
X56211Y-54994D01*
X56182Y-55009D01*
X56125Y-55009D01*
X56096Y-55023D01*
X56082Y-55037D01*
X56068Y-55066D01*
X56068Y-55123D01*
X56082Y-55151D01*
X56096Y-55166D01*
X56125Y-55180D01*
X56182Y-55180D01*
X56211Y-55166D01*
X56225Y-55151D01*
X56239Y-55123D01*
X56239Y-55066D01*
X56225Y-55037D01*
X56211Y-55023D01*
X56182Y-55009D01*
X63302Y-53408D02*
X63302Y-53108D01*
X63373Y-53108D01*
X63416Y-53123D01*
X63445Y-53151D01*
X63459Y-53180D01*
X63473Y-53237D01*
X63473Y-53280D01*
X63459Y-53337D01*
X63445Y-53365D01*
X63416Y-53394D01*
X63373Y-53408D01*
X63302Y-53408D01*
X63616Y-53408D02*
X63673Y-53408D01*
X63702Y-53394D01*
X63716Y-53380D01*
X63745Y-53337D01*
X63759Y-53280D01*
X63759Y-53165D01*
X63745Y-53137D01*
X63730Y-53123D01*
X63702Y-53108D01*
X63645Y-53108D01*
X63616Y-53123D01*
X63602Y-53137D01*
X63587Y-53165D01*
X63587Y-53237D01*
X63602Y-53265D01*
X63616Y-53280D01*
X63645Y-53294D01*
X63702Y-53294D01*
X63730Y-53280D01*
X63745Y-53265D01*
X63759Y-53237D01*
X63473Y-51923D02*
X63459Y-51937D01*
X63416Y-51952D01*
X63387Y-51952D01*
X63345Y-51937D01*
X63316Y-51909D01*
X63302Y-51880D01*
X63287Y-51823D01*
X63287Y-51780D01*
X63302Y-51723D01*
X63316Y-51694D01*
X63345Y-51666D01*
X63387Y-51652D01*
X63416Y-51652D01*
X63459Y-51666D01*
X63473Y-51680D01*
X63573Y-51652D02*
X63773Y-51652D01*
X63645Y-51952D01*
X55270Y-53101D02*
X55284Y-53115D01*
X55298Y-53158D01*
X55298Y-53186D01*
X55284Y-53229D01*
X55255Y-53258D01*
X55227Y-53272D01*
X55170Y-53286D01*
X55127Y-53286D01*
X55070Y-53272D01*
X55041Y-53258D01*
X55012Y-53229D01*
X54998Y-53186D01*
X54998Y-53158D01*
X55012Y-53115D01*
X55027Y-53101D01*
X55298Y-52815D02*
X55298Y-52986D01*
X55298Y-52901D02*
X54998Y-52901D01*
X55041Y-52929D01*
X55070Y-52958D01*
X55084Y-52986D01*
X56755Y-53244D02*
X56612Y-53344D01*
X56755Y-53415D02*
X56455Y-53415D01*
X56455Y-53301D01*
X56469Y-53272D01*
X56483Y-53258D01*
X56512Y-53244D01*
X56555Y-53244D01*
X56583Y-53258D01*
X56598Y-53272D01*
X56612Y-53301D01*
X56612Y-53415D01*
X56755Y-52958D02*
X56755Y-53129D01*
X56755Y-53044D02*
X56455Y-53044D01*
X56498Y-53072D01*
X56526Y-53101D01*
X56541Y-53129D01*
X56755Y-52815D02*
X56755Y-52758D01*
X56741Y-52729D01*
X56726Y-52715D01*
X56683Y-52686D01*
X56626Y-52672D01*
X56512Y-52672D01*
X56483Y-52686D01*
X56469Y-52701D01*
X56455Y-52729D01*
X56455Y-52786D01*
X56469Y-52815D01*
X56483Y-52829D01*
X56512Y-52844D01*
X56583Y-52844D01*
X56612Y-52829D01*
X56626Y-52815D01*
X56641Y-52786D01*
X56641Y-52729D01*
X56626Y-52701D01*
X56612Y-52686D01*
X56583Y-52672D01*
X60402Y-52238D02*
X60388Y-52252D01*
X60345Y-52267D01*
X60317Y-52267D01*
X60274Y-52252D01*
X60245Y-52224D01*
X60231Y-52195D01*
X60217Y-52138D01*
X60217Y-52095D01*
X60231Y-52038D01*
X60245Y-52009D01*
X60274Y-51981D01*
X60317Y-51967D01*
X60345Y-51967D01*
X60388Y-51981D01*
X60402Y-51995D01*
X60659Y-51967D02*
X60602Y-51967D01*
X60574Y-51981D01*
X60559Y-51995D01*
X60531Y-52038D01*
X60517Y-52095D01*
X60517Y-52209D01*
X60531Y-52238D01*
X60545Y-52252D01*
X60574Y-52267D01*
X60631Y-52267D01*
X60659Y-52252D01*
X60674Y-52238D01*
X60688Y-52209D01*
X60688Y-52138D01*
X60674Y-52109D01*
X60659Y-52095D01*
X60631Y-52081D01*
X60574Y-52081D01*
X60545Y-52095D01*
X60531Y-52109D01*
X60517Y-52138D01*
X60402Y-53802D02*
X60302Y-53659D01*
X60231Y-53802D02*
X60231Y-53502D01*
X60345Y-53502D01*
X60374Y-53516D01*
X60388Y-53531D01*
X60402Y-53559D01*
X60402Y-53602D01*
X60388Y-53631D01*
X60374Y-53645D01*
X60345Y-53659D01*
X60231Y-53659D01*
X60545Y-53802D02*
X60602Y-53802D01*
X60631Y-53788D01*
X60645Y-53773D01*
X60674Y-53731D01*
X60688Y-53673D01*
X60688Y-53559D01*
X60674Y-53531D01*
X60659Y-53516D01*
X60631Y-53502D01*
X60574Y-53502D01*
X60545Y-53516D01*
X60531Y-53531D01*
X60517Y-53559D01*
X60517Y-53631D01*
X60531Y-53659D01*
X60545Y-53673D01*
X60574Y-53688D01*
X60631Y-53688D01*
X60659Y-53673D01*
X60674Y-53659D01*
X60688Y-53631D01*
X63473Y-50506D02*
X63459Y-50520D01*
X63416Y-50534D01*
X63387Y-50534D01*
X63345Y-50520D01*
X63316Y-50491D01*
X63302Y-50463D01*
X63287Y-50406D01*
X63287Y-50363D01*
X63302Y-50306D01*
X63316Y-50277D01*
X63345Y-50249D01*
X63387Y-50234D01*
X63416Y-50234D01*
X63459Y-50249D01*
X63473Y-50263D01*
X63745Y-50234D02*
X63602Y-50234D01*
X63587Y-50377D01*
X63602Y-50363D01*
X63630Y-50349D01*
X63702Y-50349D01*
X63730Y-50363D01*
X63745Y-50377D01*
X63759Y-50406D01*
X63759Y-50477D01*
X63745Y-50506D01*
X63730Y-50520D01*
X63702Y-50534D01*
X63630Y-50534D01*
X63602Y-50520D01*
X63587Y-50506D01*
X77385Y-62030D02*
X77285Y-61888D01*
X77214Y-62030D02*
X77214Y-61730D01*
X77328Y-61730D01*
X77357Y-61745D01*
X77371Y-61759D01*
X77385Y-61788D01*
X77385Y-61830D01*
X77371Y-61859D01*
X77357Y-61873D01*
X77328Y-61888D01*
X77214Y-61888D01*
X77671Y-62030D02*
X77500Y-62030D01*
X77585Y-62030D02*
X77585Y-61730D01*
X77557Y-61773D01*
X77528Y-61802D01*
X77500Y-61816D01*
X77928Y-61830D02*
X77928Y-62030D01*
X77857Y-61716D02*
X77785Y-61930D01*
X77971Y-61930D01*
X57804Y-62227D02*
X57704Y-62084D01*
X57632Y-62227D02*
X57632Y-61927D01*
X57747Y-61927D01*
X57775Y-61942D01*
X57790Y-61956D01*
X57804Y-61984D01*
X57804Y-62027D01*
X57790Y-62056D01*
X57775Y-62070D01*
X57747Y-62084D01*
X57632Y-62084D01*
X57918Y-61956D02*
X57932Y-61942D01*
X57961Y-61927D01*
X58032Y-61927D01*
X58061Y-61942D01*
X58075Y-61956D01*
X58090Y-61984D01*
X58090Y-62013D01*
X58075Y-62056D01*
X57904Y-62227D01*
X58090Y-62227D01*
X67947Y-55581D02*
X67961Y-55595D01*
X67975Y-55638D01*
X67975Y-55667D01*
X67961Y-55710D01*
X67932Y-55738D01*
X67904Y-55752D01*
X67847Y-55767D01*
X67804Y-55767D01*
X67747Y-55752D01*
X67718Y-55738D01*
X67690Y-55710D01*
X67675Y-55667D01*
X67675Y-55638D01*
X67690Y-55595D01*
X67704Y-55581D01*
X67775Y-55324D02*
X67975Y-55324D01*
X67661Y-55395D02*
X67875Y-55467D01*
X67875Y-55281D01*
X89826Y-61007D02*
X89726Y-60864D01*
X89655Y-61007D02*
X89655Y-60707D01*
X89769Y-60707D01*
X89798Y-60721D01*
X89812Y-60735D01*
X89826Y-60764D01*
X89826Y-60807D01*
X89812Y-60835D01*
X89798Y-60850D01*
X89769Y-60864D01*
X89655Y-60864D01*
X89941Y-60735D02*
X89955Y-60721D01*
X89983Y-60707D01*
X90055Y-60707D01*
X90083Y-60721D01*
X90098Y-60735D01*
X90112Y-60764D01*
X90112Y-60792D01*
X90098Y-60835D01*
X89926Y-61007D01*
X90112Y-61007D01*
X90298Y-60707D02*
X90326Y-60707D01*
X90355Y-60721D01*
X90369Y-60735D01*
X90383Y-60764D01*
X90398Y-60821D01*
X90398Y-60892D01*
X90383Y-60950D01*
X90369Y-60978D01*
X90355Y-60992D01*
X90326Y-61007D01*
X90298Y-61007D01*
X90269Y-60992D01*
X90255Y-60978D01*
X90241Y-60950D01*
X90226Y-60892D01*
X90226Y-60821D01*
X90241Y-60764D01*
X90255Y-60735D01*
X90269Y-60721D01*
X90298Y-60707D01*
X60219Y-56998D02*
X60076Y-57098D01*
X60219Y-57170D02*
X59919Y-57170D01*
X59919Y-57055D01*
X59934Y-57027D01*
X59948Y-57013D01*
X59976Y-56998D01*
X60019Y-56998D01*
X60048Y-57013D01*
X60062Y-57027D01*
X60076Y-57055D01*
X60076Y-57170D01*
X59919Y-56898D02*
X59919Y-56713D01*
X60034Y-56813D01*
X60034Y-56770D01*
X60048Y-56741D01*
X60062Y-56727D01*
X60091Y-56713D01*
X60162Y-56713D01*
X60191Y-56727D01*
X60205Y-56741D01*
X60219Y-56770D01*
X60219Y-56855D01*
X60205Y-56884D01*
X60191Y-56898D01*
X65166Y-61411D02*
X65152Y-61426D01*
X65109Y-61440D01*
X65080Y-61440D01*
X65037Y-61426D01*
X65009Y-61397D01*
X64995Y-61368D01*
X64980Y-61311D01*
X64980Y-61268D01*
X64995Y-61211D01*
X65009Y-61183D01*
X65037Y-61154D01*
X65080Y-61140D01*
X65109Y-61140D01*
X65152Y-61154D01*
X65166Y-61168D01*
X65280Y-61168D02*
X65295Y-61154D01*
X65323Y-61140D01*
X65395Y-61140D01*
X65423Y-61154D01*
X65437Y-61168D01*
X65452Y-61197D01*
X65452Y-61226D01*
X65437Y-61268D01*
X65266Y-61440D01*
X65452Y-61440D01*
X65166Y-59836D02*
X65152Y-59851D01*
X65109Y-59865D01*
X65080Y-59865D01*
X65037Y-59851D01*
X65009Y-59822D01*
X64995Y-59794D01*
X64980Y-59736D01*
X64980Y-59694D01*
X64995Y-59636D01*
X65009Y-59608D01*
X65037Y-59579D01*
X65080Y-59565D01*
X65109Y-59565D01*
X65152Y-59579D01*
X65166Y-59594D01*
X65266Y-59565D02*
X65452Y-59565D01*
X65352Y-59679D01*
X65395Y-59679D01*
X65423Y-59694D01*
X65437Y-59708D01*
X65452Y-59736D01*
X65452Y-59808D01*
X65437Y-59836D01*
X65423Y-59851D01*
X65395Y-59865D01*
X65309Y-59865D01*
X65280Y-59851D01*
X65266Y-59836D01*
X90535Y-59078D02*
X90435Y-58935D01*
X90364Y-59078D02*
X90364Y-58778D01*
X90478Y-58778D01*
X90506Y-58792D01*
X90521Y-58806D01*
X90535Y-58835D01*
X90535Y-58878D01*
X90521Y-58906D01*
X90506Y-58920D01*
X90478Y-58935D01*
X90364Y-58935D01*
X90821Y-59078D02*
X90649Y-59078D01*
X90735Y-59078D02*
X90735Y-58778D01*
X90706Y-58820D01*
X90678Y-58849D01*
X90649Y-58863D01*
X90921Y-58778D02*
X91106Y-58778D01*
X91006Y-58892D01*
X91049Y-58892D01*
X91078Y-58906D01*
X91092Y-58920D01*
X91106Y-58949D01*
X91106Y-59020D01*
X91092Y-59049D01*
X91078Y-59063D01*
X91049Y-59078D01*
X90964Y-59078D01*
X90935Y-59063D01*
X90921Y-59049D01*
G54D18*
X58009Y-54195D02*
X58009Y-53995D01*
X58052Y-53995D01*
X58078Y-54004D01*
X58095Y-54023D01*
X58103Y-54042D01*
X58112Y-54080D01*
X58112Y-54109D01*
X58103Y-54147D01*
X58095Y-54166D01*
X58078Y-54185D01*
X58052Y-54195D01*
X58009Y-54195D01*
X58189Y-54195D02*
X58189Y-53995D01*
X58292Y-54195D01*
X58292Y-53995D01*
X58378Y-54195D02*
X58378Y-53995D01*
X58446Y-53995D01*
X58463Y-54004D01*
X58472Y-54014D01*
X58481Y-54033D01*
X58481Y-54061D01*
X58472Y-54080D01*
X58463Y-54090D01*
X58446Y-54099D01*
X58378Y-54099D01*
X58652Y-54195D02*
X58549Y-54195D01*
X58601Y-54195D02*
X58601Y-53995D01*
X58583Y-54023D01*
X58566Y-54042D01*
X58549Y-54052D01*
G54D10*
X60999Y-57288D02*
X61017Y-57307D01*
X61036Y-57363D01*
X61036Y-57401D01*
X61017Y-57457D01*
X60980Y-57494D01*
X60942Y-57513D01*
X60867Y-57532D01*
X60811Y-57532D01*
X60736Y-57513D01*
X60699Y-57494D01*
X60661Y-57457D01*
X60642Y-57401D01*
X60642Y-57363D01*
X60661Y-57307D01*
X60680Y-57288D01*
X60642Y-57045D02*
X60642Y-56970D01*
X60661Y-56932D01*
X60699Y-56895D01*
X60774Y-56876D01*
X60905Y-56876D01*
X60980Y-56895D01*
X61017Y-56932D01*
X61036Y-56970D01*
X61036Y-57045D01*
X61017Y-57082D01*
X60980Y-57120D01*
X60905Y-57138D01*
X60774Y-57138D01*
X60699Y-57120D01*
X60661Y-57082D01*
X60642Y-57045D01*
X61036Y-56707D02*
X60642Y-56707D01*
X61036Y-56482D01*
X60642Y-56482D01*
X61036Y-56088D02*
X61036Y-56313D01*
X61036Y-56201D02*
X60642Y-56201D01*
X60699Y-56238D01*
X60736Y-56276D01*
X60755Y-56313D01*
X67064Y-59120D02*
X67064Y-58932D01*
X67176Y-59157D02*
X66782Y-59026D01*
X67176Y-58895D01*
X66782Y-58820D02*
X67176Y-58689D01*
X66782Y-58557D01*
X67176Y-58201D02*
X66989Y-58333D01*
X67176Y-58426D02*
X66782Y-58426D01*
X66782Y-58276D01*
X66801Y-58239D01*
X66820Y-58220D01*
X66857Y-58201D01*
X66914Y-58201D01*
X66951Y-58220D01*
X66970Y-58239D01*
X66989Y-58276D01*
X66989Y-58426D01*
X67026Y-58033D02*
X67026Y-57733D01*
X67176Y-57545D02*
X66782Y-57545D01*
X67157Y-57376D02*
X67176Y-57320D01*
X67176Y-57226D01*
X67157Y-57189D01*
X67139Y-57170D01*
X67101Y-57151D01*
X67064Y-57151D01*
X67026Y-57170D01*
X67007Y-57189D01*
X66989Y-57226D01*
X66970Y-57301D01*
X66951Y-57339D01*
X66932Y-57358D01*
X66895Y-57376D01*
X66857Y-57376D01*
X66820Y-57358D01*
X66801Y-57339D01*
X66782Y-57301D01*
X66782Y-57208D01*
X66801Y-57151D01*
X67176Y-56983D02*
X66782Y-56983D01*
X66782Y-56833D01*
X66801Y-56795D01*
X66820Y-56776D01*
X66857Y-56758D01*
X66914Y-56758D01*
X66951Y-56776D01*
X66970Y-56795D01*
X66989Y-56833D01*
X66989Y-56983D01*
X67026Y-56589D02*
X67026Y-56289D01*
X66782Y-55933D02*
X66782Y-56008D01*
X66801Y-56045D01*
X66820Y-56064D01*
X66876Y-56102D01*
X66951Y-56120D01*
X67101Y-56120D01*
X67139Y-56102D01*
X67157Y-56083D01*
X67176Y-56045D01*
X67176Y-55970D01*
X67157Y-55933D01*
X67139Y-55914D01*
X67101Y-55895D01*
X67007Y-55895D01*
X66970Y-55914D01*
X66951Y-55933D01*
X66932Y-55970D01*
X66932Y-56045D01*
X66951Y-56083D01*
X66970Y-56102D01*
X67007Y-56120D01*
X67026Y-55727D02*
X67026Y-55427D01*
X67176Y-55239D02*
X66782Y-55239D01*
X66782Y-55145D01*
X66801Y-55089D01*
X66839Y-55052D01*
X66876Y-55033D01*
X66951Y-55014D01*
X67007Y-55014D01*
X67082Y-55033D01*
X67120Y-55052D01*
X67157Y-55089D01*
X67176Y-55145D01*
X67176Y-55239D01*
X67176Y-54620D02*
X66989Y-54752D01*
X67176Y-54845D02*
X66782Y-54845D01*
X66782Y-54695D01*
X66801Y-54658D01*
X66820Y-54639D01*
X66857Y-54620D01*
X66914Y-54620D01*
X66951Y-54639D01*
X66970Y-54658D01*
X66989Y-54695D01*
X66989Y-54845D01*
X63486Y-60810D02*
X63880Y-60548D01*
X63486Y-60548D02*
X63880Y-60810D01*
X63880Y-60192D02*
X63880Y-60417D01*
X63880Y-60304D02*
X63486Y-60304D01*
X63543Y-60342D01*
X63580Y-60379D01*
X63599Y-60417D01*
X60926Y-62216D02*
X61320Y-61954D01*
X60926Y-61954D02*
X61320Y-62216D01*
X60926Y-61860D02*
X60926Y-61635D01*
X61320Y-61748D02*
X60926Y-61748D01*
X61208Y-61523D02*
X61208Y-61335D01*
X61320Y-61560D02*
X60926Y-61429D01*
X61320Y-61298D01*
X61320Y-60979D02*
X61320Y-61167D01*
X60926Y-61167D01*
X61320Y-60342D02*
X61320Y-60567D01*
X61320Y-60454D02*
X60926Y-60454D01*
X60983Y-60492D01*
X61020Y-60529D01*
X61039Y-60567D01*
X60926Y-60004D02*
X60926Y-60079D01*
X60945Y-60117D01*
X60964Y-60135D01*
X61020Y-60173D01*
X61095Y-60192D01*
X61245Y-60192D01*
X61283Y-60173D01*
X61301Y-60154D01*
X61320Y-60117D01*
X61320Y-60042D01*
X61301Y-60004D01*
X61283Y-59985D01*
X61245Y-59967D01*
X61151Y-59967D01*
X61114Y-59985D01*
X61095Y-60004D01*
X61076Y-60042D01*
X61076Y-60117D01*
X61095Y-60154D01*
X61114Y-60173D01*
X61151Y-60192D01*
X61320Y-59798D02*
X60926Y-59798D01*
X61208Y-59667D01*
X60926Y-59535D01*
X61320Y-59535D01*
X61320Y-59348D02*
X60926Y-59348D01*
X61114Y-59348D02*
X61114Y-59123D01*
X61320Y-59123D02*
X60926Y-59123D01*
X61058Y-58973D02*
X61058Y-58767D01*
X61320Y-58973D01*
X61320Y-58767D01*
X80409Y-56819D02*
X80409Y-57138D01*
X80427Y-57175D01*
X80446Y-57194D01*
X80484Y-57213D01*
X80558Y-57213D01*
X80596Y-57194D01*
X80615Y-57175D01*
X80633Y-57138D01*
X80633Y-56819D01*
X80990Y-56950D02*
X80990Y-57213D01*
X80896Y-56800D02*
X80802Y-57082D01*
X81046Y-57082D01*
X70234Y-56391D02*
X70234Y-56353D01*
X70253Y-56316D01*
X70272Y-56297D01*
X70309Y-56278D01*
X70384Y-56260D01*
X70478Y-56260D01*
X70553Y-56278D01*
X70590Y-56297D01*
X70609Y-56316D01*
X70628Y-56353D01*
X70628Y-56391D01*
X70609Y-56428D01*
X70590Y-56447D01*
X70553Y-56466D01*
X70478Y-56485D01*
X70384Y-56485D01*
X70309Y-56466D01*
X70272Y-56447D01*
X70253Y-56428D01*
X70234Y-56391D01*
X70234Y-56128D02*
X70628Y-56035D01*
X70347Y-55960D01*
X70628Y-55885D01*
X70234Y-55791D01*
X70234Y-55678D02*
X70628Y-55416D01*
X70234Y-55416D02*
X70628Y-55678D01*
X70365Y-55097D02*
X70628Y-55097D01*
X70215Y-55191D02*
X70497Y-55285D01*
X70497Y-55041D01*
X70234Y-54779D02*
X70515Y-54779D01*
X70572Y-54797D01*
X70609Y-54835D01*
X70628Y-54891D01*
X70628Y-54929D01*
X70422Y-54460D02*
X70422Y-54591D01*
X70628Y-54591D02*
X70234Y-54591D01*
X70234Y-54404D01*
G54D19*
X55235Y-62084D02*
X55221Y-62113D01*
X55192Y-62142D01*
X55150Y-62184D01*
X55135Y-62213D01*
X55135Y-62242D01*
X55207Y-62227D02*
X55192Y-62256D01*
X55164Y-62284D01*
X55107Y-62299D01*
X55007Y-62299D01*
X54950Y-62284D01*
X54921Y-62256D01*
X54907Y-62227D01*
X54907Y-62170D01*
X54921Y-62142D01*
X54950Y-62113D01*
X55007Y-62099D01*
X55107Y-62099D01*
X55164Y-62113D01*
X55192Y-62142D01*
X55207Y-62170D01*
X55207Y-62227D01*
X55207Y-61813D02*
X55207Y-61984D01*
X55207Y-61899D02*
X54907Y-61899D01*
X54950Y-61927D01*
X54978Y-61956D01*
X54992Y-61984D01*
X55235Y-56376D02*
X55221Y-56404D01*
X55192Y-56433D01*
X55150Y-56476D01*
X55135Y-56504D01*
X55135Y-56533D01*
X55207Y-56519D02*
X55192Y-56547D01*
X55164Y-56576D01*
X55107Y-56590D01*
X55007Y-56590D01*
X54950Y-56576D01*
X54921Y-56547D01*
X54907Y-56519D01*
X54907Y-56461D01*
X54921Y-56433D01*
X54950Y-56404D01*
X55007Y-56390D01*
X55107Y-56390D01*
X55164Y-56404D01*
X55192Y-56433D01*
X55207Y-56461D01*
X55207Y-56519D01*
X54935Y-56276D02*
X54921Y-56261D01*
X54907Y-56233D01*
X54907Y-56161D01*
X54921Y-56133D01*
X54935Y-56119D01*
X54964Y-56104D01*
X54992Y-56104D01*
X55035Y-56119D01*
X55207Y-56290D01*
X55207Y-56104D01*
X55235Y-57517D02*
X55221Y-57546D01*
X55192Y-57575D01*
X55150Y-57617D01*
X55135Y-57646D01*
X55135Y-57675D01*
X55207Y-57660D02*
X55192Y-57689D01*
X55164Y-57717D01*
X55107Y-57732D01*
X55007Y-57732D01*
X54950Y-57717D01*
X54921Y-57689D01*
X54907Y-57660D01*
X54907Y-57603D01*
X54921Y-57575D01*
X54950Y-57546D01*
X55007Y-57532D01*
X55107Y-57532D01*
X55164Y-57546D01*
X55192Y-57575D01*
X55207Y-57603D01*
X55207Y-57660D01*
X54907Y-57432D02*
X54907Y-57246D01*
X55021Y-57346D01*
X55021Y-57303D01*
X55035Y-57275D01*
X55050Y-57260D01*
X55078Y-57246D01*
X55150Y-57246D01*
X55178Y-57260D01*
X55192Y-57275D01*
X55207Y-57303D01*
X55207Y-57389D01*
X55192Y-57417D01*
X55178Y-57432D01*
X55235Y-58659D02*
X55221Y-58688D01*
X55192Y-58716D01*
X55150Y-58759D01*
X55135Y-58788D01*
X55135Y-58816D01*
X55207Y-58802D02*
X55192Y-58831D01*
X55164Y-58859D01*
X55107Y-58873D01*
X55007Y-58873D01*
X54950Y-58859D01*
X54921Y-58831D01*
X54907Y-58802D01*
X54907Y-58745D01*
X54921Y-58716D01*
X54950Y-58688D01*
X55007Y-58673D01*
X55107Y-58673D01*
X55164Y-58688D01*
X55192Y-58716D01*
X55207Y-58745D01*
X55207Y-58802D01*
X55007Y-58416D02*
X55207Y-58416D01*
X54892Y-58488D02*
X55107Y-58559D01*
X55107Y-58373D01*
X55235Y-59801D02*
X55221Y-59829D01*
X55192Y-59858D01*
X55150Y-59901D01*
X55135Y-59929D01*
X55135Y-59958D01*
X55207Y-59944D02*
X55192Y-59972D01*
X55164Y-60001D01*
X55107Y-60015D01*
X55007Y-60015D01*
X54950Y-60001D01*
X54921Y-59972D01*
X54907Y-59944D01*
X54907Y-59887D01*
X54921Y-59858D01*
X54950Y-59829D01*
X55007Y-59815D01*
X55107Y-59815D01*
X55164Y-59829D01*
X55192Y-59858D01*
X55207Y-59887D01*
X55207Y-59944D01*
X54907Y-59544D02*
X54907Y-59687D01*
X55050Y-59701D01*
X55035Y-59687D01*
X55021Y-59658D01*
X55021Y-59587D01*
X55035Y-59558D01*
X55050Y-59544D01*
X55078Y-59529D01*
X55150Y-59529D01*
X55178Y-59544D01*
X55192Y-59558D01*
X55207Y-59587D01*
X55207Y-59658D01*
X55192Y-59687D01*
X55178Y-59701D01*
X55235Y-60943D02*
X55221Y-60971D01*
X55192Y-61000D01*
X55150Y-61043D01*
X55135Y-61071D01*
X55135Y-61100D01*
X55207Y-61085D02*
X55192Y-61114D01*
X55164Y-61143D01*
X55107Y-61157D01*
X55007Y-61157D01*
X54950Y-61143D01*
X54921Y-61114D01*
X54907Y-61085D01*
X54907Y-61028D01*
X54921Y-61000D01*
X54950Y-60971D01*
X55007Y-60957D01*
X55107Y-60957D01*
X55164Y-60971D01*
X55192Y-61000D01*
X55207Y-61028D01*
X55207Y-61085D01*
X54907Y-60700D02*
X54907Y-60757D01*
X54921Y-60785D01*
X54935Y-60800D01*
X54978Y-60828D01*
X55035Y-60843D01*
X55150Y-60843D01*
X55178Y-60828D01*
X55192Y-60814D01*
X55207Y-60785D01*
X55207Y-60728D01*
X55192Y-60700D01*
X55178Y-60685D01*
X55150Y-60671D01*
X55078Y-60671D01*
X55050Y-60685D01*
X55035Y-60700D01*
X55021Y-60728D01*
X55021Y-60785D01*
X55035Y-60814D01*
X55050Y-60828D01*
X55078Y-60843D01*
G54D10*
X58341Y-48821D02*
X58341Y-49140D01*
X58360Y-49177D01*
X58379Y-49196D01*
X58416Y-49215D01*
X58491Y-49215D01*
X58529Y-49196D01*
X58547Y-49177D01*
X58566Y-49140D01*
X58566Y-48821D01*
X58941Y-48821D02*
X58754Y-48821D01*
X58735Y-49009D01*
X58754Y-48990D01*
X58791Y-48971D01*
X58885Y-48971D01*
X58922Y-48990D01*
X58941Y-49009D01*
X58960Y-49046D01*
X58960Y-49140D01*
X58941Y-49177D01*
X58922Y-49196D01*
X58885Y-49215D01*
X58791Y-49215D01*
X58754Y-49196D01*
X58735Y-49177D01*
X56335Y-50821D02*
X56598Y-51215D01*
X56598Y-50821D02*
X56335Y-51215D01*
X56879Y-51009D02*
X56748Y-51009D01*
X56748Y-51215D02*
X56748Y-50821D01*
X56935Y-50821D01*
X57066Y-50859D02*
X57085Y-50840D01*
X57123Y-50821D01*
X57216Y-50821D01*
X57254Y-50840D01*
X57273Y-50859D01*
X57291Y-50896D01*
X57291Y-50934D01*
X57273Y-50990D01*
X57048Y-51215D01*
X57291Y-51215D01*
X57460Y-51215D02*
X57460Y-50821D01*
X57591Y-51102D01*
X57723Y-50821D01*
X57723Y-51215D01*
X57910Y-51065D02*
X58210Y-51065D01*
X58360Y-50821D02*
X58604Y-50821D01*
X58473Y-50971D01*
X58529Y-50971D01*
X58566Y-50990D01*
X58585Y-51009D01*
X58604Y-51046D01*
X58604Y-51140D01*
X58585Y-51177D01*
X58566Y-51196D01*
X58529Y-51215D01*
X58416Y-51215D01*
X58379Y-51196D01*
X58360Y-51177D01*
X58847Y-50821D02*
X58885Y-50821D01*
X58922Y-50840D01*
X58941Y-50859D01*
X58960Y-50896D01*
X58979Y-50971D01*
X58979Y-51065D01*
X58960Y-51140D01*
X58941Y-51177D01*
X58922Y-51196D01*
X58885Y-51215D01*
X58847Y-51215D01*
X58810Y-51196D01*
X58791Y-51177D01*
X58772Y-51140D01*
X58754Y-51065D01*
X58754Y-50971D01*
X58772Y-50896D01*
X58791Y-50859D01*
X58810Y-50840D01*
X58847Y-50821D01*
X59354Y-51215D02*
X59129Y-51215D01*
X59241Y-51215D02*
X59241Y-50821D01*
X59204Y-50877D01*
X59166Y-50915D01*
X59129Y-50934D01*
X59710Y-50821D02*
X59522Y-50821D01*
X59504Y-51009D01*
X59522Y-50990D01*
X59560Y-50971D01*
X59654Y-50971D01*
X59691Y-50990D01*
X59710Y-51009D01*
X59729Y-51046D01*
X59729Y-51140D01*
X59710Y-51177D01*
X59691Y-51196D01*
X59654Y-51215D01*
X59560Y-51215D01*
X59522Y-51196D01*
X59504Y-51177D01*
X59897Y-51065D02*
X60197Y-51065D01*
X60591Y-51215D02*
X60366Y-51215D01*
X60479Y-51215D02*
X60479Y-50821D01*
X60441Y-50877D01*
X60404Y-50915D01*
X60366Y-50934D01*
X60741Y-51102D02*
X60928Y-51102D01*
X60703Y-51215D02*
X60835Y-50821D01*
X60966Y-51215D01*
G54D14*
X58254Y-53414D02*
X58254Y-53616D01*
X58266Y-53640D01*
X58278Y-53652D01*
X58301Y-53664D01*
X58349Y-53664D01*
X58373Y-53652D01*
X58385Y-53640D01*
X58397Y-53616D01*
X58397Y-53414D01*
X58504Y-53437D02*
X58516Y-53425D01*
X58540Y-53414D01*
X58599Y-53414D01*
X58623Y-53425D01*
X58635Y-53437D01*
X58647Y-53461D01*
X58647Y-53485D01*
X58635Y-53521D01*
X58492Y-53664D01*
X58647Y-53664D01*
X58427Y-53190D02*
X58308Y-53274D01*
X58427Y-53333D02*
X58177Y-53333D01*
X58177Y-53238D01*
X58189Y-53214D01*
X58201Y-53202D01*
X58225Y-53190D01*
X58261Y-53190D01*
X58285Y-53202D01*
X58297Y-53214D01*
X58308Y-53238D01*
X58308Y-53333D01*
X58177Y-53119D02*
X58177Y-52976D01*
X58427Y-53048D02*
X58177Y-53048D01*
X58427Y-52881D02*
X58427Y-52833D01*
X58416Y-52809D01*
X58404Y-52798D01*
X58368Y-52774D01*
X58320Y-52762D01*
X58225Y-52762D01*
X58201Y-52774D01*
X58189Y-52786D01*
X58177Y-52809D01*
X58177Y-52857D01*
X58189Y-52881D01*
X58201Y-52893D01*
X58225Y-52905D01*
X58285Y-52905D01*
X58308Y-52893D01*
X58320Y-52881D01*
X58332Y-52857D01*
X58332Y-52809D01*
X58320Y-52786D01*
X58308Y-52774D01*
X58285Y-52762D01*
X58177Y-52678D02*
X58177Y-52512D01*
X58427Y-52619D01*
X58177Y-52369D02*
X58177Y-52345D01*
X58189Y-52321D01*
X58201Y-52309D01*
X58225Y-52298D01*
X58273Y-52286D01*
X58332Y-52286D01*
X58380Y-52298D01*
X58404Y-52309D01*
X58416Y-52321D01*
X58427Y-52345D01*
X58427Y-52369D01*
X58416Y-52393D01*
X58404Y-52405D01*
X58380Y-52417D01*
X58332Y-52428D01*
X58273Y-52428D01*
X58225Y-52417D01*
X58201Y-52405D01*
X58189Y-52393D01*
X58177Y-52369D01*
X58177Y-52071D02*
X58177Y-52119D01*
X58189Y-52143D01*
X58201Y-52155D01*
X58237Y-52178D01*
X58285Y-52190D01*
X58380Y-52190D01*
X58404Y-52178D01*
X58416Y-52167D01*
X58427Y-52143D01*
X58427Y-52095D01*
X58416Y-52071D01*
X58404Y-52059D01*
X58380Y-52048D01*
X58320Y-52048D01*
X58297Y-52059D01*
X58285Y-52071D01*
X58273Y-52095D01*
X58273Y-52143D01*
X58285Y-52167D01*
X58297Y-52178D01*
X58320Y-52190D01*
G54D17*
X80706Y-59948D02*
X80706Y-59653D01*
X80804Y-59864D01*
X80903Y-59653D01*
X80903Y-59948D01*
X81043Y-59653D02*
X81043Y-59892D01*
X81057Y-59920D01*
X81071Y-59934D01*
X81099Y-59948D01*
X81155Y-59948D01*
X81183Y-59934D01*
X81198Y-59920D01*
X81212Y-59892D01*
X81212Y-59653D01*
X81324Y-59653D02*
X81521Y-59948D01*
X81521Y-59653D02*
X81324Y-59948D01*
X81619Y-59681D02*
X81633Y-59667D01*
X81661Y-59653D01*
X81731Y-59653D01*
X81759Y-59667D01*
X81773Y-59681D01*
X81788Y-59709D01*
X81788Y-59737D01*
X81773Y-59779D01*
X81605Y-59948D01*
X81788Y-59948D01*
X80622Y-59120D02*
X80608Y-59134D01*
X80565Y-59148D01*
X80537Y-59148D01*
X80495Y-59134D01*
X80467Y-59106D01*
X80453Y-59078D01*
X80439Y-59022D01*
X80439Y-58979D01*
X80453Y-58923D01*
X80467Y-58895D01*
X80495Y-58867D01*
X80537Y-58853D01*
X80565Y-58853D01*
X80608Y-58867D01*
X80622Y-58881D01*
X80748Y-59148D02*
X80748Y-58853D01*
X80818Y-58853D01*
X80860Y-58867D01*
X80888Y-58895D01*
X80903Y-58923D01*
X80917Y-58979D01*
X80917Y-59022D01*
X80903Y-59078D01*
X80888Y-59106D01*
X80860Y-59134D01*
X80818Y-59148D01*
X80748Y-59148D01*
X81169Y-58951D02*
X81169Y-59148D01*
X81099Y-58839D02*
X81029Y-59050D01*
X81212Y-59050D01*
X81380Y-58853D02*
X81408Y-58853D01*
X81436Y-58867D01*
X81450Y-58881D01*
X81464Y-58909D01*
X81478Y-58965D01*
X81478Y-59036D01*
X81464Y-59092D01*
X81450Y-59120D01*
X81436Y-59134D01*
X81408Y-59148D01*
X81380Y-59148D01*
X81352Y-59134D01*
X81338Y-59120D01*
X81324Y-59092D01*
X81310Y-59036D01*
X81310Y-58965D01*
X81324Y-58909D01*
X81338Y-58881D01*
X81352Y-58867D01*
X81380Y-58853D01*
X81745Y-58853D02*
X81605Y-58853D01*
X81591Y-58994D01*
X81605Y-58979D01*
X81633Y-58965D01*
X81703Y-58965D01*
X81731Y-58979D01*
X81745Y-58994D01*
X81759Y-59022D01*
X81759Y-59092D01*
X81745Y-59120D01*
X81731Y-59134D01*
X81703Y-59148D01*
X81633Y-59148D01*
X81605Y-59134D01*
X81591Y-59120D01*
X82040Y-59148D02*
X81872Y-59148D01*
X81956Y-59148D02*
X81956Y-58853D01*
X81928Y-58895D01*
X81900Y-58923D01*
X81872Y-58937D01*
G54D14*
X68055Y-49353D02*
X67955Y-49210D01*
X67883Y-49353D02*
X67883Y-49053D01*
X67998Y-49053D01*
X68026Y-49067D01*
X68040Y-49082D01*
X68055Y-49110D01*
X68055Y-49153D01*
X68040Y-49182D01*
X68026Y-49196D01*
X67998Y-49210D01*
X67883Y-49210D01*
X68169Y-49082D02*
X68183Y-49067D01*
X68212Y-49053D01*
X68283Y-49053D01*
X68312Y-49067D01*
X68326Y-49082D01*
X68340Y-49110D01*
X68340Y-49139D01*
X68326Y-49182D01*
X68155Y-49353D01*
X68340Y-49353D01*
X68440Y-49053D02*
X68626Y-49053D01*
X68526Y-49167D01*
X68569Y-49167D01*
X68598Y-49182D01*
X68612Y-49196D01*
X68626Y-49225D01*
X68626Y-49296D01*
X68612Y-49325D01*
X68598Y-49339D01*
X68569Y-49353D01*
X68483Y-49353D01*
X68455Y-49339D01*
X68440Y-49325D01*
G54D20*
G54D10*
X91826Y-51733D02*
X92089Y-52127D01*
X92089Y-51733D02*
X91826Y-52127D01*
X92408Y-51864D02*
X92408Y-52127D01*
X92314Y-51714D02*
X92220Y-51996D01*
X92464Y-51996D01*
X91708Y-54490D02*
X91633Y-54490D01*
X91596Y-54508D01*
X91577Y-54527D01*
X91540Y-54583D01*
X91521Y-54658D01*
X91521Y-54808D01*
X91540Y-54846D01*
X91558Y-54865D01*
X91596Y-54883D01*
X91671Y-54883D01*
X91708Y-54865D01*
X91727Y-54846D01*
X91746Y-54808D01*
X91746Y-54715D01*
X91727Y-54677D01*
X91708Y-54658D01*
X91671Y-54640D01*
X91596Y-54640D01*
X91558Y-54658D01*
X91540Y-54677D01*
X91521Y-54715D01*
X91915Y-54883D02*
X91915Y-54490D01*
X92046Y-54771D01*
X92177Y-54490D01*
X92177Y-54883D01*
X92365Y-54883D02*
X92365Y-54490D01*
X92365Y-54677D02*
X92589Y-54677D01*
X92589Y-54883D02*
X92589Y-54490D01*
X92739Y-54621D02*
X92946Y-54621D01*
X92739Y-54883D01*
X92946Y-54883D01*
X94627Y-59078D02*
X95020Y-58816D01*
X94627Y-58816D02*
X95020Y-59078D01*
X94664Y-58684D02*
X94645Y-58666D01*
X94627Y-58628D01*
X94627Y-58534D01*
X94645Y-58497D01*
X94664Y-58478D01*
X94702Y-58459D01*
X94739Y-58459D01*
X94795Y-58478D01*
X95020Y-58703D01*
X95020Y-58459D01*
X97187Y-60484D02*
X97580Y-60222D01*
X97187Y-60222D02*
X97580Y-60484D01*
X97187Y-60128D02*
X97187Y-59903D01*
X97580Y-60015D02*
X97187Y-60015D01*
X97468Y-59790D02*
X97468Y-59603D01*
X97580Y-59828D02*
X97187Y-59697D01*
X97580Y-59565D01*
X97580Y-59247D02*
X97580Y-59434D01*
X97187Y-59434D01*
X97580Y-58609D02*
X97580Y-58834D01*
X97580Y-58722D02*
X97187Y-58722D01*
X97243Y-58759D01*
X97280Y-58797D01*
X97299Y-58834D01*
X97187Y-58272D02*
X97187Y-58347D01*
X97205Y-58384D01*
X97224Y-58403D01*
X97280Y-58441D01*
X97355Y-58459D01*
X97505Y-58459D01*
X97543Y-58441D01*
X97562Y-58422D01*
X97580Y-58384D01*
X97580Y-58309D01*
X97562Y-58272D01*
X97543Y-58253D01*
X97505Y-58234D01*
X97412Y-58234D01*
X97374Y-58253D01*
X97355Y-58272D01*
X97337Y-58309D01*
X97337Y-58384D01*
X97355Y-58422D01*
X97374Y-58441D01*
X97412Y-58459D01*
X97580Y-58066D02*
X97187Y-58066D01*
X97468Y-57934D01*
X97187Y-57803D01*
X97580Y-57803D01*
X97580Y-57616D02*
X97187Y-57616D01*
X97374Y-57616D02*
X97374Y-57391D01*
X97580Y-57391D02*
X97187Y-57391D01*
X97318Y-57241D02*
X97318Y-57035D01*
X97580Y-57241D01*
X97580Y-57035D01*
X88014Y-48921D02*
X88408Y-48658D01*
X88014Y-48658D02*
X88408Y-48921D01*
X88014Y-48546D02*
X88014Y-48302D01*
X88164Y-48433D01*
X88164Y-48377D01*
X88183Y-48339D01*
X88201Y-48321D01*
X88239Y-48302D01*
X88333Y-48302D01*
X88370Y-48321D01*
X88389Y-48339D01*
X88408Y-48377D01*
X88408Y-48489D01*
X88389Y-48527D01*
X88370Y-48546D01*
X85454Y-50838D02*
X85848Y-50576D01*
X85454Y-50576D02*
X85848Y-50838D01*
X85454Y-50482D02*
X85454Y-50257D01*
X85848Y-50370D02*
X85454Y-50370D01*
X85735Y-50145D02*
X85735Y-49957D01*
X85848Y-50182D02*
X85454Y-50051D01*
X85848Y-49920D01*
X85848Y-49601D02*
X85848Y-49789D01*
X85454Y-49789D01*
X85848Y-48964D02*
X85848Y-49189D01*
X85848Y-49076D02*
X85454Y-49076D01*
X85510Y-49114D01*
X85548Y-49151D01*
X85567Y-49189D01*
X85454Y-48626D02*
X85454Y-48701D01*
X85473Y-48739D01*
X85492Y-48757D01*
X85548Y-48795D01*
X85623Y-48814D01*
X85773Y-48814D01*
X85810Y-48795D01*
X85829Y-48776D01*
X85848Y-48739D01*
X85848Y-48664D01*
X85829Y-48626D01*
X85810Y-48607D01*
X85773Y-48589D01*
X85679Y-48589D01*
X85642Y-48607D01*
X85623Y-48626D01*
X85604Y-48664D01*
X85604Y-48739D01*
X85623Y-48776D01*
X85642Y-48795D01*
X85679Y-48814D01*
X85848Y-48420D02*
X85454Y-48420D01*
X85735Y-48289D01*
X85454Y-48158D01*
X85848Y-48158D01*
X85848Y-47970D02*
X85454Y-47970D01*
X85642Y-47970D02*
X85642Y-47745D01*
X85848Y-47745D02*
X85454Y-47745D01*
X85585Y-47595D02*
X85585Y-47389D01*
X85848Y-47595D01*
X85848Y-47389D01*
G54D16*
X105827Y-62573D02*
X105841Y-62530D01*
X105841Y-62458D01*
X105827Y-62430D01*
X105813Y-62415D01*
X105784Y-62401D01*
X105756Y-62401D01*
X105727Y-62415D01*
X105713Y-62430D01*
X105698Y-62458D01*
X105684Y-62515D01*
X105670Y-62544D01*
X105656Y-62558D01*
X105627Y-62573D01*
X105598Y-62573D01*
X105570Y-62558D01*
X105556Y-62544D01*
X105541Y-62515D01*
X105541Y-62444D01*
X105556Y-62401D01*
X105541Y-62301D02*
X105841Y-62230D01*
X105627Y-62173D01*
X105841Y-62115D01*
X105541Y-62044D01*
X105541Y-61958D02*
X105541Y-61758D01*
X105841Y-61887D01*
X107489Y-62870D02*
X107508Y-62813D01*
X107508Y-62717D01*
X107489Y-62679D01*
X107470Y-62660D01*
X107432Y-62641D01*
X107393Y-62641D01*
X107355Y-62660D01*
X107336Y-62679D01*
X107317Y-62717D01*
X107298Y-62793D01*
X107279Y-62832D01*
X107260Y-62851D01*
X107222Y-62870D01*
X107184Y-62870D01*
X107146Y-62851D01*
X107127Y-62832D01*
X107108Y-62793D01*
X107108Y-62698D01*
X107127Y-62641D01*
X107508Y-62470D02*
X107108Y-62470D01*
X107108Y-62317D01*
X107127Y-62279D01*
X107146Y-62260D01*
X107184Y-62241D01*
X107241Y-62241D01*
X107279Y-62260D01*
X107298Y-62279D01*
X107317Y-62317D01*
X107317Y-62470D01*
X107489Y-62089D02*
X107508Y-62032D01*
X107508Y-61936D01*
X107489Y-61898D01*
X107470Y-61879D01*
X107432Y-61860D01*
X107393Y-61860D01*
X107355Y-61879D01*
X107336Y-61898D01*
X107317Y-61936D01*
X107298Y-62013D01*
X107279Y-62051D01*
X107260Y-62070D01*
X107222Y-62089D01*
X107184Y-62089D01*
X107146Y-62070D01*
X107127Y-62051D01*
X107108Y-62013D01*
X107108Y-61917D01*
X107127Y-61860D01*
X107108Y-61746D02*
X107108Y-61517D01*
X107508Y-61632D02*
X107108Y-61632D01*
G54D19*
X106136Y-57820D02*
X106108Y-57805D01*
X106079Y-57777D01*
X106036Y-57734D01*
X106008Y-57720D01*
X105979Y-57720D01*
X105993Y-57791D02*
X105965Y-57777D01*
X105936Y-57748D01*
X105922Y-57691D01*
X105922Y-57591D01*
X105936Y-57534D01*
X105965Y-57505D01*
X105993Y-57491D01*
X106051Y-57491D01*
X106079Y-57505D01*
X106108Y-57534D01*
X106122Y-57591D01*
X106122Y-57691D01*
X106108Y-57748D01*
X106079Y-57777D01*
X106051Y-57791D01*
X105993Y-57791D01*
X106408Y-57791D02*
X106236Y-57791D01*
X106322Y-57791D02*
X106322Y-57491D01*
X106293Y-57534D01*
X106265Y-57562D01*
X106236Y-57577D01*
X106593Y-57491D02*
X106622Y-57491D01*
X106651Y-57505D01*
X106665Y-57520D01*
X106679Y-57548D01*
X106693Y-57605D01*
X106693Y-57677D01*
X106679Y-57734D01*
X106665Y-57762D01*
X106651Y-57777D01*
X106622Y-57791D01*
X106593Y-57791D01*
X106565Y-57777D01*
X106551Y-57762D01*
X106536Y-57734D01*
X106522Y-57677D01*
X106522Y-57605D01*
X106536Y-57548D01*
X106551Y-57520D01*
X106565Y-57505D01*
X106593Y-57491D01*
X94512Y-60910D02*
X94498Y-60938D01*
X94470Y-60967D01*
X94427Y-61010D01*
X94412Y-61038D01*
X94412Y-61067D01*
X94484Y-61053D02*
X94470Y-61081D01*
X94441Y-61110D01*
X94384Y-61124D01*
X94284Y-61124D01*
X94227Y-61110D01*
X94198Y-61081D01*
X94184Y-61053D01*
X94184Y-60996D01*
X94198Y-60967D01*
X94227Y-60938D01*
X94284Y-60924D01*
X94384Y-60924D01*
X94441Y-60938D01*
X94470Y-60967D01*
X94484Y-60996D01*
X94484Y-61053D01*
X94484Y-60638D02*
X94484Y-60810D01*
X94484Y-60724D02*
X94184Y-60724D01*
X94227Y-60753D01*
X94255Y-60781D01*
X94270Y-60810D01*
X94484Y-60353D02*
X94484Y-60524D01*
X94484Y-60438D02*
X94184Y-60438D01*
X94227Y-60467D01*
X94255Y-60496D01*
X94270Y-60524D01*
G54D10*
X96697Y-52346D02*
X96697Y-52665D01*
X96716Y-52702D01*
X96735Y-52721D01*
X96772Y-52740D01*
X96847Y-52740D01*
X96885Y-52721D01*
X96903Y-52702D01*
X96922Y-52665D01*
X96922Y-52346D01*
X97316Y-52740D02*
X97091Y-52740D01*
X97203Y-52740D02*
X97203Y-52346D01*
X97166Y-52402D01*
X97128Y-52440D01*
X97091Y-52459D01*
X97672Y-52346D02*
X97485Y-52346D01*
X97466Y-52534D01*
X97485Y-52515D01*
X97522Y-52496D01*
X97616Y-52496D01*
X97653Y-52515D01*
X97672Y-52534D01*
X97691Y-52571D01*
X97691Y-52665D01*
X97672Y-52702D01*
X97653Y-52721D01*
X97616Y-52740D01*
X97522Y-52740D01*
X97485Y-52721D01*
X97466Y-52702D01*
X95947Y-55160D02*
X95947Y-54766D01*
X96078Y-55047D01*
X96210Y-54766D01*
X96210Y-55160D01*
X96378Y-55047D02*
X96566Y-55047D01*
X96341Y-55160D02*
X96472Y-54766D01*
X96603Y-55160D01*
X96697Y-54766D02*
X96960Y-55160D01*
X96960Y-54766D02*
X96697Y-55160D01*
X97278Y-54766D02*
X97203Y-54766D01*
X97166Y-54785D01*
X97147Y-54804D01*
X97110Y-54860D01*
X97091Y-54935D01*
X97091Y-55085D01*
X97110Y-55122D01*
X97128Y-55141D01*
X97166Y-55160D01*
X97241Y-55160D01*
X97278Y-55141D01*
X97297Y-55122D01*
X97316Y-55085D01*
X97316Y-54991D01*
X97297Y-54954D01*
X97278Y-54935D01*
X97241Y-54916D01*
X97166Y-54916D01*
X97128Y-54935D01*
X97110Y-54954D01*
X97091Y-54991D01*
X97447Y-54766D02*
X97709Y-54766D01*
X97541Y-55160D01*
X98028Y-54897D02*
X98028Y-55160D01*
X97934Y-54748D02*
X97841Y-55029D01*
X98084Y-55029D01*
X98253Y-55160D02*
X98328Y-55160D01*
X98366Y-55141D01*
X98384Y-55122D01*
X98422Y-55066D01*
X98441Y-54991D01*
X98441Y-54841D01*
X98422Y-54804D01*
X98403Y-54785D01*
X98366Y-54766D01*
X98291Y-54766D01*
X98253Y-54785D01*
X98234Y-54804D01*
X98216Y-54841D01*
X98216Y-54935D01*
X98234Y-54972D01*
X98253Y-54991D01*
X98291Y-55010D01*
X98366Y-55010D01*
X98403Y-54991D01*
X98422Y-54972D01*
X98441Y-54935D01*
G54D14*
X93017Y-47902D02*
X93017Y-48104D01*
X93029Y-48128D01*
X93041Y-48140D01*
X93064Y-48152D01*
X93112Y-48152D01*
X93136Y-48140D01*
X93148Y-48128D01*
X93160Y-48104D01*
X93160Y-47902D01*
X93410Y-48152D02*
X93267Y-48152D01*
X93338Y-48152D02*
X93338Y-47902D01*
X93314Y-47938D01*
X93291Y-47962D01*
X93267Y-47973D01*
X93493Y-47902D02*
X93660Y-47902D01*
X93553Y-48152D01*
X93296Y-49833D02*
X93296Y-49691D01*
X93546Y-49762D02*
X93296Y-49762D01*
X93546Y-49607D02*
X93296Y-49607D01*
X93296Y-49512D01*
X93307Y-49488D01*
X93319Y-49476D01*
X93343Y-49464D01*
X93379Y-49464D01*
X93403Y-49476D01*
X93415Y-49488D01*
X93427Y-49512D01*
X93427Y-49607D01*
X93534Y-49369D02*
X93546Y-49333D01*
X93546Y-49274D01*
X93534Y-49250D01*
X93522Y-49238D01*
X93498Y-49226D01*
X93474Y-49226D01*
X93450Y-49238D01*
X93438Y-49250D01*
X93427Y-49274D01*
X93415Y-49322D01*
X93403Y-49345D01*
X93391Y-49357D01*
X93367Y-49369D01*
X93343Y-49369D01*
X93319Y-49357D01*
X93307Y-49345D01*
X93296Y-49322D01*
X93296Y-49262D01*
X93307Y-49226D01*
X93319Y-49131D02*
X93307Y-49119D01*
X93296Y-49095D01*
X93296Y-49036D01*
X93307Y-49012D01*
X93319Y-49000D01*
X93343Y-48988D01*
X93367Y-48988D01*
X93403Y-49000D01*
X93546Y-49143D01*
X93546Y-48988D01*
X93296Y-48833D02*
X93296Y-48810D01*
X93307Y-48786D01*
X93319Y-48774D01*
X93343Y-48762D01*
X93391Y-48750D01*
X93450Y-48750D01*
X93498Y-48762D01*
X93522Y-48774D01*
X93534Y-48786D01*
X93546Y-48810D01*
X93546Y-48833D01*
X93534Y-48857D01*
X93522Y-48869D01*
X93498Y-48881D01*
X93450Y-48893D01*
X93391Y-48893D01*
X93343Y-48881D01*
X93319Y-48869D01*
X93307Y-48857D01*
X93296Y-48833D01*
X93379Y-48536D02*
X93546Y-48536D01*
X93284Y-48595D02*
X93462Y-48655D01*
X93462Y-48500D01*
X93546Y-48274D02*
X93546Y-48417D01*
X93546Y-48345D02*
X93296Y-48345D01*
X93331Y-48369D01*
X93355Y-48393D01*
X93367Y-48417D01*
X93415Y-48083D02*
X93427Y-48048D01*
X93438Y-48036D01*
X93462Y-48024D01*
X93498Y-48024D01*
X93522Y-48036D01*
X93534Y-48048D01*
X93546Y-48072D01*
X93546Y-48167D01*
X93296Y-48167D01*
X93296Y-48083D01*
X93307Y-48060D01*
X93319Y-48048D01*
X93343Y-48036D01*
X93367Y-48036D01*
X93391Y-48048D01*
X93403Y-48060D01*
X93415Y-48083D01*
X93415Y-48167D01*
G54D17*
X104168Y-48613D02*
X104407Y-48613D01*
X104435Y-48599D01*
X104449Y-48585D01*
X104463Y-48557D01*
X104463Y-48500D01*
X104449Y-48472D01*
X104435Y-48458D01*
X104407Y-48444D01*
X104168Y-48444D01*
X104463Y-48149D02*
X104463Y-48318D01*
X104463Y-48233D02*
X104168Y-48233D01*
X104210Y-48262D01*
X104238Y-48290D01*
X104252Y-48318D01*
X104196Y-48037D02*
X104182Y-48023D01*
X104168Y-47995D01*
X104168Y-47924D01*
X104182Y-47896D01*
X104196Y-47882D01*
X104224Y-47868D01*
X104252Y-47868D01*
X104294Y-47882D01*
X104463Y-48051D01*
X104463Y-47868D01*
X103692Y-49661D02*
X103832Y-49661D01*
X103663Y-49745D02*
X103762Y-49450D01*
X103860Y-49745D01*
X103916Y-49450D02*
X104085Y-49450D01*
X104001Y-49745D02*
X104001Y-49450D01*
X104169Y-49661D02*
X104310Y-49661D01*
X104141Y-49745D02*
X104239Y-49450D01*
X104338Y-49745D01*
X104436Y-49590D02*
X104534Y-49590D01*
X104577Y-49745D02*
X104436Y-49745D01*
X104436Y-49450D01*
X104577Y-49450D01*
X104689Y-49731D02*
X104731Y-49745D01*
X104801Y-49745D01*
X104829Y-49731D01*
X104843Y-49717D01*
X104857Y-49689D01*
X104857Y-49661D01*
X104843Y-49633D01*
X104829Y-49618D01*
X104801Y-49604D01*
X104745Y-49590D01*
X104717Y-49576D01*
X104703Y-49562D01*
X104689Y-49534D01*
X104689Y-49506D01*
X104703Y-49478D01*
X104717Y-49464D01*
X104745Y-49450D01*
X104815Y-49450D01*
X104857Y-49464D01*
X105138Y-49745D02*
X104970Y-49745D01*
X105054Y-49745D02*
X105054Y-49450D01*
X105026Y-49492D01*
X104998Y-49520D01*
X104970Y-49534D01*
X105237Y-49450D02*
X105419Y-49450D01*
X105321Y-49562D01*
X105363Y-49562D01*
X105391Y-49576D01*
X105405Y-49590D01*
X105419Y-49618D01*
X105419Y-49689D01*
X105405Y-49717D01*
X105391Y-49731D01*
X105363Y-49745D01*
X105279Y-49745D01*
X105251Y-49731D01*
X105237Y-49717D01*
X105532Y-49478D02*
X105546Y-49464D01*
X105574Y-49450D01*
X105644Y-49450D01*
X105672Y-49464D01*
X105686Y-49478D01*
X105700Y-49506D01*
X105700Y-49534D01*
X105686Y-49576D01*
X105518Y-49745D01*
X105700Y-49745D01*
X105813Y-49661D02*
X105953Y-49661D01*
X105785Y-49745D02*
X105883Y-49450D01*
X105981Y-49745D01*
G54D14*
X64393Y-62857D02*
X64293Y-62714D01*
X64222Y-62857D02*
X64222Y-62557D01*
X64336Y-62557D01*
X64365Y-62571D01*
X64379Y-62586D01*
X64393Y-62614D01*
X64393Y-62657D01*
X64379Y-62686D01*
X64365Y-62700D01*
X64336Y-62714D01*
X64222Y-62714D01*
X64508Y-62586D02*
X64522Y-62571D01*
X64550Y-62557D01*
X64622Y-62557D01*
X64650Y-62571D01*
X64665Y-62586D01*
X64679Y-62614D01*
X64679Y-62643D01*
X64665Y-62686D01*
X64493Y-62857D01*
X64679Y-62857D01*
X64936Y-62657D02*
X64936Y-62857D01*
X64865Y-62543D02*
X64793Y-62757D01*
X64979Y-62757D01*
X78212Y-50534D02*
X78112Y-50391D01*
X78041Y-50534D02*
X78041Y-50234D01*
X78155Y-50234D01*
X78184Y-50249D01*
X78198Y-50263D01*
X78212Y-50291D01*
X78212Y-50334D01*
X78198Y-50363D01*
X78184Y-50377D01*
X78155Y-50391D01*
X78041Y-50391D01*
X78312Y-50234D02*
X78498Y-50234D01*
X78398Y-50349D01*
X78441Y-50349D01*
X78469Y-50363D01*
X78484Y-50377D01*
X78498Y-50406D01*
X78498Y-50477D01*
X78484Y-50506D01*
X78469Y-50520D01*
X78441Y-50534D01*
X78355Y-50534D01*
X78326Y-50520D01*
X78312Y-50506D01*
X78755Y-50234D02*
X78698Y-50234D01*
X78669Y-50249D01*
X78655Y-50263D01*
X78626Y-50306D01*
X78612Y-50363D01*
X78612Y-50477D01*
X78626Y-50506D01*
X78641Y-50520D01*
X78669Y-50534D01*
X78726Y-50534D01*
X78755Y-50520D01*
X78769Y-50506D01*
X78784Y-50477D01*
X78784Y-50406D01*
X78769Y-50377D01*
X78755Y-50363D01*
X78726Y-50349D01*
X78669Y-50349D01*
X78641Y-50363D01*
X78626Y-50377D01*
X78612Y-50406D01*
X99393Y-56157D02*
X99250Y-56257D01*
X99393Y-56328D02*
X99093Y-56328D01*
X99093Y-56214D01*
X99107Y-56185D01*
X99121Y-56171D01*
X99150Y-56157D01*
X99193Y-56157D01*
X99221Y-56171D01*
X99235Y-56185D01*
X99250Y-56214D01*
X99250Y-56328D01*
X99093Y-56057D02*
X99093Y-55871D01*
X99207Y-55971D01*
X99207Y-55928D01*
X99221Y-55900D01*
X99235Y-55885D01*
X99264Y-55871D01*
X99335Y-55871D01*
X99364Y-55885D01*
X99378Y-55900D01*
X99393Y-55928D01*
X99393Y-56014D01*
X99378Y-56043D01*
X99364Y-56057D01*
X99121Y-55757D02*
X99107Y-55743D01*
X99093Y-55714D01*
X99093Y-55643D01*
X99107Y-55614D01*
X99121Y-55600D01*
X99150Y-55585D01*
X99178Y-55585D01*
X99221Y-55600D01*
X99393Y-55771D01*
X99393Y-55585D01*
X97818Y-56157D02*
X97675Y-56257D01*
X97818Y-56328D02*
X97518Y-56328D01*
X97518Y-56214D01*
X97532Y-56185D01*
X97546Y-56171D01*
X97575Y-56157D01*
X97618Y-56157D01*
X97646Y-56171D01*
X97661Y-56185D01*
X97675Y-56214D01*
X97675Y-56328D01*
X97518Y-56057D02*
X97518Y-55871D01*
X97632Y-55971D01*
X97632Y-55928D01*
X97646Y-55900D01*
X97661Y-55885D01*
X97689Y-55871D01*
X97761Y-55871D01*
X97789Y-55885D01*
X97803Y-55900D01*
X97818Y-55928D01*
X97818Y-56014D01*
X97803Y-56043D01*
X97789Y-56057D01*
X97618Y-55614D02*
X97818Y-55614D01*
X97503Y-55685D02*
X97718Y-55757D01*
X97718Y-55571D01*
X105270Y-62417D02*
X105284Y-62431D01*
X105298Y-62474D01*
X105298Y-62502D01*
X105284Y-62545D01*
X105255Y-62574D01*
X105227Y-62588D01*
X105170Y-62602D01*
X105127Y-62602D01*
X105070Y-62588D01*
X105041Y-62574D01*
X105012Y-62545D01*
X104998Y-62502D01*
X104998Y-62474D01*
X105012Y-62431D01*
X105027Y-62417D01*
X105027Y-62302D02*
X105012Y-62288D01*
X104998Y-62260D01*
X104998Y-62188D01*
X105012Y-62160D01*
X105027Y-62145D01*
X105055Y-62131D01*
X105084Y-62131D01*
X105127Y-62145D01*
X105298Y-62317D01*
X105298Y-62131D01*
X105098Y-61874D02*
X105298Y-61874D01*
X104984Y-61945D02*
X105198Y-62017D01*
X105198Y-61831D01*
X105652Y-59621D02*
X105510Y-59721D01*
X105652Y-59793D02*
X105352Y-59793D01*
X105352Y-59679D01*
X105367Y-59650D01*
X105381Y-59636D01*
X105410Y-59621D01*
X105452Y-59621D01*
X105481Y-59636D01*
X105495Y-59650D01*
X105510Y-59679D01*
X105510Y-59793D01*
X105352Y-59521D02*
X105352Y-59336D01*
X105467Y-59436D01*
X105467Y-59393D01*
X105481Y-59364D01*
X105495Y-59350D01*
X105524Y-59336D01*
X105595Y-59336D01*
X105624Y-59350D01*
X105638Y-59364D01*
X105652Y-59393D01*
X105652Y-59479D01*
X105638Y-59507D01*
X105624Y-59521D01*
X105352Y-59236D02*
X105352Y-59036D01*
X105652Y-59164D01*
X102947Y-49818D02*
X102961Y-49833D01*
X102975Y-49875D01*
X102975Y-49904D01*
X102961Y-49947D01*
X102932Y-49975D01*
X102904Y-49990D01*
X102847Y-50004D01*
X102804Y-50004D01*
X102747Y-49990D01*
X102718Y-49975D01*
X102690Y-49947D01*
X102675Y-49904D01*
X102675Y-49875D01*
X102690Y-49833D01*
X102704Y-49818D01*
X102975Y-49533D02*
X102975Y-49704D01*
X102975Y-49618D02*
X102675Y-49618D01*
X102718Y-49647D01*
X102747Y-49675D01*
X102761Y-49704D01*
X102804Y-49361D02*
X102790Y-49390D01*
X102775Y-49404D01*
X102747Y-49418D01*
X102732Y-49418D01*
X102704Y-49404D01*
X102690Y-49390D01*
X102675Y-49361D01*
X102675Y-49304D01*
X102690Y-49275D01*
X102704Y-49261D01*
X102732Y-49247D01*
X102747Y-49247D01*
X102775Y-49261D01*
X102790Y-49275D01*
X102804Y-49304D01*
X102804Y-49361D01*
X102818Y-49390D01*
X102832Y-49404D01*
X102861Y-49418D01*
X102918Y-49418D01*
X102947Y-49404D01*
X102961Y-49390D01*
X102975Y-49361D01*
X102975Y-49304D01*
X102961Y-49275D01*
X102947Y-49261D01*
X102918Y-49247D01*
X102861Y-49247D01*
X102832Y-49261D01*
X102818Y-49275D01*
X102804Y-49304D01*
X94393Y-58047D02*
X94250Y-58147D01*
X94393Y-58218D02*
X94093Y-58218D01*
X94093Y-58104D01*
X94107Y-58075D01*
X94121Y-58061D01*
X94150Y-58047D01*
X94193Y-58047D01*
X94221Y-58061D01*
X94235Y-58075D01*
X94250Y-58104D01*
X94250Y-58218D01*
X94093Y-57947D02*
X94093Y-57761D01*
X94207Y-57861D01*
X94207Y-57818D01*
X94221Y-57790D01*
X94235Y-57775D01*
X94264Y-57761D01*
X94335Y-57761D01*
X94364Y-57775D01*
X94378Y-57790D01*
X94393Y-57818D01*
X94393Y-57904D01*
X94378Y-57932D01*
X94364Y-57947D01*
X94221Y-57590D02*
X94207Y-57618D01*
X94193Y-57632D01*
X94164Y-57647D01*
X94150Y-57647D01*
X94121Y-57632D01*
X94107Y-57618D01*
X94093Y-57590D01*
X94093Y-57532D01*
X94107Y-57504D01*
X94121Y-57490D01*
X94150Y-57475D01*
X94164Y-57475D01*
X94193Y-57490D01*
X94207Y-57504D01*
X94221Y-57532D01*
X94221Y-57590D01*
X94235Y-57618D01*
X94250Y-57632D01*
X94278Y-57647D01*
X94335Y-57647D01*
X94364Y-57632D01*
X94378Y-57618D01*
X94393Y-57590D01*
X94393Y-57532D01*
X94378Y-57504D01*
X94364Y-57490D01*
X94335Y-57475D01*
X94278Y-57475D01*
X94250Y-57490D01*
X94235Y-57504D01*
X94221Y-57532D01*
X106479Y-50921D02*
X106336Y-51021D01*
X106479Y-51092D02*
X106179Y-51092D01*
X106179Y-50978D01*
X106193Y-50949D01*
X106208Y-50935D01*
X106236Y-50921D01*
X106279Y-50921D01*
X106308Y-50935D01*
X106322Y-50949D01*
X106336Y-50978D01*
X106336Y-51092D01*
X106179Y-50821D02*
X106179Y-50635D01*
X106293Y-50735D01*
X106293Y-50692D01*
X106308Y-50664D01*
X106322Y-50649D01*
X106351Y-50635D01*
X106422Y-50635D01*
X106451Y-50649D01*
X106465Y-50664D01*
X106479Y-50692D01*
X106479Y-50778D01*
X106465Y-50806D01*
X106451Y-50821D01*
X106179Y-50364D02*
X106179Y-50506D01*
X106322Y-50521D01*
X106308Y-50506D01*
X106293Y-50478D01*
X106293Y-50406D01*
X106308Y-50378D01*
X106322Y-50364D01*
X106351Y-50349D01*
X106422Y-50349D01*
X106451Y-50364D01*
X106465Y-50378D01*
X106479Y-50406D01*
X106479Y-50478D01*
X106465Y-50506D01*
X106451Y-50521D01*
X94590Y-55112D02*
X94576Y-55126D01*
X94533Y-55141D01*
X94504Y-55141D01*
X94462Y-55126D01*
X94433Y-55098D01*
X94419Y-55069D01*
X94404Y-55012D01*
X94404Y-54969D01*
X94419Y-54912D01*
X94433Y-54883D01*
X94462Y-54855D01*
X94504Y-54841D01*
X94533Y-54841D01*
X94576Y-54855D01*
X94590Y-54869D01*
X94704Y-54869D02*
X94719Y-54855D01*
X94747Y-54841D01*
X94819Y-54841D01*
X94847Y-54855D01*
X94862Y-54869D01*
X94876Y-54898D01*
X94876Y-54926D01*
X94862Y-54969D01*
X94690Y-55141D01*
X94876Y-55141D01*
X94990Y-54869D02*
X95004Y-54855D01*
X95033Y-54841D01*
X95104Y-54841D01*
X95133Y-54855D01*
X95147Y-54869D01*
X95162Y-54898D01*
X95162Y-54926D01*
X95147Y-54969D01*
X94976Y-55141D01*
X95162Y-55141D01*
X83724Y-50624D02*
X83710Y-50638D01*
X83667Y-50652D01*
X83638Y-50652D01*
X83595Y-50638D01*
X83567Y-50610D01*
X83553Y-50581D01*
X83538Y-50524D01*
X83538Y-50481D01*
X83553Y-50424D01*
X83567Y-50395D01*
X83595Y-50367D01*
X83638Y-50352D01*
X83667Y-50352D01*
X83710Y-50367D01*
X83724Y-50381D01*
X84010Y-50652D02*
X83838Y-50652D01*
X83924Y-50652D02*
X83924Y-50352D01*
X83895Y-50395D01*
X83867Y-50424D01*
X83838Y-50438D01*
X84267Y-50452D02*
X84267Y-50652D01*
X84195Y-50338D02*
X84124Y-50552D01*
X84310Y-50552D01*
X87818Y-51708D02*
X87675Y-51808D01*
X87818Y-51880D02*
X87518Y-51880D01*
X87518Y-51765D01*
X87532Y-51737D01*
X87546Y-51722D01*
X87575Y-51708D01*
X87618Y-51708D01*
X87646Y-51722D01*
X87661Y-51737D01*
X87675Y-51765D01*
X87675Y-51880D01*
X87546Y-51594D02*
X87532Y-51580D01*
X87518Y-51551D01*
X87518Y-51480D01*
X87532Y-51451D01*
X87546Y-51437D01*
X87575Y-51422D01*
X87603Y-51422D01*
X87646Y-51437D01*
X87818Y-51608D01*
X87818Y-51422D01*
X87518Y-51165D02*
X87518Y-51222D01*
X87532Y-51251D01*
X87546Y-51265D01*
X87589Y-51294D01*
X87646Y-51308D01*
X87761Y-51308D01*
X87789Y-51294D01*
X87803Y-51280D01*
X87818Y-51251D01*
X87818Y-51194D01*
X87803Y-51165D01*
X87789Y-51151D01*
X87761Y-51137D01*
X87689Y-51137D01*
X87661Y-51151D01*
X87646Y-51165D01*
X87632Y-51194D01*
X87632Y-51251D01*
X87646Y-51280D01*
X87661Y-51294D01*
X87689Y-51308D01*
X83724Y-52041D02*
X83710Y-52055D01*
X83667Y-52070D01*
X83638Y-52070D01*
X83595Y-52055D01*
X83567Y-52027D01*
X83553Y-51998D01*
X83538Y-51941D01*
X83538Y-51898D01*
X83553Y-51841D01*
X83567Y-51813D01*
X83595Y-51784D01*
X83638Y-51770D01*
X83667Y-51770D01*
X83710Y-51784D01*
X83724Y-51798D01*
X84010Y-52070D02*
X83838Y-52070D01*
X83924Y-52070D02*
X83924Y-51770D01*
X83895Y-51813D01*
X83867Y-51841D01*
X83838Y-51855D01*
X84295Y-52070D02*
X84124Y-52070D01*
X84210Y-52070D02*
X84210Y-51770D01*
X84181Y-51813D01*
X84153Y-51841D01*
X84124Y-51855D01*
X89088Y-51708D02*
X89103Y-51722D01*
X89117Y-51765D01*
X89117Y-51794D01*
X89103Y-51837D01*
X89074Y-51865D01*
X89046Y-51880D01*
X88988Y-51894D01*
X88946Y-51894D01*
X88888Y-51880D01*
X88860Y-51865D01*
X88831Y-51837D01*
X88817Y-51794D01*
X88817Y-51765D01*
X88831Y-51722D01*
X88846Y-51708D01*
X89117Y-51422D02*
X89117Y-51594D01*
X89117Y-51508D02*
X88817Y-51508D01*
X88860Y-51537D01*
X88888Y-51565D01*
X88903Y-51594D01*
X88846Y-51308D02*
X88831Y-51294D01*
X88817Y-51265D01*
X88817Y-51194D01*
X88831Y-51165D01*
X88846Y-51151D01*
X88874Y-51137D01*
X88903Y-51137D01*
X88946Y-51151D01*
X89117Y-51322D01*
X89117Y-51137D01*
X103212Y-59010D02*
X103198Y-59024D01*
X103155Y-59038D01*
X103126Y-59038D01*
X103084Y-59024D01*
X103055Y-58995D01*
X103041Y-58967D01*
X103026Y-58910D01*
X103026Y-58867D01*
X103041Y-58810D01*
X103055Y-58781D01*
X103084Y-58753D01*
X103126Y-58738D01*
X103155Y-58738D01*
X103198Y-58753D01*
X103212Y-58767D01*
X103498Y-59038D02*
X103326Y-59038D01*
X103412Y-59038D02*
X103412Y-58738D01*
X103384Y-58781D01*
X103355Y-58810D01*
X103326Y-58824D01*
X103598Y-58738D02*
X103784Y-58738D01*
X103684Y-58853D01*
X103726Y-58853D01*
X103755Y-58867D01*
X103769Y-58881D01*
X103784Y-58910D01*
X103784Y-58981D01*
X103769Y-59010D01*
X103755Y-59024D01*
X103726Y-59038D01*
X103641Y-59038D01*
X103612Y-59024D01*
X103598Y-59010D01*
X102267Y-62818D02*
X102167Y-62675D01*
X102096Y-62818D02*
X102096Y-62518D01*
X102210Y-62518D01*
X102239Y-62532D01*
X102253Y-62546D01*
X102267Y-62575D01*
X102267Y-62618D01*
X102253Y-62646D01*
X102239Y-62661D01*
X102210Y-62675D01*
X102096Y-62675D01*
X102382Y-62546D02*
X102396Y-62532D01*
X102424Y-62518D01*
X102496Y-62518D01*
X102524Y-62532D01*
X102539Y-62546D01*
X102553Y-62575D01*
X102553Y-62603D01*
X102539Y-62646D01*
X102367Y-62818D01*
X102553Y-62818D01*
X102824Y-62518D02*
X102682Y-62518D01*
X102667Y-62661D01*
X102682Y-62646D01*
X102710Y-62632D01*
X102782Y-62632D01*
X102810Y-62646D01*
X102824Y-62661D01*
X102839Y-62689D01*
X102839Y-62761D01*
X102824Y-62789D01*
X102810Y-62803D01*
X102782Y-62818D01*
X102710Y-62818D01*
X102682Y-62803D01*
X102667Y-62789D01*
X98512Y-58262D02*
X98498Y-58276D01*
X98455Y-58290D01*
X98427Y-58290D01*
X98384Y-58276D01*
X98355Y-58247D01*
X98341Y-58219D01*
X98327Y-58162D01*
X98327Y-58119D01*
X98341Y-58062D01*
X98355Y-58033D01*
X98384Y-58005D01*
X98427Y-57990D01*
X98455Y-57990D01*
X98498Y-58005D01*
X98512Y-58019D01*
X98655Y-58290D02*
X98712Y-58290D01*
X98741Y-58276D01*
X98755Y-58262D01*
X98784Y-58219D01*
X98798Y-58162D01*
X98798Y-58047D01*
X98784Y-58019D01*
X98770Y-58005D01*
X98741Y-57990D01*
X98684Y-57990D01*
X98655Y-58005D01*
X98641Y-58019D01*
X98627Y-58047D01*
X98627Y-58119D01*
X98641Y-58147D01*
X98655Y-58162D01*
X98684Y-58176D01*
X98741Y-58176D01*
X98770Y-58162D01*
X98784Y-58147D01*
X98798Y-58119D01*
X98370Y-60191D02*
X98355Y-60205D01*
X98312Y-60219D01*
X98284Y-60219D01*
X98241Y-60205D01*
X98212Y-60176D01*
X98198Y-60148D01*
X98184Y-60091D01*
X98184Y-60048D01*
X98198Y-59991D01*
X98212Y-59962D01*
X98241Y-59934D01*
X98284Y-59919D01*
X98312Y-59919D01*
X98355Y-59934D01*
X98370Y-59948D01*
X98655Y-60219D02*
X98484Y-60219D01*
X98570Y-60219D02*
X98570Y-59919D01*
X98541Y-59962D01*
X98512Y-59991D01*
X98484Y-60005D01*
X98841Y-59919D02*
X98870Y-59919D01*
X98898Y-59934D01*
X98912Y-59948D01*
X98927Y-59976D01*
X98941Y-60034D01*
X98941Y-60105D01*
X98927Y-60162D01*
X98912Y-60191D01*
X98898Y-60205D01*
X98870Y-60219D01*
X98841Y-60219D01*
X98812Y-60205D01*
X98798Y-60191D01*
X98784Y-60162D01*
X98770Y-60105D01*
X98770Y-60034D01*
X98784Y-59976D01*
X98798Y-59948D01*
X98812Y-59934D01*
X98841Y-59919D01*
X83763Y-49274D02*
X83663Y-49132D01*
X83592Y-49274D02*
X83592Y-48974D01*
X83706Y-48974D01*
X83735Y-48989D01*
X83749Y-49003D01*
X83763Y-49032D01*
X83763Y-49074D01*
X83749Y-49103D01*
X83735Y-49117D01*
X83706Y-49132D01*
X83592Y-49132D01*
X83878Y-49003D02*
X83892Y-48989D01*
X83920Y-48974D01*
X83992Y-48974D01*
X84020Y-48989D01*
X84035Y-49003D01*
X84049Y-49032D01*
X84049Y-49060D01*
X84035Y-49103D01*
X83863Y-49274D01*
X84049Y-49274D01*
X84220Y-49103D02*
X84192Y-49089D01*
X84178Y-49074D01*
X84163Y-49046D01*
X84163Y-49032D01*
X84178Y-49003D01*
X84192Y-48989D01*
X84220Y-48974D01*
X84278Y-48974D01*
X84306Y-48989D01*
X84320Y-49003D01*
X84335Y-49032D01*
X84335Y-49046D01*
X84320Y-49074D01*
X84306Y-49089D01*
X84278Y-49103D01*
X84220Y-49103D01*
X84192Y-49117D01*
X84178Y-49132D01*
X84163Y-49160D01*
X84163Y-49217D01*
X84178Y-49246D01*
X84192Y-49260D01*
X84220Y-49274D01*
X84278Y-49274D01*
X84306Y-49260D01*
X84320Y-49246D01*
X84335Y-49217D01*
X84335Y-49160D01*
X84320Y-49132D01*
X84306Y-49117D01*
X84278Y-49103D01*
X103212Y-57778D02*
X103112Y-57636D01*
X103041Y-57778D02*
X103041Y-57478D01*
X103155Y-57478D01*
X103184Y-57493D01*
X103198Y-57507D01*
X103212Y-57536D01*
X103212Y-57578D01*
X103198Y-57607D01*
X103184Y-57621D01*
X103155Y-57636D01*
X103041Y-57636D01*
X103326Y-57507D02*
X103341Y-57493D01*
X103369Y-57478D01*
X103441Y-57478D01*
X103469Y-57493D01*
X103484Y-57507D01*
X103498Y-57536D01*
X103498Y-57564D01*
X103484Y-57607D01*
X103312Y-57778D01*
X103498Y-57778D01*
X103598Y-57478D02*
X103798Y-57478D01*
X103669Y-57778D01*
X95191Y-50055D02*
X95205Y-50069D01*
X95219Y-50112D01*
X95219Y-50140D01*
X95205Y-50183D01*
X95176Y-50212D01*
X95148Y-50226D01*
X95091Y-50240D01*
X95048Y-50240D01*
X94991Y-50226D01*
X94962Y-50212D01*
X94934Y-50183D01*
X94919Y-50140D01*
X94919Y-50112D01*
X94934Y-50069D01*
X94948Y-50055D01*
X94948Y-49940D02*
X94934Y-49926D01*
X94919Y-49897D01*
X94919Y-49826D01*
X94934Y-49797D01*
X94948Y-49783D01*
X94976Y-49769D01*
X95005Y-49769D01*
X95048Y-49783D01*
X95219Y-49955D01*
X95219Y-49769D01*
X94919Y-49583D02*
X94919Y-49555D01*
X94934Y-49526D01*
X94948Y-49512D01*
X94976Y-49497D01*
X95034Y-49483D01*
X95105Y-49483D01*
X95162Y-49497D01*
X95191Y-49512D01*
X95205Y-49526D01*
X95219Y-49555D01*
X95219Y-49583D01*
X95205Y-49612D01*
X95191Y-49626D01*
X95162Y-49640D01*
X95105Y-49655D01*
X95034Y-49655D01*
X94976Y-49640D01*
X94948Y-49626D01*
X94934Y-49612D01*
X94919Y-49583D01*
X94866Y-51755D02*
X94766Y-51612D01*
X94694Y-51755D02*
X94694Y-51455D01*
X94809Y-51455D01*
X94837Y-51469D01*
X94851Y-51483D01*
X94866Y-51512D01*
X94866Y-51555D01*
X94851Y-51583D01*
X94837Y-51598D01*
X94809Y-51612D01*
X94694Y-51612D01*
X94966Y-51455D02*
X95151Y-51455D01*
X95051Y-51569D01*
X95094Y-51569D01*
X95123Y-51583D01*
X95137Y-51598D01*
X95151Y-51626D01*
X95151Y-51698D01*
X95137Y-51726D01*
X95123Y-51741D01*
X95094Y-51755D01*
X95009Y-51755D01*
X94980Y-51741D01*
X94966Y-51726D01*
X95251Y-51455D02*
X95437Y-51455D01*
X95337Y-51569D01*
X95380Y-51569D01*
X95409Y-51583D01*
X95423Y-51598D01*
X95437Y-51626D01*
X95437Y-51698D01*
X95423Y-51726D01*
X95409Y-51741D01*
X95380Y-51755D01*
X95294Y-51755D01*
X95266Y-51741D01*
X95251Y-51726D01*
G54D10*
X107541Y-57436D02*
X107859Y-57436D01*
X107897Y-57417D01*
X107916Y-57398D01*
X107934Y-57361D01*
X107934Y-57286D01*
X107916Y-57248D01*
X107897Y-57230D01*
X107859Y-57211D01*
X107541Y-57211D01*
X107934Y-56817D02*
X107934Y-57042D01*
X107934Y-56930D02*
X107541Y-56930D01*
X107597Y-56967D01*
X107634Y-57005D01*
X107653Y-57042D01*
X107541Y-56573D02*
X107541Y-56536D01*
X107559Y-56498D01*
X107578Y-56480D01*
X107616Y-56461D01*
X107691Y-56442D01*
X107784Y-56442D01*
X107859Y-56461D01*
X107897Y-56480D01*
X107916Y-56498D01*
X107934Y-56536D01*
X107934Y-56573D01*
X107916Y-56611D01*
X107897Y-56630D01*
X107859Y-56648D01*
X107784Y-56667D01*
X107691Y-56667D01*
X107616Y-56648D01*
X107578Y-56630D01*
X107559Y-56611D01*
X107541Y-56573D01*
X105100Y-58054D02*
X104706Y-58054D01*
X105100Y-57829D01*
X104706Y-57829D01*
X105100Y-57642D02*
X104706Y-57642D01*
X104894Y-57642D02*
X104894Y-57417D01*
X105100Y-57417D02*
X104706Y-57417D01*
X105100Y-57230D02*
X104706Y-57230D01*
X104706Y-57136D01*
X104725Y-57080D01*
X104762Y-57042D01*
X104800Y-57023D01*
X104875Y-57005D01*
X104931Y-57005D01*
X105006Y-57023D01*
X105044Y-57042D01*
X105081Y-57080D01*
X105100Y-57136D01*
X105100Y-57230D01*
X104950Y-56836D02*
X104950Y-56536D01*
X104706Y-56273D02*
X104706Y-56236D01*
X104725Y-56198D01*
X104744Y-56180D01*
X104781Y-56161D01*
X104856Y-56142D01*
X104950Y-56142D01*
X105025Y-56161D01*
X105062Y-56180D01*
X105081Y-56198D01*
X105100Y-56236D01*
X105100Y-56273D01*
X105081Y-56311D01*
X105062Y-56330D01*
X105025Y-56348D01*
X104950Y-56367D01*
X104856Y-56367D01*
X104781Y-56348D01*
X104744Y-56330D01*
X104725Y-56311D01*
X104706Y-56273D01*
X104837Y-55805D02*
X105100Y-55805D01*
X104687Y-55898D02*
X104969Y-55992D01*
X104969Y-55748D01*
X104837Y-55430D02*
X105100Y-55430D01*
X104687Y-55523D02*
X104969Y-55617D01*
X104969Y-55374D01*
X104706Y-55149D02*
X104706Y-55111D01*
X104725Y-55074D01*
X104744Y-55055D01*
X104781Y-55036D01*
X104856Y-55017D01*
X104950Y-55017D01*
X105025Y-55036D01*
X105062Y-55055D01*
X105081Y-55074D01*
X105100Y-55111D01*
X105100Y-55149D01*
X105081Y-55186D01*
X105062Y-55205D01*
X105025Y-55224D01*
X104950Y-55242D01*
X104856Y-55242D01*
X104781Y-55224D01*
X104744Y-55205D01*
X104725Y-55186D01*
X104706Y-55149D01*
X104987Y-54867D02*
X104987Y-54680D01*
X105100Y-54905D02*
X104706Y-54774D01*
X105100Y-54642D01*
X104706Y-54549D02*
X104706Y-54286D01*
X105100Y-54549D01*
X105100Y-54286D01*
X104950Y-54136D02*
X104950Y-53836D01*
X104894Y-53517D02*
X104894Y-53649D01*
X105100Y-53649D02*
X104706Y-53649D01*
X104706Y-53461D01*
X105100Y-53124D02*
X105100Y-53311D01*
X104706Y-53311D01*
X104950Y-52993D02*
X104950Y-52693D01*
X104912Y-52430D02*
X105100Y-52430D01*
X104706Y-52561D02*
X104912Y-52430D01*
X104706Y-52299D01*
X104894Y-52036D02*
X104912Y-51980D01*
X104931Y-51961D01*
X104969Y-51943D01*
X105025Y-51943D01*
X105062Y-51961D01*
X105081Y-51980D01*
X105100Y-52018D01*
X105100Y-52168D01*
X104706Y-52168D01*
X104706Y-52036D01*
X104725Y-51999D01*
X104744Y-51980D01*
X104781Y-51961D01*
X104819Y-51961D01*
X104856Y-51980D01*
X104875Y-51999D01*
X104894Y-52036D01*
X104894Y-52168D01*
X104706Y-51811D02*
X105100Y-51718D01*
X104819Y-51643D01*
X105100Y-51568D01*
X104706Y-51474D01*
X103981Y-49116D02*
X103981Y-49434D01*
X103999Y-49472D01*
X104018Y-49491D01*
X104056Y-49509D01*
X104131Y-49509D01*
X104168Y-49491D01*
X104187Y-49472D01*
X104206Y-49434D01*
X104206Y-49116D01*
X104599Y-49509D02*
X104374Y-49509D01*
X104487Y-49509D02*
X104487Y-49116D01*
X104449Y-49172D01*
X104412Y-49209D01*
X104374Y-49228D01*
X104937Y-49116D02*
X104862Y-49116D01*
X104824Y-49134D01*
X104805Y-49153D01*
X104768Y-49209D01*
X104749Y-49284D01*
X104749Y-49434D01*
X104768Y-49472D01*
X104787Y-49491D01*
X104824Y-49509D01*
X104899Y-49509D01*
X104937Y-49491D01*
X104955Y-49472D01*
X104974Y-49434D01*
X104974Y-49341D01*
X104955Y-49303D01*
X104937Y-49284D01*
X104899Y-49266D01*
X104824Y-49266D01*
X104787Y-49284D01*
X104768Y-49303D01*
X104749Y-49341D01*
X103609Y-51272D02*
X103666Y-51290D01*
X103684Y-51309D01*
X103703Y-51347D01*
X103703Y-51403D01*
X103684Y-51440D01*
X103666Y-51459D01*
X103628Y-51478D01*
X103478Y-51478D01*
X103478Y-51084D01*
X103609Y-51084D01*
X103647Y-51103D01*
X103666Y-51122D01*
X103684Y-51159D01*
X103684Y-51197D01*
X103666Y-51234D01*
X103647Y-51253D01*
X103609Y-51272D01*
X103478Y-51272D01*
X103872Y-51478D02*
X103872Y-51084D01*
X104003Y-51365D01*
X104134Y-51084D01*
X104134Y-51478D01*
X104322Y-51272D02*
X104453Y-51272D01*
X104509Y-51478D02*
X104322Y-51478D01*
X104322Y-51084D01*
X104509Y-51084D01*
X104659Y-51122D02*
X104678Y-51103D01*
X104715Y-51084D01*
X104809Y-51084D01*
X104847Y-51103D01*
X104865Y-51122D01*
X104884Y-51159D01*
X104884Y-51197D01*
X104865Y-51253D01*
X104640Y-51478D01*
X104884Y-51478D01*
X105109Y-51253D02*
X105072Y-51234D01*
X105053Y-51215D01*
X105034Y-51178D01*
X105034Y-51159D01*
X105053Y-51122D01*
X105072Y-51103D01*
X105109Y-51084D01*
X105184Y-51084D01*
X105222Y-51103D01*
X105240Y-51122D01*
X105259Y-51159D01*
X105259Y-51178D01*
X105240Y-51215D01*
X105222Y-51234D01*
X105184Y-51253D01*
X105109Y-51253D01*
X105072Y-51272D01*
X105053Y-51290D01*
X105034Y-51328D01*
X105034Y-51403D01*
X105053Y-51440D01*
X105072Y-51459D01*
X105109Y-51478D01*
X105184Y-51478D01*
X105222Y-51459D01*
X105240Y-51440D01*
X105259Y-51403D01*
X105259Y-51328D01*
X105240Y-51290D01*
X105222Y-51272D01*
X105184Y-51253D01*
X105503Y-51084D02*
X105540Y-51084D01*
X105578Y-51103D01*
X105597Y-51122D01*
X105615Y-51159D01*
X105634Y-51234D01*
X105634Y-51328D01*
X105615Y-51403D01*
X105597Y-51440D01*
X105578Y-51459D01*
X105540Y-51478D01*
X105503Y-51478D01*
X105465Y-51459D01*
X105447Y-51440D01*
X105428Y-51403D01*
X105409Y-51328D01*
X105409Y-51234D01*
X105428Y-51159D01*
X105447Y-51122D01*
X105465Y-51103D01*
X105503Y-51084D01*
X90035Y-60054D02*
X90354Y-60054D01*
X90391Y-60035D01*
X90410Y-60016D01*
X90429Y-59979D01*
X90429Y-59904D01*
X90410Y-59866D01*
X90391Y-59847D01*
X90354Y-59829D01*
X90035Y-59829D01*
X90429Y-59435D02*
X90429Y-59660D01*
X90429Y-59547D02*
X90035Y-59547D01*
X90091Y-59585D01*
X90129Y-59622D01*
X90148Y-59660D01*
X90429Y-59060D02*
X90429Y-59285D01*
X90429Y-59172D02*
X90035Y-59172D01*
X90091Y-59210D01*
X90129Y-59247D01*
X90148Y-59285D01*
X91029Y-61197D02*
X90635Y-61197D01*
X91029Y-60972D01*
X90635Y-60972D01*
X91029Y-60560D02*
X90841Y-60691D01*
X91029Y-60785D02*
X90635Y-60785D01*
X90635Y-60635D01*
X90654Y-60597D01*
X90673Y-60578D01*
X90710Y-60560D01*
X90766Y-60560D01*
X90804Y-60578D01*
X90823Y-60597D01*
X90841Y-60635D01*
X90841Y-60785D01*
X90823Y-60260D02*
X90823Y-60391D01*
X91029Y-60391D02*
X90635Y-60391D01*
X90635Y-60204D01*
X90673Y-60072D02*
X90654Y-60054D01*
X90635Y-60016D01*
X90635Y-59922D01*
X90654Y-59885D01*
X90673Y-59866D01*
X90710Y-59847D01*
X90748Y-59847D01*
X90804Y-59866D01*
X91029Y-60091D01*
X91029Y-59847D01*
X90766Y-59510D02*
X91029Y-59510D01*
X90616Y-59604D02*
X90898Y-59697D01*
X90898Y-59454D01*
X91029Y-59116D02*
X91029Y-59304D01*
X90635Y-59304D01*
X90635Y-58910D02*
X90635Y-58872D01*
X90654Y-58835D01*
X90673Y-58816D01*
X90710Y-58797D01*
X90785Y-58779D01*
X90879Y-58779D01*
X90954Y-58797D01*
X90991Y-58816D01*
X91010Y-58835D01*
X91029Y-58872D01*
X91029Y-58910D01*
X91010Y-58947D01*
X90991Y-58966D01*
X90954Y-58985D01*
X90879Y-59004D01*
X90785Y-59004D01*
X90710Y-58985D01*
X90673Y-58966D01*
X90654Y-58947D01*
X90635Y-58910D01*
X91029Y-58404D02*
X91029Y-58629D01*
X91029Y-58516D02*
X90635Y-58516D01*
X90691Y-58554D01*
X90729Y-58591D01*
X90748Y-58629D01*
X90879Y-58235D02*
X90879Y-57935D01*
X91029Y-58085D02*
X90729Y-58085D01*
X94847Y-48210D02*
X94847Y-48529D01*
X94865Y-48566D01*
X94884Y-48585D01*
X94922Y-48604D01*
X94997Y-48604D01*
X95034Y-48585D01*
X95053Y-48566D01*
X95072Y-48529D01*
X95072Y-48210D01*
X95465Y-48604D02*
X95240Y-48604D01*
X95353Y-48604D02*
X95353Y-48210D01*
X95315Y-48266D01*
X95278Y-48304D01*
X95240Y-48323D01*
X95690Y-48379D02*
X95653Y-48360D01*
X95634Y-48341D01*
X95615Y-48304D01*
X95615Y-48285D01*
X95634Y-48248D01*
X95653Y-48229D01*
X95690Y-48210D01*
X95765Y-48210D01*
X95803Y-48229D01*
X95822Y-48248D01*
X95840Y-48285D01*
X95840Y-48304D01*
X95822Y-48341D01*
X95803Y-48360D01*
X95765Y-48379D01*
X95690Y-48379D01*
X95653Y-48398D01*
X95634Y-48416D01*
X95615Y-48454D01*
X95615Y-48529D01*
X95634Y-48566D01*
X95653Y-48585D01*
X95690Y-48604D01*
X95765Y-48604D01*
X95803Y-48585D01*
X95822Y-48566D01*
X95840Y-48529D01*
X95840Y-48454D01*
X95822Y-48416D01*
X95803Y-48398D01*
X95765Y-48379D01*
X97762Y-48564D02*
X97574Y-48564D01*
X97574Y-48171D01*
X97837Y-48171D02*
X97968Y-48564D01*
X98099Y-48171D01*
X98231Y-48564D02*
X98231Y-48171D01*
X98324Y-48171D01*
X98381Y-48189D01*
X98418Y-48227D01*
X98437Y-48264D01*
X98456Y-48339D01*
X98456Y-48396D01*
X98437Y-48471D01*
X98418Y-48508D01*
X98381Y-48546D01*
X98324Y-48564D01*
X98231Y-48564D01*
X98606Y-48546D02*
X98662Y-48564D01*
X98756Y-48564D01*
X98793Y-48546D01*
X98812Y-48527D01*
X98831Y-48489D01*
X98831Y-48452D01*
X98812Y-48414D01*
X98793Y-48396D01*
X98756Y-48377D01*
X98681Y-48358D01*
X98643Y-48339D01*
X98624Y-48321D01*
X98606Y-48283D01*
X98606Y-48246D01*
X98624Y-48208D01*
X98643Y-48189D01*
X98681Y-48171D01*
X98774Y-48171D01*
X98831Y-48189D01*
X98906Y-48602D02*
X99206Y-48602D01*
X99299Y-48564D02*
X99299Y-48171D01*
X99299Y-48358D02*
X99524Y-48358D01*
X99524Y-48564D02*
X99524Y-48171D01*
X99712Y-48358D02*
X99843Y-48358D01*
X99899Y-48564D02*
X99712Y-48564D01*
X99712Y-48171D01*
X99899Y-48171D01*
X100049Y-48452D02*
X100237Y-48452D01*
X100012Y-48564D02*
X100143Y-48171D01*
X100274Y-48564D01*
X100405Y-48564D02*
X100405Y-48171D01*
X100499Y-48171D01*
X100555Y-48189D01*
X100593Y-48227D01*
X100612Y-48264D01*
X100630Y-48339D01*
X100630Y-48396D01*
X100612Y-48471D01*
X100593Y-48508D01*
X100555Y-48546D01*
X100499Y-48564D01*
X100405Y-48564D01*
X100799Y-48358D02*
X100930Y-48358D01*
X100987Y-48564D02*
X100799Y-48564D01*
X100799Y-48171D01*
X100987Y-48171D01*
X101380Y-48564D02*
X101249Y-48377D01*
X101155Y-48564D02*
X101155Y-48171D01*
X101305Y-48171D01*
X101343Y-48189D01*
X101362Y-48208D01*
X101380Y-48246D01*
X101380Y-48302D01*
X101362Y-48339D01*
X101343Y-48358D01*
X101305Y-48377D01*
X101155Y-48377D01*
X72580Y-52327D02*
X72899Y-52327D01*
X72936Y-52308D01*
X72955Y-52290D01*
X72974Y-52252D01*
X72974Y-52177D01*
X72955Y-52140D01*
X72936Y-52121D01*
X72899Y-52102D01*
X72580Y-52102D01*
X72580Y-51952D02*
X72580Y-51690D01*
X72974Y-51858D01*
X72580Y-51375D02*
X72899Y-51375D01*
X72936Y-51356D01*
X72955Y-51337D01*
X72974Y-51300D01*
X72974Y-51225D01*
X72955Y-51187D01*
X72936Y-51168D01*
X72899Y-51150D01*
X72580Y-51150D01*
X72955Y-50981D02*
X72974Y-50925D01*
X72974Y-50831D01*
X72955Y-50793D01*
X72936Y-50775D01*
X72899Y-50756D01*
X72861Y-50756D01*
X72824Y-50775D01*
X72805Y-50793D01*
X72786Y-50831D01*
X72768Y-50906D01*
X72749Y-50943D01*
X72730Y-50962D01*
X72693Y-50981D01*
X72655Y-50981D01*
X72618Y-50962D01*
X72599Y-50943D01*
X72580Y-50906D01*
X72580Y-50812D01*
X72599Y-50756D01*
X72768Y-50456D02*
X72786Y-50400D01*
X72805Y-50381D01*
X72843Y-50362D01*
X72899Y-50362D01*
X72936Y-50381D01*
X72955Y-50400D01*
X72974Y-50437D01*
X72974Y-50587D01*
X72580Y-50587D01*
X72580Y-50456D01*
X72599Y-50419D01*
X72618Y-50400D01*
X72655Y-50381D01*
X72693Y-50381D01*
X72730Y-50400D01*
X72749Y-50419D01*
X72768Y-50456D01*
X72768Y-50587D01*
X73011Y-50287D02*
X73011Y-49987D01*
X72936Y-49669D02*
X72955Y-49687D01*
X72974Y-49744D01*
X72974Y-49781D01*
X72955Y-49837D01*
X72918Y-49875D01*
X72880Y-49894D01*
X72805Y-49912D01*
X72749Y-49912D01*
X72674Y-49894D01*
X72636Y-49875D01*
X72599Y-49837D01*
X72580Y-49781D01*
X72580Y-49744D01*
X72599Y-49687D01*
X72618Y-49669D01*
X72861Y-49519D02*
X72861Y-49331D01*
X72974Y-49556D02*
X72580Y-49425D01*
X72974Y-49294D01*
X72974Y-49162D02*
X72580Y-49162D01*
X72861Y-49031D01*
X72580Y-48900D01*
X72974Y-48900D01*
X76766Y-51045D02*
X76766Y-51363D01*
X76785Y-51401D01*
X76804Y-51420D01*
X76841Y-51438D01*
X76916Y-51438D01*
X76954Y-51420D01*
X76973Y-51401D01*
X76991Y-51363D01*
X76991Y-51045D01*
X77235Y-51213D02*
X77198Y-51195D01*
X77179Y-51176D01*
X77160Y-51138D01*
X77160Y-51120D01*
X77179Y-51082D01*
X77198Y-51063D01*
X77235Y-51045D01*
X77310Y-51045D01*
X77348Y-51063D01*
X77366Y-51082D01*
X77385Y-51120D01*
X77385Y-51138D01*
X77366Y-51176D01*
X77348Y-51195D01*
X77310Y-51213D01*
X77235Y-51213D01*
X77198Y-51232D01*
X77179Y-51251D01*
X77160Y-51288D01*
X77160Y-51363D01*
X77179Y-51401D01*
X77198Y-51420D01*
X77235Y-51438D01*
X77310Y-51438D01*
X77348Y-51420D01*
X77366Y-51401D01*
X77385Y-51363D01*
X77385Y-51288D01*
X77366Y-51251D01*
X77348Y-51232D01*
X77310Y-51213D01*
X74279Y-49461D02*
X74410Y-49461D01*
X74466Y-49667D02*
X74279Y-49667D01*
X74279Y-49273D01*
X74466Y-49273D01*
X74635Y-49667D02*
X74635Y-49273D01*
X74785Y-49273D01*
X74822Y-49292D01*
X74841Y-49311D01*
X74860Y-49348D01*
X74860Y-49404D01*
X74841Y-49442D01*
X74822Y-49461D01*
X74785Y-49479D01*
X74635Y-49479D01*
X75010Y-49554D02*
X75197Y-49554D01*
X74972Y-49667D02*
X75104Y-49273D01*
X75235Y-49667D01*
X75366Y-49667D02*
X75366Y-49273D01*
X75516Y-49273D01*
X75553Y-49292D01*
X75572Y-49311D01*
X75591Y-49348D01*
X75591Y-49404D01*
X75572Y-49442D01*
X75553Y-49461D01*
X75516Y-49479D01*
X75366Y-49479D01*
X75760Y-49461D02*
X75891Y-49461D01*
X75947Y-49667D02*
X75760Y-49667D01*
X75760Y-49273D01*
X75947Y-49273D01*
X76341Y-49667D02*
X76210Y-49479D01*
X76116Y-49667D02*
X76116Y-49273D01*
X76266Y-49273D01*
X76303Y-49292D01*
X76322Y-49311D01*
X76341Y-49348D01*
X76341Y-49404D01*
X76322Y-49442D01*
X76303Y-49461D01*
X76266Y-49479D01*
X76116Y-49479D01*
X76416Y-49704D02*
X76716Y-49704D01*
X76753Y-49273D02*
X76885Y-49667D01*
X77016Y-49273D01*
X77128Y-49311D02*
X77147Y-49292D01*
X77185Y-49273D01*
X77278Y-49273D01*
X77316Y-49292D01*
X77335Y-49311D01*
X77353Y-49348D01*
X77353Y-49386D01*
X77335Y-49442D01*
X77110Y-49667D01*
X77353Y-49667D01*
G54D16*
X98065Y-52798D02*
X98065Y-53041D01*
X98080Y-53069D01*
X98094Y-53084D01*
X98122Y-53098D01*
X98180Y-53098D01*
X98208Y-53084D01*
X98222Y-53069D01*
X98237Y-53041D01*
X98237Y-52798D01*
X98537Y-53098D02*
X98365Y-53098D01*
X98451Y-53098D02*
X98451Y-52798D01*
X98422Y-52841D01*
X98394Y-52869D01*
X98365Y-52884D01*
X98637Y-52798D02*
X98822Y-52798D01*
X98722Y-52912D01*
X98765Y-52912D01*
X98794Y-52927D01*
X98808Y-52941D01*
X98822Y-52969D01*
X98822Y-53041D01*
X98808Y-53069D01*
X98794Y-53084D01*
X98765Y-53098D01*
X98680Y-53098D01*
X98651Y-53084D01*
X98637Y-53069D01*
X100307Y-53012D02*
X100450Y-53012D01*
X100278Y-53098D02*
X100378Y-52798D01*
X100478Y-53098D01*
X100535Y-52798D02*
X100707Y-52798D01*
X100621Y-53098D02*
X100621Y-52798D01*
X100821Y-53098D02*
X100878Y-53098D01*
X100907Y-53084D01*
X100921Y-53069D01*
X100950Y-53027D01*
X100964Y-52969D01*
X100964Y-52855D01*
X100950Y-52827D01*
X100935Y-52812D01*
X100907Y-52798D01*
X100850Y-52798D01*
X100821Y-52812D01*
X100807Y-52827D01*
X100792Y-52855D01*
X100792Y-52927D01*
X100807Y-52955D01*
X100821Y-52969D01*
X100850Y-52984D01*
X100907Y-52984D01*
X100935Y-52969D01*
X100950Y-52955D01*
X100964Y-52927D01*
X101064Y-52798D02*
X101264Y-52798D01*
X101135Y-53098D01*
X101364Y-53084D02*
X101407Y-53098D01*
X101478Y-53098D01*
X101507Y-53084D01*
X101521Y-53069D01*
X101535Y-53041D01*
X101535Y-53012D01*
X101521Y-52984D01*
X101507Y-52969D01*
X101478Y-52955D01*
X101421Y-52941D01*
X101392Y-52927D01*
X101378Y-52912D01*
X101364Y-52884D01*
X101364Y-52855D01*
X101378Y-52827D01*
X101392Y-52812D01*
X101421Y-52798D01*
X101492Y-52798D01*
X101535Y-52812D01*
X101835Y-53069D02*
X101821Y-53084D01*
X101778Y-53098D01*
X101750Y-53098D01*
X101707Y-53084D01*
X101678Y-53055D01*
X101664Y-53027D01*
X101650Y-52969D01*
X101650Y-52927D01*
X101664Y-52869D01*
X101678Y-52841D01*
X101707Y-52812D01*
X101750Y-52798D01*
X101778Y-52798D01*
X101821Y-52812D01*
X101835Y-52827D01*
X101935Y-52798D02*
X102121Y-52798D01*
X102021Y-52912D01*
X102064Y-52912D01*
X102092Y-52927D01*
X102107Y-52941D01*
X102121Y-52969D01*
X102121Y-53041D01*
X102107Y-53069D01*
X102092Y-53084D01*
X102064Y-53098D01*
X101978Y-53098D01*
X101950Y-53084D01*
X101935Y-53069D01*
X102235Y-52827D02*
X102250Y-52812D01*
X102278Y-52798D01*
X102350Y-52798D01*
X102378Y-52812D01*
X102392Y-52827D01*
X102407Y-52855D01*
X102407Y-52884D01*
X102392Y-52927D01*
X102221Y-53098D01*
X102407Y-53098D01*
X102592Y-52798D02*
X102621Y-52798D01*
X102650Y-52812D01*
X102664Y-52827D01*
X102678Y-52855D01*
X102692Y-52912D01*
X102692Y-52984D01*
X102678Y-53041D01*
X102664Y-53069D01*
X102650Y-53084D01*
X102621Y-53098D01*
X102592Y-53098D01*
X102564Y-53084D01*
X102550Y-53069D01*
X102535Y-53041D01*
X102521Y-52984D01*
X102521Y-52912D01*
X102535Y-52855D01*
X102550Y-52827D01*
X102564Y-52812D01*
X102592Y-52798D01*
X102964Y-52798D02*
X102821Y-52798D01*
X102807Y-52941D01*
X102821Y-52927D01*
X102850Y-52912D01*
X102921Y-52912D01*
X102950Y-52927D01*
X102964Y-52941D01*
X102978Y-52969D01*
X102978Y-53041D01*
X102964Y-53069D01*
X102950Y-53084D01*
X102921Y-53098D01*
X102850Y-53098D01*
X102821Y-53084D01*
X102807Y-53069D01*
X103064Y-52798D02*
X103235Y-52798D01*
X103150Y-53098D02*
X103150Y-52798D01*
G54D10*
X63922Y-49628D02*
X63922Y-49235D01*
X64146Y-49628D02*
X63978Y-49403D01*
X64146Y-49235D02*
X63922Y-49460D01*
X64521Y-49628D02*
X64296Y-49628D01*
X64409Y-49628D02*
X64409Y-49235D01*
X64371Y-49291D01*
X64334Y-49328D01*
X64296Y-49347D01*
X62075Y-47680D02*
X62056Y-47699D01*
X62000Y-47718D01*
X61962Y-47718D01*
X61906Y-47699D01*
X61869Y-47662D01*
X61850Y-47624D01*
X61831Y-47549D01*
X61831Y-47493D01*
X61850Y-47418D01*
X61869Y-47380D01*
X61906Y-47343D01*
X61962Y-47324D01*
X62000Y-47324D01*
X62056Y-47343D01*
X62075Y-47362D01*
X62225Y-47605D02*
X62412Y-47605D01*
X62187Y-47718D02*
X62319Y-47324D01*
X62450Y-47718D01*
X62562Y-47699D02*
X62619Y-47718D01*
X62712Y-47718D01*
X62750Y-47699D01*
X62769Y-47680D01*
X62787Y-47643D01*
X62787Y-47605D01*
X62769Y-47568D01*
X62750Y-47549D01*
X62712Y-47530D01*
X62637Y-47512D01*
X62600Y-47493D01*
X62581Y-47474D01*
X62562Y-47437D01*
X62562Y-47399D01*
X62581Y-47362D01*
X62600Y-47343D01*
X62637Y-47324D01*
X62731Y-47324D01*
X62787Y-47343D01*
X62956Y-47512D02*
X63087Y-47512D01*
X63143Y-47718D02*
X62956Y-47718D01*
X62956Y-47324D01*
X63143Y-47324D01*
X63218Y-47755D02*
X63518Y-47755D01*
X63687Y-47324D02*
X63762Y-47324D01*
X63800Y-47343D01*
X63837Y-47380D01*
X63856Y-47455D01*
X63856Y-47587D01*
X63837Y-47662D01*
X63800Y-47699D01*
X63762Y-47718D01*
X63687Y-47718D01*
X63650Y-47699D01*
X63612Y-47662D01*
X63593Y-47587D01*
X63593Y-47455D01*
X63612Y-47380D01*
X63650Y-47343D01*
X63687Y-47324D01*
X64025Y-47718D02*
X64025Y-47324D01*
X64175Y-47324D01*
X64212Y-47343D01*
X64231Y-47362D01*
X64250Y-47399D01*
X64250Y-47455D01*
X64231Y-47493D01*
X64212Y-47512D01*
X64175Y-47530D01*
X64025Y-47530D01*
X64418Y-47512D02*
X64550Y-47512D01*
X64606Y-47718D02*
X64418Y-47718D01*
X64418Y-47324D01*
X64606Y-47324D01*
X64775Y-47718D02*
X64775Y-47324D01*
X65000Y-47718D01*
X65000Y-47324D01*
X67819Y-51496D02*
X67819Y-51103D01*
X68044Y-51496D02*
X67875Y-51271D01*
X68044Y-51103D02*
X67819Y-51328D01*
X68194Y-51140D02*
X68213Y-51121D01*
X68250Y-51103D01*
X68344Y-51103D01*
X68382Y-51121D01*
X68400Y-51140D01*
X68419Y-51178D01*
X68419Y-51215D01*
X68400Y-51271D01*
X68175Y-51496D01*
X68419Y-51496D01*
X69314Y-52924D02*
X69333Y-52943D01*
X69352Y-52999D01*
X69352Y-53037D01*
X69333Y-53093D01*
X69296Y-53130D01*
X69258Y-53149D01*
X69183Y-53168D01*
X69127Y-53168D01*
X69052Y-53149D01*
X69014Y-53130D01*
X68977Y-53093D01*
X68958Y-53037D01*
X68958Y-52999D01*
X68977Y-52943D01*
X68996Y-52924D01*
X69239Y-52774D02*
X69239Y-52587D01*
X69352Y-52812D02*
X68958Y-52680D01*
X69352Y-52549D01*
X69333Y-52437D02*
X69352Y-52380D01*
X69352Y-52287D01*
X69333Y-52249D01*
X69314Y-52230D01*
X69277Y-52212D01*
X69239Y-52212D01*
X69202Y-52230D01*
X69183Y-52249D01*
X69164Y-52287D01*
X69146Y-52362D01*
X69127Y-52399D01*
X69108Y-52418D01*
X69071Y-52437D01*
X69033Y-52437D01*
X68996Y-52418D01*
X68977Y-52399D01*
X68958Y-52362D01*
X68958Y-52268D01*
X68977Y-52212D01*
X69146Y-52043D02*
X69146Y-51912D01*
X69352Y-51856D02*
X69352Y-52043D01*
X68958Y-52043D01*
X68958Y-51856D01*
X69389Y-51781D02*
X69389Y-51481D01*
X68958Y-51312D02*
X68958Y-51237D01*
X68977Y-51199D01*
X69014Y-51162D01*
X69089Y-51143D01*
X69221Y-51143D01*
X69296Y-51162D01*
X69333Y-51199D01*
X69352Y-51237D01*
X69352Y-51312D01*
X69333Y-51349D01*
X69296Y-51387D01*
X69221Y-51406D01*
X69089Y-51406D01*
X69014Y-51387D01*
X68977Y-51349D01*
X68958Y-51312D01*
X69352Y-50974D02*
X68958Y-50974D01*
X68958Y-50824D01*
X68977Y-50787D01*
X68996Y-50768D01*
X69033Y-50749D01*
X69089Y-50749D01*
X69127Y-50768D01*
X69146Y-50787D01*
X69164Y-50824D01*
X69164Y-50974D01*
X69146Y-50581D02*
X69146Y-50449D01*
X69352Y-50393D02*
X69352Y-50581D01*
X68958Y-50581D01*
X68958Y-50393D01*
X69352Y-50224D02*
X68958Y-50224D01*
X69352Y-49999D01*
X68958Y-49999D01*
X53860Y-49640D02*
X53466Y-49640D01*
X53466Y-49491D01*
X53485Y-49453D01*
X53503Y-49434D01*
X53541Y-49416D01*
X53597Y-49416D01*
X53635Y-49434D01*
X53653Y-49453D01*
X53672Y-49491D01*
X53672Y-49640D01*
X53860Y-49041D02*
X53860Y-49266D01*
X53860Y-49153D02*
X53466Y-49153D01*
X53522Y-49191D01*
X53560Y-49228D01*
X53578Y-49266D01*
X55383Y-48090D02*
X55383Y-47790D01*
X55383Y-47603D02*
X55383Y-47303D01*
X55533Y-47453D02*
X55233Y-47453D01*
M02*
