G04 (created by PCBNEW (2013-may-18)-stable) date Mon Aug 15 13:55:16 2016*
%MOIN*%
G04 Gerber Fmt 3.4, Leading zero omitted, Abs format*
%FSLAX34Y34*%
G01*
G70*
G90*
G04 APERTURE LIST*
%ADD10C,0.00590551*%
%ADD11C,0.0472441*%
%ADD12C,0.023622*%
%ADD13C,0.005*%
%ADD14C,0.0026*%
%ADD15C,0.004*%
%ADD16C,0.0001*%
%ADD17C,0.0035*%
%ADD18C,0.0039*%
G04 APERTURE END LIST*
G54D10*
G54D11*
X89656Y-59302D02*
X89656Y-56940D01*
X88307Y-59302D01*
X88307Y-56940D01*
X86732Y-56940D02*
X86282Y-56940D01*
X86057Y-57052D01*
X85832Y-57277D01*
X85719Y-57727D01*
X85719Y-58515D01*
X85832Y-58965D01*
X86057Y-59190D01*
X86282Y-59302D01*
X86732Y-59302D01*
X86957Y-59190D01*
X87182Y-58965D01*
X87294Y-58515D01*
X87294Y-57727D01*
X87182Y-57277D01*
X86957Y-57052D01*
X86732Y-56940D01*
X85044Y-56940D02*
X84257Y-59302D01*
X83470Y-56940D01*
X82682Y-58065D02*
X81895Y-58065D01*
X81557Y-59302D02*
X82682Y-59302D01*
X82682Y-56940D01*
X81557Y-56940D01*
X80545Y-59302D02*
X80545Y-56940D01*
X79195Y-59302D01*
X79195Y-56940D01*
X78183Y-58627D02*
X77058Y-58627D01*
X78408Y-59302D02*
X77620Y-56940D01*
X76833Y-59302D01*
X76046Y-58402D02*
X74246Y-58402D01*
X73346Y-56940D02*
X71771Y-59302D01*
X71771Y-56940D02*
X73346Y-59302D01*
G54D12*
X89443Y-61501D02*
X89443Y-60320D01*
X88937Y-61501D02*
X88937Y-60883D01*
X88993Y-60770D01*
X89105Y-60714D01*
X89274Y-60714D01*
X89386Y-60770D01*
X89443Y-60826D01*
X88543Y-60714D02*
X88093Y-60714D01*
X88374Y-60320D02*
X88374Y-61332D01*
X88318Y-61445D01*
X88205Y-61501D01*
X88093Y-61501D01*
X87868Y-60714D02*
X87418Y-60714D01*
X87699Y-60320D02*
X87699Y-61332D01*
X87643Y-61445D01*
X87530Y-61501D01*
X87418Y-61501D01*
X87024Y-60714D02*
X87024Y-61895D01*
X87024Y-60770D02*
X86912Y-60714D01*
X86687Y-60714D01*
X86574Y-60770D01*
X86518Y-60826D01*
X86462Y-60939D01*
X86462Y-61276D01*
X86518Y-61389D01*
X86574Y-61445D01*
X86687Y-61501D01*
X86912Y-61501D01*
X87024Y-61445D01*
X85956Y-61389D02*
X85899Y-61445D01*
X85956Y-61501D01*
X86012Y-61445D01*
X85956Y-61389D01*
X85956Y-61501D01*
X85956Y-60770D02*
X85899Y-60826D01*
X85956Y-60883D01*
X86012Y-60826D01*
X85956Y-60770D01*
X85956Y-60883D01*
X84550Y-60264D02*
X85562Y-61782D01*
X83312Y-60264D02*
X84325Y-61782D01*
X82919Y-61501D02*
X82919Y-60714D01*
X82919Y-60939D02*
X82862Y-60826D01*
X82806Y-60770D01*
X82694Y-60714D01*
X82581Y-60714D01*
X82187Y-61501D02*
X82187Y-60714D01*
X82187Y-60320D02*
X82244Y-60376D01*
X82187Y-60433D01*
X82131Y-60376D01*
X82187Y-60320D01*
X82187Y-60433D01*
X81119Y-60714D02*
X81119Y-61670D01*
X81175Y-61782D01*
X81231Y-61839D01*
X81344Y-61895D01*
X81512Y-61895D01*
X81625Y-61839D01*
X81119Y-61445D02*
X81231Y-61501D01*
X81456Y-61501D01*
X81569Y-61445D01*
X81625Y-61389D01*
X81681Y-61276D01*
X81681Y-60939D01*
X81625Y-60826D01*
X81569Y-60770D01*
X81456Y-60714D01*
X81231Y-60714D01*
X81119Y-60770D01*
X80556Y-61501D02*
X80556Y-60320D01*
X80050Y-61501D02*
X80050Y-60883D01*
X80106Y-60770D01*
X80219Y-60714D01*
X80388Y-60714D01*
X80500Y-60770D01*
X80556Y-60826D01*
X79656Y-60714D02*
X79206Y-60714D01*
X79488Y-60320D02*
X79488Y-61332D01*
X79431Y-61445D01*
X79319Y-61501D01*
X79206Y-61501D01*
X78869Y-61445D02*
X78757Y-61501D01*
X78532Y-61501D01*
X78419Y-61445D01*
X78363Y-61332D01*
X78363Y-61276D01*
X78419Y-61164D01*
X78532Y-61107D01*
X78700Y-61107D01*
X78813Y-61051D01*
X78869Y-60939D01*
X78869Y-60883D01*
X78813Y-60770D01*
X78700Y-60714D01*
X78532Y-60714D01*
X78419Y-60770D01*
X77857Y-61501D02*
X77857Y-60320D01*
X77350Y-61501D02*
X77350Y-60883D01*
X77407Y-60770D01*
X77519Y-60714D01*
X77688Y-60714D01*
X77800Y-60770D01*
X77857Y-60826D01*
X76788Y-61501D02*
X76788Y-60714D01*
X76788Y-60320D02*
X76844Y-60376D01*
X76788Y-60433D01*
X76732Y-60376D01*
X76788Y-60320D01*
X76788Y-60433D01*
X76394Y-60714D02*
X75944Y-60714D01*
X76226Y-61501D02*
X76226Y-60489D01*
X76169Y-60376D01*
X76057Y-60320D01*
X75944Y-60320D01*
X75719Y-60714D02*
X75269Y-60714D01*
X75551Y-60320D02*
X75551Y-61332D01*
X75494Y-61445D01*
X75382Y-61501D01*
X75269Y-61501D01*
X74876Y-61389D02*
X74820Y-61445D01*
X74876Y-61501D01*
X74932Y-61445D01*
X74876Y-61389D01*
X74876Y-61501D01*
X74313Y-61501D02*
X74313Y-60714D01*
X74313Y-60320D02*
X74370Y-60376D01*
X74313Y-60433D01*
X74257Y-60376D01*
X74313Y-60320D01*
X74313Y-60433D01*
X73751Y-60714D02*
X73751Y-61501D01*
X73751Y-60826D02*
X73695Y-60770D01*
X73582Y-60714D01*
X73413Y-60714D01*
X73301Y-60770D01*
X73245Y-60883D01*
X73245Y-61501D01*
X72851Y-60714D02*
X72401Y-60714D01*
X72682Y-61501D02*
X72682Y-60489D01*
X72626Y-60376D01*
X72514Y-60320D01*
X72401Y-60320D01*
X71839Y-61501D02*
X71951Y-61445D01*
X72007Y-61389D01*
X72064Y-61276D01*
X72064Y-60939D01*
X72007Y-60826D01*
X71951Y-60770D01*
X71839Y-60714D01*
X71670Y-60714D01*
X71557Y-60770D01*
X71501Y-60826D01*
X71445Y-60939D01*
X71445Y-61276D01*
X71501Y-61389D01*
X71557Y-61445D01*
X71670Y-61501D01*
X71839Y-61501D01*
X89679Y-56226D02*
X89679Y-55044D01*
X89229Y-55044D01*
X89116Y-55101D01*
X89060Y-55157D01*
X89004Y-55269D01*
X89004Y-55438D01*
X89060Y-55551D01*
X89116Y-55607D01*
X89229Y-55663D01*
X89679Y-55663D01*
X87823Y-56226D02*
X88217Y-55663D01*
X88498Y-56226D02*
X88498Y-55044D01*
X88048Y-55044D01*
X87935Y-55101D01*
X87879Y-55157D01*
X87823Y-55269D01*
X87823Y-55438D01*
X87879Y-55551D01*
X87935Y-55607D01*
X88048Y-55663D01*
X88498Y-55663D01*
X87092Y-55044D02*
X86867Y-55044D01*
X86754Y-55101D01*
X86642Y-55213D01*
X86586Y-55438D01*
X86586Y-55832D01*
X86642Y-56057D01*
X86754Y-56169D01*
X86867Y-56226D01*
X87092Y-56226D01*
X87204Y-56169D01*
X87317Y-56057D01*
X87373Y-55832D01*
X87373Y-55438D01*
X87317Y-55213D01*
X87204Y-55101D01*
X87092Y-55044D01*
X85742Y-55044D02*
X85742Y-55888D01*
X85798Y-56057D01*
X85911Y-56169D01*
X86079Y-56226D01*
X86192Y-56226D01*
X85179Y-55607D02*
X84786Y-55607D01*
X84617Y-56226D02*
X85179Y-56226D01*
X85179Y-55044D01*
X84617Y-55044D01*
X83436Y-56113D02*
X83492Y-56169D01*
X83661Y-56226D01*
X83773Y-56226D01*
X83942Y-56169D01*
X84055Y-56057D01*
X84111Y-55944D01*
X84167Y-55719D01*
X84167Y-55551D01*
X84111Y-55326D01*
X84055Y-55213D01*
X83942Y-55101D01*
X83773Y-55044D01*
X83661Y-55044D01*
X83492Y-55101D01*
X83436Y-55157D01*
X83098Y-55044D02*
X82424Y-55044D01*
X82761Y-56226D02*
X82761Y-55044D01*
G54D13*
X56027Y-49012D02*
X56027Y-48112D01*
X56027Y-48112D02*
X56677Y-48112D01*
X57377Y-49012D02*
X58027Y-49012D01*
X58027Y-49012D02*
X58027Y-48112D01*
X58027Y-48112D02*
X57377Y-48112D01*
X56677Y-49012D02*
X56027Y-49012D01*
X54531Y-62556D02*
X54531Y-61656D01*
X54531Y-61656D02*
X55181Y-61656D01*
X55881Y-62556D02*
X56531Y-62556D01*
X56531Y-62556D02*
X56531Y-61656D01*
X56531Y-61656D02*
X55881Y-61656D01*
X55181Y-62556D02*
X54531Y-62556D01*
X54531Y-61414D02*
X54531Y-60514D01*
X54531Y-60514D02*
X55181Y-60514D01*
X55881Y-61414D02*
X56531Y-61414D01*
X56531Y-61414D02*
X56531Y-60514D01*
X56531Y-60514D02*
X55881Y-60514D01*
X55181Y-61414D02*
X54531Y-61414D01*
X54531Y-56847D02*
X54531Y-55947D01*
X54531Y-55947D02*
X55181Y-55947D01*
X55881Y-56847D02*
X56531Y-56847D01*
X56531Y-56847D02*
X56531Y-55947D01*
X56531Y-55947D02*
X55881Y-55947D01*
X55181Y-56847D02*
X54531Y-56847D01*
X54531Y-57989D02*
X54531Y-57089D01*
X54531Y-57089D02*
X55181Y-57089D01*
X55881Y-57989D02*
X56531Y-57989D01*
X56531Y-57989D02*
X56531Y-57089D01*
X56531Y-57089D02*
X55881Y-57089D01*
X55181Y-57989D02*
X54531Y-57989D01*
X54531Y-59131D02*
X54531Y-58231D01*
X54531Y-58231D02*
X55181Y-58231D01*
X55881Y-59131D02*
X56531Y-59131D01*
X56531Y-59131D02*
X56531Y-58231D01*
X56531Y-58231D02*
X55881Y-58231D01*
X55181Y-59131D02*
X54531Y-59131D01*
X54531Y-60272D02*
X54531Y-59372D01*
X54531Y-59372D02*
X55181Y-59372D01*
X55881Y-60272D02*
X56531Y-60272D01*
X56531Y-60272D02*
X56531Y-59372D01*
X56531Y-59372D02*
X55881Y-59372D01*
X55181Y-60272D02*
X54531Y-60272D01*
X60548Y-54169D02*
X59648Y-54169D01*
X59648Y-54169D02*
X59648Y-53519D01*
X60548Y-52819D02*
X60548Y-52169D01*
X60548Y-52169D02*
X59648Y-52169D01*
X59648Y-52169D02*
X59648Y-52819D01*
X60548Y-53519D02*
X60548Y-54169D01*
G54D14*
X57932Y-56436D02*
X57854Y-56436D01*
X57854Y-56436D02*
X57854Y-56358D01*
X57932Y-56358D02*
X57854Y-56358D01*
X57932Y-56436D02*
X57932Y-56358D01*
X57716Y-56672D02*
X57579Y-56672D01*
X57579Y-56672D02*
X57579Y-56574D01*
X57716Y-56574D02*
X57579Y-56574D01*
X57716Y-56672D02*
X57716Y-56574D01*
X57579Y-56672D02*
X57539Y-56672D01*
X57539Y-56672D02*
X57539Y-56201D01*
X57579Y-56201D02*
X57539Y-56201D01*
X57579Y-56672D02*
X57579Y-56201D01*
X57579Y-56181D02*
X57539Y-56181D01*
X57539Y-56181D02*
X57539Y-56122D01*
X57579Y-56122D02*
X57539Y-56122D01*
X57579Y-56181D02*
X57579Y-56122D01*
X58247Y-56672D02*
X58207Y-56672D01*
X58207Y-56672D02*
X58207Y-56201D01*
X58247Y-56201D02*
X58207Y-56201D01*
X58247Y-56672D02*
X58247Y-56201D01*
X58247Y-56181D02*
X58207Y-56181D01*
X58207Y-56181D02*
X58207Y-56122D01*
X58247Y-56122D02*
X58207Y-56122D01*
X58247Y-56181D02*
X58247Y-56122D01*
X57716Y-56672D02*
X57657Y-56672D01*
X57657Y-56672D02*
X57657Y-56574D01*
X57716Y-56574D02*
X57657Y-56574D01*
X57716Y-56672D02*
X57716Y-56574D01*
G54D15*
X57283Y-56692D02*
X58503Y-56692D01*
X58503Y-56692D02*
X58503Y-56102D01*
X58503Y-56102D02*
X57283Y-56102D01*
X57283Y-56102D02*
X57283Y-56692D01*
X58109Y-56594D02*
G75*
G02X57677Y-56593I-215J196D01*
G74*
G01*
X58109Y-56201D02*
G75*
G02X58109Y-56593I-215J-196D01*
G74*
G01*
X57678Y-56200D02*
G75*
G02X58109Y-56201I215J-196D01*
G74*
G01*
X57677Y-56593D02*
G75*
G02X57677Y-56201I215J196D01*
G74*
G01*
G54D14*
X57893Y-61003D02*
X57815Y-61003D01*
X57815Y-61003D02*
X57815Y-60925D01*
X57893Y-60925D02*
X57815Y-60925D01*
X57893Y-61003D02*
X57893Y-60925D01*
X57677Y-61239D02*
X57540Y-61239D01*
X57540Y-61239D02*
X57540Y-61141D01*
X57677Y-61141D02*
X57540Y-61141D01*
X57677Y-61239D02*
X57677Y-61141D01*
X57540Y-61239D02*
X57500Y-61239D01*
X57500Y-61239D02*
X57500Y-60768D01*
X57540Y-60768D02*
X57500Y-60768D01*
X57540Y-61239D02*
X57540Y-60768D01*
X57540Y-60748D02*
X57500Y-60748D01*
X57500Y-60748D02*
X57500Y-60689D01*
X57540Y-60689D02*
X57500Y-60689D01*
X57540Y-60748D02*
X57540Y-60689D01*
X58208Y-61239D02*
X58168Y-61239D01*
X58168Y-61239D02*
X58168Y-60768D01*
X58208Y-60768D02*
X58168Y-60768D01*
X58208Y-61239D02*
X58208Y-60768D01*
X58208Y-60748D02*
X58168Y-60748D01*
X58168Y-60748D02*
X58168Y-60689D01*
X58208Y-60689D02*
X58168Y-60689D01*
X58208Y-60748D02*
X58208Y-60689D01*
X57677Y-61239D02*
X57618Y-61239D01*
X57618Y-61239D02*
X57618Y-61141D01*
X57677Y-61141D02*
X57618Y-61141D01*
X57677Y-61239D02*
X57677Y-61141D01*
G54D15*
X57244Y-61259D02*
X58464Y-61259D01*
X58464Y-61259D02*
X58464Y-60669D01*
X58464Y-60669D02*
X57244Y-60669D01*
X57244Y-60669D02*
X57244Y-61259D01*
X58069Y-61161D02*
G75*
G02X57638Y-61160I-215J196D01*
G74*
G01*
X58070Y-60768D02*
G75*
G02X58070Y-61160I-215J-196D01*
G74*
G01*
X57638Y-60767D02*
G75*
G02X58070Y-60768I215J-196D01*
G74*
G01*
X57638Y-61160D02*
G75*
G02X57638Y-60768I215J196D01*
G74*
G01*
G54D14*
X57893Y-59861D02*
X57815Y-59861D01*
X57815Y-59861D02*
X57815Y-59783D01*
X57893Y-59783D02*
X57815Y-59783D01*
X57893Y-59861D02*
X57893Y-59783D01*
X57677Y-60097D02*
X57540Y-60097D01*
X57540Y-60097D02*
X57540Y-59999D01*
X57677Y-59999D02*
X57540Y-59999D01*
X57677Y-60097D02*
X57677Y-59999D01*
X57540Y-60097D02*
X57500Y-60097D01*
X57500Y-60097D02*
X57500Y-59626D01*
X57540Y-59626D02*
X57500Y-59626D01*
X57540Y-60097D02*
X57540Y-59626D01*
X57540Y-59606D02*
X57500Y-59606D01*
X57500Y-59606D02*
X57500Y-59547D01*
X57540Y-59547D02*
X57500Y-59547D01*
X57540Y-59606D02*
X57540Y-59547D01*
X58208Y-60097D02*
X58168Y-60097D01*
X58168Y-60097D02*
X58168Y-59626D01*
X58208Y-59626D02*
X58168Y-59626D01*
X58208Y-60097D02*
X58208Y-59626D01*
X58208Y-59606D02*
X58168Y-59606D01*
X58168Y-59606D02*
X58168Y-59547D01*
X58208Y-59547D02*
X58168Y-59547D01*
X58208Y-59606D02*
X58208Y-59547D01*
X57677Y-60097D02*
X57618Y-60097D01*
X57618Y-60097D02*
X57618Y-59999D01*
X57677Y-59999D02*
X57618Y-59999D01*
X57677Y-60097D02*
X57677Y-59999D01*
G54D15*
X57244Y-60117D02*
X58464Y-60117D01*
X58464Y-60117D02*
X58464Y-59527D01*
X58464Y-59527D02*
X57244Y-59527D01*
X57244Y-59527D02*
X57244Y-60117D01*
X58069Y-60019D02*
G75*
G02X57638Y-60018I-215J196D01*
G74*
G01*
X58070Y-59626D02*
G75*
G02X58070Y-60018I-215J-196D01*
G74*
G01*
X57638Y-59626D02*
G75*
G02X58070Y-59626I215J-196D01*
G74*
G01*
X57638Y-60019D02*
G75*
G02X57638Y-59626I215J196D01*
G74*
G01*
G54D14*
X57893Y-58720D02*
X57815Y-58720D01*
X57815Y-58720D02*
X57815Y-58642D01*
X57893Y-58642D02*
X57815Y-58642D01*
X57893Y-58720D02*
X57893Y-58642D01*
X57677Y-58956D02*
X57540Y-58956D01*
X57540Y-58956D02*
X57540Y-58858D01*
X57677Y-58858D02*
X57540Y-58858D01*
X57677Y-58956D02*
X57677Y-58858D01*
X57540Y-58956D02*
X57500Y-58956D01*
X57500Y-58956D02*
X57500Y-58485D01*
X57540Y-58485D02*
X57500Y-58485D01*
X57540Y-58956D02*
X57540Y-58485D01*
X57540Y-58465D02*
X57500Y-58465D01*
X57500Y-58465D02*
X57500Y-58406D01*
X57540Y-58406D02*
X57500Y-58406D01*
X57540Y-58465D02*
X57540Y-58406D01*
X58208Y-58956D02*
X58168Y-58956D01*
X58168Y-58956D02*
X58168Y-58485D01*
X58208Y-58485D02*
X58168Y-58485D01*
X58208Y-58956D02*
X58208Y-58485D01*
X58208Y-58465D02*
X58168Y-58465D01*
X58168Y-58465D02*
X58168Y-58406D01*
X58208Y-58406D02*
X58168Y-58406D01*
X58208Y-58465D02*
X58208Y-58406D01*
X57677Y-58956D02*
X57618Y-58956D01*
X57618Y-58956D02*
X57618Y-58858D01*
X57677Y-58858D02*
X57618Y-58858D01*
X57677Y-58956D02*
X57677Y-58858D01*
G54D15*
X57244Y-58976D02*
X58464Y-58976D01*
X58464Y-58976D02*
X58464Y-58386D01*
X58464Y-58386D02*
X57244Y-58386D01*
X57244Y-58386D02*
X57244Y-58976D01*
X58069Y-58877D02*
G75*
G02X57638Y-58877I-215J196D01*
G74*
G01*
X58070Y-58484D02*
G75*
G02X58070Y-58877I-215J-196D01*
G74*
G01*
X57638Y-58484D02*
G75*
G02X58070Y-58485I215J-196D01*
G74*
G01*
X57638Y-58877D02*
G75*
G02X57638Y-58485I215J196D01*
G74*
G01*
G54D14*
X57893Y-57578D02*
X57815Y-57578D01*
X57815Y-57578D02*
X57815Y-57500D01*
X57893Y-57500D02*
X57815Y-57500D01*
X57893Y-57578D02*
X57893Y-57500D01*
X57677Y-57814D02*
X57540Y-57814D01*
X57540Y-57814D02*
X57540Y-57716D01*
X57677Y-57716D02*
X57540Y-57716D01*
X57677Y-57814D02*
X57677Y-57716D01*
X57540Y-57814D02*
X57500Y-57814D01*
X57500Y-57814D02*
X57500Y-57343D01*
X57540Y-57343D02*
X57500Y-57343D01*
X57540Y-57814D02*
X57540Y-57343D01*
X57540Y-57323D02*
X57500Y-57323D01*
X57500Y-57323D02*
X57500Y-57264D01*
X57540Y-57264D02*
X57500Y-57264D01*
X57540Y-57323D02*
X57540Y-57264D01*
X58208Y-57814D02*
X58168Y-57814D01*
X58168Y-57814D02*
X58168Y-57343D01*
X58208Y-57343D02*
X58168Y-57343D01*
X58208Y-57814D02*
X58208Y-57343D01*
X58208Y-57323D02*
X58168Y-57323D01*
X58168Y-57323D02*
X58168Y-57264D01*
X58208Y-57264D02*
X58168Y-57264D01*
X58208Y-57323D02*
X58208Y-57264D01*
X57677Y-57814D02*
X57618Y-57814D01*
X57618Y-57814D02*
X57618Y-57716D01*
X57677Y-57716D02*
X57618Y-57716D01*
X57677Y-57814D02*
X57677Y-57716D01*
G54D15*
X57244Y-57834D02*
X58464Y-57834D01*
X58464Y-57834D02*
X58464Y-57244D01*
X58464Y-57244D02*
X57244Y-57244D01*
X57244Y-57244D02*
X57244Y-57834D01*
X58069Y-57736D02*
G75*
G02X57638Y-57735I-215J196D01*
G74*
G01*
X58070Y-57343D02*
G75*
G02X58070Y-57735I-215J-196D01*
G74*
G01*
X57638Y-57342D02*
G75*
G02X58070Y-57343I215J-196D01*
G74*
G01*
X57638Y-57735D02*
G75*
G02X57638Y-57343I215J196D01*
G74*
G01*
G54D14*
X57893Y-62145D02*
X57815Y-62145D01*
X57815Y-62145D02*
X57815Y-62067D01*
X57893Y-62067D02*
X57815Y-62067D01*
X57893Y-62145D02*
X57893Y-62067D01*
X57677Y-62381D02*
X57540Y-62381D01*
X57540Y-62381D02*
X57540Y-62283D01*
X57677Y-62283D02*
X57540Y-62283D01*
X57677Y-62381D02*
X57677Y-62283D01*
X57540Y-62381D02*
X57500Y-62381D01*
X57500Y-62381D02*
X57500Y-61910D01*
X57540Y-61910D02*
X57500Y-61910D01*
X57540Y-62381D02*
X57540Y-61910D01*
X57540Y-61890D02*
X57500Y-61890D01*
X57500Y-61890D02*
X57500Y-61831D01*
X57540Y-61831D02*
X57500Y-61831D01*
X57540Y-61890D02*
X57540Y-61831D01*
X58208Y-62381D02*
X58168Y-62381D01*
X58168Y-62381D02*
X58168Y-61910D01*
X58208Y-61910D02*
X58168Y-61910D01*
X58208Y-62381D02*
X58208Y-61910D01*
X58208Y-61890D02*
X58168Y-61890D01*
X58168Y-61890D02*
X58168Y-61831D01*
X58208Y-61831D02*
X58168Y-61831D01*
X58208Y-61890D02*
X58208Y-61831D01*
X57677Y-62381D02*
X57618Y-62381D01*
X57618Y-62381D02*
X57618Y-62283D01*
X57677Y-62283D02*
X57618Y-62283D01*
X57677Y-62381D02*
X57677Y-62283D01*
G54D15*
X57244Y-62401D02*
X58464Y-62401D01*
X58464Y-62401D02*
X58464Y-61811D01*
X58464Y-61811D02*
X57244Y-61811D01*
X57244Y-61811D02*
X57244Y-62401D01*
X58069Y-62302D02*
G75*
G02X57638Y-62302I-215J196D01*
G74*
G01*
X58070Y-61910D02*
G75*
G02X58070Y-62302I-215J-196D01*
G74*
G01*
X57638Y-61909D02*
G75*
G02X58070Y-61910I215J-196D01*
G74*
G01*
X57638Y-62302D02*
G75*
G02X57638Y-61910I215J196D01*
G74*
G01*
G54D14*
X54664Y-50453D02*
X54664Y-50531D01*
X54664Y-50531D02*
X54586Y-50531D01*
X54586Y-50453D02*
X54586Y-50531D01*
X54664Y-50453D02*
X54586Y-50453D01*
X54900Y-50669D02*
X54900Y-50806D01*
X54900Y-50806D02*
X54802Y-50806D01*
X54802Y-50669D02*
X54802Y-50806D01*
X54900Y-50669D02*
X54802Y-50669D01*
X54900Y-50806D02*
X54900Y-50846D01*
X54900Y-50846D02*
X54429Y-50846D01*
X54429Y-50806D02*
X54429Y-50846D01*
X54900Y-50806D02*
X54429Y-50806D01*
X54409Y-50806D02*
X54409Y-50846D01*
X54409Y-50846D02*
X54350Y-50846D01*
X54350Y-50806D02*
X54350Y-50846D01*
X54409Y-50806D02*
X54350Y-50806D01*
X54900Y-50138D02*
X54900Y-50178D01*
X54900Y-50178D02*
X54429Y-50178D01*
X54429Y-50138D02*
X54429Y-50178D01*
X54900Y-50138D02*
X54429Y-50138D01*
X54409Y-50138D02*
X54409Y-50178D01*
X54409Y-50178D02*
X54350Y-50178D01*
X54350Y-50138D02*
X54350Y-50178D01*
X54409Y-50138D02*
X54350Y-50138D01*
X54900Y-50669D02*
X54900Y-50728D01*
X54900Y-50728D02*
X54802Y-50728D01*
X54802Y-50669D02*
X54802Y-50728D01*
X54900Y-50669D02*
X54802Y-50669D01*
G54D15*
X54920Y-51102D02*
X54920Y-49882D01*
X54920Y-49882D02*
X54330Y-49882D01*
X54330Y-49882D02*
X54330Y-51102D01*
X54330Y-51102D02*
X54920Y-51102D01*
X54822Y-50276D02*
G75*
G02X54821Y-50708I-196J-215D01*
G74*
G01*
X54429Y-50276D02*
G75*
G02X54821Y-50276I196J-215D01*
G74*
G01*
X54429Y-50707D02*
G75*
G02X54430Y-50276I196J215D01*
G74*
G01*
X54822Y-50707D02*
G75*
G02X54430Y-50708I-196J215D01*
G74*
G01*
G54D14*
X61161Y-48208D02*
X61161Y-48130D01*
X61161Y-48130D02*
X61239Y-48130D01*
X61239Y-48208D02*
X61239Y-48130D01*
X61161Y-48208D02*
X61239Y-48208D01*
X60925Y-47992D02*
X60925Y-47855D01*
X60925Y-47855D02*
X61023Y-47855D01*
X61023Y-47992D02*
X61023Y-47855D01*
X60925Y-47992D02*
X61023Y-47992D01*
X60925Y-47855D02*
X60925Y-47815D01*
X60925Y-47815D02*
X61396Y-47815D01*
X61396Y-47855D02*
X61396Y-47815D01*
X60925Y-47855D02*
X61396Y-47855D01*
X61416Y-47855D02*
X61416Y-47815D01*
X61416Y-47815D02*
X61475Y-47815D01*
X61475Y-47855D02*
X61475Y-47815D01*
X61416Y-47855D02*
X61475Y-47855D01*
X60925Y-48523D02*
X60925Y-48483D01*
X60925Y-48483D02*
X61396Y-48483D01*
X61396Y-48523D02*
X61396Y-48483D01*
X60925Y-48523D02*
X61396Y-48523D01*
X61416Y-48523D02*
X61416Y-48483D01*
X61416Y-48483D02*
X61475Y-48483D01*
X61475Y-48523D02*
X61475Y-48483D01*
X61416Y-48523D02*
X61475Y-48523D01*
X60925Y-47992D02*
X60925Y-47933D01*
X60925Y-47933D02*
X61023Y-47933D01*
X61023Y-47992D02*
X61023Y-47933D01*
X60925Y-47992D02*
X61023Y-47992D01*
G54D15*
X60905Y-47559D02*
X60905Y-48779D01*
X60905Y-48779D02*
X61495Y-48779D01*
X61495Y-48779D02*
X61495Y-47559D01*
X61495Y-47559D02*
X60905Y-47559D01*
X61004Y-48384D02*
G75*
G02X61004Y-47953I196J215D01*
G74*
G01*
X61397Y-48385D02*
G75*
G02X61004Y-48385I-196J215D01*
G74*
G01*
X61397Y-47953D02*
G75*
G02X61396Y-48385I-196J-215D01*
G74*
G01*
X61004Y-47953D02*
G75*
G02X61396Y-47953I196J-215D01*
G74*
G01*
G54D10*
X65261Y-55728D02*
G75*
G03X65261Y-55728I-577J0D01*
G74*
G01*
X63864Y-48858D02*
G75*
G03X63864Y-48858I-577J0D01*
G74*
G01*
G54D13*
X55803Y-49604D02*
X55803Y-49354D01*
X55803Y-49354D02*
X56203Y-49354D01*
X56203Y-50054D02*
X55803Y-50054D01*
X55803Y-50054D02*
X55803Y-49804D01*
X55753Y-49604D02*
X55803Y-49604D01*
X55803Y-49804D02*
X55753Y-49804D01*
X56203Y-49354D02*
X56203Y-50054D01*
X55753Y-49804D02*
X55753Y-49604D01*
X84405Y-62246D02*
X84405Y-63146D01*
X84405Y-63146D02*
X83755Y-63146D01*
X83055Y-62246D02*
X82405Y-62246D01*
X82405Y-62246D02*
X82405Y-63146D01*
X82405Y-63146D02*
X83055Y-63146D01*
X83755Y-62246D02*
X84405Y-62246D01*
G54D10*
X63254Y-52381D02*
G75*
G03X63254Y-52381I-577J0D01*
G74*
G01*
G54D16*
G36*
X68661Y-60391D02*
X68652Y-60779D01*
X68643Y-61168D01*
X68285Y-61232D01*
X67928Y-61296D01*
X67810Y-61592D01*
X67691Y-61888D01*
X67897Y-62189D01*
X68103Y-62489D01*
X67823Y-62768D01*
X67543Y-63046D01*
X67248Y-62843D01*
X66954Y-62640D01*
X66799Y-62715D01*
X66711Y-62753D01*
X66650Y-62767D01*
X66634Y-62762D01*
X66619Y-62724D01*
X66582Y-62634D01*
X66528Y-62503D01*
X66460Y-62339D01*
X66383Y-62154D01*
X66375Y-62134D01*
X66125Y-61534D01*
X66217Y-61468D01*
X66400Y-61307D01*
X66522Y-61135D01*
X66587Y-60943D01*
X66602Y-60781D01*
X66573Y-60558D01*
X66486Y-60362D01*
X66346Y-60200D01*
X66160Y-60079D01*
X66028Y-60029D01*
X65818Y-59999D01*
X65616Y-60029D01*
X65432Y-60111D01*
X65275Y-60238D01*
X65154Y-60403D01*
X65080Y-60599D01*
X65059Y-60780D01*
X65087Y-60990D01*
X65172Y-61179D01*
X65320Y-61355D01*
X65365Y-61397D01*
X65532Y-61543D01*
X65275Y-62163D01*
X65196Y-62352D01*
X65125Y-62517D01*
X65066Y-62650D01*
X65022Y-62742D01*
X64999Y-62783D01*
X64997Y-62784D01*
X64957Y-62768D01*
X64886Y-62729D01*
X64867Y-62717D01*
X64787Y-62674D01*
X64729Y-62652D01*
X64722Y-62651D01*
X64681Y-62669D01*
X64599Y-62717D01*
X64490Y-62787D01*
X64420Y-62834D01*
X64302Y-62913D01*
X64201Y-62975D01*
X64133Y-63011D01*
X64114Y-63018D01*
X64076Y-62995D01*
X64002Y-62934D01*
X63905Y-62845D01*
X63816Y-62757D01*
X63557Y-62497D01*
X63758Y-62200D01*
X63840Y-62075D01*
X63906Y-61969D01*
X63948Y-61895D01*
X63958Y-61868D01*
X63946Y-61824D01*
X63914Y-61734D01*
X63868Y-61616D01*
X63849Y-61568D01*
X63740Y-61302D01*
X63374Y-61235D01*
X63009Y-61167D01*
X63000Y-60804D01*
X62999Y-60651D01*
X63003Y-60524D01*
X63012Y-60438D01*
X63022Y-60408D01*
X63066Y-60389D01*
X63161Y-60361D01*
X63292Y-60330D01*
X63409Y-60305D01*
X63765Y-60234D01*
X63880Y-59965D01*
X63996Y-59696D01*
X63779Y-59378D01*
X63562Y-59060D01*
X63829Y-58789D01*
X63937Y-58681D01*
X64028Y-58594D01*
X64093Y-58536D01*
X64119Y-58518D01*
X64154Y-58535D01*
X64232Y-58584D01*
X64341Y-58655D01*
X64453Y-58732D01*
X64764Y-58946D01*
X65003Y-58845D01*
X65120Y-58794D01*
X65214Y-58750D01*
X65266Y-58722D01*
X65270Y-58719D01*
X65287Y-58677D01*
X65313Y-58585D01*
X65343Y-58456D01*
X65370Y-58330D01*
X65443Y-57968D01*
X65832Y-57958D01*
X66222Y-57949D01*
X66244Y-58075D01*
X66262Y-58170D01*
X66288Y-58303D01*
X66318Y-58447D01*
X66321Y-58463D01*
X66376Y-58725D01*
X66642Y-58835D01*
X66908Y-58945D01*
X67214Y-58731D01*
X67340Y-58646D01*
X67446Y-58576D01*
X67520Y-58531D01*
X67549Y-58518D01*
X67583Y-58540D01*
X67652Y-58600D01*
X67747Y-58689D01*
X67841Y-58783D01*
X68105Y-59048D01*
X67888Y-59374D01*
X67671Y-59701D01*
X67773Y-59934D01*
X67826Y-60051D01*
X67870Y-60146D01*
X67898Y-60201D01*
X67900Y-60204D01*
X67943Y-60230D01*
X68032Y-60258D01*
X68133Y-60282D01*
X68277Y-60310D01*
X68422Y-60340D01*
X68502Y-60357D01*
X68661Y-60391D01*
X68661Y-60391D01*
X68661Y-60391D01*
G37*
G54D13*
X57220Y-48684D02*
X57320Y-48541D01*
X57391Y-48684D02*
X57391Y-48384D01*
X57277Y-48384D01*
X57248Y-48398D01*
X57234Y-48412D01*
X57220Y-48441D01*
X57220Y-48484D01*
X57234Y-48512D01*
X57248Y-48527D01*
X57277Y-48541D01*
X57391Y-48541D01*
X57106Y-48412D02*
X57091Y-48398D01*
X57063Y-48384D01*
X56991Y-48384D01*
X56963Y-48398D01*
X56948Y-48412D01*
X56934Y-48441D01*
X56934Y-48470D01*
X56948Y-48512D01*
X57120Y-48684D01*
X56934Y-48684D01*
X56820Y-48412D02*
X56806Y-48398D01*
X56777Y-48384D01*
X56706Y-48384D01*
X56677Y-48398D01*
X56663Y-48412D01*
X56648Y-48441D01*
X56648Y-48470D01*
X56663Y-48512D01*
X56834Y-48684D01*
X56648Y-48684D01*
X55581Y-62227D02*
X55681Y-62084D01*
X55752Y-62227D02*
X55752Y-61927D01*
X55638Y-61927D01*
X55610Y-61942D01*
X55595Y-61956D01*
X55581Y-61984D01*
X55581Y-62027D01*
X55595Y-62056D01*
X55610Y-62070D01*
X55638Y-62084D01*
X55752Y-62084D01*
X55295Y-62227D02*
X55467Y-62227D01*
X55381Y-62227D02*
X55381Y-61927D01*
X55410Y-61970D01*
X55438Y-61999D01*
X55467Y-62013D01*
X55724Y-61085D02*
X55824Y-60943D01*
X55895Y-61085D02*
X55895Y-60785D01*
X55781Y-60785D01*
X55752Y-60800D01*
X55738Y-60814D01*
X55724Y-60843D01*
X55724Y-60885D01*
X55738Y-60914D01*
X55752Y-60928D01*
X55781Y-60943D01*
X55895Y-60943D01*
X55438Y-61085D02*
X55610Y-61085D01*
X55524Y-61085D02*
X55524Y-60785D01*
X55552Y-60828D01*
X55581Y-60857D01*
X55610Y-60871D01*
X55181Y-60785D02*
X55238Y-60785D01*
X55267Y-60800D01*
X55281Y-60814D01*
X55310Y-60857D01*
X55324Y-60914D01*
X55324Y-61028D01*
X55310Y-61057D01*
X55295Y-61071D01*
X55267Y-61085D01*
X55210Y-61085D01*
X55181Y-61071D01*
X55167Y-61057D01*
X55152Y-61028D01*
X55152Y-60957D01*
X55167Y-60928D01*
X55181Y-60914D01*
X55210Y-60900D01*
X55267Y-60900D01*
X55295Y-60914D01*
X55310Y-60928D01*
X55324Y-60957D01*
X55581Y-56519D02*
X55681Y-56376D01*
X55752Y-56519D02*
X55752Y-56219D01*
X55638Y-56219D01*
X55610Y-56233D01*
X55595Y-56247D01*
X55581Y-56276D01*
X55581Y-56319D01*
X55595Y-56347D01*
X55610Y-56361D01*
X55638Y-56376D01*
X55752Y-56376D01*
X55324Y-56319D02*
X55324Y-56519D01*
X55395Y-56204D02*
X55467Y-56419D01*
X55281Y-56419D01*
X55581Y-57660D02*
X55681Y-57517D01*
X55752Y-57660D02*
X55752Y-57360D01*
X55638Y-57360D01*
X55610Y-57375D01*
X55595Y-57389D01*
X55581Y-57417D01*
X55581Y-57460D01*
X55595Y-57489D01*
X55610Y-57503D01*
X55638Y-57517D01*
X55752Y-57517D01*
X55324Y-57360D02*
X55381Y-57360D01*
X55410Y-57375D01*
X55424Y-57389D01*
X55452Y-57432D01*
X55467Y-57489D01*
X55467Y-57603D01*
X55452Y-57632D01*
X55438Y-57646D01*
X55410Y-57660D01*
X55352Y-57660D01*
X55324Y-57646D01*
X55310Y-57632D01*
X55295Y-57603D01*
X55295Y-57532D01*
X55310Y-57503D01*
X55324Y-57489D01*
X55352Y-57475D01*
X55410Y-57475D01*
X55438Y-57489D01*
X55452Y-57503D01*
X55467Y-57532D01*
X55581Y-58802D02*
X55681Y-58659D01*
X55752Y-58802D02*
X55752Y-58502D01*
X55638Y-58502D01*
X55610Y-58516D01*
X55595Y-58531D01*
X55581Y-58559D01*
X55581Y-58602D01*
X55595Y-58631D01*
X55610Y-58645D01*
X55638Y-58659D01*
X55752Y-58659D01*
X55410Y-58631D02*
X55438Y-58616D01*
X55452Y-58602D01*
X55467Y-58573D01*
X55467Y-58559D01*
X55452Y-58531D01*
X55438Y-58516D01*
X55410Y-58502D01*
X55352Y-58502D01*
X55324Y-58516D01*
X55310Y-58531D01*
X55295Y-58559D01*
X55295Y-58573D01*
X55310Y-58602D01*
X55324Y-58616D01*
X55352Y-58631D01*
X55410Y-58631D01*
X55438Y-58645D01*
X55452Y-58659D01*
X55467Y-58688D01*
X55467Y-58745D01*
X55452Y-58773D01*
X55438Y-58788D01*
X55410Y-58802D01*
X55352Y-58802D01*
X55324Y-58788D01*
X55310Y-58773D01*
X55295Y-58745D01*
X55295Y-58688D01*
X55310Y-58659D01*
X55324Y-58645D01*
X55352Y-58631D01*
X55724Y-59944D02*
X55824Y-59801D01*
X55895Y-59944D02*
X55895Y-59644D01*
X55781Y-59644D01*
X55752Y-59658D01*
X55738Y-59672D01*
X55724Y-59701D01*
X55724Y-59744D01*
X55738Y-59772D01*
X55752Y-59787D01*
X55781Y-59801D01*
X55895Y-59801D01*
X55438Y-59944D02*
X55610Y-59944D01*
X55524Y-59944D02*
X55524Y-59644D01*
X55552Y-59687D01*
X55581Y-59715D01*
X55610Y-59729D01*
X55152Y-59944D02*
X55324Y-59944D01*
X55238Y-59944D02*
X55238Y-59644D01*
X55267Y-59687D01*
X55295Y-59715D01*
X55324Y-59729D01*
X60219Y-52976D02*
X60076Y-52876D01*
X60219Y-52805D02*
X59919Y-52805D01*
X59919Y-52919D01*
X59934Y-52947D01*
X59948Y-52962D01*
X59976Y-52976D01*
X60019Y-52976D01*
X60048Y-52962D01*
X60062Y-52947D01*
X60076Y-52919D01*
X60076Y-52805D01*
X59948Y-53090D02*
X59934Y-53105D01*
X59919Y-53133D01*
X59919Y-53205D01*
X59934Y-53233D01*
X59948Y-53247D01*
X59976Y-53262D01*
X60005Y-53262D01*
X60048Y-53247D01*
X60219Y-53076D01*
X60219Y-53262D01*
X60219Y-53547D02*
X60219Y-53376D01*
X60219Y-53462D02*
X59919Y-53462D01*
X59962Y-53433D01*
X59991Y-53405D01*
X60005Y-53376D01*
G54D17*
X58015Y-55919D02*
X58015Y-55619D01*
X57943Y-55619D01*
X57900Y-55633D01*
X57872Y-55661D01*
X57857Y-55690D01*
X57843Y-55747D01*
X57843Y-55790D01*
X57857Y-55847D01*
X57872Y-55876D01*
X57900Y-55904D01*
X57943Y-55919D01*
X58015Y-55919D01*
X57729Y-55647D02*
X57715Y-55633D01*
X57686Y-55619D01*
X57615Y-55619D01*
X57586Y-55633D01*
X57572Y-55647D01*
X57557Y-55676D01*
X57557Y-55704D01*
X57572Y-55747D01*
X57743Y-55919D01*
X57557Y-55919D01*
X61274Y-56322D02*
X61374Y-56322D01*
X61374Y-56479D02*
X61374Y-56179D01*
X61231Y-56179D01*
X61117Y-56479D02*
X61117Y-56179D01*
X61002Y-56179D01*
X60974Y-56193D01*
X60959Y-56208D01*
X60945Y-56236D01*
X60945Y-56279D01*
X60959Y-56308D01*
X60974Y-56322D01*
X61002Y-56336D01*
X61117Y-56336D01*
X60659Y-56193D02*
X60688Y-56179D01*
X60731Y-56179D01*
X60774Y-56193D01*
X60802Y-56222D01*
X60817Y-56251D01*
X60831Y-56308D01*
X60831Y-56351D01*
X60817Y-56408D01*
X60802Y-56436D01*
X60774Y-56465D01*
X60731Y-56479D01*
X60702Y-56479D01*
X60659Y-56465D01*
X60645Y-56451D01*
X60645Y-56351D01*
X60702Y-56351D01*
X60531Y-56393D02*
X60388Y-56393D01*
X60559Y-56479D02*
X60459Y-56179D01*
X60359Y-56479D01*
X60331Y-56508D02*
X60102Y-56508D01*
X60059Y-56179D02*
X59988Y-56479D01*
X59931Y-56265D01*
X59874Y-56479D01*
X59802Y-56179D01*
X59688Y-56479D02*
X59688Y-56179D01*
X59574Y-56179D01*
X59545Y-56193D01*
X59531Y-56208D01*
X59517Y-56236D01*
X59517Y-56279D01*
X59531Y-56308D01*
X59545Y-56322D01*
X59574Y-56336D01*
X59688Y-56336D01*
X57975Y-60485D02*
X57975Y-60185D01*
X57904Y-60185D01*
X57861Y-60200D01*
X57832Y-60228D01*
X57818Y-60257D01*
X57804Y-60314D01*
X57804Y-60357D01*
X57818Y-60414D01*
X57832Y-60443D01*
X57861Y-60471D01*
X57904Y-60485D01*
X57975Y-60485D01*
X57547Y-60185D02*
X57604Y-60185D01*
X57632Y-60200D01*
X57647Y-60214D01*
X57675Y-60257D01*
X57690Y-60314D01*
X57690Y-60428D01*
X57675Y-60457D01*
X57661Y-60471D01*
X57632Y-60485D01*
X57575Y-60485D01*
X57547Y-60471D01*
X57532Y-60457D01*
X57518Y-60428D01*
X57518Y-60357D01*
X57532Y-60328D01*
X57547Y-60314D01*
X57575Y-60300D01*
X57632Y-60300D01*
X57661Y-60314D01*
X57675Y-60328D01*
X57690Y-60357D01*
X61245Y-60968D02*
X61345Y-60968D01*
X61345Y-61125D02*
X61345Y-60825D01*
X61202Y-60825D01*
X61088Y-61125D02*
X61088Y-60825D01*
X60974Y-60825D01*
X60945Y-60839D01*
X60931Y-60853D01*
X60917Y-60882D01*
X60917Y-60925D01*
X60931Y-60953D01*
X60945Y-60968D01*
X60974Y-60982D01*
X61088Y-60982D01*
X60631Y-60839D02*
X60659Y-60825D01*
X60702Y-60825D01*
X60745Y-60839D01*
X60774Y-60868D01*
X60788Y-60896D01*
X60802Y-60953D01*
X60802Y-60996D01*
X60788Y-61053D01*
X60774Y-61082D01*
X60745Y-61111D01*
X60702Y-61125D01*
X60674Y-61125D01*
X60631Y-61111D01*
X60617Y-61096D01*
X60617Y-60996D01*
X60674Y-60996D01*
X60502Y-61039D02*
X60359Y-61039D01*
X60531Y-61125D02*
X60431Y-60825D01*
X60331Y-61125D01*
X60302Y-61153D02*
X60074Y-61153D01*
X59831Y-61096D02*
X59845Y-61111D01*
X59888Y-61125D01*
X59917Y-61125D01*
X59959Y-61111D01*
X59988Y-61082D01*
X60002Y-61053D01*
X60017Y-60996D01*
X60017Y-60953D01*
X60002Y-60896D01*
X59988Y-60868D01*
X59959Y-60839D01*
X59917Y-60825D01*
X59888Y-60825D01*
X59845Y-60839D01*
X59831Y-60853D01*
X59717Y-61111D02*
X59674Y-61125D01*
X59602Y-61125D01*
X59574Y-61111D01*
X59559Y-61096D01*
X59545Y-61068D01*
X59545Y-61039D01*
X59559Y-61011D01*
X59574Y-60996D01*
X59602Y-60982D01*
X59659Y-60968D01*
X59688Y-60953D01*
X59702Y-60939D01*
X59717Y-60911D01*
X59717Y-60882D01*
X59702Y-60853D01*
X59688Y-60839D01*
X59659Y-60825D01*
X59588Y-60825D01*
X59545Y-60839D01*
X57975Y-59344D02*
X57975Y-59044D01*
X57904Y-59044D01*
X57861Y-59058D01*
X57832Y-59087D01*
X57818Y-59115D01*
X57804Y-59172D01*
X57804Y-59215D01*
X57818Y-59272D01*
X57832Y-59301D01*
X57861Y-59329D01*
X57904Y-59344D01*
X57975Y-59344D01*
X57532Y-59044D02*
X57675Y-59044D01*
X57690Y-59187D01*
X57675Y-59172D01*
X57647Y-59158D01*
X57575Y-59158D01*
X57547Y-59172D01*
X57532Y-59187D01*
X57518Y-59215D01*
X57518Y-59287D01*
X57532Y-59315D01*
X57547Y-59329D01*
X57575Y-59344D01*
X57647Y-59344D01*
X57675Y-59329D01*
X57690Y-59315D01*
X61262Y-59787D02*
X61362Y-59787D01*
X61362Y-59944D02*
X61362Y-59644D01*
X61220Y-59644D01*
X61105Y-59944D02*
X61105Y-59644D01*
X60991Y-59644D01*
X60962Y-59658D01*
X60948Y-59672D01*
X60934Y-59701D01*
X60934Y-59744D01*
X60948Y-59772D01*
X60962Y-59787D01*
X60991Y-59801D01*
X61105Y-59801D01*
X60648Y-59658D02*
X60677Y-59644D01*
X60720Y-59644D01*
X60762Y-59658D01*
X60791Y-59687D01*
X60805Y-59715D01*
X60820Y-59772D01*
X60820Y-59815D01*
X60805Y-59872D01*
X60791Y-59901D01*
X60762Y-59929D01*
X60720Y-59944D01*
X60691Y-59944D01*
X60648Y-59929D01*
X60634Y-59915D01*
X60634Y-59815D01*
X60691Y-59815D01*
X60520Y-59858D02*
X60377Y-59858D01*
X60548Y-59944D02*
X60448Y-59644D01*
X60348Y-59944D01*
X60320Y-59972D02*
X60091Y-59972D01*
X60020Y-59944D02*
X60020Y-59644D01*
X60020Y-59787D02*
X59848Y-59787D01*
X59848Y-59944D02*
X59848Y-59644D01*
X59648Y-59644D02*
X59591Y-59644D01*
X59562Y-59658D01*
X59534Y-59687D01*
X59520Y-59744D01*
X59520Y-59844D01*
X59534Y-59901D01*
X59562Y-59929D01*
X59591Y-59944D01*
X59648Y-59944D01*
X59677Y-59929D01*
X59705Y-59901D01*
X59720Y-59844D01*
X59720Y-59744D01*
X59705Y-59687D01*
X59677Y-59658D01*
X59648Y-59644D01*
X59248Y-59944D02*
X59391Y-59944D01*
X59391Y-59644D01*
X59148Y-59944D02*
X59148Y-59644D01*
X59077Y-59644D01*
X59034Y-59658D01*
X59005Y-59687D01*
X58991Y-59715D01*
X58977Y-59772D01*
X58977Y-59815D01*
X58991Y-59872D01*
X59005Y-59901D01*
X59034Y-59929D01*
X59077Y-59944D01*
X59148Y-59944D01*
X57975Y-58202D02*
X57975Y-57902D01*
X57904Y-57902D01*
X57861Y-57916D01*
X57832Y-57945D01*
X57818Y-57973D01*
X57804Y-58031D01*
X57804Y-58073D01*
X57818Y-58131D01*
X57832Y-58159D01*
X57861Y-58188D01*
X57904Y-58202D01*
X57975Y-58202D01*
X57547Y-58002D02*
X57547Y-58202D01*
X57618Y-57888D02*
X57690Y-58102D01*
X57504Y-58102D01*
X61298Y-58645D02*
X61398Y-58645D01*
X61398Y-58802D02*
X61398Y-58502D01*
X61255Y-58502D01*
X61141Y-58802D02*
X61141Y-58502D01*
X61027Y-58502D01*
X60998Y-58516D01*
X60984Y-58531D01*
X60970Y-58559D01*
X60970Y-58602D01*
X60984Y-58631D01*
X60998Y-58645D01*
X61027Y-58659D01*
X61141Y-58659D01*
X60684Y-58516D02*
X60713Y-58502D01*
X60755Y-58502D01*
X60798Y-58516D01*
X60827Y-58545D01*
X60841Y-58573D01*
X60855Y-58631D01*
X60855Y-58673D01*
X60841Y-58731D01*
X60827Y-58759D01*
X60798Y-58788D01*
X60755Y-58802D01*
X60727Y-58802D01*
X60684Y-58788D01*
X60670Y-58773D01*
X60670Y-58673D01*
X60727Y-58673D01*
X60555Y-58716D02*
X60413Y-58716D01*
X60584Y-58802D02*
X60484Y-58502D01*
X60384Y-58802D01*
X60355Y-58831D02*
X60127Y-58831D01*
X60055Y-58802D02*
X60055Y-58502D01*
X59955Y-58716D01*
X59855Y-58502D01*
X59855Y-58802D01*
X59655Y-58502D02*
X59598Y-58502D01*
X59570Y-58516D01*
X59541Y-58545D01*
X59527Y-58602D01*
X59527Y-58702D01*
X59541Y-58759D01*
X59570Y-58788D01*
X59598Y-58802D01*
X59655Y-58802D01*
X59684Y-58788D01*
X59713Y-58759D01*
X59727Y-58702D01*
X59727Y-58602D01*
X59713Y-58545D01*
X59684Y-58516D01*
X59655Y-58502D01*
X59413Y-58788D02*
X59370Y-58802D01*
X59298Y-58802D01*
X59270Y-58788D01*
X59255Y-58773D01*
X59241Y-58745D01*
X59241Y-58716D01*
X59255Y-58688D01*
X59270Y-58673D01*
X59298Y-58659D01*
X59355Y-58645D01*
X59384Y-58631D01*
X59398Y-58616D01*
X59413Y-58588D01*
X59413Y-58559D01*
X59398Y-58531D01*
X59384Y-58516D01*
X59355Y-58502D01*
X59284Y-58502D01*
X59241Y-58516D01*
X59113Y-58802D02*
X59113Y-58502D01*
X57975Y-57060D02*
X57975Y-56760D01*
X57904Y-56760D01*
X57861Y-56775D01*
X57832Y-56803D01*
X57818Y-56832D01*
X57804Y-56889D01*
X57804Y-56932D01*
X57818Y-56989D01*
X57832Y-57017D01*
X57861Y-57046D01*
X57904Y-57060D01*
X57975Y-57060D01*
X57704Y-56760D02*
X57518Y-56760D01*
X57618Y-56875D01*
X57575Y-56875D01*
X57547Y-56889D01*
X57532Y-56903D01*
X57518Y-56932D01*
X57518Y-57003D01*
X57532Y-57032D01*
X57547Y-57046D01*
X57575Y-57060D01*
X57661Y-57060D01*
X57690Y-57046D01*
X57704Y-57032D01*
X61298Y-57503D02*
X61398Y-57503D01*
X61398Y-57660D02*
X61398Y-57360D01*
X61255Y-57360D01*
X61141Y-57660D02*
X61141Y-57360D01*
X61027Y-57360D01*
X60998Y-57375D01*
X60984Y-57389D01*
X60970Y-57417D01*
X60970Y-57460D01*
X60984Y-57489D01*
X60998Y-57503D01*
X61027Y-57517D01*
X61141Y-57517D01*
X60684Y-57375D02*
X60713Y-57360D01*
X60755Y-57360D01*
X60798Y-57375D01*
X60827Y-57403D01*
X60841Y-57432D01*
X60855Y-57489D01*
X60855Y-57532D01*
X60841Y-57589D01*
X60827Y-57617D01*
X60798Y-57646D01*
X60755Y-57660D01*
X60727Y-57660D01*
X60684Y-57646D01*
X60670Y-57632D01*
X60670Y-57532D01*
X60727Y-57532D01*
X60555Y-57575D02*
X60413Y-57575D01*
X60584Y-57660D02*
X60484Y-57360D01*
X60384Y-57660D01*
X60355Y-57689D02*
X60127Y-57689D01*
X60055Y-57660D02*
X60055Y-57360D01*
X59955Y-57575D01*
X59855Y-57360D01*
X59855Y-57660D01*
X59713Y-57660D02*
X59713Y-57360D01*
X59584Y-57646D02*
X59541Y-57660D01*
X59470Y-57660D01*
X59441Y-57646D01*
X59427Y-57632D01*
X59413Y-57603D01*
X59413Y-57575D01*
X59427Y-57546D01*
X59441Y-57532D01*
X59470Y-57517D01*
X59527Y-57503D01*
X59555Y-57489D01*
X59570Y-57475D01*
X59584Y-57446D01*
X59584Y-57417D01*
X59570Y-57389D01*
X59555Y-57375D01*
X59527Y-57360D01*
X59455Y-57360D01*
X59413Y-57375D01*
X59227Y-57360D02*
X59170Y-57360D01*
X59141Y-57375D01*
X59113Y-57403D01*
X59098Y-57460D01*
X59098Y-57560D01*
X59113Y-57617D01*
X59141Y-57646D01*
X59170Y-57660D01*
X59227Y-57660D01*
X59255Y-57646D01*
X59284Y-57617D01*
X59298Y-57560D01*
X59298Y-57460D01*
X59284Y-57403D01*
X59255Y-57375D01*
X59227Y-57360D01*
X57975Y-61627D02*
X57975Y-61327D01*
X57904Y-61327D01*
X57861Y-61342D01*
X57832Y-61370D01*
X57818Y-61399D01*
X57804Y-61456D01*
X57804Y-61499D01*
X57818Y-61556D01*
X57832Y-61584D01*
X57861Y-61613D01*
X57904Y-61627D01*
X57975Y-61627D01*
X57518Y-61627D02*
X57690Y-61627D01*
X57604Y-61627D02*
X57604Y-61327D01*
X57632Y-61370D01*
X57661Y-61399D01*
X57690Y-61413D01*
X58736Y-62897D02*
X58836Y-62897D01*
X58836Y-63054D02*
X58836Y-62754D01*
X58693Y-62754D01*
X58579Y-63054D02*
X58579Y-62754D01*
X58464Y-62754D01*
X58436Y-62768D01*
X58422Y-62783D01*
X58407Y-62811D01*
X58407Y-62854D01*
X58422Y-62883D01*
X58436Y-62897D01*
X58464Y-62911D01*
X58579Y-62911D01*
X58122Y-62768D02*
X58150Y-62754D01*
X58193Y-62754D01*
X58236Y-62768D01*
X58264Y-62797D01*
X58279Y-62825D01*
X58293Y-62883D01*
X58293Y-62925D01*
X58279Y-62983D01*
X58264Y-63011D01*
X58236Y-63040D01*
X58193Y-63054D01*
X58164Y-63054D01*
X58122Y-63040D01*
X58107Y-63025D01*
X58107Y-62925D01*
X58164Y-62925D01*
X57993Y-62968D02*
X57850Y-62968D01*
X58022Y-63054D02*
X57922Y-62754D01*
X57822Y-63054D01*
X57793Y-63083D02*
X57564Y-63083D01*
X57322Y-63025D02*
X57336Y-63040D01*
X57379Y-63054D01*
X57407Y-63054D01*
X57450Y-63040D01*
X57479Y-63011D01*
X57493Y-62983D01*
X57507Y-62925D01*
X57507Y-62883D01*
X57493Y-62825D01*
X57479Y-62797D01*
X57450Y-62768D01*
X57407Y-62754D01*
X57379Y-62754D01*
X57336Y-62768D01*
X57322Y-62783D01*
X57050Y-63054D02*
X57193Y-63054D01*
X57193Y-62754D01*
X56950Y-63054D02*
X56950Y-62754D01*
X56779Y-63054D02*
X56907Y-62883D01*
X56779Y-62754D02*
X56950Y-62925D01*
X54147Y-50370D02*
X53847Y-50370D01*
X53847Y-50442D01*
X53861Y-50484D01*
X53890Y-50513D01*
X53918Y-50527D01*
X53975Y-50542D01*
X54018Y-50542D01*
X54075Y-50527D01*
X54104Y-50513D01*
X54133Y-50484D01*
X54147Y-50442D01*
X54147Y-50370D01*
X53847Y-50642D02*
X53847Y-50842D01*
X54147Y-50713D01*
X55347Y-49349D02*
X55347Y-49206D01*
X55047Y-49206D01*
X55190Y-49449D02*
X55190Y-49549D01*
X55347Y-49592D02*
X55347Y-49449D01*
X55047Y-49449D01*
X55047Y-49592D01*
X55347Y-49720D02*
X55047Y-49720D01*
X55047Y-49792D01*
X55061Y-49834D01*
X55090Y-49863D01*
X55118Y-49877D01*
X55175Y-49892D01*
X55218Y-49892D01*
X55275Y-49877D01*
X55304Y-49863D01*
X55333Y-49834D01*
X55347Y-49792D01*
X55347Y-49720D01*
X55375Y-49949D02*
X55375Y-50177D01*
X55204Y-50306D02*
X55347Y-50306D01*
X55047Y-50206D02*
X55204Y-50306D01*
X55047Y-50406D01*
X55190Y-50506D02*
X55190Y-50606D01*
X55347Y-50649D02*
X55347Y-50506D01*
X55047Y-50506D01*
X55047Y-50649D01*
X55347Y-50920D02*
X55347Y-50777D01*
X55047Y-50777D01*
X55347Y-51163D02*
X55347Y-51020D01*
X55047Y-51020D01*
X55047Y-51320D02*
X55047Y-51377D01*
X55061Y-51406D01*
X55090Y-51434D01*
X55147Y-51449D01*
X55247Y-51449D01*
X55304Y-51434D01*
X55333Y-51406D01*
X55347Y-51377D01*
X55347Y-51320D01*
X55333Y-51292D01*
X55304Y-51263D01*
X55247Y-51249D01*
X55147Y-51249D01*
X55090Y-51263D01*
X55061Y-51292D01*
X55047Y-51320D01*
X55047Y-51549D02*
X55347Y-51620D01*
X55133Y-51677D01*
X55347Y-51734D01*
X55047Y-51806D01*
X61922Y-47847D02*
X61622Y-47847D01*
X61622Y-47919D01*
X61636Y-47962D01*
X61665Y-47990D01*
X61693Y-48005D01*
X61750Y-48019D01*
X61793Y-48019D01*
X61850Y-48005D01*
X61879Y-47990D01*
X61907Y-47962D01*
X61922Y-47919D01*
X61922Y-47847D01*
X61750Y-48190D02*
X61736Y-48162D01*
X61722Y-48147D01*
X61693Y-48133D01*
X61679Y-48133D01*
X61650Y-48147D01*
X61636Y-48162D01*
X61622Y-48190D01*
X61622Y-48247D01*
X61636Y-48276D01*
X61650Y-48290D01*
X61679Y-48305D01*
X61693Y-48305D01*
X61722Y-48290D01*
X61736Y-48276D01*
X61750Y-48247D01*
X61750Y-48190D01*
X61765Y-48162D01*
X61779Y-48147D01*
X61807Y-48133D01*
X61865Y-48133D01*
X61893Y-48147D01*
X61907Y-48162D01*
X61922Y-48190D01*
X61922Y-48247D01*
X61907Y-48276D01*
X61893Y-48290D01*
X61865Y-48305D01*
X61807Y-48305D01*
X61779Y-48290D01*
X61765Y-48276D01*
X61750Y-48247D01*
X60495Y-48242D02*
X60495Y-48099D01*
X60195Y-48099D01*
X60338Y-48342D02*
X60338Y-48442D01*
X60495Y-48485D02*
X60495Y-48342D01*
X60195Y-48342D01*
X60195Y-48485D01*
X60495Y-48614D02*
X60195Y-48614D01*
X60195Y-48685D01*
X60209Y-48728D01*
X60238Y-48757D01*
X60266Y-48771D01*
X60324Y-48785D01*
X60366Y-48785D01*
X60424Y-48771D01*
X60452Y-48757D01*
X60481Y-48728D01*
X60495Y-48685D01*
X60495Y-48614D01*
X60524Y-48842D02*
X60524Y-49071D01*
X60338Y-49242D02*
X60352Y-49285D01*
X60366Y-49299D01*
X60395Y-49314D01*
X60438Y-49314D01*
X60466Y-49299D01*
X60481Y-49285D01*
X60495Y-49257D01*
X60495Y-49142D01*
X60195Y-49142D01*
X60195Y-49242D01*
X60209Y-49271D01*
X60224Y-49285D01*
X60252Y-49299D01*
X60281Y-49299D01*
X60309Y-49285D01*
X60324Y-49271D01*
X60338Y-49242D01*
X60338Y-49142D01*
X60495Y-49585D02*
X60495Y-49442D01*
X60195Y-49442D01*
X60195Y-49685D02*
X60438Y-49685D01*
X60466Y-49699D01*
X60481Y-49714D01*
X60495Y-49742D01*
X60495Y-49799D01*
X60481Y-49828D01*
X60466Y-49842D01*
X60438Y-49857D01*
X60195Y-49857D01*
X60338Y-49999D02*
X60338Y-50099D01*
X60495Y-50142D02*
X60495Y-49999D01*
X60195Y-49999D01*
X60195Y-50142D01*
G54D10*
X65229Y-57728D02*
X65173Y-57747D01*
X65079Y-57747D01*
X65042Y-57728D01*
X65023Y-57710D01*
X65004Y-57672D01*
X65004Y-57635D01*
X65023Y-57597D01*
X65042Y-57578D01*
X65079Y-57560D01*
X65154Y-57541D01*
X65192Y-57522D01*
X65210Y-57503D01*
X65229Y-57466D01*
X65229Y-57428D01*
X65210Y-57391D01*
X65192Y-57372D01*
X65154Y-57354D01*
X65060Y-57354D01*
X65004Y-57372D01*
X64873Y-57354D02*
X64779Y-57747D01*
X64704Y-57466D01*
X64629Y-57747D01*
X64535Y-57354D01*
X64179Y-57747D02*
X64404Y-57747D01*
X64292Y-57747D02*
X64292Y-57354D01*
X64329Y-57410D01*
X64367Y-57447D01*
X64404Y-57466D01*
X65883Y-57226D02*
X65883Y-56832D01*
X65752Y-57113D01*
X65621Y-56832D01*
X65621Y-57226D01*
X65209Y-57188D02*
X65227Y-57207D01*
X65284Y-57226D01*
X65321Y-57226D01*
X65377Y-57207D01*
X65415Y-57170D01*
X65434Y-57132D01*
X65452Y-57057D01*
X65452Y-57001D01*
X65434Y-56926D01*
X65415Y-56888D01*
X65377Y-56851D01*
X65321Y-56832D01*
X65284Y-56832D01*
X65227Y-56851D01*
X65209Y-56870D01*
X65040Y-56832D02*
X65040Y-57151D01*
X65021Y-57188D01*
X65002Y-57207D01*
X64965Y-57226D01*
X64890Y-57226D01*
X64852Y-57207D01*
X64834Y-57188D01*
X64815Y-57151D01*
X64815Y-56832D01*
X64721Y-57263D02*
X64421Y-57263D01*
X64102Y-57226D02*
X64234Y-57038D01*
X64327Y-57226D02*
X64327Y-56832D01*
X64177Y-56832D01*
X64140Y-56851D01*
X64121Y-56870D01*
X64102Y-56907D01*
X64102Y-56963D01*
X64121Y-57001D01*
X64140Y-57020D01*
X64177Y-57038D01*
X64327Y-57038D01*
X63952Y-57207D02*
X63896Y-57226D01*
X63802Y-57226D01*
X63765Y-57207D01*
X63746Y-57188D01*
X63727Y-57151D01*
X63727Y-57113D01*
X63746Y-57076D01*
X63765Y-57057D01*
X63802Y-57038D01*
X63877Y-57020D01*
X63915Y-57001D01*
X63934Y-56982D01*
X63952Y-56945D01*
X63952Y-56907D01*
X63934Y-56870D01*
X63915Y-56851D01*
X63877Y-56832D01*
X63784Y-56832D01*
X63727Y-56851D01*
X63615Y-56832D02*
X63390Y-56832D01*
X63502Y-57226D02*
X63502Y-56832D01*
X64963Y-48313D02*
X64982Y-48369D01*
X64982Y-48463D01*
X64963Y-48501D01*
X64944Y-48519D01*
X64907Y-48538D01*
X64869Y-48538D01*
X64832Y-48519D01*
X64813Y-48501D01*
X64794Y-48463D01*
X64775Y-48388D01*
X64757Y-48351D01*
X64738Y-48332D01*
X64700Y-48313D01*
X64663Y-48313D01*
X64625Y-48332D01*
X64607Y-48351D01*
X64588Y-48388D01*
X64588Y-48482D01*
X64607Y-48538D01*
X64588Y-48669D02*
X64982Y-48763D01*
X64700Y-48838D01*
X64982Y-48913D01*
X64588Y-49007D01*
X64625Y-49138D02*
X64607Y-49157D01*
X64588Y-49194D01*
X64588Y-49288D01*
X64607Y-49326D01*
X64625Y-49344D01*
X64663Y-49363D01*
X64700Y-49363D01*
X64757Y-49344D01*
X64982Y-49119D01*
X64982Y-49363D01*
X61300Y-47619D02*
X61319Y-47676D01*
X61338Y-47694D01*
X61375Y-47713D01*
X61431Y-47713D01*
X61469Y-47694D01*
X61488Y-47676D01*
X61506Y-47638D01*
X61506Y-47488D01*
X61113Y-47488D01*
X61113Y-47619D01*
X61131Y-47657D01*
X61150Y-47676D01*
X61188Y-47694D01*
X61225Y-47694D01*
X61263Y-47676D01*
X61281Y-47657D01*
X61300Y-47619D01*
X61300Y-47488D01*
X61113Y-47826D02*
X61113Y-48051D01*
X61506Y-47938D02*
X61113Y-47938D01*
X61544Y-48088D02*
X61544Y-48388D01*
X61394Y-48463D02*
X61394Y-48651D01*
X61506Y-48426D02*
X61113Y-48557D01*
X61506Y-48688D01*
X61488Y-48801D02*
X61506Y-48857D01*
X61506Y-48951D01*
X61488Y-48988D01*
X61469Y-49007D01*
X61431Y-49026D01*
X61394Y-49026D01*
X61356Y-49007D01*
X61338Y-48988D01*
X61319Y-48951D01*
X61300Y-48876D01*
X61281Y-48838D01*
X61263Y-48819D01*
X61225Y-48801D01*
X61188Y-48801D01*
X61150Y-48819D01*
X61131Y-48838D01*
X61113Y-48876D01*
X61113Y-48969D01*
X61131Y-49026D01*
X61488Y-49176D02*
X61506Y-49232D01*
X61506Y-49326D01*
X61488Y-49363D01*
X61469Y-49382D01*
X61431Y-49401D01*
X61394Y-49401D01*
X61356Y-49382D01*
X61338Y-49363D01*
X61319Y-49326D01*
X61300Y-49251D01*
X61281Y-49213D01*
X61263Y-49194D01*
X61225Y-49176D01*
X61188Y-49176D01*
X61150Y-49194D01*
X61131Y-49213D01*
X61113Y-49251D01*
X61113Y-49344D01*
X61131Y-49401D01*
X61469Y-49794D02*
X61488Y-49775D01*
X61506Y-49719D01*
X61506Y-49682D01*
X61488Y-49625D01*
X61450Y-49588D01*
X61413Y-49569D01*
X61338Y-49550D01*
X61281Y-49550D01*
X61206Y-49569D01*
X61169Y-49588D01*
X61131Y-49625D01*
X61113Y-49682D01*
X61113Y-49719D01*
X61131Y-49775D01*
X61150Y-49794D01*
X61506Y-49963D02*
X61113Y-49963D01*
X61506Y-50188D01*
X61113Y-50188D01*
G54D18*
X56953Y-49626D02*
X56939Y-49597D01*
X56911Y-49569D01*
X56868Y-49526D01*
X56853Y-49497D01*
X56853Y-49469D01*
X56925Y-49483D02*
X56911Y-49454D01*
X56882Y-49426D01*
X56825Y-49411D01*
X56725Y-49411D01*
X56668Y-49426D01*
X56639Y-49454D01*
X56625Y-49483D01*
X56625Y-49540D01*
X56639Y-49569D01*
X56668Y-49597D01*
X56725Y-49611D01*
X56825Y-49611D01*
X56882Y-49597D01*
X56911Y-49569D01*
X56925Y-49540D01*
X56925Y-49483D01*
X56625Y-49711D02*
X56625Y-49911D01*
X56925Y-49783D01*
G54D13*
X83434Y-62846D02*
X83462Y-62832D01*
X83491Y-62803D01*
X83534Y-62761D01*
X83562Y-62746D01*
X83591Y-62746D01*
X83576Y-62818D02*
X83605Y-62803D01*
X83634Y-62775D01*
X83648Y-62718D01*
X83648Y-62618D01*
X83634Y-62561D01*
X83605Y-62532D01*
X83576Y-62518D01*
X83519Y-62518D01*
X83491Y-62532D01*
X83462Y-62561D01*
X83448Y-62618D01*
X83448Y-62718D01*
X83462Y-62775D01*
X83491Y-62803D01*
X83519Y-62818D01*
X83576Y-62818D01*
X83276Y-62646D02*
X83305Y-62632D01*
X83319Y-62618D01*
X83334Y-62589D01*
X83334Y-62575D01*
X83319Y-62546D01*
X83305Y-62532D01*
X83276Y-62518D01*
X83219Y-62518D01*
X83191Y-62532D01*
X83176Y-62546D01*
X83162Y-62575D01*
X83162Y-62589D01*
X83176Y-62618D01*
X83191Y-62632D01*
X83219Y-62646D01*
X83276Y-62646D01*
X83305Y-62661D01*
X83319Y-62675D01*
X83334Y-62703D01*
X83334Y-62761D01*
X83319Y-62789D01*
X83305Y-62803D01*
X83276Y-62818D01*
X83219Y-62818D01*
X83191Y-62803D01*
X83176Y-62789D01*
X83162Y-62761D01*
X83162Y-62703D01*
X83176Y-62675D01*
X83191Y-62661D01*
X83219Y-62646D01*
G54D10*
X63221Y-54382D02*
X63165Y-54401D01*
X63071Y-54401D01*
X63034Y-54382D01*
X63015Y-54363D01*
X62996Y-54326D01*
X62996Y-54288D01*
X63015Y-54251D01*
X63034Y-54232D01*
X63071Y-54213D01*
X63146Y-54195D01*
X63184Y-54176D01*
X63203Y-54157D01*
X63221Y-54120D01*
X63221Y-54082D01*
X63203Y-54045D01*
X63184Y-54026D01*
X63146Y-54007D01*
X63053Y-54007D01*
X62996Y-54026D01*
X62865Y-54007D02*
X62771Y-54401D01*
X62696Y-54120D01*
X62621Y-54401D01*
X62528Y-54007D01*
X62415Y-54007D02*
X62171Y-54007D01*
X62303Y-54157D01*
X62246Y-54157D01*
X62209Y-54176D01*
X62190Y-54195D01*
X62171Y-54232D01*
X62171Y-54326D01*
X62190Y-54363D01*
X62209Y-54382D01*
X62246Y-54401D01*
X62359Y-54401D01*
X62396Y-54382D01*
X62415Y-54363D01*
X63606Y-50601D02*
X63606Y-50207D01*
X63456Y-50207D01*
X63418Y-50226D01*
X63399Y-50245D01*
X63381Y-50282D01*
X63381Y-50338D01*
X63399Y-50376D01*
X63418Y-50395D01*
X63456Y-50413D01*
X63606Y-50413D01*
X63137Y-50207D02*
X63062Y-50207D01*
X63024Y-50226D01*
X62987Y-50263D01*
X62968Y-50338D01*
X62968Y-50470D01*
X62987Y-50545D01*
X63024Y-50582D01*
X63062Y-50601D01*
X63137Y-50601D01*
X63174Y-50582D01*
X63212Y-50545D01*
X63231Y-50470D01*
X63231Y-50338D01*
X63212Y-50263D01*
X63174Y-50226D01*
X63137Y-50207D01*
X62837Y-50207D02*
X62743Y-50601D01*
X62668Y-50320D01*
X62593Y-50601D01*
X62500Y-50207D01*
X62350Y-50395D02*
X62218Y-50395D01*
X62162Y-50601D02*
X62350Y-50601D01*
X62350Y-50207D01*
X62162Y-50207D01*
X61768Y-50601D02*
X61900Y-50413D01*
X61993Y-50601D02*
X61993Y-50207D01*
X61843Y-50207D01*
X61806Y-50226D01*
X61787Y-50245D01*
X61768Y-50282D01*
X61768Y-50338D01*
X61787Y-50376D01*
X61806Y-50395D01*
X61843Y-50413D01*
X61993Y-50413D01*
M02*
