G04 (created by PCBNEW (2013-may-18)-stable) date Mon Aug 15 13:55:16 2016*
%MOIN*%
G04 Gerber Fmt 3.4, Leading zero omitted, Abs format*
%FSLAX34Y34*%
G01*
G70*
G90*
G04 APERTURE LIST*
%ADD10C,0.00590551*%
%ADD11R,0.06X0.08*%
%ADD12R,0.08X0.06*%
%ADD13R,0.0629X0.0709*%
%ADD14R,0.0709X0.0629*%
%ADD15R,0.0708661X0.0433071*%
%ADD16R,0.0433071X0.0708661*%
%ADD17R,0.0394X0.0236*%
%ADD18C,0.16*%
%ADD19C,0.035*%
%ADD20C,0.01*%
G04 APERTURE END LIST*
G54D10*
G54D11*
X56377Y-48562D03*
X57677Y-48562D03*
X54881Y-62106D03*
X56181Y-62106D03*
X54881Y-60964D03*
X56181Y-60964D03*
X54881Y-56397D03*
X56181Y-56397D03*
X54881Y-57539D03*
X56181Y-57539D03*
X54881Y-58681D03*
X56181Y-58681D03*
X54881Y-59822D03*
X56181Y-59822D03*
G54D12*
X60098Y-53819D03*
X60098Y-52519D03*
G54D13*
X58452Y-56397D03*
X57334Y-56397D03*
X58413Y-60964D03*
X57295Y-60964D03*
X58413Y-59822D03*
X57295Y-59822D03*
X58413Y-58681D03*
X57295Y-58681D03*
X58413Y-57539D03*
X57295Y-57539D03*
X58413Y-62106D03*
X57295Y-62106D03*
G54D14*
X54625Y-49933D03*
X54625Y-51051D03*
X61200Y-48728D03*
X61200Y-47610D03*
G54D15*
X63484Y-56448D03*
X65924Y-56448D03*
X63484Y-55008D03*
X65924Y-55008D03*
G54D16*
X64007Y-50058D03*
X64007Y-47618D03*
X62567Y-50058D03*
X62567Y-47618D03*
G54D17*
X56377Y-49960D03*
X56377Y-49448D03*
X55629Y-49704D03*
G54D11*
X84055Y-62696D03*
X82755Y-62696D03*
G54D15*
X61476Y-53101D03*
X63916Y-53101D03*
X61476Y-51661D03*
X63916Y-51661D03*
G54D18*
X90177Y-62460D03*
X60216Y-62421D03*
G54D19*
X56909Y-49311D03*
X63956Y-49389D03*
X54114Y-50452D03*
X55452Y-53051D03*
X56240Y-52972D03*
X57185Y-52972D03*
X58562Y-53484D03*
X58523Y-49744D03*
X62106Y-49783D03*
X84389Y-61122D03*
X83681Y-61791D03*
X76043Y-61909D03*
X79232Y-61988D03*
X80019Y-61082D03*
X80098Y-61948D03*
X75492Y-61948D03*
X79783Y-62303D03*
X81240Y-62303D03*
X83838Y-61122D03*
X79468Y-61161D03*
X58090Y-49704D03*
X89822Y-59940D03*
X88129Y-60452D03*
X88011Y-59271D03*
X70570Y-61633D03*
X75098Y-62263D03*
X81988Y-59114D03*
X74153Y-61751D03*
X73051Y-59074D03*
X66751Y-55649D03*
X70295Y-56515D03*
X66830Y-55137D03*
X70255Y-55925D03*
X59074Y-53405D03*
X57381Y-52303D03*
X53937Y-49153D03*
X54232Y-61870D03*
X59783Y-48444D03*
X59783Y-49744D03*
X59783Y-49114D03*
X58641Y-48444D03*
X54232Y-60728D03*
X58641Y-50807D03*
X54271Y-59625D03*
X58917Y-51122D03*
X54311Y-57460D03*
X59586Y-51200D03*
X54232Y-58444D03*
X59271Y-50846D03*
X54783Y-55688D03*
X60019Y-51161D03*
X57618Y-49665D03*
X58248Y-49074D03*
X57381Y-49291D03*
X57618Y-51850D03*
X57421Y-54074D03*
X68799Y-58641D03*
X63917Y-58169D03*
X90177Y-56082D03*
X71594Y-59940D03*
X69704Y-62893D03*
X86003Y-56712D03*
X71594Y-60413D03*
X90452Y-55610D03*
X70688Y-59744D03*
X90767Y-55255D03*
X70059Y-59822D03*
X90374Y-54822D03*
X89350Y-57657D03*
X69074Y-61003D03*
X66673Y-62736D03*
X66633Y-61515D03*
X70413Y-60452D03*
X73917Y-62145D03*
X85570Y-62500D03*
X87027Y-56712D03*
X69940Y-60846D03*
X73208Y-62342D03*
X87066Y-62106D03*
X86476Y-56712D03*
X63917Y-55610D03*
X66712Y-56358D03*
X66988Y-58169D03*
X73051Y-60767D03*
X73996Y-58051D03*
X74429Y-57696D03*
X73562Y-60531D03*
X88799Y-63208D03*
X56751Y-51830D03*
X56082Y-54389D03*
X56318Y-51830D03*
X55885Y-52696D03*
X55452Y-50295D03*
X63523Y-53720D03*
X64704Y-49507D03*
X90728Y-58996D03*
X87933Y-61633D03*
X86082Y-61830D03*
X90019Y-60688D03*
X63996Y-56948D03*
X63720Y-59783D03*
X61594Y-60334D03*
X70374Y-58562D03*
X66830Y-59389D03*
X67775Y-62421D03*
X74192Y-60885D03*
X75255Y-54625D03*
X69783Y-54665D03*
X75807Y-61122D03*
X78641Y-57539D03*
X75452Y-56633D03*
X79822Y-59114D03*
X84114Y-58956D03*
X76240Y-57421D03*
X79074Y-59586D03*
X82460Y-61161D03*
X81476Y-56673D03*
X81397Y-58917D03*
X81003Y-56751D03*
X80885Y-58996D03*
X80177Y-56909D03*
X76909Y-59822D03*
X78877Y-56988D03*
X79232Y-57657D03*
X78877Y-59074D03*
X78484Y-56673D03*
X77381Y-59901D03*
X77972Y-56909D03*
X77933Y-58956D03*
X86555Y-59783D03*
X85492Y-56712D03*
X85019Y-56673D03*
X86200Y-61043D03*
X84468Y-59744D03*
X84547Y-56633D03*
X77500Y-57027D03*
X76397Y-59783D03*
X84114Y-57263D03*
X83287Y-57224D03*
X82421Y-56870D03*
X83405Y-59074D03*
X83090Y-59862D03*
X81948Y-56751D03*
X69192Y-62933D03*
X71594Y-61673D03*
X57854Y-62106D03*
X61318Y-50767D03*
X63169Y-49153D03*
X63523Y-50728D03*
X62145Y-50610D03*
X62854Y-48444D03*
X61751Y-53681D03*
X62185Y-52500D03*
X62145Y-51633D03*
X54586Y-50492D03*
X55216Y-49350D03*
X57854Y-58681D03*
X57893Y-56397D03*
X57854Y-57539D03*
X57854Y-59822D03*
X57854Y-60964D03*
X62460Y-53917D03*
X60334Y-54665D03*
X58877Y-54704D03*
X58996Y-55334D03*
X61515Y-49783D03*
X60570Y-49783D03*
X62854Y-58641D03*
X60688Y-58641D03*
X85255Y-61318D03*
X68720Y-62854D03*
X69822Y-58917D03*
X74389Y-58799D03*
X72106Y-56830D03*
X71240Y-56594D03*
X74507Y-61279D03*
X81830Y-61122D03*
X80846Y-61161D03*
X80137Y-59744D03*
X83129Y-61161D03*
X54980Y-47637D03*
X53602Y-49724D03*
X53858Y-62874D03*
X59862Y-55688D03*
X61043Y-54744D03*
X72578Y-55688D03*
X59232Y-52736D03*
G54D20*
X58307Y-48228D02*
X58405Y-48129D01*
X60374Y-48562D02*
X59940Y-48129D01*
X60374Y-48562D02*
X60374Y-48720D01*
X59940Y-48129D02*
X58405Y-48129D01*
X57972Y-48562D02*
X58307Y-48228D01*
X58307Y-48228D02*
X58366Y-48169D01*
X57677Y-48562D02*
X57972Y-48562D01*
X56909Y-49311D02*
X57677Y-48661D01*
X57677Y-48661D02*
X57677Y-48562D01*
X62696Y-49271D02*
X62696Y-48799D01*
X60374Y-49232D02*
X60374Y-48720D01*
X60413Y-49271D02*
X60374Y-49232D01*
X62696Y-49271D02*
X60413Y-49271D01*
X62696Y-48799D02*
X62736Y-48759D01*
X62736Y-48759D02*
X63759Y-48759D01*
X63759Y-48759D02*
X63956Y-48956D01*
X63956Y-48956D02*
X63956Y-49389D01*
X61200Y-48728D02*
X60374Y-48728D01*
X60374Y-48728D02*
X60381Y-48720D01*
X60381Y-48720D02*
X60413Y-48720D01*
X60413Y-48720D02*
X60374Y-48720D01*
X54625Y-49940D02*
X54625Y-49933D01*
X54114Y-50452D02*
X54625Y-49940D01*
X55452Y-53366D02*
X55452Y-53051D01*
X55846Y-53366D02*
X55452Y-53366D01*
X56240Y-52972D02*
X55846Y-53366D01*
X58562Y-53484D02*
X57696Y-53484D01*
X57696Y-53484D02*
X57185Y-52972D01*
X61724Y-49454D02*
X60151Y-49454D01*
X60177Y-49429D02*
X60177Y-48799D01*
X60151Y-49454D02*
X60177Y-49429D01*
X67972Y-62933D02*
X67342Y-62933D01*
X59822Y-54744D02*
X58562Y-53484D01*
X59822Y-55177D02*
X59822Y-54744D01*
X62421Y-55177D02*
X59822Y-55177D01*
X62421Y-57263D02*
X62421Y-55177D01*
X64074Y-58917D02*
X62421Y-57263D01*
X66318Y-58917D02*
X64074Y-58917D01*
X66318Y-60137D02*
X66318Y-58917D01*
X66633Y-60137D02*
X66318Y-60137D01*
X66673Y-60137D02*
X66633Y-60137D01*
X66870Y-60137D02*
X66673Y-60137D01*
X66870Y-60374D02*
X66870Y-60137D01*
X66870Y-60452D02*
X66870Y-60374D01*
X67342Y-60452D02*
X66870Y-60452D01*
X67342Y-62933D02*
X67342Y-60452D01*
X82755Y-62696D02*
X81633Y-62696D01*
X68011Y-62933D02*
X67972Y-62933D01*
X67972Y-62933D02*
X67893Y-62933D01*
X68326Y-63248D02*
X68011Y-62933D01*
X69822Y-63248D02*
X68326Y-63248D01*
X69980Y-63090D02*
X69822Y-63248D01*
X81240Y-63090D02*
X69980Y-63090D01*
X81633Y-62696D02*
X81240Y-63090D01*
X58523Y-49271D02*
X58523Y-49744D01*
X59311Y-48799D02*
X58523Y-49271D01*
X60177Y-48799D02*
X59311Y-48799D01*
X62106Y-49783D02*
X61724Y-49454D01*
X84389Y-61122D02*
X84271Y-61122D01*
X83681Y-61712D02*
X83681Y-61791D01*
X84271Y-61122D02*
X83681Y-61712D01*
X76082Y-61870D02*
X76043Y-61909D01*
X79114Y-61870D02*
X76082Y-61870D01*
X79232Y-61988D02*
X79114Y-61870D01*
X80019Y-61870D02*
X80019Y-61082D01*
X80098Y-61948D02*
X80019Y-61870D01*
X79704Y-62381D02*
X79783Y-62303D01*
X75925Y-62381D02*
X79704Y-62381D01*
X75846Y-62303D02*
X75925Y-62381D01*
X75492Y-61948D02*
X75846Y-62303D01*
X81240Y-62303D02*
X81240Y-62342D01*
X83248Y-61712D02*
X83838Y-61122D01*
X81870Y-61712D02*
X83248Y-61712D01*
X81240Y-62342D02*
X81870Y-61712D01*
X79685Y-62322D02*
X79763Y-62322D01*
X79763Y-62322D02*
X79783Y-62303D01*
X79547Y-61633D02*
X79586Y-61830D01*
X79586Y-61830D02*
X79685Y-62322D01*
X79685Y-62322D02*
X79704Y-62342D01*
X79547Y-61633D02*
X79468Y-61161D01*
X61003Y-51161D02*
X61003Y-51188D01*
X61003Y-51188D02*
X61476Y-51661D01*
X61003Y-51161D02*
X61003Y-50334D01*
X60964Y-50295D02*
X59586Y-50295D01*
X61003Y-50255D02*
X60964Y-50295D01*
X61003Y-50334D02*
X61003Y-50255D01*
X58090Y-49704D02*
X58169Y-49783D01*
X58169Y-49783D02*
X58129Y-50334D01*
X58129Y-50334D02*
X58169Y-50295D01*
X58169Y-50295D02*
X59586Y-50295D01*
X89744Y-59862D02*
X89822Y-59940D01*
X88129Y-59862D02*
X89744Y-59862D01*
X88129Y-59389D02*
X88129Y-59862D01*
X88129Y-59862D02*
X88129Y-60452D01*
X88129Y-60452D02*
X88129Y-60492D01*
X88011Y-59271D02*
X88129Y-59389D01*
X70570Y-61633D02*
X70610Y-62618D01*
X70692Y-62700D02*
X74665Y-62700D01*
X70610Y-62618D02*
X70692Y-62700D01*
X74665Y-62700D02*
X74665Y-62696D01*
X74665Y-62696D02*
X75098Y-62263D01*
X81236Y-59440D02*
X81236Y-61755D01*
X80284Y-62707D02*
X79890Y-62707D01*
X81236Y-61755D02*
X80284Y-62707D01*
X74665Y-62700D02*
X79890Y-62707D01*
X81240Y-59429D02*
X81236Y-59440D01*
X81988Y-59114D02*
X81240Y-59429D01*
X74153Y-61751D02*
X73720Y-61397D01*
X72854Y-61161D02*
X72342Y-60649D01*
X73602Y-61279D02*
X72854Y-61161D01*
X73720Y-61397D02*
X73602Y-61279D01*
X72342Y-60649D02*
X72381Y-60649D01*
X72342Y-60649D02*
X72342Y-59783D01*
X73051Y-59074D02*
X72342Y-59783D01*
X67303Y-56200D02*
X66751Y-55649D01*
X69980Y-56200D02*
X67303Y-56200D01*
X70295Y-56515D02*
X69980Y-56200D01*
X67145Y-55452D02*
X66830Y-55137D01*
X67145Y-55610D02*
X67145Y-55452D01*
X67460Y-55925D02*
X67145Y-55610D01*
X70255Y-55925D02*
X67460Y-55925D01*
X57381Y-52303D02*
X58877Y-52303D01*
X59074Y-53366D02*
X59074Y-53405D01*
X58877Y-53366D02*
X59074Y-53366D01*
X58877Y-52303D02*
X58877Y-53366D01*
X53937Y-49153D02*
X53897Y-49192D01*
X53897Y-49192D02*
X54035Y-50098D01*
X54035Y-50098D02*
X53799Y-50334D01*
X53799Y-50334D02*
X53799Y-50688D01*
X53799Y-50688D02*
X54035Y-50925D01*
X54035Y-50925D02*
X54035Y-54940D01*
X54035Y-54940D02*
X53641Y-55334D01*
X53641Y-55334D02*
X53641Y-56988D01*
X53641Y-56988D02*
X53405Y-57224D01*
X53405Y-57224D02*
X53405Y-60630D01*
X53405Y-60630D02*
X54881Y-62106D01*
X54881Y-62106D02*
X54468Y-62106D01*
X54468Y-62106D02*
X54232Y-61870D01*
X59783Y-49744D02*
X59783Y-49114D01*
X59783Y-48444D02*
X58641Y-48444D01*
X54881Y-60964D02*
X54468Y-60964D01*
X54468Y-60964D02*
X54232Y-60728D01*
X54232Y-52106D02*
X54232Y-55059D01*
X55295Y-50807D02*
X55216Y-50885D01*
X55216Y-50885D02*
X55216Y-51555D01*
X55216Y-51555D02*
X55019Y-51751D01*
X55019Y-51751D02*
X54232Y-51751D01*
X54232Y-51751D02*
X54232Y-52106D01*
X58641Y-50807D02*
X55688Y-50807D01*
X55688Y-50807D02*
X55295Y-50807D01*
X53602Y-59685D02*
X54881Y-60964D01*
X53602Y-57263D02*
X53602Y-59685D01*
X53838Y-57027D02*
X53602Y-57263D01*
X53838Y-55452D02*
X53838Y-57027D01*
X54232Y-55059D02*
X53838Y-55452D01*
X54881Y-59822D02*
X54468Y-59822D01*
X54468Y-59822D02*
X54271Y-59625D01*
X54392Y-52106D02*
X54392Y-55135D01*
X55413Y-50967D02*
X55413Y-51633D01*
X55413Y-51633D02*
X55137Y-51909D01*
X55137Y-51909D02*
X55059Y-51988D01*
X55059Y-51988D02*
X54431Y-51988D01*
X54431Y-51988D02*
X54392Y-52027D01*
X54392Y-52027D02*
X54392Y-52106D01*
X58366Y-51085D02*
X58248Y-50967D01*
X58408Y-51085D02*
X58366Y-51085D01*
X58484Y-51085D02*
X58408Y-51085D01*
X58484Y-51122D02*
X58484Y-51085D01*
X58917Y-51122D02*
X58484Y-51122D01*
X58248Y-50967D02*
X55413Y-50967D01*
X53799Y-58740D02*
X54881Y-59822D01*
X53799Y-57312D02*
X53799Y-58740D01*
X54032Y-57079D02*
X53799Y-57312D01*
X54032Y-55494D02*
X54032Y-57079D01*
X54392Y-55135D02*
X54032Y-55494D01*
X54881Y-57539D02*
X54389Y-57539D01*
X54389Y-57539D02*
X54311Y-57460D01*
X54389Y-56909D02*
X54389Y-57047D01*
X54862Y-55137D02*
X54389Y-55610D01*
X54389Y-55610D02*
X54389Y-56909D01*
X57814Y-51327D02*
X55877Y-51327D01*
X59586Y-51200D02*
X59586Y-51240D01*
X59586Y-51240D02*
X59153Y-51633D01*
X59153Y-51633D02*
X58444Y-51633D01*
X58444Y-51633D02*
X58208Y-51633D01*
X58208Y-51633D02*
X58208Y-51594D01*
X58208Y-51594D02*
X58129Y-51594D01*
X58129Y-51594D02*
X58090Y-51594D01*
X58090Y-51594D02*
X58051Y-51594D01*
X58051Y-51594D02*
X57814Y-51358D01*
X57814Y-51358D02*
X57814Y-51327D01*
X55334Y-52421D02*
X54862Y-52421D01*
X55807Y-51948D02*
X55334Y-52421D01*
X55807Y-51397D02*
X55807Y-51948D01*
X55877Y-51327D02*
X55807Y-51397D01*
X54862Y-52421D02*
X54862Y-55137D01*
X54389Y-57047D02*
X54881Y-57539D01*
X54881Y-58681D02*
X54468Y-58681D01*
X54468Y-58681D02*
X54232Y-58444D01*
X54665Y-52224D02*
X54665Y-55098D01*
X55683Y-51127D02*
X55610Y-51200D01*
X55610Y-51200D02*
X55610Y-51791D01*
X55610Y-51791D02*
X55177Y-52224D01*
X55177Y-52224D02*
X54665Y-52224D01*
X58237Y-51234D02*
X58129Y-51127D01*
X58237Y-51352D02*
X58237Y-51234D01*
X58321Y-51352D02*
X58237Y-51352D01*
X58321Y-51358D02*
X58321Y-51352D01*
X58360Y-51358D02*
X58321Y-51358D01*
X58638Y-51358D02*
X58360Y-51358D01*
X58638Y-51437D02*
X58638Y-51358D01*
X58759Y-51437D02*
X58638Y-51437D01*
X59035Y-51437D02*
X58759Y-51437D01*
X59271Y-51200D02*
X59035Y-51437D01*
X59271Y-50846D02*
X59271Y-51200D01*
X58129Y-51127D02*
X55683Y-51127D01*
X53996Y-57795D02*
X54881Y-58681D01*
X53996Y-57342D02*
X53996Y-57795D01*
X54192Y-57145D02*
X53996Y-57342D01*
X54192Y-55570D02*
X54192Y-57145D01*
X54665Y-55098D02*
X54192Y-55570D01*
X54881Y-56397D02*
X54881Y-55787D01*
X54881Y-55787D02*
X54783Y-55688D01*
X55137Y-52618D02*
X55137Y-56141D01*
X55137Y-56141D02*
X54881Y-56397D01*
X57263Y-51515D02*
X56003Y-51515D01*
X59389Y-51830D02*
X58011Y-51830D01*
X59980Y-51240D02*
X59389Y-51830D01*
X60019Y-51240D02*
X59980Y-51240D01*
X60019Y-51240D02*
X60019Y-51161D01*
X57696Y-51515D02*
X57263Y-51515D01*
X58011Y-51830D02*
X57696Y-51515D01*
X55413Y-52618D02*
X55137Y-52618D01*
X55137Y-52618D02*
X55059Y-52618D01*
X55595Y-52436D02*
X55413Y-52618D01*
X55595Y-52396D02*
X55595Y-52436D01*
X56003Y-51988D02*
X55595Y-52396D01*
X56003Y-51515D02*
X56003Y-51988D01*
X56377Y-49448D02*
X56515Y-49448D01*
X56732Y-49665D02*
X57618Y-49665D01*
X56515Y-49448D02*
X56732Y-49665D01*
X58208Y-49074D02*
X58248Y-49074D01*
X57381Y-49291D02*
X58208Y-49074D01*
X56948Y-52618D02*
X56870Y-52618D01*
X57500Y-51850D02*
X56948Y-52185D01*
X56948Y-52185D02*
X56948Y-52618D01*
X57618Y-51850D02*
X57500Y-51850D01*
X56870Y-52618D02*
X56791Y-52696D01*
X56791Y-52696D02*
X56791Y-53444D01*
X56791Y-53444D02*
X57421Y-54074D01*
X55137Y-50452D02*
X55295Y-50610D01*
X56003Y-49980D02*
X55137Y-49980D01*
X57539Y-50610D02*
X57539Y-50570D01*
X55295Y-50610D02*
X57539Y-50610D01*
X55137Y-50019D02*
X55137Y-50452D01*
X55137Y-49980D02*
X55137Y-50019D01*
X56003Y-48936D02*
X56377Y-48562D01*
X56003Y-49980D02*
X56003Y-48936D01*
X57460Y-50570D02*
X57539Y-50570D01*
X60492Y-51043D02*
X60492Y-52106D01*
X57539Y-50570D02*
X58326Y-50570D01*
X58326Y-50570D02*
X58405Y-50492D01*
X58405Y-50492D02*
X59940Y-50492D01*
X59940Y-50492D02*
X60492Y-51043D01*
X62567Y-47618D02*
X62894Y-47618D01*
X64389Y-49114D02*
X64389Y-51358D01*
X62894Y-47618D02*
X64389Y-49114D01*
X64389Y-52106D02*
X64389Y-51358D01*
X64389Y-51358D02*
X64389Y-51003D01*
X57618Y-52106D02*
X60492Y-52106D01*
X57618Y-51850D02*
X57618Y-52106D01*
X60492Y-52106D02*
X64389Y-52106D01*
X63917Y-58169D02*
X64232Y-58484D01*
X66988Y-58641D02*
X68799Y-58641D01*
X66830Y-58484D02*
X66988Y-58641D01*
X64232Y-58484D02*
X66830Y-58484D01*
X75452Y-56082D02*
X90177Y-56082D01*
X71594Y-59940D02*
X75452Y-56082D01*
X70059Y-62893D02*
X70098Y-62893D01*
X69704Y-62893D02*
X70059Y-62893D01*
X81870Y-62145D02*
X81870Y-62185D01*
X86948Y-60295D02*
X86673Y-60570D01*
X86673Y-61988D02*
X86673Y-60570D01*
X86712Y-62224D02*
X86673Y-61988D01*
X85157Y-62125D02*
X86712Y-62224D01*
X81870Y-62145D02*
X85468Y-62145D01*
X85468Y-62145D02*
X85448Y-62125D01*
X85448Y-62125D02*
X85157Y-62125D01*
X81161Y-62893D02*
X70098Y-62893D01*
X70098Y-62893D02*
X69744Y-62893D01*
X81870Y-62185D02*
X81161Y-62893D01*
X86948Y-60334D02*
X86909Y-60295D01*
X86909Y-60295D02*
X86948Y-60295D01*
X86948Y-60295D02*
X86948Y-59586D01*
X86948Y-59586D02*
X86791Y-59429D01*
X86791Y-59429D02*
X85688Y-59429D01*
X85688Y-57027D02*
X85688Y-59429D01*
X86003Y-56712D02*
X85688Y-57027D01*
X86948Y-60334D02*
X86948Y-60295D01*
X71811Y-59133D02*
X71318Y-59625D01*
X71200Y-60019D02*
X71594Y-60413D01*
X71200Y-59901D02*
X71200Y-60019D01*
X71318Y-59783D02*
X71200Y-59901D01*
X71318Y-59625D02*
X71318Y-59783D01*
X90019Y-55610D02*
X90452Y-55610D01*
X75137Y-55807D02*
X89822Y-55807D01*
X89822Y-55807D02*
X90019Y-55610D01*
X71811Y-59133D02*
X75137Y-55807D01*
X90019Y-55255D02*
X90767Y-55255D01*
X89704Y-55570D02*
X90019Y-55255D01*
X74862Y-55570D02*
X89704Y-55570D01*
X71259Y-59173D02*
X70688Y-59744D01*
X71200Y-59232D02*
X71259Y-59173D01*
X71259Y-59173D02*
X74862Y-55570D01*
X70492Y-59389D02*
X70059Y-59822D01*
X70688Y-59389D02*
X70492Y-59389D01*
X74704Y-55374D02*
X70688Y-59389D01*
X89389Y-55374D02*
X74704Y-55374D01*
X89822Y-54940D02*
X89389Y-55374D01*
X90255Y-54940D02*
X89822Y-54940D01*
X90374Y-54822D02*
X90255Y-54940D01*
X90334Y-57657D02*
X89350Y-57657D01*
X91082Y-56909D02*
X90334Y-57657D01*
X91082Y-54547D02*
X91082Y-56909D01*
X91003Y-54468D02*
X91082Y-54547D01*
X89940Y-54468D02*
X91003Y-54468D01*
X89271Y-55137D02*
X89940Y-54468D01*
X74547Y-55137D02*
X89271Y-55137D01*
X71082Y-58602D02*
X74547Y-55137D01*
X70846Y-58602D02*
X71082Y-58602D01*
X69192Y-60255D02*
X70846Y-58602D01*
X69192Y-60885D02*
X69192Y-60255D01*
X69074Y-61003D02*
X69192Y-60885D01*
X66673Y-61555D02*
X66673Y-62736D01*
X66633Y-61515D02*
X66673Y-61555D01*
X86673Y-62500D02*
X87578Y-62500D01*
X87578Y-62500D02*
X87578Y-61122D01*
X85570Y-62500D02*
X86673Y-62500D01*
X70413Y-60452D02*
X70511Y-60551D01*
X70511Y-60551D02*
X71299Y-60551D01*
X72696Y-61948D02*
X71299Y-60551D01*
X71299Y-60551D02*
X71240Y-60492D01*
X73720Y-61948D02*
X72696Y-61948D01*
X73917Y-62145D02*
X73720Y-61948D01*
X87027Y-56712D02*
X87578Y-57263D01*
X87578Y-57263D02*
X87578Y-61122D01*
X71082Y-60964D02*
X71279Y-60964D01*
X73051Y-62185D02*
X73208Y-62342D01*
X72618Y-62185D02*
X73051Y-62185D01*
X71397Y-60964D02*
X72618Y-62185D01*
X71279Y-60964D02*
X71397Y-60964D01*
X71082Y-60885D02*
X71082Y-60964D01*
X71082Y-60964D02*
X71082Y-61003D01*
X71043Y-60846D02*
X71082Y-60885D01*
X69940Y-60846D02*
X71043Y-60846D01*
X87066Y-62106D02*
X87145Y-60885D01*
X87145Y-60885D02*
X87303Y-60728D01*
X87303Y-59744D02*
X87303Y-60728D01*
X87303Y-60728D02*
X87303Y-60807D01*
X87263Y-59704D02*
X87303Y-59744D01*
X87263Y-57500D02*
X87263Y-59704D01*
X86476Y-56712D02*
X87263Y-57500D01*
X65924Y-55008D02*
X64519Y-55008D01*
X64519Y-55008D02*
X63917Y-55610D01*
X66712Y-57893D02*
X66712Y-56358D01*
X66988Y-58169D02*
X66712Y-57893D01*
X73051Y-60374D02*
X73051Y-60767D01*
X73405Y-60019D02*
X73051Y-60374D01*
X73718Y-58571D02*
X73405Y-60019D01*
X73996Y-58051D02*
X73718Y-58571D01*
X74303Y-58450D02*
X74226Y-58450D01*
X73917Y-60177D02*
X73562Y-60531D01*
X73917Y-58759D02*
X73917Y-60177D01*
X74226Y-58450D02*
X73917Y-58759D01*
X74303Y-58450D02*
X74429Y-57696D01*
X85649Y-63208D02*
X88799Y-63208D01*
X56594Y-52854D02*
X56594Y-54074D01*
X56594Y-54074D02*
X56909Y-54389D01*
X56751Y-51830D02*
X56594Y-52854D01*
X58956Y-54350D02*
X58956Y-54311D01*
X58996Y-54350D02*
X58956Y-54350D01*
X59035Y-54389D02*
X58996Y-54350D01*
X56909Y-54389D02*
X59035Y-54389D01*
X66633Y-60649D02*
X66673Y-60688D01*
X67066Y-60688D02*
X67066Y-63011D01*
X66673Y-60688D02*
X67066Y-60688D01*
X66673Y-60374D02*
X66633Y-60413D01*
X66161Y-60374D02*
X66673Y-60374D01*
X66122Y-60334D02*
X66161Y-60374D01*
X66633Y-60413D02*
X66633Y-60649D01*
X66043Y-59192D02*
X66122Y-59271D01*
X63917Y-59192D02*
X66043Y-59192D01*
X63897Y-59173D02*
X63917Y-59192D01*
X66122Y-59271D02*
X66122Y-60334D01*
X62185Y-55374D02*
X62106Y-55531D01*
X59547Y-54901D02*
X59586Y-54940D01*
X58956Y-54311D02*
X59547Y-54901D01*
X59586Y-55413D02*
X59625Y-55374D01*
X59586Y-54940D02*
X59586Y-55413D01*
X62185Y-55374D02*
X59625Y-55374D01*
X62106Y-55531D02*
X62106Y-57381D01*
X67874Y-63228D02*
X67775Y-63129D01*
X67775Y-63129D02*
X67185Y-63129D01*
X67185Y-63129D02*
X67066Y-63011D01*
X63897Y-59173D02*
X62106Y-57381D01*
X85137Y-62696D02*
X85649Y-63208D01*
X84055Y-62696D02*
X85137Y-62696D01*
X84055Y-62696D02*
X83877Y-62696D01*
X68053Y-63408D02*
X67874Y-63228D01*
X67874Y-63228D02*
X67854Y-63208D01*
X83166Y-63408D02*
X68053Y-63408D01*
X83877Y-62696D02*
X83166Y-63408D01*
X56181Y-56397D02*
X56181Y-54488D01*
X56181Y-54488D02*
X56082Y-54389D01*
X56181Y-57539D02*
X56181Y-56397D01*
X56181Y-58681D02*
X56181Y-57539D01*
X56181Y-59822D02*
X56181Y-58681D01*
X56181Y-60964D02*
X56181Y-59822D01*
X56181Y-62106D02*
X56181Y-60964D01*
X56259Y-52322D02*
X56259Y-51889D01*
X56259Y-51889D02*
X56318Y-51830D01*
X55885Y-52696D02*
X56259Y-52322D01*
X56259Y-52322D02*
X56279Y-52303D01*
X56377Y-49960D02*
X56377Y-50039D01*
X56377Y-50039D02*
X56122Y-50295D01*
X56122Y-50295D02*
X55452Y-50295D01*
X63916Y-53101D02*
X63916Y-53327D01*
X63916Y-53327D02*
X63523Y-53720D01*
X64007Y-47618D02*
X64587Y-47618D01*
X64783Y-49507D02*
X64704Y-49507D01*
X64783Y-49271D02*
X64783Y-49507D01*
X64783Y-47814D02*
X64783Y-49271D01*
X64587Y-47618D02*
X64783Y-47814D01*
X90019Y-60688D02*
X90019Y-60492D01*
X90728Y-59783D02*
X90728Y-58996D01*
X90019Y-60492D02*
X90728Y-59783D01*
X88681Y-60885D02*
X89822Y-60885D01*
X87933Y-61633D02*
X88681Y-60885D01*
X86082Y-61515D02*
X86082Y-61830D01*
X84783Y-60216D02*
X86082Y-61515D01*
X84153Y-60216D02*
X84783Y-60216D01*
X84074Y-60137D02*
X84153Y-60216D01*
X84074Y-58996D02*
X84074Y-60137D01*
X84114Y-58956D02*
X84074Y-58996D01*
X89822Y-60885D02*
X90019Y-60688D01*
X65924Y-56448D02*
X64496Y-56448D01*
X64496Y-56448D02*
X63996Y-56948D01*
X62263Y-59783D02*
X63720Y-59783D01*
X61594Y-60334D02*
X62263Y-59783D01*
X68326Y-59389D02*
X68641Y-59389D01*
X69468Y-58562D02*
X70374Y-58562D01*
X68641Y-59389D02*
X69468Y-58562D01*
X68366Y-59389D02*
X68326Y-59389D01*
X67775Y-62421D02*
X68366Y-61830D01*
X68366Y-61830D02*
X68366Y-59389D01*
X68326Y-59389D02*
X66830Y-59389D01*
X75492Y-59586D02*
X75531Y-59586D01*
X74192Y-60885D02*
X75492Y-59586D01*
X69822Y-54625D02*
X75255Y-54625D01*
X69783Y-54665D02*
X69822Y-54625D01*
X75531Y-56712D02*
X75452Y-56633D01*
X75531Y-60846D02*
X75531Y-59586D01*
X75531Y-59586D02*
X75531Y-56712D01*
X75807Y-61122D02*
X75531Y-60846D01*
X78877Y-58169D02*
X79822Y-59114D01*
X78877Y-57775D02*
X78877Y-58169D01*
X78641Y-57539D02*
X78877Y-57775D01*
X75767Y-56318D02*
X79980Y-56318D01*
X75452Y-56633D02*
X75767Y-56318D01*
X79980Y-56318D02*
X80019Y-56358D01*
X80019Y-56358D02*
X80019Y-56318D01*
X79822Y-59114D02*
X79822Y-56476D01*
X79822Y-56476D02*
X79980Y-56318D01*
X84114Y-58523D02*
X84114Y-58956D01*
X82893Y-57303D02*
X84114Y-58523D01*
X82893Y-56594D02*
X82893Y-57303D01*
X82618Y-56318D02*
X82893Y-56594D01*
X79980Y-56318D02*
X80019Y-56318D01*
X80019Y-56318D02*
X82618Y-56318D01*
X77460Y-61122D02*
X77027Y-61122D01*
X77027Y-61122D02*
X75925Y-60019D01*
X75925Y-57736D02*
X75925Y-60019D01*
X76240Y-57421D02*
X75925Y-57736D01*
X78759Y-60964D02*
X79074Y-59586D01*
X78641Y-61122D02*
X78759Y-60964D01*
X77460Y-61122D02*
X78641Y-61122D01*
X82460Y-58169D02*
X82460Y-61161D01*
X81712Y-57421D02*
X82460Y-58169D01*
X81712Y-57106D02*
X81712Y-57421D01*
X81555Y-56948D02*
X81712Y-57106D01*
X81594Y-56791D02*
X81555Y-56948D01*
X81476Y-56673D02*
X81594Y-56791D01*
X81397Y-57106D02*
X81397Y-58917D01*
X81003Y-56751D02*
X81397Y-57106D01*
X80885Y-57618D02*
X80885Y-58996D01*
X80177Y-56909D02*
X80885Y-57618D01*
X76909Y-59586D02*
X76909Y-59822D01*
X76830Y-59507D02*
X76909Y-59586D01*
X78169Y-59507D02*
X76830Y-59507D01*
X78405Y-59271D02*
X78169Y-59507D01*
X78287Y-57263D02*
X78405Y-59271D01*
X78877Y-56988D02*
X78287Y-57263D01*
X78484Y-59744D02*
X77539Y-59744D01*
X79547Y-57066D02*
X79232Y-57381D01*
X79232Y-57381D02*
X79232Y-57657D01*
X78877Y-59074D02*
X78720Y-59232D01*
X78720Y-59232D02*
X78720Y-59507D01*
X78720Y-59507D02*
X78484Y-59744D01*
X78523Y-56633D02*
X79547Y-56633D01*
X78484Y-56673D02*
X78523Y-56633D01*
X79547Y-56633D02*
X79547Y-57066D01*
X77539Y-59744D02*
X77381Y-59901D01*
X77933Y-58956D02*
X77972Y-56909D01*
X85570Y-59783D02*
X86555Y-59783D01*
X85216Y-59429D02*
X85570Y-59783D01*
X85216Y-56988D02*
X85216Y-59429D01*
X85492Y-56712D02*
X85216Y-56988D01*
X84901Y-56791D02*
X85019Y-56673D01*
X84901Y-59980D02*
X84901Y-56791D01*
X86200Y-61043D02*
X84901Y-59980D01*
X84468Y-56712D02*
X84468Y-59744D01*
X84547Y-56633D02*
X84468Y-56712D01*
X76948Y-58799D02*
X77500Y-57027D01*
X76200Y-59547D02*
X76948Y-58799D01*
X76200Y-59586D02*
X76200Y-59547D01*
X76397Y-59783D02*
X76200Y-59586D01*
X83326Y-57263D02*
X84114Y-57263D01*
X83287Y-57224D02*
X83326Y-57263D01*
X83287Y-59074D02*
X83405Y-59074D01*
X82421Y-56870D02*
X82618Y-56988D01*
X82618Y-56988D02*
X82618Y-57381D01*
X82618Y-57381D02*
X83326Y-58090D01*
X83326Y-58090D02*
X83326Y-59035D01*
X83326Y-59035D02*
X83287Y-59074D01*
X81948Y-56751D02*
X81909Y-57027D01*
X82933Y-58051D02*
X82893Y-58051D01*
X82893Y-58011D02*
X82933Y-58051D01*
X81909Y-57027D02*
X82893Y-58011D01*
X83169Y-59783D02*
X82893Y-58051D01*
X83090Y-59862D02*
X83169Y-59783D01*
X69192Y-62381D02*
X69192Y-62933D01*
X70374Y-61200D02*
X69192Y-62381D01*
X71122Y-61200D02*
X70374Y-61200D01*
X71594Y-61673D02*
X71122Y-61200D01*
X57295Y-62106D02*
X57854Y-62106D01*
X63169Y-49153D02*
X63523Y-49507D01*
X63523Y-49507D02*
X63523Y-50728D01*
X62145Y-50610D02*
X61988Y-50767D01*
X61988Y-50767D02*
X61318Y-50767D01*
X61200Y-47610D02*
X61665Y-47610D01*
X62500Y-48444D02*
X62854Y-48444D01*
X61665Y-47610D02*
X62500Y-48444D01*
X61063Y-53484D02*
X60098Y-52519D01*
X61555Y-53484D02*
X61063Y-53484D01*
X61751Y-53681D02*
X61555Y-53484D01*
X61338Y-53819D02*
X61555Y-54035D01*
X61555Y-54035D02*
X61870Y-54035D01*
X61870Y-54035D02*
X62185Y-53720D01*
X62185Y-53720D02*
X62185Y-52500D01*
X60098Y-53819D02*
X61338Y-53819D01*
X62567Y-51212D02*
X62567Y-50058D01*
X62145Y-51633D02*
X62567Y-51212D01*
X54625Y-50531D02*
X54625Y-51051D01*
X54586Y-50492D02*
X54625Y-50531D01*
X55570Y-49704D02*
X55629Y-49704D01*
X55216Y-49350D02*
X55570Y-49704D01*
X57295Y-58681D02*
X57854Y-58681D01*
X57334Y-56397D02*
X57893Y-56397D01*
X57854Y-57539D02*
X57295Y-57539D01*
X57295Y-59822D02*
X57854Y-59822D01*
X57854Y-60964D02*
X57295Y-60964D01*
X61712Y-54429D02*
X62460Y-53917D01*
X60570Y-54429D02*
X61712Y-54429D01*
X60334Y-54665D02*
X60570Y-54429D01*
X58877Y-55216D02*
X58877Y-54704D01*
X58996Y-55334D02*
X58877Y-55216D01*
X60570Y-49783D02*
X61515Y-49783D01*
X60688Y-58641D02*
X62854Y-58641D01*
X74507Y-61279D02*
X73838Y-61200D01*
X74429Y-60216D02*
X74389Y-60216D01*
X74389Y-60177D02*
X74429Y-60216D01*
X73720Y-60846D02*
X74389Y-60177D01*
X73720Y-61082D02*
X73720Y-60846D01*
X73838Y-61200D02*
X73720Y-61082D01*
X74507Y-61279D02*
X74822Y-60925D01*
X75374Y-61476D02*
X75688Y-61476D01*
X74822Y-60925D02*
X75374Y-61476D01*
X74389Y-60216D02*
X74389Y-58799D01*
X83129Y-61161D02*
X83208Y-61161D01*
X83208Y-61161D02*
X83799Y-60570D01*
X83799Y-60570D02*
X84507Y-60570D01*
X84507Y-60570D02*
X85255Y-61318D01*
X68720Y-60019D02*
X68720Y-62854D01*
X69822Y-58917D02*
X68720Y-60019D01*
X72106Y-56830D02*
X71948Y-56988D01*
X71948Y-56988D02*
X71240Y-56594D01*
X74350Y-58838D02*
X74389Y-58799D01*
X79035Y-60846D02*
X80137Y-59744D01*
X79035Y-61240D02*
X79035Y-60846D01*
X78799Y-61476D02*
X79035Y-61240D01*
X75688Y-61476D02*
X78799Y-61476D01*
X82778Y-61512D02*
X83129Y-61161D01*
X82145Y-61512D02*
X82778Y-61512D01*
X82027Y-61394D02*
X82145Y-61512D01*
X82027Y-61318D02*
X82027Y-61394D01*
X81830Y-61122D02*
X82027Y-61318D01*
X80846Y-60452D02*
X80846Y-61161D01*
X80137Y-59744D02*
X80846Y-60452D01*
X58413Y-62106D02*
X58413Y-62531D01*
X53602Y-47637D02*
X54980Y-47637D01*
X53582Y-47618D02*
X53602Y-47637D01*
X53582Y-49704D02*
X53582Y-47618D01*
X53602Y-49724D02*
X53582Y-49704D01*
X58070Y-62874D02*
X53858Y-62874D01*
X58413Y-62531D02*
X58070Y-62874D01*
X60964Y-54980D02*
X60964Y-54822D01*
X59153Y-56397D02*
X58452Y-56397D01*
X59862Y-55688D02*
X59153Y-56397D01*
X60964Y-54822D02*
X61043Y-54744D01*
X58413Y-60964D02*
X58413Y-62106D01*
X58413Y-59822D02*
X58413Y-60964D01*
X58413Y-58681D02*
X58413Y-59822D01*
X58413Y-57539D02*
X58413Y-58681D01*
X58452Y-56397D02*
X58452Y-57500D01*
X58452Y-57500D02*
X58413Y-57539D01*
X60019Y-54586D02*
X60019Y-55016D01*
X62972Y-54980D02*
X62972Y-54586D01*
X60056Y-54980D02*
X60964Y-54980D01*
X60964Y-54980D02*
X62972Y-54980D01*
X60019Y-55016D02*
X60056Y-54980D01*
X62972Y-54586D02*
X62972Y-54625D01*
X62972Y-54625D02*
X62972Y-54586D01*
X66791Y-54586D02*
X62972Y-54586D01*
X67263Y-55059D02*
X66791Y-54586D01*
X71948Y-55059D02*
X67263Y-55059D01*
X72578Y-55688D02*
X71948Y-55059D01*
X60019Y-54586D02*
X59940Y-54586D01*
X59389Y-52893D02*
X59232Y-52736D01*
X59389Y-54035D02*
X59389Y-52893D01*
X59940Y-54586D02*
X59389Y-54035D01*
M02*
