M48
;DRILL file {Pcbnew (2013-may-18)-stable} date Mon Aug 15 13:55:18 2016
;FORMAT={-:-/ absolute / inch / decimal}
FMAT,2
INCH,TZ
T1C0.025
T2C0.120
%
G90
G05
M72
T1
X5.3602Y-4.9724
X5.3858Y-6.2874
X5.3937Y-4.9154
X5.4114Y-5.0453
X5.4232Y-5.8445
X5.4232Y-6.0728
X5.4232Y-6.187
X5.4272Y-5.9626
X5.4311Y-5.7461
X5.4587Y-5.0492
X5.4783Y-5.5689
X5.498Y-4.7638
X5.5217Y-4.935
X5.5453Y-5.0295
X5.5453Y-5.3051
X5.5886Y-5.2697
X5.6083Y-5.439
X5.624Y-5.2972
X5.6319Y-5.1831
X5.6752Y-5.1831
X5.6909Y-4.9311
X5.7185Y-5.2972
X5.7382Y-4.9291
X5.7382Y-5.2303
X5.7421Y-5.4075
X5.7618Y-4.9665
X5.7618Y-5.185
X5.7854Y-5.7539
X5.7854Y-5.8681
X5.7854Y-5.9823
X5.7854Y-6.0965
X5.7854Y-6.2106
X5.7894Y-5.6398
X5.8091Y-4.9705
X5.8248Y-4.9075
X5.8524Y-4.9744
X5.8563Y-5.3484
X5.8642Y-4.8445
X5.8642Y-5.0807
X5.8878Y-5.4705
X5.8917Y-5.1122
X5.8996Y-5.5335
X5.9075Y-5.3406
X5.9232Y-5.2736
X5.9272Y-5.0846
X5.9587Y-5.1201
X5.9783Y-4.8445
X5.9783Y-4.9114
X5.9783Y-4.9744
X5.9862Y-5.5689
X6.002Y-5.1161
X6.0335Y-5.4665
X6.0571Y-4.9783
X6.0689Y-5.8642
X6.1043Y-5.4744
X6.1319Y-5.0768
X6.1516Y-4.9783
X6.1594Y-6.0335
X6.1752Y-5.3681
X6.2106Y-4.9783
X6.2146Y-5.061
X6.2146Y-5.1634
X6.2185Y-5.25
X6.2461Y-5.3917
X6.2854Y-4.8445
X6.2854Y-5.8642
X6.3169Y-4.9154
X6.3524Y-5.0728
X6.3524Y-5.372
X6.372Y-5.9783
X6.3917Y-5.561
X6.3917Y-5.8169
X6.3957Y-4.939
X6.3996Y-5.6949
X6.4705Y-4.9508
X6.6634Y-6.1516
X6.6673Y-6.2736
X6.6713Y-5.6358
X6.6752Y-5.565
X6.6831Y-5.5138
X6.6831Y-5.939
X6.6988Y-5.8169
X6.7776Y-6.2421
X6.872Y-6.2854
X6.8799Y-5.8642
X6.9075Y-6.1004
X6.9193Y-6.2933
X6.9705Y-6.2894
X6.9783Y-5.4665
X6.9823Y-5.8917
X6.9941Y-6.0846
X7.0059Y-5.9823
X7.0256Y-5.5925
X7.0295Y-5.6516
X7.0374Y-5.8563
X7.0413Y-6.0453
X7.0571Y-6.1634
X7.0689Y-5.9744
X7.124Y-5.6594
X7.1594Y-5.9941
X7.1594Y-6.0413
X7.1594Y-6.1673
X7.2106Y-5.6831
X7.2579Y-5.5689
X7.3051Y-5.9075
X7.3051Y-6.0768
X7.3209Y-6.2343
X7.3563Y-6.0531
X7.3917Y-6.2146
X7.3996Y-5.8051
X7.4154Y-6.1752
X7.4193Y-6.0886
X7.439Y-5.8799
X7.4429Y-5.7697
X7.4508Y-6.128
X7.5098Y-6.2264
X7.5256Y-5.4626
X7.5453Y-5.6634
X7.5492Y-6.1949
X7.5807Y-6.1122
X7.6043Y-6.1909
X7.624Y-5.7421
X7.6398Y-5.9783
X7.6909Y-5.9823
X7.7382Y-5.9902
X7.75Y-5.7028
X7.7933Y-5.8957
X7.7972Y-5.6909
X7.8484Y-5.6673
X7.8642Y-5.7539
X7.8878Y-5.6988
X7.8878Y-5.9075
X7.9075Y-5.9587
X7.9232Y-5.7657
X7.9232Y-6.1988
X7.9469Y-6.1161
X7.9783Y-6.2303
X7.9823Y-5.9114
X8.002Y-6.1083
X8.0098Y-6.1949
X8.0138Y-5.9744
X8.0177Y-5.6909
X8.0846Y-6.1161
X8.0886Y-5.8996
X8.1004Y-5.6752
X8.124Y-6.2303
X8.1398Y-5.8917
X8.1476Y-5.6673
X8.1831Y-6.1122
X8.1949Y-5.6752
X8.1988Y-5.9114
X8.2421Y-5.687
X8.2461Y-6.1161
X8.3091Y-5.9862
X8.313Y-6.1161
X8.3287Y-5.7224
X8.3406Y-5.9075
X8.3681Y-6.1791
X8.3839Y-6.1122
X8.4114Y-5.7264
X8.4114Y-5.8957
X8.439Y-6.1122
X8.4469Y-5.9744
X8.4547Y-5.6634
X8.502Y-5.6673
X8.5256Y-6.1319
X8.5492Y-5.6713
X8.5571Y-6.25
X8.6004Y-5.6713
X8.6083Y-6.1831
X8.6201Y-6.1043
X8.6476Y-5.6713
X8.6555Y-5.9783
X8.7028Y-5.6713
X8.7067Y-6.2106
X8.7933Y-6.1634
X8.8012Y-5.9272
X8.813Y-6.0453
X8.8799Y-6.3209
X8.935Y-5.7657
X8.9823Y-5.9941
X9.002Y-6.0689
X9.0177Y-5.6083
X9.0374Y-5.4823
X9.0453Y-5.561
X9.0728Y-5.8996
X9.0768Y-5.5256
T2
X6.0217Y-6.2421
X9.0177Y-6.2461
T0
M30
