G04 (created by PCBNEW (2013-may-18)-stable) date Sat Feb 17 15:52:48 2018*
%MOIN*%
G04 Gerber Fmt 3.4, Leading zero omitted, Abs format*
%FSLAX34Y34*%
G01*
G70*
G90*
G04 APERTURE LIST*
%ADD10C,0.00590551*%
%ADD11R,0.06X0.016*%
%ADD12R,0.016X0.06*%
%ADD13R,0.0177X0.0787*%
%ADD14R,0.0787X0.0177*%
%ADD15C,0.055*%
%ADD16R,0.0708661X0.0433071*%
%ADD17R,0.0433071X0.0708661*%
%ADD18R,0.06X0.08*%
%ADD19R,0.08X0.06*%
%ADD20R,0.055X0.055*%
%ADD21R,0.166929X0.05*%
%ADD22R,0.0708661X0.188976*%
%ADD23C,0.0591*%
%ADD24C,0.1181*%
%ADD25C,0.035*%
%ADD26C,0.01*%
G04 APERTURE END LIST*
G54D10*
G54D11*
X104868Y-58562D03*
X104868Y-58877D03*
X104868Y-59192D03*
X104868Y-59507D03*
X104868Y-59822D03*
X104868Y-60137D03*
X104868Y-58247D03*
X104868Y-57932D03*
X104868Y-57617D03*
X104868Y-57302D03*
X104868Y-56987D03*
X100368Y-58562D03*
X100368Y-58877D03*
X100368Y-59192D03*
X100368Y-59507D03*
X100368Y-59822D03*
X100368Y-60137D03*
X100368Y-58247D03*
X100368Y-57932D03*
X100368Y-57617D03*
X100368Y-57302D03*
X100368Y-56987D03*
G54D12*
X102618Y-60812D03*
X102618Y-56312D03*
X102303Y-60812D03*
X102303Y-56312D03*
X101988Y-56312D03*
X101988Y-60812D03*
X101673Y-60812D03*
X101673Y-56312D03*
X101358Y-56312D03*
X101358Y-60812D03*
X101043Y-60812D03*
X101043Y-56312D03*
X102933Y-56312D03*
X102933Y-60812D03*
X103248Y-60812D03*
X103248Y-56312D03*
X103563Y-56312D03*
X103563Y-60812D03*
X103878Y-60812D03*
X103878Y-56312D03*
X104193Y-56312D03*
X104193Y-60812D03*
X84192Y-48281D03*
X84507Y-48281D03*
X84822Y-48281D03*
X85137Y-48281D03*
X85452Y-48281D03*
X85767Y-48281D03*
X83877Y-48281D03*
X83562Y-48281D03*
X83247Y-48281D03*
X82932Y-48281D03*
X82617Y-48281D03*
X84192Y-52781D03*
X84507Y-52781D03*
X84822Y-52781D03*
X85137Y-52781D03*
X85452Y-52781D03*
X85767Y-52781D03*
X83877Y-52781D03*
X83562Y-52781D03*
X83247Y-52781D03*
X82932Y-52781D03*
X82617Y-52781D03*
G54D11*
X86442Y-50531D03*
X81942Y-50531D03*
X86442Y-50846D03*
X81942Y-50846D03*
X81942Y-51161D03*
X86442Y-51161D03*
X86442Y-51476D03*
X81942Y-51476D03*
X81942Y-51791D03*
X86442Y-51791D03*
X86442Y-52106D03*
X81942Y-52106D03*
X81942Y-50216D03*
X86442Y-50216D03*
X86442Y-49901D03*
X81942Y-49901D03*
X81942Y-49586D03*
X86442Y-49586D03*
X86442Y-49271D03*
X81942Y-49271D03*
X81942Y-48956D03*
X86442Y-48956D03*
G54D13*
X92706Y-55065D03*
X93021Y-55065D03*
X93336Y-55065D03*
X93651Y-55065D03*
X93966Y-55065D03*
X94281Y-55065D03*
X94596Y-55065D03*
X94911Y-55065D03*
X94909Y-51299D03*
X92699Y-51299D03*
X93019Y-51299D03*
X93339Y-51299D03*
X93649Y-51299D03*
X93969Y-51299D03*
X94279Y-51299D03*
X94599Y-51299D03*
G54D14*
X95699Y-54281D03*
X95699Y-53967D03*
X95699Y-53651D03*
X95699Y-53337D03*
X95699Y-53021D03*
X95699Y-52707D03*
X95699Y-52391D03*
X95699Y-52077D03*
X91919Y-54279D03*
X91919Y-53969D03*
X91919Y-53649D03*
X91919Y-53339D03*
X91919Y-53029D03*
X91919Y-52709D03*
X91919Y-52389D03*
X91919Y-52069D03*
G54D15*
X106476Y-62685D03*
X106476Y-61685D03*
G54D16*
X96201Y-60031D03*
X98641Y-60031D03*
X96201Y-58591D03*
X98641Y-58591D03*
G54D17*
X87606Y-50177D03*
X87606Y-52617D03*
X89046Y-50177D03*
X89046Y-52617D03*
G54D18*
X98543Y-48877D03*
X97243Y-48877D03*
X99724Y-49940D03*
X101024Y-49940D03*
X104055Y-51318D03*
X102755Y-51318D03*
G54D19*
X107972Y-47637D03*
X107972Y-48937D03*
X102263Y-47637D03*
X102263Y-48937D03*
X103641Y-47637D03*
X103641Y-48937D03*
X106476Y-47637D03*
X106476Y-48937D03*
X105019Y-48937D03*
X105019Y-47637D03*
G54D20*
X108314Y-59346D03*
G54D15*
X107314Y-59346D03*
X108314Y-58346D03*
X107314Y-58346D03*
X108314Y-55346D03*
X107314Y-55346D03*
X108314Y-54346D03*
X107314Y-54346D03*
X108314Y-53346D03*
X107314Y-53346D03*
X108314Y-52346D03*
X108314Y-51346D03*
X107314Y-51346D03*
G54D21*
X90668Y-50114D03*
X93228Y-50114D03*
X90668Y-49114D03*
X93228Y-49114D03*
X90668Y-48114D03*
X93228Y-48114D03*
X102519Y-54877D03*
X105079Y-54877D03*
X102519Y-53877D03*
X105079Y-53877D03*
X102519Y-52877D03*
X105079Y-52877D03*
G54D20*
X91870Y-56086D03*
G54D15*
X91870Y-57086D03*
X91870Y-58086D03*
X91870Y-59086D03*
X91870Y-60086D03*
X91870Y-61086D03*
X91870Y-62086D03*
X91870Y-63086D03*
G54D20*
X72200Y-51909D03*
G54D15*
X73200Y-51909D03*
X74200Y-51909D03*
X75200Y-51909D03*
G54D22*
X97598Y-54668D03*
X97598Y-51748D03*
G54D23*
X94997Y-61751D03*
X95997Y-61751D03*
X96797Y-61751D03*
X97797Y-61751D03*
G54D24*
X93797Y-62801D03*
X99197Y-62801D03*
X100177Y-51437D03*
G54D18*
X74882Y-52913D03*
X73582Y-52913D03*
G54D19*
X76181Y-51968D03*
X76181Y-53268D03*
X93720Y-57322D03*
X93720Y-58622D03*
X92637Y-57302D03*
X92637Y-58602D03*
G54D18*
X98543Y-47716D03*
X97243Y-47716D03*
X78188Y-53464D03*
X79488Y-53464D03*
X78188Y-52440D03*
X79488Y-52440D03*
X96831Y-49822D03*
X95531Y-49822D03*
X96850Y-50846D03*
X95550Y-50846D03*
G54D19*
X96377Y-48248D03*
X96377Y-46948D03*
X95275Y-48464D03*
X95275Y-47164D03*
G54D20*
X72266Y-50769D03*
G54D15*
X73266Y-50769D03*
X74266Y-50769D03*
X75266Y-50769D03*
X76266Y-50769D03*
X77266Y-50769D03*
X78266Y-50769D03*
X79266Y-50769D03*
X80266Y-50769D03*
X79256Y-49767D03*
X79266Y-48857D03*
X79256Y-47917D03*
X72266Y-49775D03*
X73226Y-49775D03*
X74236Y-49775D03*
X75266Y-49775D03*
X76256Y-49787D03*
X77256Y-49775D03*
X78246Y-49775D03*
G54D25*
X92637Y-59212D03*
X93956Y-59291D03*
X88582Y-49940D03*
X88681Y-49468D03*
X103248Y-60137D03*
X102303Y-52303D03*
X102736Y-52263D03*
X103523Y-61476D03*
X93622Y-47559D03*
X74271Y-48011D03*
X74547Y-47598D03*
X83661Y-47598D03*
X80590Y-47795D03*
X80137Y-48090D03*
X84192Y-47303D03*
X82185Y-52814D03*
X81751Y-52755D03*
X85019Y-49862D03*
X81181Y-50334D03*
X82145Y-45905D03*
X74271Y-46003D03*
X77047Y-47736D03*
X74133Y-48425D03*
X96220Y-57204D03*
X97992Y-56614D03*
X91751Y-54940D03*
X92244Y-47637D03*
X95925Y-60728D03*
X96614Y-48976D03*
X81082Y-48326D03*
X101712Y-50295D03*
X105925Y-60846D03*
X105492Y-56791D03*
X103799Y-52775D03*
X103405Y-59429D03*
X93326Y-59704D03*
X95531Y-58799D03*
X103484Y-50807D03*
X105925Y-49507D03*
X106437Y-48366D03*
X99153Y-52775D03*
X99389Y-48759D03*
X95059Y-57185D03*
X95964Y-55019D03*
X87657Y-53287D03*
X94429Y-48681D03*
X85846Y-49271D03*
X83917Y-49114D03*
X98248Y-51318D03*
X106122Y-55728D03*
X103562Y-55688D03*
X103248Y-56948D03*
X103444Y-58326D03*
X106358Y-55255D03*
X103877Y-55255D03*
X103208Y-55452D03*
X102185Y-55452D03*
X106161Y-58248D03*
X105767Y-57578D03*
X102106Y-56948D03*
X102696Y-55492D03*
X101988Y-59822D03*
X101338Y-55098D03*
X85807Y-52066D03*
X99665Y-61397D03*
X101397Y-60216D03*
X101791Y-53366D03*
X90964Y-50688D03*
X90295Y-50688D03*
X85374Y-51555D03*
X94527Y-57913D03*
X94311Y-50374D03*
X88917Y-53287D03*
X93956Y-50649D03*
X99822Y-60059D03*
X101003Y-53641D03*
X100925Y-59822D03*
X91948Y-48976D03*
X92204Y-51377D03*
X89704Y-52303D03*
X86948Y-52539D03*
X97342Y-60807D03*
X101200Y-54665D03*
X101830Y-60216D03*
X101437Y-61476D03*
X85649Y-51240D03*
X98799Y-46850D03*
X105177Y-51003D03*
X100846Y-48405D03*
X104192Y-48208D03*
X102303Y-48366D03*
X99370Y-48090D03*
X105610Y-50688D03*
X101515Y-48444D03*
X99862Y-48759D03*
X92775Y-52381D03*
X78818Y-52460D03*
X78818Y-53405D03*
X76318Y-48858D03*
X101141Y-47618D03*
X95767Y-49074D03*
X102185Y-51555D03*
X106909Y-48326D03*
X98051Y-49586D03*
X102972Y-48248D03*
X97893Y-48877D03*
X102185Y-51122D03*
X99114Y-50413D03*
X96417Y-53444D03*
X96889Y-51633D03*
X94389Y-49881D03*
X99586Y-56594D03*
X96555Y-55334D03*
X99783Y-59389D03*
X99665Y-57303D03*
X102381Y-62381D03*
X94783Y-56633D03*
X93877Y-56614D03*
X92145Y-50098D03*
X92106Y-49389D03*
X88051Y-49035D03*
X86988Y-50846D03*
X85767Y-47578D03*
X81948Y-48326D03*
X99271Y-53405D03*
X101318Y-52500D03*
X97342Y-55925D03*
X96082Y-55964D03*
X93956Y-55846D03*
X98248Y-51751D03*
X94862Y-52322D03*
X107696Y-55885D03*
X83720Y-49862D03*
X83917Y-51358D03*
X86279Y-52854D03*
X105295Y-49547D03*
X102696Y-61555D03*
X99271Y-59271D03*
X103444Y-57775D03*
X82696Y-49468D03*
X90688Y-52381D03*
X93602Y-53818D03*
X93602Y-54370D03*
X90393Y-52066D03*
X95866Y-47657D03*
X94586Y-56003D03*
X96279Y-51574D03*
X96555Y-51889D03*
X95177Y-55885D03*
X99507Y-58799D03*
X106712Y-53877D03*
X106791Y-52893D03*
X86909Y-48366D03*
X87578Y-48720D03*
X84271Y-53326D03*
X83917Y-52066D03*
X83838Y-50492D03*
X94862Y-53956D03*
G54D26*
X92637Y-58602D02*
X92637Y-59212D01*
X93720Y-59055D02*
X93720Y-58622D01*
X93956Y-59291D02*
X93720Y-59055D01*
X88582Y-49940D02*
X88582Y-49803D01*
X87027Y-49901D02*
X87342Y-49586D01*
X87342Y-49586D02*
X88366Y-49586D01*
X87027Y-49901D02*
X86442Y-49901D01*
X88582Y-49803D02*
X88366Y-49586D01*
X88582Y-49940D02*
X88543Y-49901D01*
X88543Y-49330D02*
X88681Y-49468D01*
X88543Y-49330D02*
X88385Y-49330D01*
X86442Y-49586D02*
X86948Y-49586D01*
X86948Y-49586D02*
X87184Y-49350D01*
X88366Y-49350D02*
X88385Y-49330D01*
X88385Y-49330D02*
X88405Y-49311D01*
X87184Y-49350D02*
X88366Y-49350D01*
X74451Y-53562D02*
X74173Y-53562D01*
X73996Y-52114D02*
X74200Y-51909D01*
X73996Y-53385D02*
X73996Y-52114D01*
X74173Y-53562D02*
X73996Y-53385D01*
X77096Y-53579D02*
X77561Y-53579D01*
X77736Y-52893D02*
X78188Y-52440D01*
X77736Y-53405D02*
X77736Y-52893D01*
X77561Y-53579D02*
X77736Y-53405D01*
X76492Y-53579D02*
X76181Y-53268D01*
X77096Y-53579D02*
X76492Y-53579D01*
X75531Y-53562D02*
X75886Y-53562D01*
X74451Y-53562D02*
X75531Y-53562D01*
X75886Y-53562D02*
X76181Y-53268D01*
X73582Y-52913D02*
X73582Y-53326D01*
X77912Y-53740D02*
X78188Y-53464D01*
X73996Y-53740D02*
X77912Y-53740D01*
X73582Y-53326D02*
X73996Y-53740D01*
X73200Y-51909D02*
X73200Y-52531D01*
X73200Y-52531D02*
X73582Y-52913D01*
X96850Y-50846D02*
X96948Y-50846D01*
X97130Y-50664D02*
X98459Y-50664D01*
X96948Y-50846D02*
X97130Y-50664D01*
X100531Y-52342D02*
X100925Y-52342D01*
X98459Y-50664D02*
X99232Y-51437D01*
X99232Y-51437D02*
X99232Y-51830D01*
X99232Y-51830D02*
X99744Y-52342D01*
X99744Y-52342D02*
X100531Y-52342D01*
X103248Y-60137D02*
X103248Y-60812D01*
X103248Y-60137D02*
X103248Y-60137D01*
X102145Y-52145D02*
X102303Y-52303D01*
X101122Y-52145D02*
X102145Y-52145D01*
X100925Y-52342D02*
X101122Y-52145D01*
X98572Y-50501D02*
X97431Y-50501D01*
X96831Y-49901D02*
X96831Y-49822D01*
X97431Y-50501D02*
X96831Y-49901D01*
X98572Y-50501D02*
X99429Y-51358D01*
X99429Y-51358D02*
X99429Y-51751D01*
X99429Y-51751D02*
X99822Y-52145D01*
X100846Y-52145D02*
X101082Y-51909D01*
X101082Y-51909D02*
X102030Y-51909D01*
X102030Y-51909D02*
X102263Y-51909D01*
X102263Y-51909D02*
X102342Y-51909D01*
X102342Y-51909D02*
X102421Y-51909D01*
X102421Y-51909D02*
X102578Y-51909D01*
X102578Y-51909D02*
X102736Y-52066D01*
X102736Y-52066D02*
X102736Y-52263D01*
X103523Y-61476D02*
X103563Y-61436D01*
X103563Y-60812D02*
X103563Y-61436D01*
X99822Y-52145D02*
X100452Y-52145D01*
X100452Y-52145D02*
X100846Y-52145D01*
X95275Y-47164D02*
X94976Y-47164D01*
X94744Y-46931D02*
X94744Y-46948D01*
X94744Y-46932D02*
X94744Y-46931D01*
X94976Y-47164D02*
X94744Y-46932D01*
X94625Y-47598D02*
X94842Y-47598D01*
X93622Y-47559D02*
X93661Y-47598D01*
X93661Y-47598D02*
X94625Y-47598D01*
X94842Y-47598D02*
X95275Y-47164D01*
X95059Y-46948D02*
X95275Y-47164D01*
X94744Y-46948D02*
X94744Y-46948D01*
X94744Y-46948D02*
X85255Y-46948D01*
X85255Y-46948D02*
X85255Y-46948D01*
X85255Y-46948D02*
X83996Y-46948D01*
X83996Y-46948D02*
X83666Y-47277D01*
X83666Y-47277D02*
X75281Y-47277D01*
X75281Y-47277D02*
X74547Y-48011D01*
X74547Y-48011D02*
X74271Y-48011D01*
X94665Y-46771D02*
X94803Y-46771D01*
X96003Y-46751D02*
X95964Y-46712D01*
X94822Y-46751D02*
X96003Y-46751D01*
X94803Y-46771D02*
X94822Y-46751D01*
X96377Y-46948D02*
X96200Y-46948D01*
X96200Y-46948D02*
X95964Y-46712D01*
X74724Y-47598D02*
X74547Y-47598D01*
X75216Y-47106D02*
X74724Y-47598D01*
X83582Y-47106D02*
X75216Y-47106D01*
X83917Y-46771D02*
X83582Y-47106D01*
X94665Y-46771D02*
X83917Y-46771D01*
X96377Y-46948D02*
X96475Y-46948D01*
X96475Y-46948D02*
X97243Y-47716D01*
X80354Y-48543D02*
X80354Y-48464D01*
X81200Y-47618D02*
X81338Y-47618D01*
X80354Y-48464D02*
X81200Y-47618D01*
X81909Y-47618D02*
X81338Y-47618D01*
X83247Y-48281D02*
X83228Y-48261D01*
X81929Y-47618D02*
X81909Y-47618D01*
X82992Y-47618D02*
X81929Y-47618D01*
X83228Y-47854D02*
X82992Y-47618D01*
X83228Y-48261D02*
X83228Y-47854D01*
X81338Y-47618D02*
X81279Y-47618D01*
X80354Y-48543D02*
X80354Y-49251D01*
X72266Y-49775D02*
X72687Y-50196D01*
X72687Y-50196D02*
X80354Y-50196D01*
X80354Y-50196D02*
X80354Y-49251D01*
X78444Y-48169D02*
X79175Y-47438D01*
X79175Y-47438D02*
X81833Y-47438D01*
X75157Y-48287D02*
X75275Y-48169D01*
X78444Y-48169D02*
X78425Y-48169D01*
X75275Y-48169D02*
X78444Y-48169D01*
X73226Y-49775D02*
X73669Y-49775D01*
X73669Y-49775D02*
X75157Y-48287D01*
X82893Y-47438D02*
X83048Y-47438D01*
X82893Y-47438D02*
X81833Y-47438D01*
X83464Y-48183D02*
X83464Y-47863D01*
X83464Y-47863D02*
X83464Y-47854D01*
X83464Y-47854D02*
X83144Y-47534D01*
X83562Y-48281D02*
X83464Y-48183D01*
X83048Y-47438D02*
X83048Y-47447D01*
X83048Y-47447D02*
X83144Y-47544D01*
X83144Y-47544D02*
X83144Y-47534D01*
X81833Y-47438D02*
X81887Y-47438D01*
X81887Y-47438D02*
X81889Y-47440D01*
X75549Y-48462D02*
X75572Y-48462D01*
X75688Y-48346D02*
X79409Y-48346D01*
X75572Y-48462D02*
X75688Y-48346D01*
X80590Y-47795D02*
X79960Y-47795D01*
X79960Y-47795D02*
X79862Y-47893D01*
X83759Y-48163D02*
X83759Y-47922D01*
X83759Y-47922D02*
X83759Y-47913D01*
X83759Y-47913D02*
X83759Y-47696D01*
X83759Y-47696D02*
X83661Y-47598D01*
X83877Y-48281D02*
X83759Y-48163D01*
X79409Y-48346D02*
X79862Y-47893D01*
X75549Y-48462D02*
X74236Y-49775D01*
X75620Y-48651D02*
X75622Y-48651D01*
X78720Y-48523D02*
X78877Y-48681D01*
X75750Y-48523D02*
X78720Y-48523D01*
X75622Y-48651D02*
X75750Y-48523D01*
X78877Y-49035D02*
X79074Y-49232D01*
X79733Y-48672D02*
X80137Y-48090D01*
X75266Y-49005D02*
X75620Y-48651D01*
X78877Y-48681D02*
X78877Y-48937D01*
X75266Y-49005D02*
X75266Y-49775D01*
X78877Y-48937D02*
X78877Y-49035D01*
X79733Y-48947D02*
X79733Y-48672D01*
X79409Y-49271D02*
X79733Y-48947D01*
X79114Y-49271D02*
X79409Y-49271D01*
X79074Y-49232D02*
X79114Y-49271D01*
X84192Y-48281D02*
X84192Y-47303D01*
X80266Y-50769D02*
X81134Y-49901D01*
X81134Y-49901D02*
X81942Y-49901D01*
X82480Y-53188D02*
X82421Y-53188D01*
X83582Y-52801D02*
X83582Y-53287D01*
X83582Y-53287D02*
X82480Y-53287D01*
X83562Y-52781D02*
X83582Y-52801D01*
X82480Y-53287D02*
X82480Y-53188D01*
X82185Y-52952D02*
X82185Y-52814D01*
X82421Y-53188D02*
X82185Y-52952D01*
X82421Y-53464D02*
X82362Y-53464D01*
X83897Y-52801D02*
X83897Y-53464D01*
X83897Y-53464D02*
X82421Y-53464D01*
X83877Y-52781D02*
X83897Y-52801D01*
X81751Y-52854D02*
X81751Y-52755D01*
X82362Y-53464D02*
X81751Y-52854D01*
X76771Y-51316D02*
X76988Y-51532D01*
X81886Y-51532D02*
X81942Y-51476D01*
X76988Y-51532D02*
X81886Y-51532D01*
X74812Y-51316D02*
X74266Y-50769D01*
X76771Y-51316D02*
X74812Y-51316D01*
X75626Y-50409D02*
X75662Y-50374D01*
X80435Y-50374D02*
X80534Y-50275D01*
X75662Y-50374D02*
X80435Y-50374D01*
X75266Y-50769D02*
X75626Y-50409D01*
X81942Y-49586D02*
X81942Y-49586D01*
X80534Y-50275D02*
X80534Y-50253D01*
X80534Y-50253D02*
X81200Y-49586D01*
X81200Y-49586D02*
X81942Y-49586D01*
X81942Y-50846D02*
X81903Y-50885D01*
X76579Y-51082D02*
X76266Y-50769D01*
X76791Y-51082D02*
X76579Y-51082D01*
X77047Y-51338D02*
X76791Y-51082D01*
X77066Y-51338D02*
X77047Y-51338D01*
X81338Y-51338D02*
X77066Y-51338D01*
X81338Y-51200D02*
X81338Y-51338D01*
X81555Y-50984D02*
X81338Y-51200D01*
X81555Y-50885D02*
X81555Y-50984D01*
X81653Y-50885D02*
X81555Y-50885D01*
X81903Y-50885D02*
X81653Y-50885D01*
X85964Y-48956D02*
X85492Y-48956D01*
X85019Y-49429D02*
X85019Y-49862D01*
X85492Y-48956D02*
X85019Y-49429D01*
X85964Y-48956D02*
X86442Y-48956D01*
X81942Y-50531D02*
X81923Y-50551D01*
X78655Y-51158D02*
X78266Y-50769D01*
X78934Y-51158D02*
X78655Y-51158D01*
X80866Y-51158D02*
X78934Y-51158D01*
X80866Y-51122D02*
X80866Y-51158D01*
X80866Y-50944D02*
X80866Y-51122D01*
X80866Y-50846D02*
X80866Y-50944D01*
X81141Y-50846D02*
X80866Y-50846D01*
X81358Y-50846D02*
X81141Y-50846D01*
X81397Y-50846D02*
X81358Y-50846D01*
X81397Y-50826D02*
X81397Y-50846D01*
X81397Y-50784D02*
X81397Y-50826D01*
X81397Y-50649D02*
X81397Y-50784D01*
X81397Y-50570D02*
X81397Y-50649D01*
X81496Y-50570D02*
X81397Y-50570D01*
X81496Y-50551D02*
X81496Y-50570D01*
X81923Y-50551D02*
X81496Y-50551D01*
X81923Y-50196D02*
X81942Y-50216D01*
X81456Y-50196D02*
X81923Y-50196D01*
X81318Y-50334D02*
X81456Y-50196D01*
X81181Y-50334D02*
X81318Y-50334D01*
X81200Y-46850D02*
X82145Y-45905D01*
X75118Y-46850D02*
X81200Y-46850D01*
X74271Y-46003D02*
X75118Y-46850D01*
X76889Y-47893D02*
X77047Y-47736D01*
X75255Y-47893D02*
X76889Y-47893D01*
X74724Y-48425D02*
X75255Y-47893D01*
X74133Y-48425D02*
X74724Y-48425D01*
X95164Y-52488D02*
X95164Y-51978D01*
X93562Y-52066D02*
X93562Y-52362D01*
X93658Y-51971D02*
X93562Y-52066D01*
X95157Y-51971D02*
X93658Y-51971D01*
X95164Y-51978D02*
X95157Y-51971D01*
X77578Y-51889D02*
X76259Y-51889D01*
X76259Y-51889D02*
X76181Y-51968D01*
X95059Y-57185D02*
X96200Y-57185D01*
X96200Y-57185D02*
X96220Y-57204D01*
X97795Y-56811D02*
X97795Y-56870D01*
X97765Y-56840D02*
X97795Y-56811D01*
X97992Y-56614D02*
X97765Y-56840D01*
X99389Y-48759D02*
X99389Y-48562D01*
X99389Y-48562D02*
X98543Y-47716D01*
X101043Y-56312D02*
X100379Y-56312D01*
X97893Y-56968D02*
X97795Y-56870D01*
X97972Y-56968D02*
X97893Y-56968D01*
X99724Y-56968D02*
X97972Y-56968D01*
X100379Y-56312D02*
X99724Y-56968D01*
X97657Y-54727D02*
X97598Y-54668D01*
X97657Y-56732D02*
X97657Y-54727D01*
X97795Y-56870D02*
X97657Y-56732D01*
X93720Y-57322D02*
X94921Y-57322D01*
X94921Y-57322D02*
X95059Y-57185D01*
X92637Y-57302D02*
X93700Y-57302D01*
X93700Y-57302D02*
X93720Y-57322D01*
X92706Y-55065D02*
X91876Y-55065D01*
X91876Y-55065D02*
X91751Y-54940D01*
X92706Y-55065D02*
X93021Y-55065D01*
X92720Y-48114D02*
X93228Y-48114D01*
X92244Y-47637D02*
X92720Y-48114D01*
X93336Y-55065D02*
X93336Y-55639D01*
X93336Y-55639D02*
X94114Y-56417D01*
X94114Y-56417D02*
X94153Y-56417D01*
X94153Y-56417D02*
X94114Y-56417D01*
X95059Y-57185D02*
X94921Y-57185D01*
X94921Y-57185D02*
X94153Y-56417D01*
X94153Y-56417D02*
X94094Y-56417D01*
X95925Y-60728D02*
X94997Y-61734D01*
X94997Y-61734D02*
X94997Y-61751D01*
X96712Y-48877D02*
X97243Y-48877D01*
X96614Y-48976D02*
X96712Y-48877D01*
X82381Y-47834D02*
X81574Y-47834D01*
X81574Y-47834D02*
X81082Y-48326D01*
X82932Y-48281D02*
X82933Y-48281D01*
X82933Y-47834D02*
X82381Y-47834D01*
X82381Y-47834D02*
X82342Y-47834D01*
X82933Y-47893D02*
X82933Y-47834D01*
X82933Y-48281D02*
X82933Y-47893D01*
X81397Y-52106D02*
X81942Y-52106D01*
X81181Y-51889D02*
X81397Y-52106D01*
X77578Y-51889D02*
X81181Y-51889D01*
X75200Y-51909D02*
X76122Y-51909D01*
X76122Y-51909D02*
X76181Y-51968D01*
X74882Y-52913D02*
X74882Y-52227D01*
X74882Y-52227D02*
X75200Y-51909D01*
X101358Y-49940D02*
X101024Y-49940D01*
X101712Y-50295D02*
X101358Y-49940D01*
X107314Y-55346D02*
X107314Y-54346D01*
X104868Y-59822D02*
X105767Y-59822D01*
X104868Y-57302D02*
X105295Y-57302D01*
X105492Y-57106D02*
X105492Y-56791D01*
X105295Y-57302D02*
X105492Y-57106D01*
X103901Y-52877D02*
X105079Y-52877D01*
X103799Y-52775D02*
X103901Y-52877D01*
X103405Y-59429D02*
X103405Y-59822D01*
X103405Y-59822D02*
X103405Y-59862D01*
X103405Y-59862D02*
X103405Y-59822D01*
X98641Y-60031D02*
X97117Y-60031D01*
X96003Y-59271D02*
X95531Y-58799D01*
X96358Y-59271D02*
X96003Y-59271D01*
X97117Y-60031D02*
X96358Y-59271D01*
X101043Y-56312D02*
X101043Y-56751D01*
X101437Y-57145D02*
X101437Y-59192D01*
X101043Y-56751D02*
X101437Y-57145D01*
X104055Y-51318D02*
X105098Y-51318D01*
X105079Y-51338D02*
X105079Y-52877D01*
X105098Y-51318D02*
X105079Y-51338D01*
X102815Y-59192D02*
X101437Y-59192D01*
X101437Y-59192D02*
X100885Y-59192D01*
X101037Y-56318D02*
X101043Y-56312D01*
X94625Y-59704D02*
X93326Y-59704D01*
X95531Y-58799D02*
X94625Y-59704D01*
X106476Y-48937D02*
X107972Y-48937D01*
X104055Y-51318D02*
X103996Y-51318D01*
X103996Y-51318D02*
X103484Y-50807D01*
X106476Y-48956D02*
X106476Y-48937D01*
X105925Y-49507D02*
X106476Y-48956D01*
X106476Y-48405D02*
X106476Y-48937D01*
X106437Y-48366D02*
X106476Y-48405D01*
X99153Y-52775D02*
X99153Y-53113D01*
X99153Y-53113D02*
X97598Y-54668D01*
X95964Y-55019D02*
X97247Y-55019D01*
X97247Y-55019D02*
X97598Y-54668D01*
X99389Y-48759D02*
X99389Y-48877D01*
X99389Y-48877D02*
X99744Y-49232D01*
X99744Y-49232D02*
X100315Y-49232D01*
X100315Y-49232D02*
X101024Y-49940D01*
X99153Y-52775D02*
X99153Y-52224D01*
X95413Y-54822D02*
X94940Y-54350D01*
X96003Y-54822D02*
X95413Y-54822D01*
X95964Y-55019D02*
X96003Y-54822D01*
X95699Y-52707D02*
X95305Y-52707D01*
X93838Y-53169D02*
X94468Y-53799D01*
X93602Y-53169D02*
X93838Y-53169D01*
X93562Y-53208D02*
X93602Y-53169D01*
X93562Y-52362D02*
X93562Y-53208D01*
X95305Y-52707D02*
X95164Y-52488D01*
X94468Y-53799D02*
X94468Y-54350D01*
X95324Y-53967D02*
X95699Y-53967D01*
X94901Y-54389D02*
X94940Y-54350D01*
X94940Y-54350D02*
X95324Y-53967D01*
X94507Y-54389D02*
X94901Y-54389D01*
X94468Y-54350D02*
X94507Y-54389D01*
X87606Y-53236D02*
X87657Y-53287D01*
X87606Y-52617D02*
X87606Y-53236D01*
X95699Y-52707D02*
X95699Y-53021D01*
X93228Y-48114D02*
X94295Y-48114D01*
X94295Y-48114D02*
X94429Y-48248D01*
X94429Y-48248D02*
X94429Y-48681D01*
X93021Y-55065D02*
X93336Y-55065D01*
X84822Y-52781D02*
X84822Y-53366D01*
X86779Y-53444D02*
X87606Y-52617D01*
X84901Y-53444D02*
X86779Y-53444D01*
X84822Y-53366D02*
X84901Y-53444D01*
X85610Y-50216D02*
X85610Y-49507D01*
X85610Y-49507D02*
X85846Y-49271D01*
X83602Y-51358D02*
X83602Y-51712D01*
X84114Y-51712D02*
X84192Y-51791D01*
X83602Y-51712D02*
X84114Y-51712D01*
X84822Y-52781D02*
X84822Y-52421D01*
X84822Y-52421D02*
X84586Y-52185D01*
X84192Y-51791D02*
X84586Y-52185D01*
X82932Y-51358D02*
X83602Y-51358D01*
X83917Y-49114D02*
X83917Y-49192D01*
X84744Y-50216D02*
X85610Y-50216D01*
X85610Y-50216D02*
X86442Y-50216D01*
X84625Y-50098D02*
X84744Y-50216D01*
X84625Y-49901D02*
X84625Y-50098D01*
X83917Y-49192D02*
X84625Y-49901D01*
X83996Y-49035D02*
X83996Y-48759D01*
X83917Y-49114D02*
X83996Y-49035D01*
X82932Y-48996D02*
X83011Y-48996D01*
X83169Y-50216D02*
X82932Y-50452D01*
X83169Y-49153D02*
X83169Y-50216D01*
X83011Y-48996D02*
X83169Y-49153D01*
X82932Y-48759D02*
X83996Y-48759D01*
X83996Y-48759D02*
X85452Y-48759D01*
X85452Y-48759D02*
X85452Y-48281D01*
X85452Y-48759D02*
X85452Y-48759D01*
X81942Y-52106D02*
X82499Y-52106D01*
X82499Y-52106D02*
X82932Y-51673D01*
X82932Y-51673D02*
X82932Y-51358D01*
X82932Y-51358D02*
X82932Y-50452D01*
X82932Y-48996D02*
X82932Y-48759D01*
X82932Y-48759D02*
X82932Y-48281D01*
X104389Y-59311D02*
X104350Y-59311D01*
X103838Y-59822D02*
X103405Y-59822D01*
X104350Y-59311D02*
X103838Y-59822D01*
X104868Y-57302D02*
X104389Y-57302D01*
X104389Y-57303D02*
X104389Y-59311D01*
X104389Y-59311D02*
X104389Y-59822D01*
X104389Y-57302D02*
X104389Y-57303D01*
X104868Y-59822D02*
X104389Y-59822D01*
X103405Y-59822D02*
X102933Y-59822D01*
X102933Y-59822D02*
X102933Y-59822D01*
X102933Y-59822D02*
X102933Y-59822D01*
X102933Y-59822D02*
X102933Y-59822D01*
X102933Y-60812D02*
X102933Y-59822D01*
X102933Y-59822D02*
X102933Y-59311D01*
X102933Y-59311D02*
X102815Y-59192D01*
X100368Y-59192D02*
X100885Y-59192D01*
X99153Y-52224D02*
X98484Y-51555D01*
X98248Y-51318D02*
X98484Y-51555D01*
X105925Y-59980D02*
X105925Y-60846D01*
X105767Y-59822D02*
X105925Y-59980D01*
X103248Y-56312D02*
X103248Y-55925D01*
X107314Y-57078D02*
X107314Y-58346D01*
X106397Y-56161D02*
X107314Y-57078D01*
X106397Y-56003D02*
X106397Y-56161D01*
X106122Y-55728D02*
X106397Y-56003D01*
X103484Y-55688D02*
X103562Y-55688D01*
X103248Y-55925D02*
X103484Y-55688D01*
X102933Y-56633D02*
X102933Y-56312D01*
X103248Y-56948D02*
X102933Y-56633D01*
X103563Y-56312D02*
X103563Y-57106D01*
X103326Y-58326D02*
X103444Y-58326D01*
X103090Y-58090D02*
X103326Y-58326D01*
X103090Y-57578D02*
X103090Y-58090D01*
X103563Y-57106D02*
X103090Y-57578D01*
X103878Y-56312D02*
X103878Y-55295D01*
X106358Y-55255D02*
X106751Y-56082D01*
X103877Y-55294D02*
X103877Y-55255D01*
X103878Y-55295D02*
X103877Y-55294D01*
X107814Y-58846D02*
X108314Y-59346D01*
X106751Y-56082D02*
X107185Y-56082D01*
X107185Y-56082D02*
X107814Y-56712D01*
X107814Y-56712D02*
X107814Y-58846D01*
X102618Y-56312D02*
X102618Y-56082D01*
X103208Y-55492D02*
X103208Y-55452D01*
X102618Y-56082D02*
X103208Y-55492D01*
X101673Y-56312D02*
X101673Y-55767D01*
X101988Y-55452D02*
X102185Y-55452D01*
X101673Y-55767D02*
X101988Y-55452D01*
X101988Y-56312D02*
X101988Y-56830D01*
X106161Y-57972D02*
X106161Y-58248D01*
X105767Y-57578D02*
X106161Y-57972D01*
X101988Y-56830D02*
X102106Y-56948D01*
X102303Y-56312D02*
X102303Y-55885D01*
X102303Y-55885D02*
X102696Y-55492D01*
X98248Y-62263D02*
X94862Y-62263D01*
X93921Y-61086D02*
X94507Y-61673D01*
X94507Y-61673D02*
X94507Y-61909D01*
X98248Y-62263D02*
X99698Y-60812D01*
X99698Y-60812D02*
X99704Y-60812D01*
X91870Y-61086D02*
X93921Y-61086D01*
X99704Y-60374D02*
X100531Y-60374D01*
X100531Y-60374D02*
X100570Y-60413D01*
X100570Y-60413D02*
X101003Y-60413D01*
X99704Y-60812D02*
X99704Y-60374D01*
X94862Y-62263D02*
X94507Y-61909D01*
X101318Y-59862D02*
X101003Y-60177D01*
X101318Y-59862D02*
X101318Y-59704D01*
X101318Y-59704D02*
X101870Y-59704D01*
X101870Y-59704D02*
X101988Y-59822D01*
X101338Y-55098D02*
X102090Y-54877D01*
X102090Y-54877D02*
X102519Y-54877D01*
X101003Y-60177D02*
X101003Y-60413D01*
X101003Y-60773D02*
X101043Y-60812D01*
X101003Y-60413D02*
X101003Y-60773D01*
X90668Y-50413D02*
X90668Y-51102D01*
X90570Y-51240D02*
X90492Y-51240D01*
X90531Y-51240D02*
X90570Y-51240D01*
X90668Y-51102D02*
X90531Y-51240D01*
X86442Y-52106D02*
X86987Y-52106D01*
X86987Y-52106D02*
X87106Y-51988D01*
X87106Y-51988D02*
X87460Y-51988D01*
X87460Y-51988D02*
X88208Y-51240D01*
X88208Y-51240D02*
X90492Y-51240D01*
X90668Y-50413D02*
X90668Y-50114D01*
X85846Y-52027D02*
X85807Y-52066D01*
X85846Y-52027D02*
X86442Y-52106D01*
X99665Y-61397D02*
X100531Y-61397D01*
X101338Y-61141D02*
X101082Y-61397D01*
X100531Y-61397D02*
X101082Y-61397D01*
X101338Y-61141D02*
X101338Y-60832D01*
X101338Y-60832D02*
X101358Y-60812D01*
X101338Y-61141D02*
X101358Y-61122D01*
X101358Y-60256D02*
X101397Y-60216D01*
X101358Y-60812D02*
X101358Y-60256D01*
X101791Y-53366D02*
X101830Y-53405D01*
X101830Y-53405D02*
X104606Y-53405D01*
X104606Y-53405D02*
X105079Y-53877D01*
X91732Y-49763D02*
X92165Y-49763D01*
X92756Y-49586D02*
X93228Y-49114D01*
X92342Y-49586D02*
X92756Y-49586D01*
X92165Y-49763D02*
X92342Y-49586D01*
X91732Y-49763D02*
X91712Y-49783D01*
X91633Y-49862D02*
X91633Y-50807D01*
X91712Y-49783D02*
X91633Y-49862D01*
X86442Y-51791D02*
X86948Y-51791D01*
X91043Y-50610D02*
X91633Y-50807D01*
X90964Y-50688D02*
X91043Y-50610D01*
X90137Y-51003D02*
X90295Y-50688D01*
X88051Y-51003D02*
X90137Y-51003D01*
X87381Y-51673D02*
X88051Y-51003D01*
X87066Y-51673D02*
X87381Y-51673D01*
X86948Y-51791D02*
X87066Y-51673D01*
X86403Y-51751D02*
X86442Y-51791D01*
X85570Y-51751D02*
X86403Y-51751D01*
X85374Y-51555D02*
X85570Y-51751D01*
X91870Y-57086D02*
X91870Y-57519D01*
X94074Y-57913D02*
X94370Y-57618D01*
X92263Y-57913D02*
X94074Y-57913D01*
X91870Y-57519D02*
X92263Y-57913D01*
X99862Y-57618D02*
X100367Y-57618D01*
X100367Y-57618D02*
X100368Y-57617D01*
X100053Y-57618D02*
X100053Y-57617D01*
X94370Y-57618D02*
X99862Y-57618D01*
X99862Y-57618D02*
X100053Y-57618D01*
X93559Y-58086D02*
X94267Y-58086D01*
X94267Y-58086D02*
X94429Y-58247D01*
X91870Y-58086D02*
X93559Y-58086D01*
X99822Y-58247D02*
X100368Y-58247D01*
X94429Y-58247D02*
X99822Y-58247D01*
X99822Y-58247D02*
X100053Y-58247D01*
X99901Y-57932D02*
X95570Y-57932D01*
X95570Y-57932D02*
X95531Y-57893D01*
X95531Y-57893D02*
X94527Y-57913D01*
X99901Y-57932D02*
X100368Y-57932D01*
X100053Y-57932D02*
X99901Y-57932D01*
X94279Y-50405D02*
X94279Y-51299D01*
X94311Y-50374D02*
X94279Y-50405D01*
X91919Y-53969D02*
X91567Y-53969D01*
X91567Y-53969D02*
X91318Y-53720D01*
X91318Y-52741D02*
X91286Y-52709D01*
X91318Y-53720D02*
X91318Y-52741D01*
X91919Y-52709D02*
X91286Y-52709D01*
X91286Y-52709D02*
X91240Y-52709D01*
X91240Y-52709D02*
X89987Y-52709D01*
X89409Y-53287D02*
X88917Y-53287D01*
X89987Y-52709D02*
X89409Y-53287D01*
X93019Y-51299D02*
X93019Y-51626D01*
X93019Y-51626D02*
X92460Y-52185D01*
X92460Y-52185D02*
X92460Y-52657D01*
X92460Y-52657D02*
X92408Y-52709D01*
X92408Y-52709D02*
X91919Y-52709D01*
X91240Y-52709D02*
X91188Y-52709D01*
X91188Y-52709D02*
X91200Y-52721D01*
X93969Y-51299D02*
X93969Y-50662D01*
X93969Y-50662D02*
X93956Y-50649D01*
X98641Y-58591D02*
X98641Y-59153D01*
X98641Y-59153D02*
X99192Y-59704D01*
X101767Y-52877D02*
X102519Y-52877D01*
X101003Y-53641D02*
X101767Y-52877D01*
X99862Y-59822D02*
X99862Y-60019D01*
X99862Y-60019D02*
X99822Y-60059D01*
X99862Y-59822D02*
X100368Y-59822D01*
X99744Y-59704D02*
X99862Y-59822D01*
X99192Y-59704D02*
X99744Y-59704D01*
X100368Y-59822D02*
X100925Y-59822D01*
X100925Y-59822D02*
X100925Y-59822D01*
X90668Y-48114D02*
X91362Y-48114D01*
X91948Y-48700D02*
X91948Y-48976D01*
X91362Y-48114D02*
X91948Y-48700D01*
X89704Y-52303D02*
X89704Y-52263D01*
X91978Y-51377D02*
X92204Y-51377D01*
X91584Y-51771D02*
X91978Y-51377D01*
X90196Y-51771D02*
X91584Y-51771D01*
X89704Y-52263D02*
X90196Y-51771D01*
X89704Y-52617D02*
X89704Y-52303D01*
X89046Y-52617D02*
X89704Y-52617D01*
X85452Y-52781D02*
X85452Y-53248D01*
X86948Y-52657D02*
X86948Y-52539D01*
X86358Y-53248D02*
X86948Y-52657D01*
X85453Y-53248D02*
X86358Y-53248D01*
X85452Y-53248D02*
X85453Y-53248D01*
X97342Y-60807D02*
X96909Y-60374D01*
X96909Y-60374D02*
X93157Y-60374D01*
X93157Y-60374D02*
X91870Y-59086D01*
X101673Y-60812D02*
X101673Y-60374D01*
X101988Y-53877D02*
X102519Y-53877D01*
X101200Y-54665D02*
X101988Y-53877D01*
X101673Y-60374D02*
X101830Y-60216D01*
X101673Y-60812D02*
X101673Y-61279D01*
X101476Y-61476D02*
X101437Y-61476D01*
X101673Y-61279D02*
X101476Y-61476D01*
X86442Y-51476D02*
X87066Y-51476D01*
X90137Y-49114D02*
X90668Y-49114D01*
X89586Y-49665D02*
X90137Y-49114D01*
X89586Y-50728D02*
X89586Y-49665D01*
X89547Y-50767D02*
X89586Y-50728D01*
X87854Y-50767D02*
X89547Y-50767D01*
X87775Y-50846D02*
X87854Y-50767D01*
X87696Y-50846D02*
X87775Y-50846D01*
X87066Y-51476D02*
X87696Y-50846D01*
X86442Y-51476D02*
X85649Y-51476D01*
X85649Y-51476D02*
X85649Y-51476D01*
X85649Y-51476D02*
X85649Y-51476D01*
X85649Y-51476D02*
X85649Y-51240D01*
X100157Y-47618D02*
X99370Y-47618D01*
X99055Y-47106D02*
X98799Y-46850D01*
X99055Y-47303D02*
X99055Y-47106D01*
X99370Y-47618D02*
X99055Y-47303D01*
X103641Y-48937D02*
X103641Y-49429D01*
X105767Y-51003D02*
X105177Y-51003D01*
X105964Y-50807D02*
X105767Y-51003D01*
X105964Y-50570D02*
X105964Y-50807D01*
X105767Y-50374D02*
X105964Y-50570D01*
X105492Y-50374D02*
X105767Y-50374D01*
X105452Y-50413D02*
X105492Y-50374D01*
X104625Y-50413D02*
X105452Y-50413D01*
X103641Y-49429D02*
X104625Y-50413D01*
X100885Y-48366D02*
X100885Y-48090D01*
X100846Y-48405D02*
X100885Y-48366D01*
X103641Y-48937D02*
X103739Y-48937D01*
X104192Y-48484D02*
X104192Y-48208D01*
X103739Y-48937D02*
X104192Y-48484D01*
X103641Y-48937D02*
X103189Y-48937D01*
X102618Y-48366D02*
X102618Y-48090D01*
X103189Y-48937D02*
X102618Y-48366D01*
X102263Y-48326D02*
X102263Y-48090D01*
X102303Y-48366D02*
X102263Y-48326D01*
X100141Y-47618D02*
X100157Y-47618D01*
X100157Y-47618D02*
X100413Y-47618D01*
X100885Y-48090D02*
X102263Y-48090D01*
X102263Y-48090D02*
X102618Y-48090D01*
X100413Y-47618D02*
X100885Y-48090D01*
X99862Y-48582D02*
X99862Y-48759D01*
X99370Y-48090D02*
X99862Y-48582D01*
X99862Y-48759D02*
X100570Y-48759D01*
X100570Y-48759D02*
X100570Y-48740D01*
X100570Y-48740D02*
X100570Y-48759D01*
X102263Y-48937D02*
X102638Y-48937D01*
X104389Y-50688D02*
X105610Y-50688D01*
X102638Y-48937D02*
X104389Y-50688D01*
X101476Y-48484D02*
X101476Y-48937D01*
X101515Y-48444D02*
X101476Y-48484D01*
X100748Y-48937D02*
X101476Y-48937D01*
X101476Y-48937D02*
X102263Y-48937D01*
X100570Y-48759D02*
X100748Y-48937D01*
X106476Y-47637D02*
X107972Y-47637D01*
X93149Y-52007D02*
X92775Y-52381D01*
X93366Y-52007D02*
X93149Y-52007D01*
X78818Y-53405D02*
X78818Y-52460D01*
X93366Y-53523D02*
X93877Y-53523D01*
X93366Y-52145D02*
X93366Y-52007D01*
X95432Y-51811D02*
X95699Y-52077D01*
X93562Y-51811D02*
X95432Y-51811D01*
X93366Y-52007D02*
X93562Y-51811D01*
X76256Y-49787D02*
X76256Y-48920D01*
X76256Y-48920D02*
X76318Y-48858D01*
X93366Y-52145D02*
X93366Y-53523D01*
X93366Y-53523D02*
X93366Y-53503D01*
X93366Y-53503D02*
X93366Y-53523D01*
X94281Y-53926D02*
X94281Y-55065D01*
X93877Y-53523D02*
X94281Y-53926D01*
X95964Y-49370D02*
X95767Y-49074D01*
X95699Y-52077D02*
X95964Y-51811D01*
X95964Y-51437D02*
X95964Y-51811D01*
X95964Y-51437D02*
X95964Y-49370D01*
X102421Y-51318D02*
X102755Y-51318D01*
X102185Y-51555D02*
X102421Y-51318D01*
X106476Y-47893D02*
X106476Y-47637D01*
X106909Y-48326D02*
X106476Y-47893D01*
X105019Y-47637D02*
X106476Y-47637D01*
X103641Y-47637D02*
X105019Y-47637D01*
X98543Y-49094D02*
X98543Y-48877D01*
X98051Y-49586D02*
X98543Y-49094D01*
X102972Y-48248D02*
X103583Y-47637D01*
X103641Y-47637D02*
X103583Y-47637D01*
X98543Y-48877D02*
X97893Y-48877D01*
X99724Y-49940D02*
X99606Y-49940D01*
X99606Y-49940D02*
X98543Y-48877D01*
X101751Y-50688D02*
X102185Y-51122D01*
X99389Y-50688D02*
X101751Y-50688D01*
X99114Y-50413D02*
X99389Y-50688D01*
X101141Y-47618D02*
X102244Y-47618D01*
X102244Y-47618D02*
X102263Y-47637D01*
X102263Y-47637D02*
X103641Y-47637D01*
X95699Y-52077D02*
X95699Y-52391D01*
X93228Y-50114D02*
X94157Y-50114D01*
X96870Y-52992D02*
X96417Y-53444D01*
X96870Y-51653D02*
X96870Y-52992D01*
X96889Y-51633D02*
X96870Y-51653D01*
X94157Y-50114D02*
X94389Y-49881D01*
X101358Y-56312D02*
X101358Y-55885D01*
X100314Y-55866D02*
X99586Y-56594D01*
X101338Y-55866D02*
X100314Y-55866D01*
X101358Y-55885D02*
X101338Y-55866D01*
X94783Y-56633D02*
X97322Y-56633D01*
X97322Y-56633D02*
X97874Y-57185D01*
X92106Y-49389D02*
X91791Y-49389D01*
X91614Y-49212D02*
X91614Y-48661D01*
X91791Y-49389D02*
X91614Y-49212D01*
X91614Y-48661D02*
X91594Y-48641D01*
X96122Y-55452D02*
X94940Y-56633D01*
X96555Y-55334D02*
X96437Y-55452D01*
X96437Y-55452D02*
X96122Y-55452D01*
X93228Y-50114D02*
X93901Y-50114D01*
X72645Y-51464D02*
X72657Y-51476D01*
X72657Y-51476D02*
X76692Y-51476D01*
X81942Y-51791D02*
X81397Y-51791D01*
X81397Y-51791D02*
X81299Y-51692D01*
X81299Y-51692D02*
X76909Y-51692D01*
X76909Y-51692D02*
X76692Y-51476D01*
X72645Y-51464D02*
X72200Y-51909D01*
X106318Y-61122D02*
X106200Y-61240D01*
X105413Y-61240D02*
X104429Y-60255D01*
X106200Y-61240D02*
X105413Y-61240D01*
X104311Y-60374D02*
X104429Y-60255D01*
X104429Y-60255D02*
X104547Y-60137D01*
X104153Y-60374D02*
X104311Y-60374D01*
X103878Y-60374D02*
X104153Y-60374D01*
X104547Y-60137D02*
X104868Y-60137D01*
X105374Y-59153D02*
X106394Y-59153D01*
X105807Y-57066D02*
X105374Y-57500D01*
X105807Y-56397D02*
X105807Y-57066D01*
X105374Y-57500D02*
X105374Y-59153D01*
X106318Y-59229D02*
X106318Y-61122D01*
X106394Y-59153D02*
X106318Y-59229D01*
X105885Y-56318D02*
X105807Y-56397D01*
X105079Y-54877D02*
X105397Y-54877D01*
X106456Y-53346D02*
X107314Y-53346D01*
X106279Y-53523D02*
X106456Y-53346D01*
X106279Y-53996D02*
X106279Y-53523D01*
X105397Y-54877D02*
X106279Y-53996D01*
X104868Y-56318D02*
X105885Y-56318D01*
X108314Y-51346D02*
X108314Y-51448D01*
X108314Y-51448D02*
X107775Y-51988D01*
X107775Y-51988D02*
X107775Y-52885D01*
X107775Y-52885D02*
X107314Y-53346D01*
X100368Y-59507D02*
X99901Y-59507D01*
X99665Y-57303D02*
X99547Y-57185D01*
X99547Y-57185D02*
X97874Y-57185D01*
X99901Y-59507D02*
X99783Y-59389D01*
X103878Y-60374D02*
X103878Y-60812D01*
X103878Y-61830D02*
X103878Y-60812D01*
X100368Y-59507D02*
X102145Y-59507D01*
X102303Y-59665D02*
X102303Y-60812D01*
X102145Y-59507D02*
X102303Y-59665D01*
X102381Y-61909D02*
X102421Y-61909D01*
X102381Y-62381D02*
X102381Y-61909D01*
X95098Y-56633D02*
X94940Y-56633D01*
X104868Y-56987D02*
X104868Y-56318D01*
X104868Y-56318D02*
X104868Y-55089D01*
X104868Y-55089D02*
X105079Y-54877D01*
X102303Y-60812D02*
X102303Y-61791D01*
X103799Y-61909D02*
X103878Y-61830D01*
X102421Y-61909D02*
X103799Y-61909D01*
X102303Y-61791D02*
X102421Y-61909D01*
X93795Y-56696D02*
X91870Y-56086D01*
X94940Y-56633D02*
X94783Y-56633D01*
X93877Y-56614D02*
X93795Y-56696D01*
X88051Y-49035D02*
X88129Y-49035D01*
X92169Y-50074D02*
X93228Y-50114D01*
X92145Y-50098D02*
X92169Y-50074D01*
X88523Y-48641D02*
X91594Y-48641D01*
X88129Y-49035D02*
X88523Y-48641D01*
X86988Y-48996D02*
X87421Y-48996D01*
X87736Y-49035D02*
X88051Y-49035D01*
X87696Y-49074D02*
X87736Y-49035D01*
X87500Y-49074D02*
X87696Y-49074D01*
X87421Y-48996D02*
X87500Y-49074D01*
X86988Y-50846D02*
X86988Y-50846D01*
X86988Y-50846D02*
X86442Y-50846D01*
X85059Y-51358D02*
X85059Y-51515D01*
X84665Y-51988D02*
X85059Y-52381D01*
X84665Y-51909D02*
X84665Y-51988D01*
X85059Y-51515D02*
X84665Y-51909D01*
X85059Y-52381D02*
X85137Y-52460D01*
X85137Y-50846D02*
X85137Y-51279D01*
X85137Y-51279D02*
X85059Y-51358D01*
X85137Y-52781D02*
X85137Y-52460D01*
X85137Y-52460D02*
X85059Y-52381D01*
X85137Y-50846D02*
X86442Y-50846D01*
X85767Y-48281D02*
X85919Y-48281D01*
X86988Y-49271D02*
X86442Y-49271D01*
X86988Y-49271D02*
X86988Y-49271D01*
X86988Y-48838D02*
X86988Y-48996D01*
X86988Y-48996D02*
X86988Y-49271D01*
X86830Y-48681D02*
X86988Y-48838D01*
X86318Y-48681D02*
X86830Y-48681D01*
X85919Y-48281D02*
X86318Y-48681D01*
X82736Y-48956D02*
X82736Y-49035D01*
X83009Y-50140D02*
X82772Y-50376D01*
X83009Y-49308D02*
X83009Y-50140D01*
X82736Y-49035D02*
X83009Y-49308D01*
X82617Y-48956D02*
X82736Y-48956D01*
X82618Y-50649D02*
X82617Y-50649D01*
X82617Y-50649D02*
X82618Y-50649D01*
X82617Y-50689D02*
X82617Y-50649D01*
X82772Y-50534D02*
X82617Y-50689D01*
X82772Y-50376D02*
X82772Y-50534D01*
X82365Y-48028D02*
X82246Y-48028D01*
X85767Y-47578D02*
X85767Y-48281D01*
X85767Y-47578D02*
X85767Y-47578D01*
X82246Y-48028D02*
X81948Y-48326D01*
X81942Y-51791D02*
X82499Y-51791D01*
X82499Y-51791D02*
X82617Y-51673D01*
X82617Y-51673D02*
X82617Y-50649D01*
X82617Y-48956D02*
X82617Y-48281D01*
X82365Y-48028D02*
X82617Y-48281D01*
X100767Y-53051D02*
X99665Y-53051D01*
X99665Y-53051D02*
X99271Y-53405D01*
X101318Y-52500D02*
X100767Y-53051D01*
X93966Y-55836D02*
X93966Y-55065D01*
X97342Y-55925D02*
X97303Y-55964D01*
X97303Y-55964D02*
X96082Y-55964D01*
X93956Y-55846D02*
X93966Y-55836D01*
X98244Y-51748D02*
X98248Y-51751D01*
X97598Y-51748D02*
X98244Y-51748D01*
X95227Y-53337D02*
X95699Y-53337D01*
X95157Y-53267D02*
X95227Y-53337D01*
X95157Y-52775D02*
X95157Y-53267D01*
X94960Y-52578D02*
X95157Y-52775D01*
X94960Y-52421D02*
X94960Y-52578D01*
X94862Y-52322D02*
X94960Y-52421D01*
X107854Y-53807D02*
X108314Y-53346D01*
X107854Y-55728D02*
X107854Y-53807D01*
X107696Y-55885D02*
X107854Y-55728D01*
X83720Y-49862D02*
X83641Y-50177D01*
X83641Y-50177D02*
X83484Y-50177D01*
X83484Y-50177D02*
X83366Y-50295D01*
X83366Y-50295D02*
X83366Y-50728D01*
X83366Y-50728D02*
X83917Y-51279D01*
X83917Y-51279D02*
X83917Y-51358D01*
X86206Y-52781D02*
X85767Y-52781D01*
X86279Y-52854D02*
X86206Y-52781D01*
X105019Y-48937D02*
X105019Y-49271D01*
X105019Y-49271D02*
X105295Y-49547D01*
X102618Y-61476D02*
X102618Y-60812D01*
X102696Y-61555D02*
X102618Y-61476D01*
X99271Y-59271D02*
X99389Y-59271D01*
X99862Y-58877D02*
X100368Y-58877D01*
X99665Y-59074D02*
X99862Y-58877D01*
X99586Y-59074D02*
X99665Y-59074D01*
X99389Y-59271D02*
X99586Y-59074D01*
X104193Y-56312D02*
X104193Y-57657D01*
X104074Y-57775D02*
X103444Y-57775D01*
X104193Y-57657D02*
X104074Y-57775D01*
X81942Y-48956D02*
X82263Y-48956D01*
X82696Y-49389D02*
X82696Y-49468D01*
X82263Y-48956D02*
X82696Y-49389D01*
X80866Y-53804D02*
X79828Y-53804D01*
X79828Y-53804D02*
X79488Y-53464D01*
X93339Y-51299D02*
X93339Y-50740D01*
X87848Y-53804D02*
X80866Y-53804D01*
X80866Y-53804D02*
X80846Y-53804D01*
X88644Y-53009D02*
X87848Y-53804D01*
X88644Y-51818D02*
X88644Y-53009D01*
X88865Y-51597D02*
X88644Y-51818D01*
X91532Y-51597D02*
X88865Y-51597D01*
X92381Y-50748D02*
X91532Y-51597D01*
X93331Y-50748D02*
X92381Y-50748D01*
X93339Y-50740D02*
X93331Y-50748D01*
X80866Y-53644D02*
X80494Y-53644D01*
X80000Y-52952D02*
X79488Y-52440D01*
X80000Y-53149D02*
X80000Y-52952D01*
X80494Y-53644D02*
X80000Y-53149D01*
X93649Y-51299D02*
X93649Y-50755D01*
X87775Y-53644D02*
X80866Y-53644D01*
X80866Y-53644D02*
X80846Y-53644D01*
X88484Y-52935D02*
X87775Y-53644D01*
X88484Y-51751D02*
X88484Y-52935D01*
X88503Y-51732D02*
X88484Y-51751D01*
X88531Y-51705D02*
X88503Y-51732D01*
X88799Y-51437D02*
X88531Y-51705D01*
X91456Y-51437D02*
X88799Y-51437D01*
X92322Y-50570D02*
X91456Y-51437D01*
X93464Y-50570D02*
X92322Y-50570D01*
X93649Y-50755D02*
X93464Y-50570D01*
X94909Y-51299D02*
X94909Y-50740D01*
X95255Y-50551D02*
X95550Y-50846D01*
X95098Y-50551D02*
X95255Y-50551D01*
X94909Y-50740D02*
X95098Y-50551D01*
X94599Y-51299D02*
X94599Y-50754D01*
X94599Y-50754D02*
X95531Y-49822D01*
X90688Y-52381D02*
X90696Y-52389D01*
X90696Y-52389D02*
X91919Y-52389D01*
X93602Y-53818D02*
X93543Y-53759D01*
X93543Y-53759D02*
X92795Y-53759D01*
X92795Y-53759D02*
X92374Y-53339D01*
X91919Y-53339D02*
X92374Y-53339D01*
X92440Y-53720D02*
X91990Y-53720D01*
X91990Y-53720D02*
X91919Y-53649D01*
X92440Y-53740D02*
X92440Y-53720D01*
X92500Y-53720D02*
X92460Y-53720D01*
X92460Y-53720D02*
X92440Y-53740D01*
X92874Y-54094D02*
X92500Y-53720D01*
X93464Y-54094D02*
X92874Y-54094D01*
X93464Y-54232D02*
X93464Y-54094D01*
X93602Y-54370D02*
X93464Y-54232D01*
X90494Y-52069D02*
X90396Y-52069D01*
X91919Y-52069D02*
X90494Y-52069D01*
X90396Y-52069D02*
X90393Y-52066D01*
X95275Y-48464D02*
X95275Y-48248D01*
X95275Y-48248D02*
X95866Y-47657D01*
X95491Y-48681D02*
X95748Y-48681D01*
X94911Y-55679D02*
X94911Y-55065D01*
X94586Y-56003D02*
X94911Y-55679D01*
X96141Y-51437D02*
X96141Y-49035D01*
X96279Y-51574D02*
X96141Y-51437D01*
X96141Y-48740D02*
X96082Y-48681D01*
X95807Y-48681D02*
X95748Y-48681D01*
X96082Y-48681D02*
X95807Y-48681D01*
X96141Y-49035D02*
X96141Y-48740D01*
X95491Y-48681D02*
X95275Y-48464D01*
X95491Y-48681D02*
X95275Y-48464D01*
X96301Y-49035D02*
X96301Y-48324D01*
X96555Y-51889D02*
X96574Y-51633D01*
X96574Y-51633D02*
X96574Y-51437D01*
X96574Y-51437D02*
X96301Y-51164D01*
X96301Y-51164D02*
X96301Y-49035D01*
X94596Y-55065D02*
X94596Y-55482D01*
X94271Y-55807D02*
X94596Y-55482D01*
X94271Y-56279D02*
X94271Y-55807D01*
X94311Y-56318D02*
X94271Y-56279D01*
X94744Y-56318D02*
X94311Y-56318D01*
X95177Y-55885D02*
X94744Y-56318D01*
X96301Y-48324D02*
X96377Y-48248D01*
X99822Y-58562D02*
X100368Y-58562D01*
X99507Y-58799D02*
X99822Y-58562D01*
X107185Y-61358D02*
X107185Y-61976D01*
X106555Y-60728D02*
X107185Y-61358D01*
X106555Y-57539D02*
X106555Y-60728D01*
X106240Y-57224D02*
X106555Y-57539D01*
X106240Y-56358D02*
X106240Y-57224D01*
X105649Y-55767D02*
X106240Y-56358D01*
X105649Y-55728D02*
X105649Y-55767D01*
X106043Y-55334D02*
X105649Y-55728D01*
X106043Y-55059D02*
X106043Y-55334D01*
X106279Y-54822D02*
X106043Y-55059D01*
X106279Y-54311D02*
X106279Y-54822D01*
X106712Y-53877D02*
X106279Y-54311D01*
X107314Y-52370D02*
X106791Y-52893D01*
X107314Y-51346D02*
X107314Y-52370D01*
X107185Y-61976D02*
X106476Y-62685D01*
X87578Y-48720D02*
X87224Y-48366D01*
X87224Y-48366D02*
X86909Y-48366D01*
X84507Y-52781D02*
X84507Y-53287D01*
X84350Y-53326D02*
X84271Y-53326D01*
X84507Y-53287D02*
X84350Y-53326D01*
X84192Y-52781D02*
X84192Y-52342D01*
X84192Y-52342D02*
X83917Y-52066D01*
X83917Y-50570D02*
X86442Y-50531D01*
X83838Y-50492D02*
X83917Y-50570D01*
X95167Y-53651D02*
X94862Y-53956D01*
X95699Y-53651D02*
X95167Y-53651D01*
M02*
