G04 (created by PCBNEW (2013-may-18)-stable) date Sat Feb 17 15:36:07 2018*
%MOIN*%
G04 Gerber Fmt 3.4, Leading zero omitted, Abs format*
%FSLAX34Y34*%
G01*
G70*
G90*
G04 APERTURE LIST*
%ADD10C,0.00590551*%
%ADD11C,0.011811*%
%ADD12C,0.0147638*%
%ADD13C,0.019685*%
%ADD14R,0.216535X0.0590551*%
%ADD15R,0.0551181X0.0748031*%
%ADD16C,0.055*%
%ADD17R,0.0236X0.0394*%
%ADD18R,0.0394X0.0236*%
%ADD19R,0.03X0.02*%
%ADD20R,0.05X0.025*%
%ADD21R,0.06X0.08*%
%ADD22R,0.08X0.06*%
%ADD23R,0.055X0.055*%
%ADD24R,0.0590551X0.0137795*%
%ADD25R,0.0393701X0.0137795*%
%ADD26C,0.0591*%
%ADD27C,0.1181*%
%ADD28R,0.01X0.0787402*%
%ADD29R,0.0787402X0.01*%
%ADD30R,0.0106299X0.0440945*%
%ADD31R,0.00984252X0.0433071*%
%ADD32R,0.0669291X0.0590551*%
%ADD33R,0.0393701X0.0787402*%
G04 APERTURE END LIST*
G54D10*
G54D11*
X98731Y-55253D02*
X98534Y-55534D01*
X98394Y-55253D02*
X98394Y-55843D01*
X98619Y-55843D01*
X98675Y-55815D01*
X98703Y-55787D01*
X98731Y-55731D01*
X98731Y-55646D01*
X98703Y-55590D01*
X98675Y-55562D01*
X98619Y-55534D01*
X98394Y-55534D01*
X99209Y-55281D02*
X99153Y-55253D01*
X99041Y-55253D01*
X98984Y-55281D01*
X98956Y-55337D01*
X98956Y-55562D01*
X98984Y-55618D01*
X99041Y-55646D01*
X99153Y-55646D01*
X99209Y-55618D01*
X99237Y-55562D01*
X99237Y-55506D01*
X98956Y-55449D01*
X99434Y-55646D02*
X99575Y-55253D01*
X99715Y-55646D01*
X98141Y-54701D02*
X98281Y-54308D01*
X98422Y-54701D01*
X98956Y-54308D02*
X98619Y-54308D01*
X98787Y-54308D02*
X98787Y-54898D01*
X98731Y-54814D01*
X98675Y-54758D01*
X98619Y-54730D01*
X99209Y-54364D02*
X99237Y-54336D01*
X99209Y-54308D01*
X99181Y-54336D01*
X99209Y-54364D01*
X99209Y-54308D01*
X99603Y-54898D02*
X99659Y-54898D01*
X99715Y-54870D01*
X99744Y-54842D01*
X99772Y-54786D01*
X99800Y-54673D01*
X99800Y-54533D01*
X99772Y-54420D01*
X99744Y-54364D01*
X99715Y-54336D01*
X99659Y-54308D01*
X99603Y-54308D01*
X99547Y-54336D01*
X99519Y-54364D01*
X99491Y-54420D01*
X99462Y-54533D01*
X99462Y-54673D01*
X99491Y-54786D01*
X99519Y-54842D01*
X99547Y-54870D01*
X99603Y-54898D01*
X100306Y-54308D02*
X100306Y-54617D01*
X100278Y-54673D01*
X100222Y-54701D01*
X100109Y-54701D01*
X100053Y-54673D01*
X100306Y-54336D02*
X100250Y-54308D01*
X100109Y-54308D01*
X100053Y-54336D01*
X100025Y-54392D01*
X100025Y-54448D01*
X100053Y-54505D01*
X100109Y-54533D01*
X100250Y-54533D01*
X100306Y-54561D01*
G54D12*
X73250Y-42654D02*
X73250Y-43245D01*
X73503Y-42654D02*
X73503Y-42964D01*
X73475Y-43020D01*
X73419Y-43048D01*
X73335Y-43048D01*
X73278Y-43020D01*
X73250Y-42992D01*
X73700Y-43048D02*
X73925Y-43048D01*
X73785Y-43245D02*
X73785Y-42739D01*
X73813Y-42682D01*
X73869Y-42654D01*
X73925Y-42654D01*
X74038Y-43048D02*
X74263Y-43048D01*
X74122Y-43245D02*
X74122Y-42739D01*
X74150Y-42682D01*
X74206Y-42654D01*
X74263Y-42654D01*
X74460Y-43048D02*
X74460Y-42457D01*
X74460Y-43020D02*
X74516Y-43048D01*
X74628Y-43048D01*
X74685Y-43020D01*
X74713Y-42992D01*
X74741Y-42935D01*
X74741Y-42767D01*
X74713Y-42710D01*
X74685Y-42682D01*
X74628Y-42654D01*
X74516Y-42654D01*
X74460Y-42682D01*
X74994Y-42710D02*
X75022Y-42682D01*
X74994Y-42654D01*
X74966Y-42682D01*
X74994Y-42710D01*
X74994Y-42654D01*
X74994Y-43020D02*
X75022Y-42992D01*
X74994Y-42964D01*
X74966Y-42992D01*
X74994Y-43020D01*
X74994Y-42964D01*
X75697Y-43273D02*
X75191Y-42514D01*
X76316Y-43273D02*
X75809Y-42514D01*
X76512Y-42654D02*
X76512Y-43048D01*
X76512Y-42935D02*
X76541Y-42992D01*
X76569Y-43020D01*
X76625Y-43048D01*
X76681Y-43048D01*
X76878Y-42654D02*
X76878Y-43048D01*
X76878Y-43245D02*
X76850Y-43217D01*
X76878Y-43188D01*
X76906Y-43217D01*
X76878Y-43245D01*
X76878Y-43188D01*
X77412Y-43048D02*
X77412Y-42570D01*
X77384Y-42514D01*
X77356Y-42485D01*
X77300Y-42457D01*
X77215Y-42457D01*
X77159Y-42485D01*
X77412Y-42682D02*
X77356Y-42654D01*
X77244Y-42654D01*
X77187Y-42682D01*
X77159Y-42710D01*
X77131Y-42767D01*
X77131Y-42935D01*
X77159Y-42992D01*
X77187Y-43020D01*
X77244Y-43048D01*
X77356Y-43048D01*
X77412Y-43020D01*
X77694Y-42654D02*
X77694Y-43245D01*
X77947Y-42654D02*
X77947Y-42964D01*
X77919Y-43020D01*
X77862Y-43048D01*
X77778Y-43048D01*
X77722Y-43020D01*
X77694Y-42992D01*
X78143Y-43048D02*
X78368Y-43048D01*
X78228Y-43245D02*
X78228Y-42739D01*
X78256Y-42682D01*
X78312Y-42654D01*
X78368Y-42654D01*
X78537Y-42682D02*
X78593Y-42654D01*
X78706Y-42654D01*
X78762Y-42682D01*
X78790Y-42739D01*
X78790Y-42767D01*
X78762Y-42823D01*
X78706Y-42851D01*
X78622Y-42851D01*
X78565Y-42879D01*
X78537Y-42935D01*
X78537Y-42964D01*
X78565Y-43020D01*
X78622Y-43048D01*
X78706Y-43048D01*
X78762Y-43020D01*
X79043Y-42654D02*
X79043Y-43245D01*
X79296Y-42654D02*
X79296Y-42964D01*
X79268Y-43020D01*
X79212Y-43048D01*
X79128Y-43048D01*
X79071Y-43020D01*
X79043Y-42992D01*
X79578Y-42654D02*
X79578Y-43048D01*
X79578Y-43245D02*
X79550Y-43217D01*
X79578Y-43188D01*
X79606Y-43217D01*
X79578Y-43245D01*
X79578Y-43188D01*
X79775Y-43048D02*
X80000Y-43048D01*
X79859Y-42654D02*
X79859Y-43160D01*
X79887Y-43217D01*
X79943Y-43245D01*
X80000Y-43245D01*
X80112Y-43048D02*
X80337Y-43048D01*
X80196Y-43245D02*
X80196Y-42739D01*
X80224Y-42682D01*
X80281Y-42654D01*
X80337Y-42654D01*
X80534Y-42710D02*
X80562Y-42682D01*
X80534Y-42654D01*
X80506Y-42682D01*
X80534Y-42710D01*
X80534Y-42654D01*
X80815Y-42654D02*
X80815Y-43048D01*
X80815Y-43245D02*
X80787Y-43217D01*
X80815Y-43188D01*
X80843Y-43217D01*
X80815Y-43245D01*
X80815Y-43188D01*
X81096Y-43048D02*
X81096Y-42654D01*
X81096Y-42992D02*
X81124Y-43020D01*
X81181Y-43048D01*
X81265Y-43048D01*
X81321Y-43020D01*
X81349Y-42964D01*
X81349Y-42654D01*
X81546Y-43048D02*
X81771Y-43048D01*
X81631Y-42654D02*
X81631Y-43160D01*
X81659Y-43217D01*
X81715Y-43245D01*
X81771Y-43245D01*
X82052Y-42654D02*
X81996Y-42682D01*
X81968Y-42710D01*
X81940Y-42767D01*
X81940Y-42935D01*
X81968Y-42992D01*
X81996Y-43020D01*
X82052Y-43048D01*
X82137Y-43048D01*
X82193Y-43020D01*
X82221Y-42992D01*
X82249Y-42935D01*
X82249Y-42767D01*
X82221Y-42710D01*
X82193Y-42682D01*
X82137Y-42654D01*
X82052Y-42654D01*
G54D13*
X71908Y-43712D02*
X71908Y-45483D01*
X72808Y-43712D01*
X72808Y-45483D01*
X73858Y-45483D02*
X74158Y-45483D01*
X74308Y-45399D01*
X74458Y-45230D01*
X74533Y-44893D01*
X74533Y-44302D01*
X74458Y-43965D01*
X74308Y-43796D01*
X74158Y-43712D01*
X73858Y-43712D01*
X73708Y-43796D01*
X73558Y-43965D01*
X73483Y-44302D01*
X73483Y-44893D01*
X73558Y-45230D01*
X73708Y-45399D01*
X73858Y-45483D01*
X74983Y-45483D02*
X75508Y-43712D01*
X76032Y-45483D01*
X76557Y-44640D02*
X77082Y-44640D01*
X77307Y-43712D02*
X76557Y-43712D01*
X76557Y-45483D01*
X77307Y-45483D01*
X77982Y-43712D02*
X77982Y-45483D01*
X78882Y-43712D01*
X78882Y-45483D01*
X79557Y-44218D02*
X80307Y-44218D01*
X79407Y-43712D02*
X79932Y-45483D01*
X80457Y-43712D01*
X80982Y-44386D02*
X82182Y-44386D01*
X82782Y-45483D02*
X83832Y-43712D01*
X83832Y-45483D02*
X82782Y-43712D01*
G54D12*
X75846Y-46001D02*
X75846Y-46591D01*
X76071Y-46591D01*
X76127Y-46563D01*
X76155Y-46535D01*
X76183Y-46479D01*
X76183Y-46394D01*
X76155Y-46338D01*
X76127Y-46310D01*
X76071Y-46282D01*
X75846Y-46282D01*
X76774Y-46001D02*
X76577Y-46282D01*
X76437Y-46001D02*
X76437Y-46591D01*
X76661Y-46591D01*
X76718Y-46563D01*
X76746Y-46535D01*
X76774Y-46479D01*
X76774Y-46394D01*
X76746Y-46338D01*
X76718Y-46310D01*
X76661Y-46282D01*
X76437Y-46282D01*
X77140Y-46591D02*
X77252Y-46591D01*
X77308Y-46563D01*
X77365Y-46507D01*
X77393Y-46394D01*
X77393Y-46197D01*
X77365Y-46085D01*
X77308Y-46029D01*
X77252Y-46001D01*
X77140Y-46001D01*
X77083Y-46029D01*
X77027Y-46085D01*
X76999Y-46197D01*
X76999Y-46394D01*
X77027Y-46507D01*
X77083Y-46563D01*
X77140Y-46591D01*
X77814Y-46591D02*
X77814Y-46169D01*
X77786Y-46085D01*
X77730Y-46029D01*
X77646Y-46001D01*
X77589Y-46001D01*
X78096Y-46310D02*
X78293Y-46310D01*
X78377Y-46001D02*
X78096Y-46001D01*
X78096Y-46591D01*
X78377Y-46591D01*
X78967Y-46057D02*
X78939Y-46029D01*
X78855Y-46001D01*
X78799Y-46001D01*
X78714Y-46029D01*
X78658Y-46085D01*
X78630Y-46141D01*
X78602Y-46254D01*
X78602Y-46338D01*
X78630Y-46451D01*
X78658Y-46507D01*
X78714Y-46563D01*
X78799Y-46591D01*
X78855Y-46591D01*
X78939Y-46563D01*
X78967Y-46535D01*
X79136Y-46591D02*
X79474Y-46591D01*
X79305Y-46001D02*
X79305Y-46591D01*
G54D14*
X90610Y-53011D03*
X93956Y-53011D03*
G54D15*
X96633Y-59625D03*
X96633Y-57893D03*
X95688Y-57893D03*
X95688Y-59625D03*
X86476Y-47736D03*
X86476Y-49468D03*
X87421Y-49468D03*
X87421Y-47736D03*
G54D16*
X106476Y-62685D03*
X106476Y-61685D03*
G54D17*
X106614Y-57244D03*
X106102Y-57244D03*
X106358Y-56496D03*
X78267Y-49074D03*
X77755Y-49074D03*
X78011Y-48326D03*
G54D18*
X93936Y-60432D03*
X93936Y-60944D03*
X93188Y-60688D03*
G54D19*
X93944Y-49292D03*
X93944Y-48542D03*
X92944Y-49292D03*
X93944Y-48917D03*
X92944Y-48542D03*
G54D20*
X105844Y-48998D03*
X105844Y-48498D03*
X105844Y-47998D03*
X105844Y-47498D03*
X103644Y-47498D03*
X103644Y-47998D03*
X103644Y-48498D03*
X103644Y-48998D03*
G54D21*
X75688Y-48523D03*
X76988Y-48523D03*
G54D22*
X105177Y-61574D03*
X105177Y-62874D03*
X105531Y-58779D03*
X105531Y-60079D03*
X102854Y-48975D03*
X102854Y-50275D03*
X94389Y-58504D03*
X94389Y-57204D03*
X106358Y-51378D03*
X106358Y-50078D03*
G54D21*
X94133Y-55019D03*
X95433Y-55019D03*
X84567Y-50531D03*
X83267Y-50531D03*
G54D22*
X87696Y-50865D03*
X87696Y-52165D03*
G54D21*
X84567Y-51948D03*
X83267Y-51948D03*
G54D22*
X88996Y-50865D03*
X88996Y-52165D03*
G54D21*
X104055Y-58917D03*
X102755Y-58917D03*
X103110Y-62696D03*
X101810Y-62696D03*
X97912Y-58169D03*
X99212Y-58169D03*
X97912Y-60098D03*
X99212Y-60098D03*
X83306Y-49153D03*
X84606Y-49153D03*
X104055Y-57657D03*
X102755Y-57657D03*
G54D22*
X95098Y-50512D03*
X95098Y-49212D03*
G54D21*
X95709Y-51633D03*
X94409Y-51633D03*
G54D23*
X108314Y-59346D03*
G54D16*
X107314Y-59346D03*
X108314Y-58346D03*
X107314Y-58346D03*
X108314Y-55346D03*
X107314Y-55346D03*
X108314Y-54346D03*
X107314Y-54346D03*
X108314Y-53346D03*
X107314Y-53346D03*
X108314Y-52346D03*
X108314Y-51346D03*
X107314Y-51346D03*
G54D24*
X105039Y-49911D03*
G54D25*
X105039Y-50167D03*
X105039Y-50423D03*
X105039Y-50679D03*
X104055Y-50679D03*
X104055Y-50423D03*
X104055Y-50167D03*
X104055Y-49911D03*
G54D23*
X91870Y-56086D03*
G54D16*
X91870Y-57086D03*
X91870Y-58086D03*
X91870Y-59086D03*
X91870Y-60086D03*
X91870Y-61086D03*
X91870Y-62086D03*
X91870Y-63086D03*
G54D23*
X72200Y-51909D03*
G54D16*
X73200Y-51909D03*
X74200Y-51909D03*
X75200Y-51909D03*
G54D26*
X94997Y-61751D03*
X95997Y-61751D03*
X96797Y-61751D03*
X97797Y-61751D03*
G54D27*
X93797Y-62801D03*
X99197Y-62801D03*
G54D28*
X99685Y-50197D03*
X99882Y-50197D03*
X100079Y-50197D03*
X99488Y-50197D03*
G54D29*
X98937Y-50748D03*
X98937Y-50945D03*
X98937Y-51142D03*
X98937Y-51339D03*
X98937Y-51535D03*
X98937Y-51732D03*
X98937Y-51929D03*
X98937Y-52125D03*
G54D28*
X100866Y-52677D03*
X99488Y-52677D03*
X99685Y-52677D03*
X99882Y-52677D03*
X100079Y-52677D03*
X100275Y-52677D03*
X100472Y-52677D03*
X100669Y-52677D03*
G54D29*
X101417Y-52125D03*
X101417Y-51929D03*
X101417Y-51732D03*
X101417Y-51535D03*
X101417Y-51339D03*
X101417Y-51142D03*
X101417Y-50945D03*
X101417Y-50748D03*
G54D28*
X100866Y-50197D03*
X100669Y-50197D03*
X100472Y-50197D03*
X100275Y-50197D03*
G54D27*
X100177Y-51437D03*
G54D30*
X73065Y-46614D03*
X73262Y-46614D03*
X73458Y-46614D03*
G54D31*
X73655Y-46614D03*
X73852Y-46614D03*
X74049Y-46614D03*
X74246Y-46614D03*
X74443Y-46614D03*
X74640Y-46614D03*
X74836Y-46614D03*
X75033Y-46614D03*
X75230Y-46614D03*
X75427Y-46614D03*
X75624Y-46614D03*
X75821Y-46614D03*
X76017Y-46614D03*
X76214Y-46614D03*
X76411Y-46614D03*
X76608Y-46614D03*
X76805Y-46614D03*
X77002Y-46614D03*
X77199Y-46614D03*
X77395Y-46614D03*
X77592Y-46614D03*
X77789Y-46614D03*
X77986Y-46614D03*
X78183Y-46614D03*
X78380Y-46614D03*
X78577Y-46614D03*
X78773Y-46614D03*
G54D32*
X72425Y-45074D03*
X83362Y-45074D03*
G54D31*
X78970Y-46614D03*
X79167Y-46614D03*
X79364Y-46614D03*
X79561Y-46614D03*
X79758Y-46614D03*
X79954Y-46614D03*
X80151Y-46614D03*
X80348Y-46614D03*
X80545Y-46614D03*
X80742Y-46614D03*
X80939Y-46614D03*
X81136Y-46614D03*
X81332Y-46614D03*
X81529Y-46614D03*
X81726Y-46614D03*
X81923Y-46614D03*
X82120Y-46614D03*
X82317Y-46614D03*
X82514Y-46614D03*
X82710Y-46614D03*
G54D22*
X92637Y-57302D03*
X92637Y-58602D03*
X76181Y-53268D03*
X76181Y-51968D03*
G54D21*
X104252Y-53759D03*
X102952Y-53759D03*
X104665Y-51771D03*
X103365Y-51771D03*
X88188Y-47992D03*
X89488Y-47992D03*
X91594Y-47992D03*
X90294Y-47992D03*
X92952Y-47618D03*
X94252Y-47618D03*
X90650Y-49980D03*
X89350Y-49980D03*
X90650Y-49035D03*
X89350Y-49035D03*
G54D22*
X93169Y-55216D03*
X93169Y-56516D03*
G54D21*
X95176Y-47893D03*
X96476Y-47893D03*
G54D22*
X97244Y-56555D03*
X97244Y-55255D03*
G54D21*
X98346Y-53248D03*
X97046Y-53248D03*
G54D33*
X74842Y-43818D03*
X75236Y-42834D03*
X75629Y-43818D03*
X76023Y-42834D03*
X76417Y-43818D03*
X76811Y-42834D03*
X77204Y-43818D03*
X77598Y-42834D03*
X77992Y-43818D03*
X78385Y-42834D03*
X78779Y-43818D03*
X79173Y-42834D03*
X79566Y-43818D03*
X79960Y-42834D03*
X80354Y-43818D03*
X80748Y-42834D03*
X81141Y-43818D03*
X81535Y-42834D03*
X81929Y-43818D03*
X82322Y-42834D03*
X82716Y-43818D03*
G54D23*
X72266Y-50769D03*
G54D16*
X73266Y-50769D03*
X74266Y-50769D03*
X75266Y-50769D03*
X76266Y-50769D03*
X77266Y-50769D03*
X78266Y-50769D03*
X79266Y-50769D03*
X80266Y-50769D03*
X79256Y-49767D03*
X79266Y-48857D03*
X79256Y-47917D03*
X72266Y-49775D03*
X73226Y-49775D03*
X74236Y-49775D03*
X75266Y-49775D03*
X76256Y-49787D03*
X77256Y-49775D03*
X78246Y-49775D03*
M02*
