M48
;DRILL file {Pcbnew (2013-may-18)-stable} date Sat Feb 17 15:36:11 2018
;FORMAT={-:-/ absolute / inch / decimal}
FMAT,2
INCH,TZ
T1C0.025
T2C0.032
T3C0.039
T4C0.079
T5C0.091
%
G90
G05
M72
T1
X7.4134Y-4.8425
X7.4272Y-4.6004
X7.4272Y-4.8012
X7.4547Y-4.7598
X7.6319Y-4.8858
X7.7047Y-4.7736
X7.8819Y-5.2461
X7.8819Y-5.3406
X8.0138Y-4.8091
X8.0591Y-4.7795
X8.1083Y-4.8327
X8.1181Y-5.0335
X8.1752Y-5.2756
X8.1949Y-4.8327
X8.2146Y-4.5906
X8.2185Y-5.2815
X8.2697Y-4.9469
X8.3661Y-4.7598
X8.372Y-4.9862
X8.3839Y-5.0492
X8.3917Y-4.9114
X8.3917Y-5.1358
X8.3917Y-5.2067
X8.4193Y-4.7303
X8.4272Y-5.3327
X8.502Y-4.9862
X8.5374Y-5.1555
X8.565Y-5.124
X8.5768Y-4.7579
X8.5807Y-5.2067
X8.5846Y-4.9272
X8.628Y-5.2854
X8.6909Y-4.8366
X8.6949Y-5.2539
X8.6988Y-5.0846
X8.7579Y-4.872
X8.7657Y-5.3287
X8.8051Y-4.9035
X8.8583Y-4.9941
X8.8681Y-4.9469
X8.8917Y-5.3287
X8.9705Y-5.2303
X9.0295Y-5.0689
X9.0394Y-5.2067
X9.0689Y-5.2382
X9.0965Y-5.0689
X9.1752Y-5.4941
X9.1949Y-4.8976
X9.2106Y-4.939
X9.2146Y-5.0098
X9.2205Y-5.1378
X9.2244Y-4.7638
X9.2638Y-5.9213
X9.2776Y-5.2382
X9.3327Y-5.9705
X9.3602Y-5.3819
X9.3602Y-5.437
X9.3622Y-4.7559
X9.3878Y-5.6614
X9.3957Y-5.065
X9.3957Y-5.5846
X9.3957Y-5.9291
X9.4311Y-5.0374
X9.439Y-4.9882
X9.4429Y-4.8681
X9.4528Y-5.7913
X9.4587Y-5.6004
X9.4783Y-5.6634
X9.4862Y-5.2323
X9.4862Y-5.3957
X9.5059Y-5.7185
X9.5177Y-5.5886
X9.5531Y-5.8799
X9.5768Y-4.9075
X9.5866Y-4.7657
X9.5925Y-6.0728
X9.5965Y-5.502
X9.6083Y-5.5965
X9.622Y-5.7205
X9.628Y-5.1575
X9.6417Y-5.3445
X9.6555Y-5.189
X9.6555Y-5.5335
X9.6614Y-4.8976
X9.689Y-5.1634
X9.7343Y-5.5925
X9.7343Y-6.0807
X9.7894Y-4.8878
X9.7992Y-5.6614
X9.8051Y-4.9587
X9.8248Y-5.1319
X9.8248Y-5.1752
X9.8799Y-4.685
X9.9114Y-5.0413
X9.9154Y-5.2776
X9.9272Y-5.3406
X9.9272Y-5.9272
X9.937Y-4.8091
X9.939Y-4.876
X9.9508Y-5.8799
X9.9587Y-5.6594
X9.9665Y-5.7303
X9.9665Y-6.1398
X9.9783Y-5.939
X9.9823Y-6.0059
X9.9862Y-4.876
X10.0846Y-4.8406
X10.0925Y-5.9823
X10.1004Y-5.3642
X10.1142Y-4.7618
X10.1201Y-5.4665
X10.1319Y-5.25
X10.1339Y-5.5098
X10.1398Y-6.0217
X10.1437Y-6.1476
X10.1516Y-4.8445
X10.1713Y-5.0295
X10.1791Y-5.3366
X10.1831Y-6.0217
X10.1988Y-5.9823
X10.2106Y-5.6949
X10.2185Y-5.1122
X10.2185Y-5.1555
X10.2185Y-5.5453
X10.2303Y-4.8366
X10.2303Y-5.2303
X10.2382Y-6.2382
X10.2697Y-5.5492
X10.2697Y-6.1555
X10.2736Y-5.2264
X10.2972Y-4.8248
X10.3209Y-5.5453
X10.3248Y-5.6949
X10.3248Y-6.0138
X10.3406Y-5.9429
X10.3445Y-5.7776
X10.3445Y-5.8327
X10.3484Y-5.0807
X10.3524Y-6.1476
X10.3563Y-5.5689
X10.3799Y-5.2776
X10.3878Y-5.5256
X10.4193Y-4.8209
X10.5177Y-5.1004
X10.5295Y-4.9547
X10.5492Y-5.6791
X10.561Y-5.0689
X10.5768Y-5.7579
X10.5925Y-4.9508
X10.5925Y-6.0846
X10.6122Y-5.5728
X10.6161Y-5.8248
X10.6358Y-5.5256
X10.6437Y-4.8366
X10.6713Y-5.3878
X10.6791Y-5.2894
X10.6909Y-4.8327
X10.7697Y-5.5886
T2
X7.2201Y-5.1909
X7.2266Y-4.9776
X7.2266Y-5.077
X7.3201Y-5.1909
X7.3226Y-4.9776
X7.3266Y-5.077
X7.4201Y-5.1909
X7.4236Y-4.9776
X7.4266Y-5.077
X7.5201Y-5.1909
X7.5266Y-4.9776
X7.5266Y-5.077
X7.6256Y-4.9788
X7.6266Y-5.077
X7.7256Y-4.9776
X7.7266Y-5.077
X7.8246Y-4.9776
X7.8266Y-5.077
X7.9256Y-4.7918
X7.9256Y-4.9768
X7.9266Y-4.8858
X7.9266Y-5.077
X8.0266Y-5.077
X9.187Y-5.6087
X9.187Y-5.7087
X9.187Y-5.8087
X9.187Y-5.9087
X9.187Y-6.0087
X9.187Y-6.1087
X9.187Y-6.2087
X9.187Y-6.3087
X10.6476Y-6.1685
X10.6476Y-6.2685
X10.7315Y-5.1346
X10.7315Y-5.3346
X10.7315Y-5.4346
X10.7315Y-5.5346
X10.7315Y-5.8346
X10.7315Y-5.9346
X10.8315Y-5.1346
X10.8315Y-5.2346
X10.8315Y-5.3346
X10.8315Y-5.4346
X10.8315Y-5.5346
X10.8315Y-5.8346
X10.8315Y-5.9346
T3
X9.4998Y-6.1752
X9.5998Y-6.1752
X9.6798Y-6.1752
X9.7798Y-6.1752
T4
X10.0177Y-5.1437
T5
X9.3798Y-6.2802
X9.9198Y-6.2802
T0
M30
