G04 (created by PCBNEW (2013-may-18)-stable) date Sat Feb 17 15:52:48 2018*
%MOIN*%
G04 Gerber Fmt 3.4, Leading zero omitted, Abs format*
%FSLAX34Y34*%
G01*
G70*
G90*
G04 APERTURE LIST*
%ADD10C,0.00590551*%
%ADD11C,0.00393701*%
G04 APERTURE END LIST*
G54D10*
G54D11*
X91377Y-63602D02*
X91397Y-63602D01*
X91377Y-54094D02*
X91377Y-63602D01*
X71574Y-54094D02*
X91377Y-54094D01*
X71574Y-47027D02*
X71574Y-54094D01*
X108799Y-62755D02*
X108799Y-62460D01*
X107952Y-46437D02*
X107913Y-46437D01*
X108779Y-46437D02*
X108799Y-46437D01*
X108799Y-46988D02*
X108799Y-46437D01*
X96377Y-46437D02*
X107933Y-46437D01*
X84251Y-46417D02*
X84251Y-46259D01*
X84251Y-46437D02*
X84251Y-46417D01*
X96377Y-46437D02*
X84251Y-46437D01*
X71574Y-42047D02*
X84251Y-42047D01*
X71574Y-47027D02*
X71574Y-42047D01*
X84251Y-42047D02*
X84251Y-46259D01*
X108799Y-47007D02*
X108799Y-62440D01*
X108799Y-63602D02*
X108799Y-62775D01*
X107933Y-63602D02*
X108799Y-63602D01*
X107952Y-46437D02*
X108779Y-46437D01*
X107893Y-63602D02*
X91397Y-63602D01*
X107894Y-63602D02*
G75*
G03X108799Y-62853I78J826D01*
G74*
G01*
X108799Y-47184D02*
G75*
G03X107971Y-46437I-787J-39D01*
G74*
G01*
X91397Y-47027D02*
X90964Y-47027D01*
M02*
