G04 (created by PCBNEW (2013-may-18)-stable) date Sat Feb 17 15:36:07 2018*
%MOIN*%
G04 Gerber Fmt 3.4, Leading zero omitted, Abs format*
%FSLAX34Y34*%
G01*
G70*
G90*
G04 APERTURE LIST*
%ADD10C,0.00590551*%
%ADD11R,0.06X0.016*%
%ADD12R,0.016X0.06*%
%ADD13R,0.0177X0.0787*%
%ADD14R,0.0787X0.0177*%
%ADD15C,0.055*%
%ADD16R,0.0708661X0.0433071*%
%ADD17R,0.0433071X0.0708661*%
%ADD18R,0.06X0.08*%
%ADD19R,0.08X0.06*%
%ADD20R,0.055X0.055*%
%ADD21R,0.166929X0.05*%
%ADD22R,0.0708661X0.188976*%
%ADD23C,0.0591*%
%ADD24C,0.1181*%
G04 APERTURE END LIST*
G54D10*
G54D11*
X104868Y-58562D03*
X104868Y-58877D03*
X104868Y-59192D03*
X104868Y-59507D03*
X104868Y-59822D03*
X104868Y-60137D03*
X104868Y-58247D03*
X104868Y-57932D03*
X104868Y-57617D03*
X104868Y-57302D03*
X104868Y-56987D03*
X100368Y-58562D03*
X100368Y-58877D03*
X100368Y-59192D03*
X100368Y-59507D03*
X100368Y-59822D03*
X100368Y-60137D03*
X100368Y-58247D03*
X100368Y-57932D03*
X100368Y-57617D03*
X100368Y-57302D03*
X100368Y-56987D03*
G54D12*
X102618Y-60812D03*
X102618Y-56312D03*
X102303Y-60812D03*
X102303Y-56312D03*
X101988Y-56312D03*
X101988Y-60812D03*
X101673Y-60812D03*
X101673Y-56312D03*
X101358Y-56312D03*
X101358Y-60812D03*
X101043Y-60812D03*
X101043Y-56312D03*
X102933Y-56312D03*
X102933Y-60812D03*
X103248Y-60812D03*
X103248Y-56312D03*
X103563Y-56312D03*
X103563Y-60812D03*
X103878Y-60812D03*
X103878Y-56312D03*
X104193Y-56312D03*
X104193Y-60812D03*
X84192Y-48281D03*
X84507Y-48281D03*
X84822Y-48281D03*
X85137Y-48281D03*
X85452Y-48281D03*
X85767Y-48281D03*
X83877Y-48281D03*
X83562Y-48281D03*
X83247Y-48281D03*
X82932Y-48281D03*
X82617Y-48281D03*
X84192Y-52781D03*
X84507Y-52781D03*
X84822Y-52781D03*
X85137Y-52781D03*
X85452Y-52781D03*
X85767Y-52781D03*
X83877Y-52781D03*
X83562Y-52781D03*
X83247Y-52781D03*
X82932Y-52781D03*
X82617Y-52781D03*
G54D11*
X86442Y-50531D03*
X81942Y-50531D03*
X86442Y-50846D03*
X81942Y-50846D03*
X81942Y-51161D03*
X86442Y-51161D03*
X86442Y-51476D03*
X81942Y-51476D03*
X81942Y-51791D03*
X86442Y-51791D03*
X86442Y-52106D03*
X81942Y-52106D03*
X81942Y-50216D03*
X86442Y-50216D03*
X86442Y-49901D03*
X81942Y-49901D03*
X81942Y-49586D03*
X86442Y-49586D03*
X86442Y-49271D03*
X81942Y-49271D03*
X81942Y-48956D03*
X86442Y-48956D03*
G54D13*
X92706Y-55065D03*
X93021Y-55065D03*
X93336Y-55065D03*
X93651Y-55065D03*
X93966Y-55065D03*
X94281Y-55065D03*
X94596Y-55065D03*
X94911Y-55065D03*
X94909Y-51299D03*
X92699Y-51299D03*
X93019Y-51299D03*
X93339Y-51299D03*
X93649Y-51299D03*
X93969Y-51299D03*
X94279Y-51299D03*
X94599Y-51299D03*
G54D14*
X95699Y-54281D03*
X95699Y-53967D03*
X95699Y-53651D03*
X95699Y-53337D03*
X95699Y-53021D03*
X95699Y-52707D03*
X95699Y-52391D03*
X95699Y-52077D03*
X91919Y-54279D03*
X91919Y-53969D03*
X91919Y-53649D03*
X91919Y-53339D03*
X91919Y-53029D03*
X91919Y-52709D03*
X91919Y-52389D03*
X91919Y-52069D03*
G54D15*
X106476Y-62685D03*
X106476Y-61685D03*
G54D16*
X96201Y-60031D03*
X98641Y-60031D03*
X96201Y-58591D03*
X98641Y-58591D03*
G54D17*
X87606Y-50177D03*
X87606Y-52617D03*
X89046Y-50177D03*
X89046Y-52617D03*
G54D18*
X98543Y-48877D03*
X97243Y-48877D03*
X99724Y-49940D03*
X101024Y-49940D03*
X104055Y-51318D03*
X102755Y-51318D03*
G54D19*
X107972Y-47637D03*
X107972Y-48937D03*
X102263Y-47637D03*
X102263Y-48937D03*
X103641Y-47637D03*
X103641Y-48937D03*
X106476Y-47637D03*
X106476Y-48937D03*
X105019Y-48937D03*
X105019Y-47637D03*
G54D20*
X108314Y-59346D03*
G54D15*
X107314Y-59346D03*
X108314Y-58346D03*
X107314Y-58346D03*
X108314Y-55346D03*
X107314Y-55346D03*
X108314Y-54346D03*
X107314Y-54346D03*
X108314Y-53346D03*
X107314Y-53346D03*
X108314Y-52346D03*
X108314Y-51346D03*
X107314Y-51346D03*
G54D21*
X90668Y-50114D03*
X93228Y-50114D03*
X90668Y-49114D03*
X93228Y-49114D03*
X90668Y-48114D03*
X93228Y-48114D03*
X102519Y-54877D03*
X105079Y-54877D03*
X102519Y-53877D03*
X105079Y-53877D03*
X102519Y-52877D03*
X105079Y-52877D03*
G54D20*
X91870Y-56086D03*
G54D15*
X91870Y-57086D03*
X91870Y-58086D03*
X91870Y-59086D03*
X91870Y-60086D03*
X91870Y-61086D03*
X91870Y-62086D03*
X91870Y-63086D03*
G54D20*
X72200Y-51909D03*
G54D15*
X73200Y-51909D03*
X74200Y-51909D03*
X75200Y-51909D03*
G54D22*
X97598Y-54668D03*
X97598Y-51748D03*
G54D23*
X94997Y-61751D03*
X95997Y-61751D03*
X96797Y-61751D03*
X97797Y-61751D03*
G54D24*
X93797Y-62801D03*
X99197Y-62801D03*
X100177Y-51437D03*
G54D18*
X74882Y-52913D03*
X73582Y-52913D03*
G54D19*
X76181Y-51968D03*
X76181Y-53268D03*
X93720Y-57322D03*
X93720Y-58622D03*
X92637Y-57302D03*
X92637Y-58602D03*
G54D18*
X98543Y-47716D03*
X97243Y-47716D03*
X78188Y-53464D03*
X79488Y-53464D03*
X78188Y-52440D03*
X79488Y-52440D03*
X96831Y-49822D03*
X95531Y-49822D03*
X96850Y-50846D03*
X95550Y-50846D03*
G54D19*
X96377Y-48248D03*
X96377Y-46948D03*
X95275Y-48464D03*
X95275Y-47164D03*
G54D20*
X72266Y-50769D03*
G54D15*
X73266Y-50769D03*
X74266Y-50769D03*
X75266Y-50769D03*
X76266Y-50769D03*
X77266Y-50769D03*
X78266Y-50769D03*
X79266Y-50769D03*
X80266Y-50769D03*
X79256Y-49767D03*
X79266Y-48857D03*
X79256Y-47917D03*
X72266Y-49775D03*
X73226Y-49775D03*
X74236Y-49775D03*
X75266Y-49775D03*
X76256Y-49787D03*
X77256Y-49775D03*
X78246Y-49775D03*
M02*
