G04 (created by PCBNEW (2013-may-18)-stable) date Sat Feb 17 15:52:48 2018*
%MOIN*%
G04 Gerber Fmt 3.4, Leading zero omitted, Abs format*
%FSLAX34Y34*%
G01*
G70*
G90*
G04 APERTURE LIST*
%ADD10C,0.00590551*%
%ADD11C,0.011811*%
%ADD12C,0.0147638*%
%ADD13C,0.019685*%
%ADD14C,0.012*%
%ADD15C,0.008*%
%ADD16C,0.006*%
%ADD17C,0.005*%
G04 APERTURE END LIST*
G54D10*
G54D11*
X98731Y-55253D02*
X98534Y-55534D01*
X98394Y-55253D02*
X98394Y-55843D01*
X98619Y-55843D01*
X98675Y-55815D01*
X98703Y-55787D01*
X98731Y-55731D01*
X98731Y-55646D01*
X98703Y-55590D01*
X98675Y-55562D01*
X98619Y-55534D01*
X98394Y-55534D01*
X99209Y-55281D02*
X99153Y-55253D01*
X99041Y-55253D01*
X98984Y-55281D01*
X98956Y-55337D01*
X98956Y-55562D01*
X98984Y-55618D01*
X99041Y-55646D01*
X99153Y-55646D01*
X99209Y-55618D01*
X99237Y-55562D01*
X99237Y-55506D01*
X98956Y-55449D01*
X99434Y-55646D02*
X99575Y-55253D01*
X99715Y-55646D01*
X98141Y-54701D02*
X98281Y-54308D01*
X98422Y-54701D01*
X98956Y-54308D02*
X98619Y-54308D01*
X98787Y-54308D02*
X98787Y-54898D01*
X98731Y-54814D01*
X98675Y-54758D01*
X98619Y-54730D01*
X99209Y-54364D02*
X99237Y-54336D01*
X99209Y-54308D01*
X99181Y-54336D01*
X99209Y-54364D01*
X99209Y-54308D01*
X99603Y-54898D02*
X99659Y-54898D01*
X99715Y-54870D01*
X99744Y-54842D01*
X99772Y-54786D01*
X99800Y-54673D01*
X99800Y-54533D01*
X99772Y-54420D01*
X99744Y-54364D01*
X99715Y-54336D01*
X99659Y-54308D01*
X99603Y-54308D01*
X99547Y-54336D01*
X99519Y-54364D01*
X99491Y-54420D01*
X99462Y-54533D01*
X99462Y-54673D01*
X99491Y-54786D01*
X99519Y-54842D01*
X99547Y-54870D01*
X99603Y-54898D01*
X100306Y-54308D02*
X100306Y-54617D01*
X100278Y-54673D01*
X100222Y-54701D01*
X100109Y-54701D01*
X100053Y-54673D01*
X100306Y-54336D02*
X100250Y-54308D01*
X100109Y-54308D01*
X100053Y-54336D01*
X100025Y-54392D01*
X100025Y-54448D01*
X100053Y-54505D01*
X100109Y-54533D01*
X100250Y-54533D01*
X100306Y-54561D01*
G54D12*
X73250Y-42654D02*
X73250Y-43245D01*
X73503Y-42654D02*
X73503Y-42964D01*
X73475Y-43020D01*
X73419Y-43048D01*
X73335Y-43048D01*
X73278Y-43020D01*
X73250Y-42992D01*
X73700Y-43048D02*
X73925Y-43048D01*
X73785Y-43245D02*
X73785Y-42739D01*
X73813Y-42682D01*
X73869Y-42654D01*
X73925Y-42654D01*
X74038Y-43048D02*
X74263Y-43048D01*
X74122Y-43245D02*
X74122Y-42739D01*
X74150Y-42682D01*
X74206Y-42654D01*
X74263Y-42654D01*
X74460Y-43048D02*
X74460Y-42457D01*
X74460Y-43020D02*
X74516Y-43048D01*
X74628Y-43048D01*
X74685Y-43020D01*
X74713Y-42992D01*
X74741Y-42935D01*
X74741Y-42767D01*
X74713Y-42710D01*
X74685Y-42682D01*
X74628Y-42654D01*
X74516Y-42654D01*
X74460Y-42682D01*
X74994Y-42710D02*
X75022Y-42682D01*
X74994Y-42654D01*
X74966Y-42682D01*
X74994Y-42710D01*
X74994Y-42654D01*
X74994Y-43020D02*
X75022Y-42992D01*
X74994Y-42964D01*
X74966Y-42992D01*
X74994Y-43020D01*
X74994Y-42964D01*
X75697Y-43273D02*
X75191Y-42514D01*
X76316Y-43273D02*
X75809Y-42514D01*
X76512Y-42654D02*
X76512Y-43048D01*
X76512Y-42935D02*
X76541Y-42992D01*
X76569Y-43020D01*
X76625Y-43048D01*
X76681Y-43048D01*
X76878Y-42654D02*
X76878Y-43048D01*
X76878Y-43245D02*
X76850Y-43217D01*
X76878Y-43188D01*
X76906Y-43217D01*
X76878Y-43245D01*
X76878Y-43188D01*
X77412Y-43048D02*
X77412Y-42570D01*
X77384Y-42514D01*
X77356Y-42485D01*
X77300Y-42457D01*
X77215Y-42457D01*
X77159Y-42485D01*
X77412Y-42682D02*
X77356Y-42654D01*
X77244Y-42654D01*
X77187Y-42682D01*
X77159Y-42710D01*
X77131Y-42767D01*
X77131Y-42935D01*
X77159Y-42992D01*
X77187Y-43020D01*
X77244Y-43048D01*
X77356Y-43048D01*
X77412Y-43020D01*
X77694Y-42654D02*
X77694Y-43245D01*
X77947Y-42654D02*
X77947Y-42964D01*
X77919Y-43020D01*
X77862Y-43048D01*
X77778Y-43048D01*
X77722Y-43020D01*
X77694Y-42992D01*
X78143Y-43048D02*
X78368Y-43048D01*
X78228Y-43245D02*
X78228Y-42739D01*
X78256Y-42682D01*
X78312Y-42654D01*
X78368Y-42654D01*
X78537Y-42682D02*
X78593Y-42654D01*
X78706Y-42654D01*
X78762Y-42682D01*
X78790Y-42739D01*
X78790Y-42767D01*
X78762Y-42823D01*
X78706Y-42851D01*
X78622Y-42851D01*
X78565Y-42879D01*
X78537Y-42935D01*
X78537Y-42964D01*
X78565Y-43020D01*
X78622Y-43048D01*
X78706Y-43048D01*
X78762Y-43020D01*
X79043Y-42654D02*
X79043Y-43245D01*
X79296Y-42654D02*
X79296Y-42964D01*
X79268Y-43020D01*
X79212Y-43048D01*
X79128Y-43048D01*
X79071Y-43020D01*
X79043Y-42992D01*
X79578Y-42654D02*
X79578Y-43048D01*
X79578Y-43245D02*
X79550Y-43217D01*
X79578Y-43188D01*
X79606Y-43217D01*
X79578Y-43245D01*
X79578Y-43188D01*
X79775Y-43048D02*
X80000Y-43048D01*
X79859Y-42654D02*
X79859Y-43160D01*
X79887Y-43217D01*
X79943Y-43245D01*
X80000Y-43245D01*
X80112Y-43048D02*
X80337Y-43048D01*
X80196Y-43245D02*
X80196Y-42739D01*
X80224Y-42682D01*
X80281Y-42654D01*
X80337Y-42654D01*
X80534Y-42710D02*
X80562Y-42682D01*
X80534Y-42654D01*
X80506Y-42682D01*
X80534Y-42710D01*
X80534Y-42654D01*
X80815Y-42654D02*
X80815Y-43048D01*
X80815Y-43245D02*
X80787Y-43217D01*
X80815Y-43188D01*
X80843Y-43217D01*
X80815Y-43245D01*
X80815Y-43188D01*
X81096Y-43048D02*
X81096Y-42654D01*
X81096Y-42992D02*
X81124Y-43020D01*
X81181Y-43048D01*
X81265Y-43048D01*
X81321Y-43020D01*
X81349Y-42964D01*
X81349Y-42654D01*
X81546Y-43048D02*
X81771Y-43048D01*
X81631Y-42654D02*
X81631Y-43160D01*
X81659Y-43217D01*
X81715Y-43245D01*
X81771Y-43245D01*
X82052Y-42654D02*
X81996Y-42682D01*
X81968Y-42710D01*
X81940Y-42767D01*
X81940Y-42935D01*
X81968Y-42992D01*
X81996Y-43020D01*
X82052Y-43048D01*
X82137Y-43048D01*
X82193Y-43020D01*
X82221Y-42992D01*
X82249Y-42935D01*
X82249Y-42767D01*
X82221Y-42710D01*
X82193Y-42682D01*
X82137Y-42654D01*
X82052Y-42654D01*
G54D13*
X71908Y-43712D02*
X71908Y-45483D01*
X72808Y-43712D01*
X72808Y-45483D01*
X73858Y-45483D02*
X74158Y-45483D01*
X74308Y-45399D01*
X74458Y-45230D01*
X74533Y-44893D01*
X74533Y-44302D01*
X74458Y-43965D01*
X74308Y-43796D01*
X74158Y-43712D01*
X73858Y-43712D01*
X73708Y-43796D01*
X73558Y-43965D01*
X73483Y-44302D01*
X73483Y-44893D01*
X73558Y-45230D01*
X73708Y-45399D01*
X73858Y-45483D01*
X74983Y-45483D02*
X75508Y-43712D01*
X76032Y-45483D01*
X76557Y-44640D02*
X77082Y-44640D01*
X77307Y-43712D02*
X76557Y-43712D01*
X76557Y-45483D01*
X77307Y-45483D01*
X77982Y-43712D02*
X77982Y-45483D01*
X78882Y-43712D01*
X78882Y-45483D01*
X79557Y-44218D02*
X80307Y-44218D01*
X79407Y-43712D02*
X79932Y-45483D01*
X80457Y-43712D01*
X80982Y-44386D02*
X82182Y-44386D01*
X82782Y-45483D02*
X83832Y-43712D01*
X83832Y-45483D02*
X82782Y-43712D01*
G54D12*
X75846Y-46001D02*
X75846Y-46591D01*
X76071Y-46591D01*
X76127Y-46563D01*
X76155Y-46535D01*
X76183Y-46479D01*
X76183Y-46394D01*
X76155Y-46338D01*
X76127Y-46310D01*
X76071Y-46282D01*
X75846Y-46282D01*
X76774Y-46001D02*
X76577Y-46282D01*
X76437Y-46001D02*
X76437Y-46591D01*
X76661Y-46591D01*
X76718Y-46563D01*
X76746Y-46535D01*
X76774Y-46479D01*
X76774Y-46394D01*
X76746Y-46338D01*
X76718Y-46310D01*
X76661Y-46282D01*
X76437Y-46282D01*
X77140Y-46591D02*
X77252Y-46591D01*
X77308Y-46563D01*
X77365Y-46507D01*
X77393Y-46394D01*
X77393Y-46197D01*
X77365Y-46085D01*
X77308Y-46029D01*
X77252Y-46001D01*
X77140Y-46001D01*
X77083Y-46029D01*
X77027Y-46085D01*
X76999Y-46197D01*
X76999Y-46394D01*
X77027Y-46507D01*
X77083Y-46563D01*
X77140Y-46591D01*
X77814Y-46591D02*
X77814Y-46169D01*
X77786Y-46085D01*
X77730Y-46029D01*
X77646Y-46001D01*
X77589Y-46001D01*
X78096Y-46310D02*
X78293Y-46310D01*
X78377Y-46001D02*
X78096Y-46001D01*
X78096Y-46591D01*
X78377Y-46591D01*
X78967Y-46057D02*
X78939Y-46029D01*
X78855Y-46001D01*
X78799Y-46001D01*
X78714Y-46029D01*
X78658Y-46085D01*
X78630Y-46141D01*
X78602Y-46254D01*
X78602Y-46338D01*
X78630Y-46451D01*
X78658Y-46507D01*
X78714Y-46563D01*
X78799Y-46591D01*
X78855Y-46591D01*
X78939Y-46563D01*
X78967Y-46535D01*
X79136Y-46591D02*
X79474Y-46591D01*
X79305Y-46001D02*
X79305Y-46591D01*
G54D14*
X104588Y-56592D02*
X100648Y-56592D01*
X100648Y-56592D02*
X100648Y-60532D01*
X104398Y-60532D02*
X100648Y-60532D01*
X104588Y-60342D02*
X104588Y-56592D01*
X104398Y-60532D02*
X104588Y-60342D01*
G54D15*
X104368Y-60062D02*
G75*
G03X104368Y-60062I-250J0D01*
G74*
G01*
G54D14*
X82222Y-48561D02*
X82222Y-52501D01*
X82222Y-52501D02*
X86162Y-52501D01*
X86162Y-48751D02*
X86162Y-52501D01*
X85972Y-48561D02*
X82222Y-48561D01*
X86162Y-48751D02*
X85972Y-48561D01*
G54D15*
X85942Y-49031D02*
G75*
G03X85942Y-49031I-250J0D01*
G74*
G01*
G54D16*
X92709Y-51189D02*
X92709Y-51639D01*
X94889Y-51189D02*
X94889Y-51629D01*
X92709Y-51189D02*
X94889Y-51189D01*
X92239Y-52069D02*
X91809Y-52069D01*
X92229Y-54279D02*
X91809Y-54279D01*
X91809Y-54289D02*
X91799Y-52069D01*
X95779Y-54269D02*
X95789Y-52099D01*
X95089Y-54699D02*
X92259Y-54699D01*
X95779Y-52089D02*
X95369Y-52089D01*
X95329Y-54449D02*
X95329Y-51669D01*
X92249Y-51649D02*
X95289Y-51649D01*
X92249Y-54699D02*
X92249Y-51699D01*
X94919Y-55149D02*
X92699Y-55149D01*
X92699Y-55149D02*
X92699Y-54699D01*
X95099Y-54695D02*
X95329Y-54465D01*
X94919Y-55147D02*
X94919Y-54695D01*
X95329Y-54269D02*
X95781Y-54269D01*
X95113Y-54287D02*
G75*
G03X95113Y-54287I-188J0D01*
G74*
G01*
G54D10*
X97978Y-59311D02*
G75*
G03X97978Y-59311I-577J0D01*
G74*
G01*
X88904Y-51377D02*
G75*
G03X88904Y-51377I-577J0D01*
G74*
G01*
G54D17*
X98893Y-48427D02*
X98893Y-49327D01*
X98893Y-49327D02*
X98243Y-49327D01*
X97543Y-48427D02*
X96893Y-48427D01*
X96893Y-48427D02*
X96893Y-49327D01*
X96893Y-49327D02*
X97543Y-49327D01*
X98243Y-48427D02*
X98893Y-48427D01*
X99374Y-50390D02*
X99374Y-49490D01*
X99374Y-49490D02*
X100024Y-49490D01*
X100724Y-50390D02*
X101374Y-50390D01*
X101374Y-50390D02*
X101374Y-49490D01*
X101374Y-49490D02*
X100724Y-49490D01*
X100024Y-50390D02*
X99374Y-50390D01*
X104405Y-50868D02*
X104405Y-51768D01*
X104405Y-51768D02*
X103755Y-51768D01*
X103055Y-50868D02*
X102405Y-50868D01*
X102405Y-50868D02*
X102405Y-51768D01*
X102405Y-51768D02*
X103055Y-51768D01*
X103755Y-50868D02*
X104405Y-50868D01*
X107522Y-47287D02*
X108422Y-47287D01*
X108422Y-47287D02*
X108422Y-47937D01*
X107522Y-48637D02*
X107522Y-49287D01*
X107522Y-49287D02*
X108422Y-49287D01*
X108422Y-49287D02*
X108422Y-48637D01*
X107522Y-47937D02*
X107522Y-47287D01*
X101813Y-47287D02*
X102713Y-47287D01*
X102713Y-47287D02*
X102713Y-47937D01*
X101813Y-48637D02*
X101813Y-49287D01*
X101813Y-49287D02*
X102713Y-49287D01*
X102713Y-49287D02*
X102713Y-48637D01*
X101813Y-47937D02*
X101813Y-47287D01*
X103191Y-47287D02*
X104091Y-47287D01*
X104091Y-47287D02*
X104091Y-47937D01*
X103191Y-48637D02*
X103191Y-49287D01*
X103191Y-49287D02*
X104091Y-49287D01*
X104091Y-49287D02*
X104091Y-48637D01*
X103191Y-47937D02*
X103191Y-47287D01*
X106026Y-47287D02*
X106926Y-47287D01*
X106926Y-47287D02*
X106926Y-47937D01*
X106026Y-48637D02*
X106026Y-49287D01*
X106026Y-49287D02*
X106926Y-49287D01*
X106926Y-49287D02*
X106926Y-48637D01*
X106026Y-47937D02*
X106026Y-47287D01*
X105469Y-49287D02*
X104569Y-49287D01*
X104569Y-49287D02*
X104569Y-48637D01*
X105469Y-47937D02*
X105469Y-47287D01*
X105469Y-47287D02*
X104569Y-47287D01*
X104569Y-47287D02*
X104569Y-47937D01*
X105469Y-48637D02*
X105469Y-49287D01*
G54D10*
X89528Y-48454D02*
X89528Y-47134D01*
X89528Y-47134D02*
X94488Y-47134D01*
X94488Y-47134D02*
X94488Y-51094D01*
X94488Y-51094D02*
X89528Y-51094D01*
X89528Y-51094D02*
X89528Y-49774D01*
X101379Y-53217D02*
X101379Y-51897D01*
X101379Y-51897D02*
X106339Y-51897D01*
X106339Y-51897D02*
X106339Y-55857D01*
X106339Y-55857D02*
X101379Y-55857D01*
X101379Y-55857D02*
X101379Y-54537D01*
G54D17*
X75232Y-52463D02*
X75232Y-53363D01*
X75232Y-53363D02*
X74582Y-53363D01*
X73882Y-52463D02*
X73232Y-52463D01*
X73232Y-52463D02*
X73232Y-53363D01*
X73232Y-53363D02*
X73882Y-53363D01*
X74582Y-52463D02*
X75232Y-52463D01*
X75731Y-51618D02*
X76631Y-51618D01*
X76631Y-51618D02*
X76631Y-52268D01*
X75731Y-52968D02*
X75731Y-53618D01*
X75731Y-53618D02*
X76631Y-53618D01*
X76631Y-53618D02*
X76631Y-52968D01*
X75731Y-52268D02*
X75731Y-51618D01*
X93270Y-56972D02*
X94170Y-56972D01*
X94170Y-56972D02*
X94170Y-57622D01*
X93270Y-58322D02*
X93270Y-58972D01*
X93270Y-58972D02*
X94170Y-58972D01*
X94170Y-58972D02*
X94170Y-58322D01*
X93270Y-57622D02*
X93270Y-56972D01*
X92187Y-56952D02*
X93087Y-56952D01*
X93087Y-56952D02*
X93087Y-57602D01*
X92187Y-58302D02*
X92187Y-58952D01*
X92187Y-58952D02*
X93087Y-58952D01*
X93087Y-58952D02*
X93087Y-58302D01*
X92187Y-57602D02*
X92187Y-56952D01*
X98893Y-47266D02*
X98893Y-48166D01*
X98893Y-48166D02*
X98243Y-48166D01*
X97543Y-47266D02*
X96893Y-47266D01*
X96893Y-47266D02*
X96893Y-48166D01*
X96893Y-48166D02*
X97543Y-48166D01*
X98243Y-47266D02*
X98893Y-47266D01*
X77838Y-53914D02*
X77838Y-53014D01*
X77838Y-53014D02*
X78488Y-53014D01*
X79188Y-53914D02*
X79838Y-53914D01*
X79838Y-53914D02*
X79838Y-53014D01*
X79838Y-53014D02*
X79188Y-53014D01*
X78488Y-53914D02*
X77838Y-53914D01*
X77838Y-52890D02*
X77838Y-51990D01*
X77838Y-51990D02*
X78488Y-51990D01*
X79188Y-52890D02*
X79838Y-52890D01*
X79838Y-52890D02*
X79838Y-51990D01*
X79838Y-51990D02*
X79188Y-51990D01*
X78488Y-52890D02*
X77838Y-52890D01*
X97181Y-49372D02*
X97181Y-50272D01*
X97181Y-50272D02*
X96531Y-50272D01*
X95831Y-49372D02*
X95181Y-49372D01*
X95181Y-49372D02*
X95181Y-50272D01*
X95181Y-50272D02*
X95831Y-50272D01*
X96531Y-49372D02*
X97181Y-49372D01*
X97200Y-50396D02*
X97200Y-51296D01*
X97200Y-51296D02*
X96550Y-51296D01*
X95850Y-50396D02*
X95200Y-50396D01*
X95200Y-50396D02*
X95200Y-51296D01*
X95200Y-51296D02*
X95850Y-51296D01*
X96550Y-50396D02*
X97200Y-50396D01*
X96827Y-48598D02*
X95927Y-48598D01*
X95927Y-48598D02*
X95927Y-47948D01*
X96827Y-47248D02*
X96827Y-46598D01*
X96827Y-46598D02*
X95927Y-46598D01*
X95927Y-46598D02*
X95927Y-47248D01*
X96827Y-47948D02*
X96827Y-48598D01*
X95725Y-48814D02*
X94825Y-48814D01*
X94825Y-48814D02*
X94825Y-48164D01*
X95725Y-47464D02*
X95725Y-46814D01*
X95725Y-46814D02*
X94825Y-46814D01*
X94825Y-46814D02*
X94825Y-47464D01*
X95725Y-48164D02*
X95725Y-48814D01*
G54D10*
X71955Y-51663D02*
X71955Y-52154D01*
X72446Y-52154D01*
X72446Y-51663D01*
X71955Y-51663D01*
X73446Y-51909D02*
G75*
G03X73446Y-51909I-245J0D01*
G74*
G01*
X74446Y-51909D02*
G75*
G03X74446Y-51909I-245J0D01*
G74*
G01*
X75446Y-51909D02*
G75*
G03X75446Y-51909I-245J0D01*
G74*
G01*
X95263Y-61751D02*
G75*
G03X95263Y-61751I-265J0D01*
G74*
G01*
X96263Y-61751D02*
G75*
G03X96263Y-61751I-265J0D01*
G74*
G01*
X97063Y-61751D02*
G75*
G03X97063Y-61751I-265J0D01*
G74*
G01*
X98063Y-61751D02*
G75*
G03X98063Y-61751I-265J0D01*
G74*
G01*
X94358Y-62801D02*
G75*
G03X94358Y-62801I-560J0D01*
G74*
G01*
X99758Y-62801D02*
G75*
G03X99758Y-62801I-560J0D01*
G74*
G01*
G54D15*
X103010Y-58258D02*
X103496Y-58258D01*
X103553Y-58277D01*
X103582Y-58296D01*
X103610Y-58334D01*
X103610Y-58410D01*
X103582Y-58448D01*
X103553Y-58467D01*
X103496Y-58486D01*
X103010Y-58486D01*
X103010Y-58639D02*
X103010Y-58886D01*
X103239Y-58753D01*
X103239Y-58810D01*
X103268Y-58848D01*
X103296Y-58867D01*
X103353Y-58886D01*
X103496Y-58886D01*
X103553Y-58867D01*
X103582Y-58848D01*
X103610Y-58810D01*
X103610Y-58696D01*
X103582Y-58658D01*
X103553Y-58639D01*
X101939Y-56753D02*
X101939Y-56943D01*
X102110Y-56715D02*
X101510Y-56848D01*
X102110Y-56982D01*
X101510Y-57058D02*
X101510Y-57286D01*
X102110Y-57172D02*
X101510Y-57172D01*
X102110Y-57420D02*
X101510Y-57420D01*
X101939Y-57553D01*
X101510Y-57686D01*
X102110Y-57686D01*
X101796Y-57877D02*
X101796Y-58010D01*
X102110Y-58067D02*
X102110Y-57877D01*
X101510Y-57877D01*
X101510Y-58067D01*
X101539Y-58448D02*
X101510Y-58410D01*
X101510Y-58353D01*
X101539Y-58296D01*
X101596Y-58258D01*
X101653Y-58239D01*
X101768Y-58220D01*
X101853Y-58220D01*
X101968Y-58239D01*
X102025Y-58258D01*
X102082Y-58296D01*
X102110Y-58353D01*
X102110Y-58391D01*
X102082Y-58448D01*
X102053Y-58467D01*
X101853Y-58467D01*
X101853Y-58391D01*
X101939Y-58620D02*
X101939Y-58810D01*
X102110Y-58582D02*
X101510Y-58715D01*
X102110Y-58848D01*
X101510Y-58943D02*
X101510Y-59191D01*
X101739Y-59058D01*
X101739Y-59115D01*
X101768Y-59153D01*
X101796Y-59172D01*
X101853Y-59191D01*
X101996Y-59191D01*
X102053Y-59172D01*
X102082Y-59153D01*
X102110Y-59115D01*
X102110Y-59001D01*
X102082Y-58962D01*
X102053Y-58943D01*
X101568Y-59343D02*
X101539Y-59362D01*
X101510Y-59401D01*
X101510Y-59496D01*
X101539Y-59534D01*
X101568Y-59553D01*
X101625Y-59572D01*
X101682Y-59572D01*
X101768Y-59553D01*
X102110Y-59324D01*
X102110Y-59572D01*
X101510Y-59743D02*
X101996Y-59743D01*
X102053Y-59762D01*
X102082Y-59782D01*
X102110Y-59820D01*
X102110Y-59896D01*
X102082Y-59934D01*
X102053Y-59953D01*
X101996Y-59972D01*
X101510Y-59972D01*
X101710Y-60334D02*
X102110Y-60334D01*
X101482Y-60239D02*
X101910Y-60143D01*
X101910Y-60391D01*
X84497Y-49424D02*
X84497Y-49910D01*
X84478Y-49967D01*
X84459Y-49995D01*
X84421Y-50024D01*
X84345Y-50024D01*
X84307Y-49995D01*
X84288Y-49967D01*
X84269Y-49910D01*
X84269Y-49424D01*
X83907Y-49424D02*
X83983Y-49424D01*
X84021Y-49452D01*
X84040Y-49481D01*
X84078Y-49567D01*
X84097Y-49681D01*
X84097Y-49910D01*
X84078Y-49967D01*
X84059Y-49995D01*
X84021Y-50024D01*
X83945Y-50024D01*
X83907Y-49995D01*
X83888Y-49967D01*
X83869Y-49910D01*
X83869Y-49767D01*
X83888Y-49710D01*
X83907Y-49681D01*
X83945Y-49652D01*
X84021Y-49652D01*
X84059Y-49681D01*
X84078Y-49710D01*
X84097Y-49767D01*
X86002Y-51352D02*
X85811Y-51352D01*
X86040Y-51524D02*
X85907Y-50924D01*
X85773Y-51524D01*
X85697Y-50924D02*
X85469Y-50924D01*
X85583Y-51524D02*
X85583Y-50924D01*
X85335Y-51524D02*
X85335Y-50924D01*
X85202Y-51352D01*
X85069Y-50924D01*
X85069Y-51524D01*
X84878Y-51210D02*
X84745Y-51210D01*
X84688Y-51524D02*
X84878Y-51524D01*
X84878Y-50924D01*
X84688Y-50924D01*
X84307Y-50952D02*
X84345Y-50924D01*
X84402Y-50924D01*
X84459Y-50952D01*
X84497Y-51010D01*
X84516Y-51067D01*
X84535Y-51181D01*
X84535Y-51267D01*
X84516Y-51381D01*
X84497Y-51438D01*
X84459Y-51495D01*
X84402Y-51524D01*
X84364Y-51524D01*
X84307Y-51495D01*
X84288Y-51467D01*
X84288Y-51267D01*
X84364Y-51267D01*
X84135Y-51352D02*
X83945Y-51352D01*
X84173Y-51524D02*
X84040Y-50924D01*
X83907Y-51524D01*
X83811Y-50924D02*
X83564Y-50924D01*
X83697Y-51152D01*
X83640Y-51152D01*
X83602Y-51181D01*
X83583Y-51210D01*
X83564Y-51267D01*
X83564Y-51410D01*
X83583Y-51467D01*
X83602Y-51495D01*
X83640Y-51524D01*
X83754Y-51524D01*
X83792Y-51495D01*
X83811Y-51467D01*
X83411Y-50981D02*
X83392Y-50952D01*
X83354Y-50924D01*
X83259Y-50924D01*
X83221Y-50952D01*
X83202Y-50981D01*
X83183Y-51038D01*
X83183Y-51095D01*
X83202Y-51181D01*
X83431Y-51524D01*
X83183Y-51524D01*
X83011Y-50924D02*
X83011Y-51410D01*
X82992Y-51467D01*
X82973Y-51495D01*
X82935Y-51524D01*
X82859Y-51524D01*
X82821Y-51495D01*
X82802Y-51467D01*
X82783Y-51410D01*
X82783Y-50924D01*
X82421Y-51124D02*
X82421Y-51524D01*
X82516Y-50895D02*
X82611Y-51324D01*
X82364Y-51324D01*
X94001Y-52674D02*
X94406Y-52674D01*
X94453Y-52693D01*
X94477Y-52712D01*
X94501Y-52750D01*
X94501Y-52826D01*
X94477Y-52864D01*
X94453Y-52883D01*
X94406Y-52902D01*
X94001Y-52902D01*
X94501Y-53302D02*
X94501Y-53074D01*
X94501Y-53188D02*
X94001Y-53188D01*
X94073Y-53150D01*
X94120Y-53112D01*
X94144Y-53074D01*
X94168Y-53645D02*
X94501Y-53645D01*
X93977Y-53550D02*
X94334Y-53455D01*
X94334Y-53702D01*
X92751Y-50950D02*
X92751Y-51178D01*
X93251Y-51064D02*
X92751Y-51064D01*
X92751Y-51312D02*
X93156Y-51312D01*
X93203Y-51331D01*
X93227Y-51350D01*
X93251Y-51388D01*
X93251Y-51464D01*
X93227Y-51502D01*
X93203Y-51521D01*
X93156Y-51540D01*
X92751Y-51540D01*
X93227Y-51712D02*
X93251Y-51769D01*
X93251Y-51864D01*
X93227Y-51902D01*
X93203Y-51921D01*
X93156Y-51940D01*
X93108Y-51940D01*
X93061Y-51921D01*
X93037Y-51902D01*
X93013Y-51864D01*
X92989Y-51788D01*
X92965Y-51750D01*
X92942Y-51731D01*
X92894Y-51712D01*
X92846Y-51712D01*
X92799Y-51731D01*
X92775Y-51750D01*
X92751Y-51788D01*
X92751Y-51883D01*
X92775Y-51940D01*
X92989Y-52245D02*
X93013Y-52302D01*
X93037Y-52321D01*
X93084Y-52340D01*
X93156Y-52340D01*
X93203Y-52321D01*
X93227Y-52302D01*
X93251Y-52264D01*
X93251Y-52112D01*
X92751Y-52112D01*
X92751Y-52245D01*
X92775Y-52283D01*
X92799Y-52302D01*
X92846Y-52321D01*
X92894Y-52321D01*
X92942Y-52302D01*
X92965Y-52283D01*
X92989Y-52245D01*
X92989Y-52112D01*
X92799Y-52493D02*
X92775Y-52512D01*
X92751Y-52550D01*
X92751Y-52645D01*
X92775Y-52683D01*
X92799Y-52702D01*
X92846Y-52721D01*
X92894Y-52721D01*
X92965Y-52702D01*
X93251Y-52474D01*
X93251Y-52721D01*
X92751Y-52969D02*
X92751Y-53007D01*
X92775Y-53045D01*
X92799Y-53064D01*
X92846Y-53083D01*
X92942Y-53102D01*
X93061Y-53102D01*
X93156Y-53083D01*
X93203Y-53064D01*
X93227Y-53045D01*
X93251Y-53007D01*
X93251Y-52969D01*
X93227Y-52931D01*
X93203Y-52912D01*
X93156Y-52893D01*
X93061Y-52874D01*
X92942Y-52874D01*
X92846Y-52893D01*
X92799Y-52912D01*
X92775Y-52931D01*
X92751Y-52969D01*
X92918Y-53445D02*
X93251Y-53445D01*
X92727Y-53350D02*
X93084Y-53255D01*
X93084Y-53502D01*
X92751Y-53826D02*
X92751Y-53750D01*
X92775Y-53712D01*
X92799Y-53693D01*
X92870Y-53655D01*
X92965Y-53635D01*
X93156Y-53635D01*
X93203Y-53655D01*
X93227Y-53674D01*
X93251Y-53712D01*
X93251Y-53788D01*
X93227Y-53826D01*
X93203Y-53845D01*
X93156Y-53864D01*
X93037Y-53864D01*
X92989Y-53845D01*
X92965Y-53826D01*
X92942Y-53788D01*
X92942Y-53712D01*
X92965Y-53674D01*
X92989Y-53655D01*
X93037Y-53635D01*
X92989Y-54169D02*
X93013Y-54226D01*
X93037Y-54245D01*
X93084Y-54264D01*
X93156Y-54264D01*
X93203Y-54245D01*
X93227Y-54226D01*
X93251Y-54188D01*
X93251Y-54035D01*
X92751Y-54035D01*
X92751Y-54169D01*
X92775Y-54207D01*
X92799Y-54226D01*
X92846Y-54245D01*
X92894Y-54245D01*
X92942Y-54226D01*
X92965Y-54207D01*
X92989Y-54169D01*
X92989Y-54035D01*
X92751Y-54378D02*
X93251Y-54512D01*
X92751Y-54645D01*
X92989Y-54912D02*
X92989Y-54778D01*
X93251Y-54778D02*
X92751Y-54778D01*
X92751Y-54969D01*
X93251Y-55350D02*
X93013Y-55216D01*
X93251Y-55121D02*
X92751Y-55121D01*
X92751Y-55274D01*
X92775Y-55312D01*
X92799Y-55331D01*
X92846Y-55350D01*
X92918Y-55350D01*
X92965Y-55331D01*
X92989Y-55312D01*
X93013Y-55274D01*
X93013Y-55121D01*
G54D10*
X97946Y-61311D02*
X97889Y-61330D01*
X97796Y-61330D01*
X97758Y-61311D01*
X97739Y-61292D01*
X97721Y-61255D01*
X97721Y-61217D01*
X97739Y-61180D01*
X97758Y-61161D01*
X97796Y-61142D01*
X97871Y-61124D01*
X97908Y-61105D01*
X97927Y-61086D01*
X97946Y-61049D01*
X97946Y-61011D01*
X97927Y-60974D01*
X97908Y-60955D01*
X97871Y-60936D01*
X97777Y-60936D01*
X97721Y-60955D01*
X97589Y-60936D02*
X97496Y-61330D01*
X97421Y-61049D01*
X97346Y-61330D01*
X97252Y-60936D01*
X96915Y-60936D02*
X97102Y-60936D01*
X97121Y-61124D01*
X97102Y-61105D01*
X97065Y-61086D01*
X96971Y-61086D01*
X96933Y-61105D01*
X96915Y-61124D01*
X96896Y-61161D01*
X96896Y-61255D01*
X96915Y-61292D01*
X96933Y-61311D01*
X96971Y-61330D01*
X97065Y-61330D01*
X97102Y-61311D01*
X97121Y-61292D01*
X98639Y-57530D02*
X98639Y-57136D01*
X98508Y-57417D01*
X98377Y-57136D01*
X98377Y-57530D01*
X97964Y-57492D02*
X97983Y-57511D01*
X98039Y-57530D01*
X98077Y-57530D01*
X98133Y-57511D01*
X98171Y-57474D01*
X98189Y-57436D01*
X98208Y-57361D01*
X98208Y-57305D01*
X98189Y-57230D01*
X98171Y-57192D01*
X98133Y-57155D01*
X98077Y-57136D01*
X98039Y-57136D01*
X97983Y-57155D01*
X97964Y-57174D01*
X97796Y-57136D02*
X97796Y-57455D01*
X97777Y-57492D01*
X97758Y-57511D01*
X97721Y-57530D01*
X97646Y-57530D01*
X97608Y-57511D01*
X97589Y-57492D01*
X97571Y-57455D01*
X97571Y-57136D01*
X97477Y-57567D02*
X97177Y-57567D01*
X96858Y-57530D02*
X96990Y-57342D01*
X97083Y-57530D02*
X97083Y-57136D01*
X96933Y-57136D01*
X96896Y-57155D01*
X96877Y-57174D01*
X96858Y-57211D01*
X96858Y-57267D01*
X96877Y-57305D01*
X96896Y-57324D01*
X96933Y-57342D01*
X97083Y-57342D01*
X96708Y-57511D02*
X96652Y-57530D01*
X96558Y-57530D01*
X96521Y-57511D01*
X96502Y-57492D01*
X96483Y-57455D01*
X96483Y-57417D01*
X96502Y-57380D01*
X96521Y-57361D01*
X96558Y-57342D01*
X96633Y-57324D01*
X96671Y-57305D01*
X96690Y-57286D01*
X96708Y-57249D01*
X96708Y-57211D01*
X96690Y-57174D01*
X96671Y-57155D01*
X96633Y-57136D01*
X96540Y-57136D01*
X96483Y-57155D01*
X96371Y-57136D02*
X96146Y-57136D01*
X96258Y-57530D02*
X96258Y-57136D01*
X88300Y-49530D02*
X88244Y-49549D01*
X88150Y-49549D01*
X88113Y-49530D01*
X88094Y-49511D01*
X88075Y-49474D01*
X88075Y-49436D01*
X88094Y-49399D01*
X88113Y-49380D01*
X88150Y-49361D01*
X88225Y-49342D01*
X88263Y-49324D01*
X88281Y-49305D01*
X88300Y-49267D01*
X88300Y-49230D01*
X88281Y-49192D01*
X88263Y-49174D01*
X88225Y-49155D01*
X88131Y-49155D01*
X88075Y-49174D01*
X87944Y-49155D02*
X87850Y-49549D01*
X87775Y-49267D01*
X87700Y-49549D01*
X87606Y-49155D01*
X87288Y-49155D02*
X87363Y-49155D01*
X87400Y-49174D01*
X87419Y-49192D01*
X87456Y-49249D01*
X87475Y-49324D01*
X87475Y-49474D01*
X87456Y-49511D01*
X87438Y-49530D01*
X87400Y-49549D01*
X87325Y-49549D01*
X87288Y-49530D01*
X87269Y-49511D01*
X87250Y-49474D01*
X87250Y-49380D01*
X87269Y-49342D01*
X87288Y-49324D01*
X87325Y-49305D01*
X87400Y-49305D01*
X87438Y-49324D01*
X87456Y-49342D01*
X87475Y-49380D01*
X90426Y-50179D02*
X90032Y-50179D01*
X90313Y-50310D01*
X90032Y-50441D01*
X90426Y-50441D01*
X90388Y-50853D02*
X90407Y-50835D01*
X90426Y-50778D01*
X90426Y-50741D01*
X90407Y-50685D01*
X90369Y-50647D01*
X90332Y-50628D01*
X90257Y-50610D01*
X90201Y-50610D01*
X90126Y-50628D01*
X90088Y-50647D01*
X90051Y-50685D01*
X90032Y-50741D01*
X90032Y-50778D01*
X90051Y-50835D01*
X90069Y-50853D01*
X90032Y-51022D02*
X90351Y-51022D01*
X90388Y-51041D01*
X90407Y-51060D01*
X90426Y-51097D01*
X90426Y-51172D01*
X90407Y-51210D01*
X90388Y-51228D01*
X90351Y-51247D01*
X90032Y-51247D01*
X90463Y-51341D02*
X90463Y-51641D01*
X90426Y-51960D02*
X90238Y-51828D01*
X90426Y-51735D02*
X90032Y-51735D01*
X90032Y-51885D01*
X90051Y-51922D01*
X90069Y-51941D01*
X90107Y-51960D01*
X90163Y-51960D01*
X90201Y-51941D01*
X90219Y-51922D01*
X90238Y-51885D01*
X90238Y-51735D01*
X90407Y-52110D02*
X90426Y-52166D01*
X90426Y-52260D01*
X90407Y-52297D01*
X90388Y-52316D01*
X90351Y-52335D01*
X90313Y-52335D01*
X90276Y-52316D01*
X90257Y-52297D01*
X90238Y-52260D01*
X90219Y-52185D01*
X90201Y-52147D01*
X90182Y-52128D01*
X90144Y-52110D01*
X90107Y-52110D01*
X90069Y-52128D01*
X90051Y-52147D01*
X90032Y-52185D01*
X90032Y-52278D01*
X90051Y-52335D01*
X90032Y-52447D02*
X90032Y-52672D01*
X90426Y-52559D02*
X90032Y-52559D01*
G54D17*
X98086Y-48970D02*
X98100Y-48985D01*
X98143Y-48999D01*
X98172Y-48999D01*
X98215Y-48985D01*
X98243Y-48956D01*
X98257Y-48927D01*
X98272Y-48870D01*
X98272Y-48827D01*
X98257Y-48770D01*
X98243Y-48742D01*
X98215Y-48713D01*
X98172Y-48699D01*
X98143Y-48699D01*
X98100Y-48713D01*
X98086Y-48727D01*
X97800Y-48999D02*
X97972Y-48999D01*
X97886Y-48999D02*
X97886Y-48699D01*
X97915Y-48742D01*
X97943Y-48770D01*
X97972Y-48785D01*
X97529Y-48699D02*
X97672Y-48699D01*
X97686Y-48842D01*
X97672Y-48827D01*
X97643Y-48813D01*
X97572Y-48813D01*
X97543Y-48827D01*
X97529Y-48842D01*
X97515Y-48870D01*
X97515Y-48942D01*
X97529Y-48970D01*
X97543Y-48985D01*
X97572Y-48999D01*
X97643Y-48999D01*
X97672Y-48985D01*
X97686Y-48970D01*
X100566Y-50033D02*
X100581Y-50048D01*
X100624Y-50062D01*
X100652Y-50062D01*
X100695Y-50048D01*
X100724Y-50019D01*
X100738Y-49990D01*
X100752Y-49933D01*
X100752Y-49890D01*
X100738Y-49833D01*
X100724Y-49805D01*
X100695Y-49776D01*
X100652Y-49762D01*
X100624Y-49762D01*
X100581Y-49776D01*
X100566Y-49790D01*
X100281Y-50062D02*
X100452Y-50062D01*
X100366Y-50062D02*
X100366Y-49762D01*
X100395Y-49805D01*
X100424Y-49833D01*
X100452Y-49848D01*
X100024Y-49762D02*
X100081Y-49762D01*
X100109Y-49776D01*
X100124Y-49790D01*
X100152Y-49833D01*
X100166Y-49890D01*
X100166Y-50005D01*
X100152Y-50033D01*
X100138Y-50048D01*
X100109Y-50062D01*
X100052Y-50062D01*
X100024Y-50048D01*
X100009Y-50033D01*
X99995Y-50005D01*
X99995Y-49933D01*
X100009Y-49905D01*
X100024Y-49890D01*
X100052Y-49876D01*
X100109Y-49876D01*
X100138Y-49890D01*
X100152Y-49905D01*
X100166Y-49933D01*
X103598Y-51411D02*
X103612Y-51426D01*
X103655Y-51440D01*
X103684Y-51440D01*
X103726Y-51426D01*
X103755Y-51397D01*
X103769Y-51368D01*
X103784Y-51311D01*
X103784Y-51268D01*
X103769Y-51211D01*
X103755Y-51183D01*
X103726Y-51154D01*
X103684Y-51140D01*
X103655Y-51140D01*
X103612Y-51154D01*
X103598Y-51168D01*
X103484Y-51168D02*
X103469Y-51154D01*
X103441Y-51140D01*
X103369Y-51140D01*
X103341Y-51154D01*
X103326Y-51168D01*
X103312Y-51197D01*
X103312Y-51226D01*
X103326Y-51268D01*
X103498Y-51440D01*
X103312Y-51440D01*
X103026Y-51440D02*
X103198Y-51440D01*
X103112Y-51440D02*
X103112Y-51140D01*
X103141Y-51183D01*
X103169Y-51211D01*
X103198Y-51226D01*
X108065Y-48094D02*
X108079Y-48080D01*
X108093Y-48037D01*
X108093Y-48008D01*
X108079Y-47965D01*
X108051Y-47937D01*
X108022Y-47923D01*
X107965Y-47908D01*
X107922Y-47908D01*
X107865Y-47923D01*
X107836Y-47937D01*
X107808Y-47965D01*
X107793Y-48008D01*
X107793Y-48037D01*
X107808Y-48080D01*
X107822Y-48094D01*
X107822Y-48208D02*
X107808Y-48223D01*
X107793Y-48251D01*
X107793Y-48323D01*
X107808Y-48351D01*
X107822Y-48365D01*
X107851Y-48380D01*
X107879Y-48380D01*
X107922Y-48365D01*
X108093Y-48194D01*
X108093Y-48380D01*
X107793Y-48480D02*
X107793Y-48665D01*
X107908Y-48565D01*
X107908Y-48608D01*
X107922Y-48637D01*
X107936Y-48651D01*
X107965Y-48665D01*
X108036Y-48665D01*
X108065Y-48651D01*
X108079Y-48637D01*
X108093Y-48608D01*
X108093Y-48523D01*
X108079Y-48494D01*
X108065Y-48480D01*
X102385Y-48094D02*
X102242Y-47994D01*
X102385Y-47923D02*
X102085Y-47923D01*
X102085Y-48037D01*
X102099Y-48065D01*
X102113Y-48080D01*
X102142Y-48094D01*
X102185Y-48094D01*
X102213Y-48080D01*
X102228Y-48065D01*
X102242Y-48037D01*
X102242Y-47923D01*
X102085Y-48194D02*
X102085Y-48380D01*
X102199Y-48280D01*
X102199Y-48323D01*
X102213Y-48351D01*
X102228Y-48365D01*
X102256Y-48380D01*
X102328Y-48380D01*
X102356Y-48365D01*
X102370Y-48351D01*
X102385Y-48323D01*
X102385Y-48237D01*
X102370Y-48208D01*
X102356Y-48194D01*
X102085Y-48565D02*
X102085Y-48594D01*
X102099Y-48623D01*
X102113Y-48637D01*
X102142Y-48651D01*
X102199Y-48665D01*
X102270Y-48665D01*
X102328Y-48651D01*
X102356Y-48637D01*
X102370Y-48623D01*
X102385Y-48594D01*
X102385Y-48565D01*
X102370Y-48537D01*
X102356Y-48523D01*
X102328Y-48508D01*
X102270Y-48494D01*
X102199Y-48494D01*
X102142Y-48508D01*
X102113Y-48523D01*
X102099Y-48537D01*
X102085Y-48565D01*
X103763Y-48094D02*
X103620Y-47994D01*
X103763Y-47923D02*
X103463Y-47923D01*
X103463Y-48037D01*
X103477Y-48065D01*
X103491Y-48080D01*
X103520Y-48094D01*
X103563Y-48094D01*
X103591Y-48080D01*
X103606Y-48065D01*
X103620Y-48037D01*
X103620Y-47923D01*
X103463Y-48194D02*
X103463Y-48380D01*
X103577Y-48280D01*
X103577Y-48323D01*
X103591Y-48351D01*
X103606Y-48365D01*
X103634Y-48380D01*
X103706Y-48380D01*
X103734Y-48365D01*
X103748Y-48351D01*
X103763Y-48323D01*
X103763Y-48237D01*
X103748Y-48208D01*
X103734Y-48194D01*
X103763Y-48665D02*
X103763Y-48494D01*
X103763Y-48580D02*
X103463Y-48580D01*
X103506Y-48551D01*
X103534Y-48523D01*
X103548Y-48494D01*
X106569Y-48094D02*
X106583Y-48080D01*
X106597Y-48037D01*
X106597Y-48008D01*
X106583Y-47965D01*
X106554Y-47937D01*
X106526Y-47923D01*
X106469Y-47908D01*
X106426Y-47908D01*
X106369Y-47923D01*
X106340Y-47937D01*
X106312Y-47965D01*
X106297Y-48008D01*
X106297Y-48037D01*
X106312Y-48080D01*
X106326Y-48094D01*
X106597Y-48380D02*
X106597Y-48208D01*
X106597Y-48294D02*
X106297Y-48294D01*
X106340Y-48265D01*
X106369Y-48237D01*
X106383Y-48208D01*
X106297Y-48480D02*
X106297Y-48680D01*
X106597Y-48551D01*
X105141Y-48094D02*
X104998Y-47994D01*
X105141Y-47923D02*
X104841Y-47923D01*
X104841Y-48037D01*
X104855Y-48065D01*
X104869Y-48080D01*
X104898Y-48094D01*
X104941Y-48094D01*
X104969Y-48080D01*
X104983Y-48065D01*
X104998Y-48037D01*
X104998Y-47923D01*
X104869Y-48208D02*
X104855Y-48223D01*
X104841Y-48251D01*
X104841Y-48323D01*
X104855Y-48351D01*
X104869Y-48365D01*
X104898Y-48380D01*
X104926Y-48380D01*
X104969Y-48365D01*
X105141Y-48194D01*
X105141Y-48380D01*
X105141Y-48523D02*
X105141Y-48580D01*
X105126Y-48608D01*
X105112Y-48623D01*
X105069Y-48651D01*
X105012Y-48665D01*
X104898Y-48665D01*
X104869Y-48651D01*
X104855Y-48637D01*
X104841Y-48608D01*
X104841Y-48551D01*
X104855Y-48523D01*
X104869Y-48508D01*
X104898Y-48494D01*
X104969Y-48494D01*
X104998Y-48508D01*
X105012Y-48523D01*
X105026Y-48551D01*
X105026Y-48608D01*
X105012Y-48637D01*
X104998Y-48651D01*
X104969Y-48665D01*
G54D10*
X93844Y-50968D02*
X93862Y-50987D01*
X93919Y-51005D01*
X93956Y-51005D01*
X94012Y-50987D01*
X94050Y-50949D01*
X94069Y-50912D01*
X94087Y-50837D01*
X94087Y-50780D01*
X94069Y-50705D01*
X94050Y-50668D01*
X94012Y-50630D01*
X93956Y-50612D01*
X93919Y-50612D01*
X93862Y-50630D01*
X93844Y-50649D01*
X93600Y-50612D02*
X93525Y-50612D01*
X93488Y-50630D01*
X93450Y-50668D01*
X93431Y-50743D01*
X93431Y-50874D01*
X93450Y-50949D01*
X93488Y-50987D01*
X93525Y-51005D01*
X93600Y-51005D01*
X93637Y-50987D01*
X93675Y-50949D01*
X93694Y-50874D01*
X93694Y-50743D01*
X93675Y-50668D01*
X93637Y-50630D01*
X93600Y-50612D01*
X93263Y-51005D02*
X93263Y-50612D01*
X93038Y-51005D01*
X93038Y-50612D01*
X92888Y-50612D02*
X92644Y-50612D01*
X92775Y-50762D01*
X92719Y-50762D01*
X92681Y-50780D01*
X92663Y-50799D01*
X92644Y-50837D01*
X92644Y-50930D01*
X92663Y-50968D01*
X92681Y-50987D01*
X92719Y-51005D01*
X92831Y-51005D01*
X92869Y-50987D01*
X92888Y-50968D01*
X89082Y-47218D02*
X89082Y-47406D01*
X89194Y-47181D02*
X88801Y-47312D01*
X89194Y-47443D01*
X88801Y-47518D02*
X89194Y-47649D01*
X88801Y-47781D01*
X89194Y-48137D02*
X89007Y-48006D01*
X89194Y-47912D02*
X88801Y-47912D01*
X88801Y-48062D01*
X88819Y-48099D01*
X88838Y-48118D01*
X88876Y-48137D01*
X88932Y-48137D01*
X88969Y-48118D01*
X88988Y-48099D01*
X89007Y-48062D01*
X89007Y-47912D01*
X89044Y-48306D02*
X89044Y-48606D01*
X89194Y-48793D02*
X88801Y-48793D01*
X89176Y-48962D02*
X89194Y-49018D01*
X89194Y-49112D01*
X89176Y-49149D01*
X89157Y-49168D01*
X89119Y-49187D01*
X89082Y-49187D01*
X89044Y-49168D01*
X89026Y-49149D01*
X89007Y-49112D01*
X88988Y-49037D01*
X88969Y-48999D01*
X88951Y-48981D01*
X88913Y-48962D01*
X88876Y-48962D01*
X88838Y-48981D01*
X88819Y-48999D01*
X88801Y-49037D01*
X88801Y-49131D01*
X88819Y-49187D01*
X89194Y-49356D02*
X88801Y-49356D01*
X88801Y-49505D01*
X88819Y-49543D01*
X88838Y-49562D01*
X88876Y-49580D01*
X88932Y-49580D01*
X88969Y-49562D01*
X88988Y-49543D01*
X89007Y-49505D01*
X89007Y-49356D01*
X89044Y-49749D02*
X89044Y-50049D01*
X88801Y-50405D02*
X88801Y-50330D01*
X88819Y-50293D01*
X88838Y-50274D01*
X88894Y-50237D01*
X88969Y-50218D01*
X89119Y-50218D01*
X89157Y-50237D01*
X89176Y-50255D01*
X89194Y-50293D01*
X89194Y-50368D01*
X89176Y-50405D01*
X89157Y-50424D01*
X89119Y-50443D01*
X89026Y-50443D01*
X88988Y-50424D01*
X88969Y-50405D01*
X88951Y-50368D01*
X88951Y-50293D01*
X88969Y-50255D01*
X88988Y-50237D01*
X89026Y-50218D01*
X89044Y-50612D02*
X89044Y-50912D01*
X89194Y-51099D02*
X88801Y-51099D01*
X88801Y-51193D01*
X88819Y-51249D01*
X88857Y-51287D01*
X88894Y-51305D01*
X88969Y-51324D01*
X89026Y-51324D01*
X89101Y-51305D01*
X89138Y-51287D01*
X89176Y-51249D01*
X89194Y-51193D01*
X89194Y-51099D01*
X89194Y-51718D02*
X89007Y-51586D01*
X89194Y-51493D02*
X88801Y-51493D01*
X88801Y-51643D01*
X88819Y-51680D01*
X88838Y-51699D01*
X88876Y-51718D01*
X88932Y-51718D01*
X88969Y-51699D01*
X88988Y-51680D01*
X89007Y-51643D01*
X89007Y-51493D01*
X106961Y-53379D02*
X106979Y-53361D01*
X106998Y-53304D01*
X106998Y-53267D01*
X106979Y-53211D01*
X106942Y-53173D01*
X106904Y-53154D01*
X106829Y-53136D01*
X106773Y-53136D01*
X106698Y-53154D01*
X106661Y-53173D01*
X106623Y-53211D01*
X106604Y-53267D01*
X106604Y-53304D01*
X106623Y-53361D01*
X106642Y-53379D01*
X106604Y-53623D02*
X106604Y-53698D01*
X106623Y-53736D01*
X106661Y-53773D01*
X106736Y-53792D01*
X106867Y-53792D01*
X106942Y-53773D01*
X106979Y-53736D01*
X106998Y-53698D01*
X106998Y-53623D01*
X106979Y-53586D01*
X106942Y-53548D01*
X106867Y-53529D01*
X106736Y-53529D01*
X106661Y-53548D01*
X106623Y-53586D01*
X106604Y-53623D01*
X106998Y-53961D02*
X106604Y-53961D01*
X106998Y-54186D01*
X106604Y-54186D01*
X106642Y-54354D02*
X106623Y-54373D01*
X106604Y-54411D01*
X106604Y-54504D01*
X106623Y-54542D01*
X106642Y-54560D01*
X106679Y-54579D01*
X106717Y-54579D01*
X106773Y-54560D01*
X106998Y-54336D01*
X106998Y-54579D01*
X100746Y-51668D02*
X100746Y-51855D01*
X100858Y-51630D02*
X100464Y-51761D01*
X100858Y-51893D01*
X100464Y-51968D02*
X100858Y-52099D01*
X100464Y-52230D01*
X100858Y-52586D02*
X100671Y-52455D01*
X100858Y-52361D02*
X100464Y-52361D01*
X100464Y-52511D01*
X100483Y-52549D01*
X100502Y-52568D01*
X100539Y-52586D01*
X100596Y-52586D01*
X100633Y-52568D01*
X100652Y-52549D01*
X100671Y-52511D01*
X100671Y-52361D01*
X100708Y-52755D02*
X100708Y-53055D01*
X100858Y-53243D02*
X100464Y-53243D01*
X100839Y-53411D02*
X100858Y-53468D01*
X100858Y-53561D01*
X100839Y-53599D01*
X100821Y-53617D01*
X100783Y-53636D01*
X100746Y-53636D01*
X100708Y-53617D01*
X100689Y-53599D01*
X100671Y-53561D01*
X100652Y-53486D01*
X100633Y-53449D01*
X100614Y-53430D01*
X100577Y-53411D01*
X100539Y-53411D01*
X100502Y-53430D01*
X100483Y-53449D01*
X100464Y-53486D01*
X100464Y-53580D01*
X100483Y-53636D01*
X100858Y-53805D02*
X100464Y-53805D01*
X100464Y-53955D01*
X100483Y-53992D01*
X100502Y-54011D01*
X100539Y-54030D01*
X100596Y-54030D01*
X100633Y-54011D01*
X100652Y-53992D01*
X100671Y-53955D01*
X100671Y-53805D01*
X100708Y-54199D02*
X100708Y-54499D01*
X100464Y-54855D02*
X100464Y-54780D01*
X100483Y-54742D01*
X100502Y-54724D01*
X100558Y-54686D01*
X100633Y-54667D01*
X100783Y-54667D01*
X100821Y-54686D01*
X100839Y-54705D01*
X100858Y-54742D01*
X100858Y-54817D01*
X100839Y-54855D01*
X100821Y-54874D01*
X100783Y-54892D01*
X100689Y-54892D01*
X100652Y-54874D01*
X100633Y-54855D01*
X100614Y-54817D01*
X100614Y-54742D01*
X100633Y-54705D01*
X100652Y-54686D01*
X100689Y-54667D01*
X100708Y-55061D02*
X100708Y-55361D01*
X100858Y-55548D02*
X100464Y-55548D01*
X100464Y-55642D01*
X100483Y-55698D01*
X100521Y-55736D01*
X100558Y-55755D01*
X100633Y-55773D01*
X100689Y-55773D01*
X100764Y-55755D01*
X100802Y-55736D01*
X100839Y-55698D01*
X100858Y-55642D01*
X100858Y-55548D01*
X100858Y-56167D02*
X100671Y-56036D01*
X100858Y-55942D02*
X100464Y-55942D01*
X100464Y-56092D01*
X100483Y-56130D01*
X100502Y-56148D01*
X100539Y-56167D01*
X100596Y-56167D01*
X100633Y-56148D01*
X100652Y-56130D01*
X100671Y-56092D01*
X100671Y-55942D01*
X72544Y-50848D02*
X72544Y-51167D01*
X72525Y-51204D01*
X72506Y-51223D01*
X72469Y-51242D01*
X72394Y-51242D01*
X72356Y-51223D01*
X72337Y-51204D01*
X72319Y-51167D01*
X72319Y-50848D01*
X72169Y-50848D02*
X71906Y-50848D01*
X72075Y-51242D01*
X75371Y-50848D02*
X75371Y-51167D01*
X75352Y-51204D01*
X75333Y-51223D01*
X75296Y-51242D01*
X75221Y-51242D01*
X75183Y-51223D01*
X75164Y-51204D01*
X75146Y-51167D01*
X75146Y-50848D01*
X74977Y-51223D02*
X74921Y-51242D01*
X74827Y-51242D01*
X74790Y-51223D01*
X74771Y-51204D01*
X74752Y-51167D01*
X74752Y-51129D01*
X74771Y-51092D01*
X74790Y-51073D01*
X74827Y-51054D01*
X74902Y-51035D01*
X74940Y-51017D01*
X74958Y-50998D01*
X74977Y-50960D01*
X74977Y-50923D01*
X74958Y-50885D01*
X74940Y-50867D01*
X74902Y-50848D01*
X74808Y-50848D01*
X74752Y-50867D01*
X74452Y-51035D02*
X74396Y-51054D01*
X74377Y-51073D01*
X74358Y-51110D01*
X74358Y-51167D01*
X74377Y-51204D01*
X74396Y-51223D01*
X74433Y-51242D01*
X74583Y-51242D01*
X74583Y-50848D01*
X74452Y-50848D01*
X74415Y-50867D01*
X74396Y-50885D01*
X74377Y-50923D01*
X74377Y-50960D01*
X74396Y-50998D01*
X74415Y-51017D01*
X74452Y-51035D01*
X74583Y-51035D01*
X74283Y-51279D02*
X73983Y-51279D01*
X73665Y-51204D02*
X73683Y-51223D01*
X73740Y-51242D01*
X73777Y-51242D01*
X73833Y-51223D01*
X73871Y-51185D01*
X73890Y-51148D01*
X73908Y-51073D01*
X73908Y-51017D01*
X73890Y-50942D01*
X73871Y-50904D01*
X73833Y-50867D01*
X73777Y-50848D01*
X73740Y-50848D01*
X73683Y-50867D01*
X73665Y-50885D01*
X73515Y-51129D02*
X73327Y-51129D01*
X73552Y-51242D02*
X73421Y-50848D01*
X73290Y-51242D01*
X73158Y-51242D02*
X73158Y-50848D01*
X73027Y-51129D01*
X72896Y-50848D01*
X72896Y-51242D01*
X98604Y-52880D02*
X98885Y-52880D01*
X98941Y-52861D01*
X98979Y-52824D01*
X98998Y-52768D01*
X98998Y-52730D01*
X98998Y-53068D02*
X98604Y-53068D01*
X98604Y-53218D01*
X98623Y-53255D01*
X98641Y-53274D01*
X98679Y-53293D01*
X98735Y-53293D01*
X98773Y-53274D01*
X98791Y-53255D01*
X98810Y-53218D01*
X98810Y-53068D01*
X98998Y-53667D02*
X98998Y-53443D01*
X98998Y-53555D02*
X98604Y-53555D01*
X98660Y-53517D01*
X98698Y-53480D01*
X98716Y-53443D01*
X96364Y-52261D02*
X96645Y-52261D01*
X96701Y-52243D01*
X96739Y-52205D01*
X96758Y-52149D01*
X96758Y-52111D01*
X96364Y-52449D02*
X96683Y-52449D01*
X96720Y-52468D01*
X96739Y-52486D01*
X96758Y-52524D01*
X96758Y-52599D01*
X96739Y-52636D01*
X96720Y-52655D01*
X96683Y-52674D01*
X96364Y-52674D01*
X96758Y-52861D02*
X96364Y-52861D01*
X96645Y-52993D01*
X96364Y-53124D01*
X96758Y-53124D01*
X96758Y-53311D02*
X96364Y-53311D01*
X96364Y-53461D01*
X96383Y-53499D01*
X96401Y-53517D01*
X96439Y-53536D01*
X96495Y-53536D01*
X96533Y-53517D01*
X96551Y-53499D01*
X96570Y-53461D01*
X96570Y-53311D01*
X96551Y-53705D02*
X96551Y-53836D01*
X96758Y-53892D02*
X96758Y-53705D01*
X96364Y-53705D01*
X96364Y-53892D01*
X96758Y-54286D02*
X96570Y-54155D01*
X96758Y-54061D02*
X96364Y-54061D01*
X96364Y-54211D01*
X96383Y-54249D01*
X96401Y-54267D01*
X96439Y-54286D01*
X96495Y-54286D01*
X96533Y-54267D01*
X96551Y-54249D01*
X96570Y-54211D01*
X96570Y-54061D01*
G54D14*
X96854Y-62497D02*
X96854Y-62982D01*
X96826Y-63040D01*
X96797Y-63068D01*
X96740Y-63097D01*
X96626Y-63097D01*
X96569Y-63068D01*
X96540Y-63040D01*
X96511Y-62982D01*
X96511Y-62497D01*
X96197Y-63097D02*
X96083Y-63097D01*
X96026Y-63068D01*
X95997Y-63040D01*
X95940Y-62954D01*
X95911Y-62840D01*
X95911Y-62611D01*
X95940Y-62554D01*
X95969Y-62525D01*
X96026Y-62497D01*
X96140Y-62497D01*
X96197Y-62525D01*
X96226Y-62554D01*
X96254Y-62611D01*
X96254Y-62754D01*
X96226Y-62811D01*
X96197Y-62840D01*
X96140Y-62868D01*
X96026Y-62868D01*
X95969Y-62840D01*
X95940Y-62811D01*
X95911Y-62754D01*
X99630Y-60292D02*
X99630Y-60778D01*
X99601Y-60835D01*
X99572Y-60863D01*
X99515Y-60892D01*
X99401Y-60892D01*
X99344Y-60863D01*
X99315Y-60835D01*
X99287Y-60778D01*
X99287Y-60292D01*
X99030Y-60863D02*
X98944Y-60892D01*
X98801Y-60892D01*
X98744Y-60863D01*
X98715Y-60835D01*
X98687Y-60778D01*
X98687Y-60721D01*
X98715Y-60663D01*
X98744Y-60635D01*
X98801Y-60606D01*
X98915Y-60578D01*
X98972Y-60549D01*
X99001Y-60521D01*
X99030Y-60463D01*
X99030Y-60406D01*
X99001Y-60349D01*
X98972Y-60321D01*
X98915Y-60292D01*
X98772Y-60292D01*
X98687Y-60321D01*
X98230Y-60578D02*
X98144Y-60606D01*
X98115Y-60635D01*
X98087Y-60692D01*
X98087Y-60778D01*
X98115Y-60835D01*
X98144Y-60863D01*
X98201Y-60892D01*
X98430Y-60892D01*
X98430Y-60292D01*
X98230Y-60292D01*
X98172Y-60321D01*
X98144Y-60349D01*
X98115Y-60406D01*
X98115Y-60463D01*
X98144Y-60521D01*
X98172Y-60549D01*
X98230Y-60578D01*
X98430Y-60578D01*
X97972Y-60949D02*
X97515Y-60949D01*
X97401Y-60721D02*
X97115Y-60721D01*
X97458Y-60892D02*
X97258Y-60292D01*
X97058Y-60892D01*
X97001Y-60949D02*
X96544Y-60949D01*
X96201Y-60578D02*
X96401Y-60578D01*
X96401Y-60892D02*
X96401Y-60292D01*
X96115Y-60292D01*
X95887Y-60578D02*
X95687Y-60578D01*
X95601Y-60892D02*
X95887Y-60892D01*
X95887Y-60292D01*
X95601Y-60292D01*
X95344Y-60892D02*
X95344Y-60292D01*
X95144Y-60721D01*
X94944Y-60292D01*
X94944Y-60892D01*
X94687Y-60721D02*
X94401Y-60721D01*
X94744Y-60892D02*
X94544Y-60292D01*
X94344Y-60892D01*
X93858Y-60892D02*
X94144Y-60892D01*
X94144Y-60292D01*
X93658Y-60578D02*
X93458Y-60578D01*
X93372Y-60892D02*
X93658Y-60892D01*
X93658Y-60292D01*
X93372Y-60292D01*
G54D17*
X74425Y-53006D02*
X74439Y-53020D01*
X74482Y-53034D01*
X74510Y-53034D01*
X74553Y-53020D01*
X74582Y-52991D01*
X74596Y-52963D01*
X74610Y-52906D01*
X74610Y-52863D01*
X74596Y-52806D01*
X74582Y-52777D01*
X74553Y-52749D01*
X74510Y-52734D01*
X74482Y-52734D01*
X74439Y-52749D01*
X74425Y-52763D01*
X74325Y-52734D02*
X74139Y-52734D01*
X74239Y-52849D01*
X74196Y-52849D01*
X74167Y-52863D01*
X74153Y-52877D01*
X74139Y-52906D01*
X74139Y-52977D01*
X74153Y-53006D01*
X74167Y-53020D01*
X74196Y-53034D01*
X74282Y-53034D01*
X74310Y-53020D01*
X74325Y-53006D01*
X74025Y-52763D02*
X74010Y-52749D01*
X73982Y-52734D01*
X73910Y-52734D01*
X73882Y-52749D01*
X73867Y-52763D01*
X73853Y-52791D01*
X73853Y-52820D01*
X73867Y-52863D01*
X74039Y-53034D01*
X73853Y-53034D01*
X76273Y-52425D02*
X76288Y-52410D01*
X76302Y-52368D01*
X76302Y-52339D01*
X76288Y-52296D01*
X76259Y-52268D01*
X76231Y-52253D01*
X76173Y-52239D01*
X76131Y-52239D01*
X76073Y-52253D01*
X76045Y-52268D01*
X76016Y-52296D01*
X76002Y-52339D01*
X76002Y-52368D01*
X76016Y-52410D01*
X76031Y-52425D01*
X76002Y-52525D02*
X76002Y-52710D01*
X76116Y-52610D01*
X76116Y-52653D01*
X76131Y-52682D01*
X76145Y-52696D01*
X76173Y-52710D01*
X76245Y-52710D01*
X76273Y-52696D01*
X76288Y-52682D01*
X76302Y-52653D01*
X76302Y-52568D01*
X76288Y-52539D01*
X76273Y-52525D01*
X76302Y-52996D02*
X76302Y-52825D01*
X76302Y-52910D02*
X76002Y-52910D01*
X76045Y-52882D01*
X76073Y-52853D01*
X76088Y-52825D01*
X93813Y-57779D02*
X93827Y-57765D01*
X93841Y-57722D01*
X93841Y-57693D01*
X93827Y-57651D01*
X93799Y-57622D01*
X93770Y-57608D01*
X93713Y-57593D01*
X93670Y-57593D01*
X93613Y-57608D01*
X93584Y-57622D01*
X93556Y-57651D01*
X93541Y-57693D01*
X93541Y-57722D01*
X93556Y-57765D01*
X93570Y-57779D01*
X93570Y-57893D02*
X93556Y-57908D01*
X93541Y-57936D01*
X93541Y-58008D01*
X93556Y-58036D01*
X93570Y-58051D01*
X93599Y-58065D01*
X93627Y-58065D01*
X93670Y-58051D01*
X93841Y-57879D01*
X93841Y-58065D01*
X93670Y-58236D02*
X93656Y-58208D01*
X93641Y-58193D01*
X93613Y-58179D01*
X93599Y-58179D01*
X93570Y-58193D01*
X93556Y-58208D01*
X93541Y-58236D01*
X93541Y-58293D01*
X93556Y-58322D01*
X93570Y-58336D01*
X93599Y-58351D01*
X93613Y-58351D01*
X93641Y-58336D01*
X93656Y-58322D01*
X93670Y-58293D01*
X93670Y-58236D01*
X93684Y-58208D01*
X93699Y-58193D01*
X93727Y-58179D01*
X93784Y-58179D01*
X93813Y-58193D01*
X93827Y-58208D01*
X93841Y-58236D01*
X93841Y-58293D01*
X93827Y-58322D01*
X93813Y-58336D01*
X93784Y-58351D01*
X93727Y-58351D01*
X93699Y-58336D01*
X93684Y-58322D01*
X93670Y-58293D01*
X92730Y-57759D02*
X92744Y-57745D01*
X92759Y-57702D01*
X92759Y-57674D01*
X92744Y-57631D01*
X92716Y-57602D01*
X92687Y-57588D01*
X92630Y-57574D01*
X92587Y-57574D01*
X92530Y-57588D01*
X92502Y-57602D01*
X92473Y-57631D01*
X92459Y-57674D01*
X92459Y-57702D01*
X92473Y-57745D01*
X92487Y-57759D01*
X92487Y-57874D02*
X92473Y-57888D01*
X92459Y-57917D01*
X92459Y-57988D01*
X92473Y-58017D01*
X92487Y-58031D01*
X92516Y-58045D01*
X92544Y-58045D01*
X92587Y-58031D01*
X92759Y-57859D01*
X92759Y-58045D01*
X92459Y-58145D02*
X92459Y-58345D01*
X92759Y-58217D01*
X98086Y-47809D02*
X98100Y-47823D01*
X98143Y-47837D01*
X98172Y-47837D01*
X98215Y-47823D01*
X98243Y-47795D01*
X98257Y-47766D01*
X98272Y-47709D01*
X98272Y-47666D01*
X98257Y-47609D01*
X98243Y-47580D01*
X98215Y-47552D01*
X98172Y-47537D01*
X98143Y-47537D01*
X98100Y-47552D01*
X98086Y-47566D01*
X97972Y-47566D02*
X97957Y-47552D01*
X97929Y-47537D01*
X97857Y-47537D01*
X97829Y-47552D01*
X97815Y-47566D01*
X97800Y-47595D01*
X97800Y-47623D01*
X97815Y-47666D01*
X97986Y-47837D01*
X97800Y-47837D01*
X97543Y-47537D02*
X97600Y-47537D01*
X97629Y-47552D01*
X97643Y-47566D01*
X97672Y-47609D01*
X97686Y-47666D01*
X97686Y-47780D01*
X97672Y-47809D01*
X97657Y-47823D01*
X97629Y-47837D01*
X97572Y-47837D01*
X97543Y-47823D01*
X97529Y-47809D01*
X97515Y-47780D01*
X97515Y-47709D01*
X97529Y-47680D01*
X97543Y-47666D01*
X97572Y-47652D01*
X97629Y-47652D01*
X97657Y-47666D01*
X97672Y-47680D01*
X97686Y-47709D01*
X79031Y-53585D02*
X79131Y-53443D01*
X79202Y-53585D02*
X79202Y-53285D01*
X79088Y-53285D01*
X79060Y-53300D01*
X79045Y-53314D01*
X79031Y-53343D01*
X79031Y-53385D01*
X79045Y-53414D01*
X79060Y-53428D01*
X79088Y-53443D01*
X79202Y-53443D01*
X78774Y-53385D02*
X78774Y-53585D01*
X78845Y-53271D02*
X78917Y-53485D01*
X78731Y-53485D01*
X78602Y-53585D02*
X78545Y-53585D01*
X78517Y-53571D01*
X78502Y-53557D01*
X78474Y-53514D01*
X78460Y-53457D01*
X78460Y-53343D01*
X78474Y-53314D01*
X78488Y-53300D01*
X78517Y-53285D01*
X78574Y-53285D01*
X78602Y-53300D01*
X78617Y-53314D01*
X78631Y-53343D01*
X78631Y-53414D01*
X78617Y-53443D01*
X78602Y-53457D01*
X78574Y-53471D01*
X78517Y-53471D01*
X78488Y-53457D01*
X78474Y-53443D01*
X78460Y-53414D01*
X79031Y-52562D02*
X79131Y-52419D01*
X79202Y-52562D02*
X79202Y-52262D01*
X79088Y-52262D01*
X79060Y-52276D01*
X79045Y-52290D01*
X79031Y-52319D01*
X79031Y-52362D01*
X79045Y-52390D01*
X79060Y-52405D01*
X79088Y-52419D01*
X79202Y-52419D01*
X78774Y-52362D02*
X78774Y-52562D01*
X78845Y-52248D02*
X78917Y-52462D01*
X78731Y-52462D01*
X78574Y-52390D02*
X78602Y-52376D01*
X78617Y-52362D01*
X78631Y-52333D01*
X78631Y-52319D01*
X78617Y-52290D01*
X78602Y-52276D01*
X78574Y-52262D01*
X78517Y-52262D01*
X78488Y-52276D01*
X78474Y-52290D01*
X78460Y-52319D01*
X78460Y-52333D01*
X78474Y-52362D01*
X78488Y-52376D01*
X78517Y-52390D01*
X78574Y-52390D01*
X78602Y-52405D01*
X78617Y-52419D01*
X78631Y-52448D01*
X78631Y-52505D01*
X78617Y-52533D01*
X78602Y-52548D01*
X78574Y-52562D01*
X78517Y-52562D01*
X78488Y-52548D01*
X78474Y-52533D01*
X78460Y-52505D01*
X78460Y-52448D01*
X78474Y-52419D01*
X78488Y-52405D01*
X78517Y-52390D01*
X96373Y-49944D02*
X96473Y-49801D01*
X96545Y-49944D02*
X96545Y-49644D01*
X96431Y-49644D01*
X96402Y-49658D01*
X96388Y-49672D01*
X96373Y-49701D01*
X96373Y-49744D01*
X96388Y-49772D01*
X96402Y-49787D01*
X96431Y-49801D01*
X96545Y-49801D01*
X96116Y-49744D02*
X96116Y-49944D01*
X96188Y-49629D02*
X96259Y-49844D01*
X96073Y-49844D01*
X95988Y-49644D02*
X95788Y-49644D01*
X95916Y-49944D01*
X96393Y-50967D02*
X96493Y-50825D01*
X96565Y-50967D02*
X96565Y-50667D01*
X96450Y-50667D01*
X96422Y-50682D01*
X96407Y-50696D01*
X96393Y-50725D01*
X96393Y-50767D01*
X96407Y-50796D01*
X96422Y-50810D01*
X96450Y-50825D01*
X96565Y-50825D01*
X96136Y-50767D02*
X96136Y-50967D01*
X96207Y-50653D02*
X96279Y-50867D01*
X96093Y-50867D01*
X95850Y-50667D02*
X95907Y-50667D01*
X95936Y-50682D01*
X95950Y-50696D01*
X95979Y-50739D01*
X95993Y-50796D01*
X95993Y-50910D01*
X95979Y-50939D01*
X95965Y-50953D01*
X95936Y-50967D01*
X95879Y-50967D01*
X95850Y-50953D01*
X95836Y-50939D01*
X95822Y-50910D01*
X95822Y-50839D01*
X95836Y-50810D01*
X95850Y-50796D01*
X95879Y-50782D01*
X95936Y-50782D01*
X95965Y-50796D01*
X95979Y-50810D01*
X95993Y-50839D01*
X96499Y-47405D02*
X96356Y-47305D01*
X96499Y-47234D02*
X96199Y-47234D01*
X96199Y-47348D01*
X96213Y-47376D01*
X96227Y-47391D01*
X96256Y-47405D01*
X96299Y-47405D01*
X96327Y-47391D01*
X96342Y-47376D01*
X96356Y-47348D01*
X96356Y-47234D01*
X96299Y-47662D02*
X96499Y-47662D01*
X96185Y-47591D02*
X96399Y-47519D01*
X96399Y-47705D01*
X96199Y-47876D02*
X96199Y-47905D01*
X96213Y-47934D01*
X96227Y-47948D01*
X96256Y-47962D01*
X96313Y-47976D01*
X96385Y-47976D01*
X96442Y-47962D01*
X96470Y-47948D01*
X96485Y-47934D01*
X96499Y-47905D01*
X96499Y-47876D01*
X96485Y-47848D01*
X96470Y-47834D01*
X96442Y-47819D01*
X96385Y-47805D01*
X96313Y-47805D01*
X96256Y-47819D01*
X96227Y-47834D01*
X96213Y-47848D01*
X96199Y-47876D01*
X95397Y-47622D02*
X95254Y-47522D01*
X95397Y-47450D02*
X95097Y-47450D01*
X95097Y-47564D01*
X95111Y-47593D01*
X95125Y-47607D01*
X95154Y-47622D01*
X95197Y-47622D01*
X95225Y-47607D01*
X95239Y-47593D01*
X95254Y-47564D01*
X95254Y-47450D01*
X95097Y-47722D02*
X95097Y-47907D01*
X95211Y-47807D01*
X95211Y-47850D01*
X95225Y-47879D01*
X95239Y-47893D01*
X95268Y-47907D01*
X95339Y-47907D01*
X95368Y-47893D01*
X95382Y-47879D01*
X95397Y-47850D01*
X95397Y-47764D01*
X95382Y-47736D01*
X95368Y-47722D01*
X95397Y-48050D02*
X95397Y-48107D01*
X95382Y-48136D01*
X95368Y-48150D01*
X95325Y-48179D01*
X95268Y-48193D01*
X95154Y-48193D01*
X95125Y-48179D01*
X95111Y-48164D01*
X95097Y-48136D01*
X95097Y-48079D01*
X95111Y-48050D01*
X95125Y-48036D01*
X95154Y-48022D01*
X95225Y-48022D01*
X95254Y-48036D01*
X95268Y-48050D01*
X95282Y-48079D01*
X95282Y-48136D01*
X95268Y-48164D01*
X95254Y-48179D01*
X95225Y-48193D01*
M02*
