G04 (created by PCBNEW (2013-may-18)-stable) date Sat Feb 17 15:36:07 2018*
%MOIN*%
G04 Gerber Fmt 3.4, Leading zero omitted, Abs format*
%FSLAX34Y34*%
G01*
G70*
G90*
G04 APERTURE LIST*
%ADD10C,0.00590551*%
%ADD11R,0.216535X0.0590551*%
%ADD12R,0.0551181X0.0748031*%
%ADD13R,0.0236X0.0394*%
%ADD14R,0.0394X0.0236*%
%ADD15R,0.03X0.02*%
%ADD16R,0.05X0.025*%
%ADD17R,0.06X0.08*%
%ADD18R,0.08X0.06*%
%ADD19R,0.0590551X0.0137795*%
%ADD20R,0.0393701X0.0137795*%
%ADD21R,0.01X0.0787402*%
%ADD22R,0.0787402X0.01*%
%ADD23R,0.00903543X0.0424331*%
%ADD24R,0.00982283X0.0432205*%
%ADD25R,0.00984252X0.0433071*%
%ADD26R,0.0669291X0.0590551*%
%ADD27R,0.0393701X0.0787402*%
G04 APERTURE END LIST*
G54D10*
G54D11*
X90610Y-53011D03*
X93956Y-53011D03*
G54D12*
X96633Y-59625D03*
X96633Y-57893D03*
X95688Y-57893D03*
X95688Y-59625D03*
X86476Y-47736D03*
X86476Y-49468D03*
X87421Y-49468D03*
X87421Y-47736D03*
G54D13*
X106614Y-57244D03*
X106102Y-57244D03*
X106358Y-56496D03*
X78267Y-49074D03*
X77755Y-49074D03*
X78011Y-48326D03*
G54D14*
X93936Y-60432D03*
X93936Y-60944D03*
X93188Y-60688D03*
G54D15*
X93944Y-49292D03*
X93944Y-48542D03*
X92944Y-49292D03*
X93944Y-48917D03*
X92944Y-48542D03*
G54D16*
X105844Y-48998D03*
X105844Y-48498D03*
X105844Y-47998D03*
X105844Y-47498D03*
X103644Y-47498D03*
X103644Y-47998D03*
X103644Y-48498D03*
X103644Y-48998D03*
G54D17*
X75688Y-48523D03*
X76988Y-48523D03*
G54D18*
X105177Y-61574D03*
X105177Y-62874D03*
X105531Y-58779D03*
X105531Y-60079D03*
X102854Y-48975D03*
X102854Y-50275D03*
X94389Y-58504D03*
X94389Y-57204D03*
X106358Y-51378D03*
X106358Y-50078D03*
G54D17*
X94133Y-55019D03*
X95433Y-55019D03*
X84567Y-50531D03*
X83267Y-50531D03*
G54D18*
X87696Y-50865D03*
X87696Y-52165D03*
G54D17*
X84567Y-51948D03*
X83267Y-51948D03*
G54D18*
X88996Y-50865D03*
X88996Y-52165D03*
G54D17*
X104055Y-58917D03*
X102755Y-58917D03*
X103110Y-62696D03*
X101810Y-62696D03*
X97912Y-58169D03*
X99212Y-58169D03*
X97912Y-60098D03*
X99212Y-60098D03*
X83306Y-49153D03*
X84606Y-49153D03*
X104055Y-57657D03*
X102755Y-57657D03*
G54D18*
X95098Y-50512D03*
X95098Y-49212D03*
G54D17*
X95709Y-51633D03*
X94409Y-51633D03*
G54D19*
X105039Y-49911D03*
G54D20*
X105039Y-50167D03*
X105039Y-50423D03*
X105039Y-50679D03*
X104055Y-50679D03*
X104055Y-50423D03*
X104055Y-50167D03*
X104055Y-49911D03*
G54D21*
X99685Y-50197D03*
X99882Y-50197D03*
X100079Y-50197D03*
X99488Y-50197D03*
G54D22*
X98937Y-50748D03*
X98937Y-50945D03*
X98937Y-51142D03*
X98937Y-51339D03*
X98937Y-51535D03*
X98937Y-51732D03*
X98937Y-51929D03*
X98937Y-52125D03*
G54D21*
X100866Y-52677D03*
X99488Y-52677D03*
X99685Y-52677D03*
X99882Y-52677D03*
X100079Y-52677D03*
X100275Y-52677D03*
X100472Y-52677D03*
X100669Y-52677D03*
G54D22*
X101417Y-52125D03*
X101417Y-51929D03*
X101417Y-51732D03*
X101417Y-51535D03*
X101417Y-51339D03*
X101417Y-51142D03*
X101417Y-50945D03*
X101417Y-50748D03*
G54D21*
X100866Y-50197D03*
X100669Y-50197D03*
X100472Y-50197D03*
X100275Y-50197D03*
G54D23*
X73065Y-46614D03*
X73262Y-46614D03*
X73458Y-46614D03*
G54D24*
X73655Y-46614D03*
G54D25*
X73852Y-46614D03*
X74049Y-46614D03*
X74246Y-46614D03*
X74443Y-46614D03*
X74640Y-46614D03*
X74836Y-46614D03*
X75033Y-46614D03*
X75230Y-46614D03*
X75427Y-46614D03*
X75624Y-46614D03*
X75821Y-46614D03*
X76017Y-46614D03*
X76214Y-46614D03*
X76411Y-46614D03*
X76608Y-46614D03*
X76805Y-46614D03*
X77002Y-46614D03*
X77199Y-46614D03*
X77395Y-46614D03*
X77592Y-46614D03*
X77789Y-46614D03*
X77986Y-46614D03*
X78183Y-46614D03*
X78380Y-46614D03*
X78577Y-46614D03*
X78773Y-46614D03*
G54D26*
X72425Y-45074D03*
X83362Y-45074D03*
G54D25*
X78970Y-46614D03*
X79167Y-46614D03*
X79364Y-46614D03*
X79561Y-46614D03*
X79758Y-46614D03*
X79954Y-46614D03*
X80151Y-46614D03*
X80348Y-46614D03*
X80545Y-46614D03*
X80742Y-46614D03*
X80939Y-46614D03*
X81136Y-46614D03*
X81332Y-46614D03*
X81529Y-46614D03*
X81726Y-46614D03*
X81923Y-46614D03*
X82120Y-46614D03*
X82317Y-46614D03*
X82514Y-46614D03*
X82710Y-46614D03*
G54D18*
X92637Y-57302D03*
X92637Y-58602D03*
X76181Y-53268D03*
X76181Y-51968D03*
G54D17*
X104252Y-53759D03*
X102952Y-53759D03*
X104665Y-51771D03*
X103365Y-51771D03*
X88188Y-47992D03*
X89488Y-47992D03*
X91594Y-47992D03*
X90294Y-47992D03*
X92952Y-47618D03*
X94252Y-47618D03*
X90650Y-49980D03*
X89350Y-49980D03*
X90650Y-49035D03*
X89350Y-49035D03*
G54D18*
X93169Y-55216D03*
X93169Y-56516D03*
G54D17*
X95176Y-47893D03*
X96476Y-47893D03*
G54D18*
X97244Y-56555D03*
X97244Y-55255D03*
G54D17*
X98346Y-53248D03*
X97046Y-53248D03*
G54D27*
X74842Y-43818D03*
X75236Y-42834D03*
X75629Y-43818D03*
X76023Y-42834D03*
X76417Y-43818D03*
X76811Y-42834D03*
X77204Y-43818D03*
X77598Y-42834D03*
X77992Y-43818D03*
X78385Y-42834D03*
X78779Y-43818D03*
X79173Y-42834D03*
X79566Y-43818D03*
X79960Y-42834D03*
X80354Y-43818D03*
X80748Y-42834D03*
X81141Y-43818D03*
X81535Y-42834D03*
X81929Y-43818D03*
X82322Y-42834D03*
X82716Y-43818D03*
M02*
